<?xml version="1.0" encoding="UTF-8"?>
<svg width="600px" height="336px" viewBox="0 0 600 336" version="1.1" xmlns="http://www.w3.org/2000/svg" xmlns:xlink="http://www.w3.org/1999/xlink">
    <title>Combined Shape</title>
    <g id="Layout" stroke="none" stroke-width="1" fill="none" fill-rule="evenodd">
        <g id="1440px-Home" transform="translate(-840.000000, -2877.000000)" fill="#619ECE">
            <g id="About" transform="translate(0.000000, 2734.000000)">
                <g id="Group-242" transform="translate(840.000000, 143.000000)">
                    <path d="M563.723046,280 C566.042518,280 567.97317,281.677297 568.367598,283.877842 L568.367598,283.877842 L630.019209,283.877842 L653.007613,306.786748 L653.007613,337.884351 L660.531182,345.381903 C662.149543,344.312221 664.352958,344.487661 665.779291,345.909062 C667.406903,347.530765 667.406903,350.16125 665.779291,351.783513 C664.151679,353.405496 661.512067,353.405496 659.884175,351.783513 C658.457842,350.362112 658.281793,348.166596 659.355467,346.553553 L659.355467,346.553553 L651.344679,338.570467 L651.344679,307.473144 L629.330432,285.534745 L568.367598,285.534745 C567.97317,287.73529 566.042518,289.412866 563.723046,289.412866 C561.119035,289.412866 559,287.301159 559,284.706154 C559,282.111428 561.119035,280 563.723046,280 Z M533.2177,284 L554.979183,305.955131 L590.751963,305.955131 C591.138589,304.037583 592.819295,302.594334 594.834237,302.594334 C597.134666,302.594334 599,304.476267 599,306.797167 C599,309.118067 597.134666,311 594.834237,311 C592.816774,311 591.134947,309.553077 590.750842,307.631854 L590.750842,307.631854 L554.291099,307.631854 L532.529617,285.676724 L493.124226,285.676724 L485.54326,293.32515 C486.871519,295.184753 486.712666,297.799334 485.055494,299.471535 L485.055494,299.471535 L485.046,299.48 L484.884255,299.635733 C483.091933,301.273751 480.342748,301.273501 478.550674,299.635452 L478.3803,299.471818 C476.5399,297.615324 476.5399,294.593999 478.3803,292.737505 C480.00133,291.10205 482.517766,290.909277 484.352282,292.155514 L484.352282,292.155514 L492.436143,284 L533.2177,284 Z M484.271595,293.528098 C482.862928,292.106614 480.572305,292.106614 479.163639,293.528098 C477.754973,294.949017 477.754973,297.260307 479.163639,298.681225 C480.572305,300.102427 482.862928,300.102427 484.271595,298.681225 C485.679981,297.260307 485.679981,294.949017 484.271595,293.528098 Z M563.723046,281.104882 C561.72988,281.104882 560.108716,282.719881 560.108716,284.706154 C560.108716,286.692706 561.72988,288.307985 563.723046,288.307985 C565.716211,288.307985 567.337095,286.692706 567.337095,284.706154 C567.337095,282.719881 565.716211,281.104882 563.723046,281.104882 Z M412.810648,209 C415.123948,209 417,210.867092 417,213.169344 C417,215.471315 415.123948,217.338408 412.810648,217.338408 C412.175625,217.338408 411.576099,217.193728 411.036865,216.941941 L411.036865,216.941941 L396.490206,231.419126 L318.831679,231.419126 L302.967925,247.207397 L302.967925,274.720581 C303.749167,274.926945 304.488431,275.330141 305.100071,275.938859 C306.950486,277.780156 306.950486,280.777485 305.100071,282.619063 C303.249657,284.460359 300.238225,284.460359 298.387811,282.618782 C296.537396,280.777485 296.537396,277.780156 298.387811,275.938859 C299.19948,275.131067 300.234281,274.677962 301.296692,274.578706 L301.296692,274.578706 L301.296692,246.518768 L318.139464,229.755875 L395.798273,229.755875 L409.683707,215.936476 C409.0253,215.199901 408.621578,214.232569 408.621578,213.169344 C408.621578,210.867092 410.497348,209 412.810648,209 Z M304.312067,276.722819 C302.895801,275.313037 300.592081,275.313037 299.175533,276.722819 C297.758985,278.132602 297.758985,280.42504 299.175815,281.834822 C300.592081,283.244324 302.895801,283.244324 304.312067,281.834822 C305.728615,280.42504 305.728615,278.132602 304.312067,276.722819 Z M448.856542,264.382383 C450.71682,262.539206 453.744585,262.539206 455.60458,264.382383 C457.46514,266.22528 457.46514,269.225214 455.60458,271.068391 C453.947664,272.710357 451.365708,272.88547 449.50628,271.601869 L449.50628,271.601869 L444.401846,276.659662 L409.33896,276.659662 C408.94923,278.565139 407.249546,280 405.211398,280 C402.885768,280 401,278.131285 401,275.827033 C401,273.522781 402.885768,271.654346 405.211398,271.654346 C407.249546,271.654346 408.94923,273.089207 409.33896,274.994965 L409.33896,274.994965 L443.705942,274.994965 L448.318399,270.424626 C447.022889,268.582291 447.199626,266.024629 448.856542,264.382383 Z M454.812659,265.167024 C453.388561,263.756298 451.072844,263.756298 449.648746,265.167024 C448.224932,266.578032 448.224932,268.872743 449.648746,270.283469 C451.072844,271.694477 453.388561,271.694477 454.812659,270.283469 C456.236757,268.872743 456.236757,266.578032 454.812659,265.167024 Z M486.081713,211.38754 C487.92965,209.537487 490.93705,209.537487 492.784987,211.38754 C494.632924,213.237594 494.633205,216.248439 492.784987,218.098493 C491.138781,219.746866 488.573952,219.922351 486.726859,218.633961 L486.726859,218.633961 L476.668995,228.703347 L476.668995,255.320689 L489.662795,268.328811 L636.808153,268.328811 L662.442651,242.664664 L697.716358,242.664664 C698.103221,240.752077 699.791911,239.312145 701.815976,239.312145 C704.12646,239.312145 706,241.18755 706,243.500399 C706,245.813248 704.12646,247.688653 701.815976,247.688653 C699.79163,247.688653 698.103221,246.248439 697.716358,244.335571 L697.716358,244.335571 L663.133658,244.335571 L637.49916,270 L488.971225,270 L475,256.012488 L475,228.011549 L485.546858,217.452326 C484.259942,215.603117 484.435508,213.035914 486.081713,211.38754 Z M407.890924,228.371176 C409.743113,226.542941 412.758175,226.542941 414.610646,228.371176 C416.463118,230.199132 416.463118,233.174746 414.610646,235.00298 C412.960401,236.631635 410.389279,236.805328 408.537653,235.532133 L408.537653,235.532133 L397.442002,246.482891 L324.402497,246.482891 L316.030555,254.745299 L316.030555,259.804955 C317.945641,260.187693 319.387737,261.858378 319.387737,263.860863 C319.387737,266.146713 317.509881,268 315.193727,268 C312.878138,268 311,266.146713 311,263.860863 C311,261.858378 312.442378,260.187693 314.357464,259.804955 L314.357464,259.804955 L314.357464,254.061381 L323.709512,244.83169 L396.7493,244.83169 L407.354756,234.364434 C406.064682,232.537035 406.240396,229.99983 407.890924,228.371176 Z M389.245321,253 C391.866928,253 394,255.080659 394,257.637236 C394,260.194088 391.866928,262.274471 389.245321,262.274471 C386.909892,262.274471 384.966477,260.621835 384.569101,258.45392 L384.569101,258.45392 L334.446141,258.45392 L330.873147,261.938659 C331.748615,263.493304 331.514367,265.48423 330.163628,266.801605 C328.525018,268.399465 325.867568,268.399465 324.228958,266.801605 C322.590347,265.203469 322.590347,262.611385 324.228958,261.013249 C325.747339,259.532372 328.138931,259.426674 329.786008,260.689823 L329.786008,260.689823 L333.752709,256.821102 L384.569101,256.821102 C384.966194,254.652912 386.909892,253 389.245321,253 Z M102.717066,241 C105.033739,241 106.962061,242.673162 107.356293,244.868368 L107.356293,244.868368 L156.47935,244.868368 L169.699846,258.028734 L187.756405,258.028734 C188.141677,256.136219 189.821924,254.711118 191.836483,254.711118 C194.135517,254.711118 196,256.566842 196,258.85542 C196,261.144276 194.135517,263 191.836483,263 C189.821924,263 188.141677,261.5749 187.756405,259.682106 L187.756405,259.682106 L169.01162,259.682106 L155.791684,246.52174 L107.356293,246.52174 C106.962341,248.717225 105.034019,250.390944 102.717066,250.390944 C100.116198,250.390944 98,248.284093 98,245.695333 C98,243.106294 100.116198,241 102.717066,241 Z M389.245321,254.088637 C387.238687,254.088637 385.60685,255.680166 385.60685,257.637236 C385.60685,259.594305 387.238687,261.185834 389.245321,261.185834 C391.251955,261.185834 392.883792,259.594305 392.883792,257.637236 C392.883792,255.680166 391.251955,254.088637 389.245321,254.088637 Z M102.717066,242.102063 C100.726305,242.102063 99.1073779,243.713627 99.1073779,245.695333 C99.1073779,247.677317 100.726305,249.288603 102.717066,249.288603 C104.707826,249.288603 106.326753,247.677317 106.326753,245.695333 C106.326753,243.713627 104.707826,242.102063 102.717066,242.102063 Z M413.821766,229.149456 C412.403644,227.750166 410.097644,227.750166 408.679522,229.149456 C407.261681,230.549024 407.261681,232.824854 408.679522,234.224422 C410.097644,235.62399 412.403644,235.62399 413.821766,234.224422 C415.239889,232.824854 415.239889,230.549024 413.821766,229.149456 Z M56.7280145,167 C59.3349194,167 61.4560291,169.12634 61.4560291,171.739045 C61.4560291,174.066795 59.7710407,176.004102 57.5604055,176.399889 L57.5604055,176.399889 L57.5604055,206.480323 L78.362603,227.331053 L169.178818,227.331053 L177.34697,219.143844 C176.272103,217.519904 176.448347,215.308894 177.876265,213.877925 C179.505686,212.244422 182.148514,212.244422 183.777934,213.877925 C185.407355,215.510866 185.407355,218.159578 183.777934,219.793082 C182.350016,221.224331 180.144433,221.400987 178.523992,220.323893 L178.523992,220.323893 L169.868361,229 L77.6733406,229 L55.8956235,207.171193 L55.8956235,176.399889 C53.6849884,176.00382 52,174.066795 52,171.739045 C52,169.12634 54.1213903,167 56.7280145,167 Z M589.252034,158 C591.870095,158 594,160.126865 594,162.740215 C594,165.06854 592.307801,167.006325 590.087988,167.40221 L590.087988,167.40221 L590.087988,200.392668 L566.790375,223.650871 L515.297807,223.650871 C514.909988,225.561363 513.218634,227 511.190757,227 C508.876526,227 507,225.126648 507,222.816332 C507,220.506015 508.876526,218.632663 511.190757,218.632663 C513.218634,218.632663 514.91027,220.0713 515.297807,221.981793 L515.297807,221.981793 L566.098163,221.981793 L588.416081,199.701627 L588.416081,167.40221 C586.195986,167.006043 584.503787,165.06854 584.503787,162.740215 C584.503787,160.126865 586.634256,158 589.252034,158 Z M491.998038,212.175391 C490.583668,210.759119 488.283032,210.759119 486.868381,212.175391 C485.454011,213.591381 485.454011,215.894653 486.868662,217.310643 C488.283032,218.727196 490.583668,218.727196 491.998038,217.310643 C493.41297,215.894653 493.41297,213.591381 491.998038,212.175391 Z M646.38721,184.385234 C648.236918,182.538255 651.247199,182.538255 653.096907,184.385234 C654.744972,186.031118 654.920705,188.594727 653.632274,190.441143 L653.632274,190.441143 L662.186328,198.983878 L756.708702,198.983878 C757.095935,197.07418 758.785962,195.63586 760.812248,195.63586 C763.124946,195.63586 765,197.508433 765,199.817789 C765,202.127427 763.124946,204 760.812248,204 C758.785962,204 757.095935,202.561961 756.708702,200.652263 L756.708702,200.652263 L661.494659,200.652263 L652.450861,191.620993 C650.60228,192.907157 648.035557,192.731937 646.387774,191.086615 L646.387774,191.086615 C644.537503,189.238511 644.537784,186.232495 646.38721,184.385234 Z M553.857193,44 C556.159693,44 558.026706,45.8740653 558.026706,48.1852624 C558.026706,48.9047143 557.845276,49.5813819 557.527004,50.1727624 L557.527004,50.1727624 L576,68.7158193 L576,176.347065 L549.447083,203 L460.587869,203 L444.046382,186.396311 L416.349085,186.396311 C416.172143,187.280989 415.744227,188.124853 415.062254,188.809402 C413.220479,190.658134 410.223107,190.658134 408.381332,188.809683 C406.539556,186.960951 406.539556,183.951976 408.381332,182.103525 C410.223107,180.254511 413.220479,180.254511 415.062254,182.103525 C415.797787,182.841835 416.234675,183.765639 416.382455,184.726315 L416.382455,184.726315 L444.735084,184.726315 L461.276852,201.330286 L548.7581,201.330286 L574.336569,175.655198 L574.336569,69.4071236 L556.45357,51.4565731 C555.741031,52.0274058 554.839492,52.3705247 553.857193,52.3705247 C551.554694,52.3705247 549.687681,50.4964594 549.687681,48.1852624 C549.687681,45.8740653 551.554694,44 553.857193,44 Z M652.308922,185.171614 C650.893198,183.758043 648.590638,183.758043 647.174913,185.171895 C645.759188,186.585747 645.759188,188.885541 647.174913,190.299674 C648.590638,191.713806 650.893479,191.713806 652.309204,190.299674 C653.72521,188.885822 653.725492,186.586309 652.309767,185.172176 C652.353982,185.216333 652.398197,185.260208 652.440159,185.302396 L652.434,185.296 L652.219376,185.081978 L652.219376,185.081978 L652.178812,185.041394 Z M414.277929,182.890531 C412.868276,181.475271 410.57531,181.475271 409.165656,182.890531 C407.755722,184.305509 407.755442,186.607136 409.165656,188.022396 C410.57531,189.437374 412.868276,189.437374 414.277929,188.022396 C415.687863,186.607136 415.687863,184.305509 414.277929,182.890531 Z M4.73278857,127 C7.05746509,127 8.99193307,128.699552 9.38747924,130.929012 L9.38747924,130.929012 L27.8418992,130.929012 L44.7146964,147.930763 L119.497644,147.930763 L133.655837,162.197209 L133.655837,177.666136 C135.563336,178.055357 137,179.75406 137,181.791032 C137,184.11532 135.129584,186 132.822886,186 C130.516189,186 128.645492,184.11532 128.645492,181.791032 C128.645492,179.75406 130.081875,178.05564 131.989374,177.666136 L131.989374,177.666136 L131.989374,162.892712 L118.807405,149.609934 L44.0241762,149.609934 L27.1519409,132.608466 L9.38747924,132.608466 C8.992214,134.837926 7.05746509,136.537761 4.73278857,136.537761 C2.12325138,136.537761 0,134.398035 0,131.768881 C0,129.139443 2.12325138,127 4.73278857,127 Z M736.799856,135 C739.119398,135 741,136.892311 741,139.225658 C741,141.270286 739.555794,142.975611 737.637908,143.366633 L737.637908,143.366633 L737.637908,165.794734 L722.524451,181 L661.533954,181 L655.47298,174.901923 C653.618928,176.202016 651.044328,176.024692 649.391386,174.361994 C647.536205,172.495827 647.536205,169.458013 649.391386,167.591563 C651.246567,165.725112 654.265756,165.725112 656.120937,167.591563 C657.773597,169.254261 657.94985,171.844786 656.657889,173.7101 L656.657889,173.7101 L662.227952,179.314283 L721.830735,179.314283 L735.962087,165.09652 L735.962087,143.366633 C734.0442,142.975611 732.599995,141.270286 732.599995,139.225658 C732.599995,136.892311 734.480597,135 736.799856,135 Z M69.2116763,162 C71.2495385,162 72.9492204,163.434852 73.3386659,165.340317 L73.3386659,165.340317 L108.401791,165.340317 L113.506502,170.39836 C115.365644,169.114486 117.947314,169.289598 119.604794,170.931554 C121.465069,172.77472 121.465069,175.774354 119.604794,177.61752 C117.744519,179.460686 114.71704,179.460967 112.856765,177.61752 C111.199285,175.975565 111.022831,173.417639 112.318339,171.575315 L112.318339,171.575315 L107.705888,167.005284 L73.3386659,167.005284 C72.9492204,168.910469 71.2495385,170.345602 69.2116763,170.345602 C66.885766,170.345602 65,168.476899 65,166.172661 C65,163.868423 66.885766,162 69.2116763,162 Z M118.812591,171.716471 C117.388778,170.305472 115.072781,170.305472 113.648685,171.716471 C112.224872,173.127189 112.224589,175.421885 113.648685,176.832603 C115.072781,178.243882 117.388778,178.243882 118.812591,176.832603 C120.236687,175.421885 120.236687,173.127189 118.812591,171.716471 Z M56.7280145,168.112538 C54.7326336,168.112538 53.1099482,169.739009 53.1099482,171.739045 C53.1099482,173.739082 54.7326336,175.365834 56.7280145,175.365834 C58.7233955,175.365834 60.3460808,173.739082 60.3460808,171.739045 C60.3460808,169.739009 58.7233955,168.112538 56.7280145,168.112538 Z M655.330904,168.386396 C653.910989,166.957572 651.601334,166.957572 650.181137,168.386396 C648.761223,169.815219 648.761223,172.138621 650.18142,173.567445 C651.601334,174.995985 653.910989,174.995985 655.330904,173.567445 C656.7511,172.138621 656.7511,169.815219 655.330904,168.386396 Z M444.408373,142 L457.521374,155.217318 C459.14218,154.133751 461.348924,154.311468 462.777412,155.751037 C464.407483,157.394358 464.407483,160.05899 462.777693,161.702028 C461.147341,163.345067 458.50374,163.345067 456.873389,161.702028 C455.445182,160.262459 455.268586,158.038443 456.343883,156.40446 L456.343883,156.40446 L443.718555,143.678695 L396.313707,143.678695 L382.395497,157.707911 L313.388701,157.707911 L310.605565,160.513188 C311.890025,162.370733 311.714833,164.950184 310.071847,166.605957 C308.228121,168.464634 305.227118,168.464634 303.383111,166.60624 C301.539104,164.747564 301.538823,161.722686 303.383111,159.86401 C305.025815,158.207954 307.584908,158.031368 309.428073,159.326046 L309.428073,159.326046 L312.698883,156.029216 L381.705679,156.029216 L395.624169,142 L444.408373,142 Z M309.286853,160.655249 C307.87521,159.232377 305.579747,159.232377 304.168105,160.655249 C302.756463,162.078121 302.756463,164.392129 304.168105,165.814718 C305.579747,167.237307 307.87521,167.237307 309.286853,165.814718 C310.698495,164.392129 310.698495,162.078121 309.286853,160.655249 Z M589.252034,159.112812 C587.247833,159.112812 585.618485,160.739685 585.618485,162.740215 C585.618485,164.740745 587.247833,166.3679 589.252034,166.3679 C591.255954,166.3679 592.885584,164.740745 592.885584,162.740215 C592.885584,160.739685 591.255954,159.112812 589.252034,159.112812 Z M366.826099,134 C369.131022,134 371,135.861178 371,138.156136 C371,140.451095 369.131022,142.311993 366.826099,142.311993 C364.806098,142.311993 363.121548,140.882919 362.73557,138.985127 L362.73557,138.985127 L286.270852,138.985127 L275.604372,149.605215 C276.888347,151.44012 276.713464,153.987745 275.070739,155.623088 C273.227026,157.45911 270.22678,157.458831 268.382785,155.623088 C266.539072,153.787624 266.539072,150.800069 268.382785,148.964047 C270.02551,147.328703 272.584196,147.154297 274.426787,148.432721 L274.426787,148.432721 L285.581143,137.326865 L362.73557,137.326865 C363.121548,135.429074 364.806098,134 366.826099,134 Z M274.28587,149.745803 C272.874452,148.340486 270.579073,148.340486 269.167936,149.745803 C267.756518,151.151119 267.756518,153.436295 269.167936,154.841611 C270.579073,156.246648 272.874452,156.246927 274.28587,154.841611 C275.697288,153.436295 275.697288,151.151119 274.28587,149.745803 Z M359.829532,88 C362.132559,88 364,89.8563907 364,92.1457906 C364,94.4351905 362.132559,96.2918601 359.829532,96.2918601 C357.811193,96.2918601 356.128029,94.8662479 355.742087,92.9730528 L355.742087,92.9730528 L272.842931,92.9730528 L265.557164,100.21543 L265.557164,129.682915 C267.766511,130.075495 269.450517,131.995457 269.450517,134.302701 C269.450517,136.89267 267.330363,139 264.725258,139 C262.119873,139 260,136.89267 260,134.302701 C260,131.995736 261.684006,130.075495 263.893353,129.683194 L263.893353,129.683194 L263.893353,99.5303669 L272.15407,91.3188073 L355.742087,91.3188073 C356.128029,89.4256122 357.811193,88 359.829532,88 Z M264.725258,130.70814 C262.731041,130.70814 261.109301,132.320283 261.109301,134.302701 C261.109301,136.285398 262.731041,137.897263 264.725258,137.897263 C266.719476,137.897263 268.341216,136.285398 268.341216,134.302701 C268.341216,132.320283 266.719476,130.70814 264.725258,130.70814 Z M4.73278857,128.119542 C2.73539279,128.119542 1.11106896,129.756253 1.11106896,131.768881 C1.11106896,133.781508 2.73539279,135.418219 4.73278857,135.418219 C6.73018435,135.418219 8.35450817,133.781508 8.35450817,131.768881 C8.35450817,129.756253 6.73018435,128.119542 4.73278857,128.119542 Z M538.794769,3 C541.14989,3 543.109691,4.69238124 543.510418,6.91271552 L543.510418,6.91271552 L573.180097,6.91271552 L588.612326,22.1965755 L588.612326,119.7013 C590.544806,120.088879 592,121.780696 592,123.808791 C592,126.123272 590.105089,128 587.767898,128 C585.430993,128 583.536081,126.123272 583.536081,123.808791 C583.536081,121.780696 584.991275,120.088879 586.923755,119.7013 L586.923755,119.7013 L586.923755,22.8888621 L572.481103,8.58480172 L543.510418,8.58480172 C543.109691,10.805136 541.14989,12.4975172 538.794769,12.4975172 C536.151057,12.4975172 534,10.3668194 534,7.74875862 C534,5.13041596 536.151057,3 538.794769,3 Z M745.826096,41 C748.131021,41 750,42.8609122 750,45.1558882 C750,47.4508642 748.131021,49.3117764 745.826096,49.3117764 C743.806375,49.3117764 742.121543,47.882692 741.735564,45.9848857 L741.735564,45.9848857 L665.270794,45.9848857 L654.604308,56.6050541 C655.888283,58.4399728 655.7134,60.9876169 654.070955,62.6229725 C652.22724,64.4590092 649.226712,64.4590092 647.382997,62.6229725 C645.539001,60.7874948 645.539001,57.7999174 647.382997,55.9641602 C649.025442,54.3285251 651.58413,54.154117 653.427002,55.4328303 L653.427002,55.4328303 L664.581086,44.3268907 L741.735564,44.3268907 C742.121543,42.4288049 743.806375,41 745.826096,41 Z M653.285804,56.7456427 C651.874666,55.3405953 649.579286,55.3403158 648.168148,56.7456427 C646.756448,58.1509696 646.756448,60.4361631 648.168148,61.84149 C649.579286,63.2468169 651.874666,63.2468169 653.285804,61.84149 C654.697223,60.4361631 654.697223,58.1509696 653.285804,56.7456427 Z M321.804938,4.21527794 C323.450738,2.59490735 326.120132,2.59490735 327.76565,4.21527794 C329.41145,5.83592761 329.41145,8.46379696 327.76565,10.0841675 C326.323661,11.5041547 324.095906,11.6794204 322.459176,10.6108019 L322.459176,10.6108019 L311.180651,21.715057 L277.839725,21.715057 L261.688713,37.6162341 C262.985568,39.4484306 262.808685,41.9922952 261.149845,43.6252247 C259.288327,45.4582584 256.258365,45.4582584 254.396564,43.6252247 C252.534479,41.7921909 252.534479,38.8090457 254.396564,36.9760119 C256.05512,35.3430825 258.638908,35.1689331 260.499859,36.4454703 L260.499859,36.4454703 L277.143251,20.0592425 L310.484177,20.0592425 L321.270038,9.44031723 C320.184649,7.82887738 320.362665,5.63526511 321.804938,4.21527794 Z M260.357276,37.7566142 C258.932011,36.3533721 256.614114,36.3533721 255.189133,37.7566142 C253.763869,39.1595771 253.763869,41.4416595 255.189133,42.8446225 C256.614114,44.2478645 258.932011,44.2478645 260.357276,42.8446225 C261.78254,41.4416595 261.78254,39.1595771 260.357276,37.7566142 Z M538.794769,4.11481809 C536.771215,4.11481809 535.12562,5.74462294 535.12562,7.74875862 C535.12562,9.7528943 536.771215,11.3826992 538.794769,11.3826992 C540.818323,11.3826992 542.463919,9.7528943 542.463919,7.74875862 C542.463919,5.74462294 540.818323,4.11481809 538.794769,4.11481809 Z M627.96358,33.9637307 C627.976517,33.9766639 628.001266,34.0014058 628.03642,34.0362693 C627.998453,33.9985942 627.975392,33.9755393 627.96358,33.9637307 M629.0727,36.0725386 C629.058638,36.0584807 629.005484,36.005342 628.9273,35.9274614 C629.012515,36.0123709 629.057795,36.0576372 629.0727,36.0725386 M421.808459,296 C424.123123,296 426,297.871255 426,300.178986 C426,302.486717 424.123123,304.357972 421.808459,304.357972 C419.779921,304.357972 418.08797,302.921226 417.70036,301.012872 L417.70036,301.012872 L401.790602,301.012872 L385.65589,317.098695 L354.419621,317.098695 C354.02299,319.312554 352.081841,321 349.749135,321 C347.130585,321 345,318.875797 345,316.26509 C345,313.654664 347.130585,311.530461 349.749135,311.530461 C352.081559,311.530461 354.02299,313.217906 354.419621,315.431485 L354.419621,315.431485 L384.963548,315.431485 L401.097979,299.345381 L417.70036,299.345381 C418.08797,297.437027 419.779921,296 421.808459,296 Z M349.749135,312.642028 C347.744559,312.642028 346.114625,314.266799 346.114625,316.26509 C346.114625,318.263662 347.744559,319.888714 349.749135,319.888714 C351.75343,319.888714 353.383364,318.263662 353.383364,316.26509 C353.383364,314.266799 351.75343,312.642028 349.749135,312.642028 Z M367.91252,290.232724 C369.533704,288.589092 372.162893,288.589092 373.784077,290.232724 C375.405261,291.876357 375.405261,294.542235 373.784356,296.185584 C372.162893,297.829499 369.533704,297.829499 367.91252,296.185584 C367.276443,295.540983 366.893625,294.738134 366.756804,293.902163 L366.756804,293.902163 L337.753076,293.902163 L324.851174,306.983281 C325.205791,307.653359 325.40823,308.418274 325.40823,309.230465 C325.40823,311.860107 323.297842,314 320.704115,314 C318.110667,314 316,311.860107 316,309.230465 C316,306.601106 318.110667,304.461497 320.704115,304.461497 C321.896408,304.461497 322.982876,304.916992 323.813013,305.660958 L323.813013,305.660958 L337.067298,292.222578 L366.816559,292.222578 C366.98912,291.493616 367.351555,290.801739 367.91252,290.232724 Z M320.704115,305.581126 C318.71882,305.581126 317.104338,307.217681 317.104338,309.230465 C317.104338,311.243533 318.71882,312.880371 320.704115,312.880371 C322.689689,312.880371 324.304171,311.243533 324.304171,309.230465 C324.304171,307.217681 322.689689,305.581126 320.704115,305.581126 Z M350.171182,270 C352.189451,270 353.872791,271.456443 354.258492,273.39058 L354.258492,273.39058 L386.635506,273.39058 L400.467169,287.436577 L462.614419,287.436577 C462.976838,285.153497 464.92554,283.402519 467.27425,283.402519 C469.879626,283.402519 472,285.555137 472,288.201117 C472,290.846812 469.879626,293 467.27425,293 C464.98024,293 463.064637,291.330774 462.638543,289.126313 L462.638543,289.126313 L399.778237,289.126313 L385.946574,275.0806 L354.258492,275.0806 C353.872791,277.014738 352.189451,278.471181 350.171182,278.471181 C347.867915,278.471181 346,276.574358 346,274.235448 C346,271.896537 347.867915,270 350.171182,270 Z M467.27425,284.528819 C465.279824,284.528819 463.657635,286.175827 463.657635,288.201117 C463.657635,290.226692 465.279824,291.873415 467.27425,291.873415 C469.268675,291.873415 470.890583,290.226692 470.890583,288.201117 C470.890583,286.175827 469.268675,284.528819 467.27425,284.528819 Z M685.250583,223 C687.869133,223 690,225.124203 690,227.73491 C690,230.345336 687.869133,232.469539 685.250583,232.469539 C682.918159,232.469539 680.976728,230.782094 680.580097,228.568234 L680.580097,228.568234 L650.03617,228.568234 L633.901739,244.654619 L617.299358,244.654619 C616.911749,246.562973 615.219797,248 613.191541,248 C610.876877,248 609,246.128745 609,243.821014 C609,241.513283 610.876877,239.642028 613.191541,239.642028 C615.219797,239.642028 616.911467,241.078774 617.299358,242.987128 L617.299358,242.987128 L633.209398,242.987128 L649.343829,226.901305 L680.580097,226.901305 C680.976728,224.687446 682.918159,223 685.250583,223 Z M685.250583,224.111286 C683.24657,224.111286 681.616354,225.736338 681.616354,227.73491 C681.616354,229.733201 683.24657,231.357972 685.250583,231.357972 C687.254878,231.357972 688.885094,229.733201 688.885094,227.73491 C688.885094,225.736338 687.254878,224.111286 685.250583,224.111286 Z M430.128811,216 C432.216125,216 433.937735,217.549092 434.214303,219.557975 L434.214303,219.557975 L445.450311,219.557975 L448.547266,222.577679 C450.376894,221.226036 452.97486,221.372182 454.632049,223.026377 L454.624,223.018 L454.855,223.249 L454.632604,223.027209 C456.398869,224.791707 456.454064,227.628457 454.797939,229.459719 L454.632326,229.633729 C452.80853,231.455424 449.840418,231.455424 448.016621,229.633729 C446.418856,228.038325 446.221148,225.565768 447.422666,223.75267 L447.422666,223.75267 L444.768331,221.164195 L434.119615,221.164195 C433.657279,222.936804 432.048129,224.247126 430.128811,224.247126 C427.848788,224.247126 426,222.400473 426,220.123424 C426,217.846376 427.848788,216 430.128811,216 Z M453.855658,223.80231 C452.459765,222.408238 450.189183,222.408238 448.79329,223.80231 C447.396842,225.196659 447.396842,227.464002 448.793012,228.858351 C450.189183,230.2527 452.459765,230.2527 453.855658,228.858351 C455.251828,227.464002 455.251828,225.196659 453.855658,223.80231 Z M191.813215,190 C194.125253,190 196,191.861669 196,194.157579 C196,196.453489 194.125253,198.315158 191.813215,198.315158 C189.771774,198.315158 188.073576,196.863403 187.703301,194.943294 L187.703301,194.943294 L177.812025,194.943294 L161.420518,211.220459 L108.393446,211.220459 C107.956718,213.373206 106.038045,215 103.743465,215 C101.128167,215 99,212.886678 99,210.289624 C99,207.69229 101.128167,205.578969 103.743465,205.578969 C106.109003,205.578969 108.070476,207.309499 108.424701,209.561509 L108.424701,209.561509 L160.728681,209.561509 L177.120187,193.284345 L187.720477,193.284345 C188.124823,191.407856 189.802747,190 191.813215,190 Z M103.743465,206.684562 C101.741445,206.684562 100.11336,208.30129 100.11336,210.289624 C100.11336,212.277679 101.741445,213.894127 103.743465,213.894127 C105.745767,213.894127 107.37357,212.277679 107.37357,210.289624 C107.37357,208.30129 105.745767,206.684562 103.743465,206.684562 Z M537.298734,90 C539.890765,90 542,92.1152879 542,94.7150377 C542,96.9330393 540.462586,98.7933619 538.402468,99.2932169 L538.402468,99.2932169 L538.402468,139.597035 L508.53271,169.552232 L481.234053,169.552232 C480.895817,171.509671 479.198215,173 477.149818,173 C474.858348,173 473,171.136599 473,168.838553 C473,166.540508 474.858348,164.677106 477.149818,164.677106 C479.116167,164.677106 480.759629,166.050728 481.187448,167.892019 L481.187448,167.892019 L507.847307,167.892019 L536.746727,138.909385 L536.746727,99.3945313 C534.413954,99.1194152 532.597188,97.1272719 532.597188,94.7150377 C532.597188,92.1152879 534.706423,90 537.298734,90 Z M135.740584,131 C138.06909,131 140.007026,132.684233 140.402942,134.893877 L140.402942,134.893877 L155.005135,134.893877 L175.453214,155.278313 L186.672532,155.278313 C186.943511,153.235858 188.693197,151.657942 190.816006,151.657942 C193.126503,151.657942 195,153.525634 195,155.828971 C195,158.132308 193.126503,160 190.816006,160 C188.892984,160 187.276396,158.704285 186.787339,156.942349 L186.787339,156.942349 L174.76212,156.942349 L154.314041,136.557913 L140.402942,136.557913 C140.007026,138.767557 138.06909,140.45179 135.740584,140.45179 C133.12703,140.45179 131,138.331631 131,135.725895 C131,133.120439 133.12703,131 135.740584,131 Z M775.287686,121 C777.885934,121 780,123.137334 780,125.764178 C780,128.391023 777.885934,130.528356 775.287686,130.528356 C773.070965,130.528356 771.211717,128.970744 770.711871,126.882616 L770.711871,126.882616 L726.972967,126.882616 L714.360456,139.63394 L689.235012,139.63394 C688.850408,141.55409 687.171574,143 685.159323,143 C683.146792,143 681.467959,141.55409 681.083354,139.63394 L681.083354,139.63394 L681,139.63394 L681,137.956424 L681.083354,137.956424 C681.467959,136.036274 683.146792,134.590082 685.159323,134.590082 C687.171854,134.590082 688.850408,136.036274 689.235012,137.956424 L689.235012,137.956424 L713.673482,137.956424 L726.285993,125.204818 L770.610895,125.204818 C770.885852,122.841251 772.876845,121 775.287686,121 Z M135.740584,132.109451 C133.739899,132.109451 132.112899,133.731408 132.112899,135.725895 C132.112899,137.720381 133.739899,139.342339 135.740584,139.342339 C137.741552,139.342339 139.36827,137.720381 139.36827,135.725895 C139.36827,133.731408 137.741552,132.109451 135.740584,132.109451 Z M353.818993,59 C356.127685,59 358,60.871465 358,63.1791087 C358,65.4867523 356.127685,67.3579363 353.818993,67.3579363 C351.795971,67.3579363 350.108385,65.9209637 349.721775,64.0126821 L349.721775,64.0126821 L247.950111,64.0126821 L229.570833,82.3841787 L229.570833,129.608669 C231.785614,130.004096 233.473762,131.939639 233.473762,134.265269 C233.473762,136.875877 231.348393,139 228.736881,139 C226.125087,139 224,136.875877 224,134.265269 C224,131.939639 225.688148,130.004096 227.902929,129.608669 L227.902929,129.608669 L227.902929,81.6936562 L247.259275,62.3455353 L349.721775,62.3455353 C350.108385,60.4372536 351.795971,59 353.818993,59 Z M361.268324,71 C363.876967,71 366,73.1257559 366,75.7383712 C366,78.3509865 363.876967,80.4767424 361.268324,80.4767424 C358.944194,80.4767424 357.010181,78.788063 356.614727,76.5725855 L356.614727,76.5725855 L258.016283,76.5725855 L246.009167,88.5969723 L246.009167,130.719452 C247.916218,131.106184 249.352263,132.794019 249.352263,134.817678 C249.352263,137.127377 247.482287,139 245.176132,139 C242.869977,139 241,137.127377 241,134.817678 C241,132.794019 242.436046,131.106184 244.343096,130.719452 L244.343096,130.719452 L244.343096,87.9062001 L257.326487,74.9041568 L356.614727,74.9041568 C357.0099,72.6886793 358.944194,71 361.268324,71 Z M189.817063,114 C192.126976,114 194,115.884112 194,118.207066 C194,120.530304 192.126976,122.414416 189.817063,122.414416 C187.792689,122.414416 186.104492,120.96745 185.717678,119.046273 L185.717678,119.046273 L125.0115,119.046273 L110.071756,134.07248 L72.4005665,134.07248 C72.0044689,136.301215 70.067304,138 67.7393866,138 C65.1262114,138 63,135.861523 63,133.233274 C63,130.605308 65.1262114,128.466548 67.7393866,128.466548 C70.0670227,128.466548 72.0044689,130.165333 72.4002852,132.394068 L72.4002852,132.394068 L109.380554,132.394068 L124.320579,117.36786 L185.717678,117.36786 C186.104492,115.446683 187.79297,114 189.817063,114 Z M228.736881,130.642064 C226.737758,130.642064 225.11203,132.267054 225.11203,134.265269 C225.11203,136.263485 226.737758,137.888475 228.736881,137.888475 C230.736004,137.888475 232.361732,136.263485 232.361732,134.265269 C232.361732,132.267054 230.736004,130.642064 228.736881,130.642064 Z M67.7393866,129.585584 C65.7389249,129.585584 64.1126179,131.221555 64.1126179,133.233274 C64.1126179,135.244993 65.7389249,136.880964 67.7393866,136.880964 C69.739567,136.880964 71.3661554,135.244993 71.3661554,133.233274 C71.3661554,131.221555 69.739567,129.585584 67.7393866,129.585584 Z M775.287686,122.118438 C773.298651,122.118438 771.681634,123.753535 771.681634,125.764178 C771.681634,127.774821 773.298651,129.409918 775.287686,129.409918 C777.276441,129.409918 778.893738,127.774821 778.893738,125.764178 C778.893738,123.753535 777.276441,122.118438 775.287686,122.118438 Z M392.224756,100.201386 C393.857765,98.5995379 396.506411,98.5995379 398.13942,100.201386 C398.766635,100.816633 399.150558,101.579484 399.29597,102.375718 L399.29597,102.375718 L477.561967,102.375718 L489.80475,114.385167 C490.522531,113.955874 491.361536,113.703982 492.261575,113.703982 C494.873939,113.703982 497,115.789199 497,118.351991 C497,120.914783 494.873939,123 492.261575,123 C489.64893,123 487.523432,120.914783 487.523432,118.351991 C487.523432,117.263308 487.909605,116.262911 488.551164,115.469988 L488.551164,115.469988 L476.871187,104.012329 L399.256031,104.012329 C399.087555,104.741521 398.717976,105.435397 398.13942,106.00319 C396.506411,107.605039 393.857765,107.605039 392.224756,106.00319 C390.591748,104.401342 390.591748,101.803511 392.224756,100.201386 Z M492.261575,114.795148 C490.261519,114.795148 488.635543,116.390375 488.635543,118.351991 C488.635543,120.313607 490.261519,121.908834 492.261575,121.908834 C494.26135,121.908834 495.887608,120.313607 495.887608,118.351991 C495.887608,116.390375 494.26135,114.795148 492.261575,114.795148 Z M744.899306,80.4058623 C746.749645,78.5313792 749.761695,78.5313792 751.612034,80.4058623 C753.462655,82.2800599 753.462655,85.3301968 751.612034,87.2041091 C749.761695,89.0785921 746.749645,89.0785921 744.899306,87.2041091 C744.26731,86.5646333 743.8565,85.7867614 743.656448,84.9666572 L743.656448,84.9666572 L701.666111,84.9666572 L689.533665,97.2539519 L623.541604,97.2539519 L607.642266,113.355558 C608.10633,114.038693 608.379358,114.865075 608.379358,115.756803 C608.379358,118.099835 606.503378,120 604.189538,120 C601.87598,120 600,118.099835 600,115.756803 C600,113.41377 601.87598,111.513891 604.189538,111.513891 C605.017922,111.513891 605.788263,111.760721 606.438291,112.181046 L606.438291,112.181046 L622.849594,95.5609533 L688.841091,95.5609533 L700.973818,83.273944 L743.542615,83.273944 C743.657011,82.2255575 744.106987,81.2077038 744.899306,80.4058623 Z M139.912271,95.2327243 C141.533735,93.5890919 144.162926,93.5890919 145.784111,95.2327243 C147.405296,96.8763567 147.405296,99.5422345 145.784111,101.185584 C144.162926,102.829216 141.533735,102.829216 139.912271,101.185867 C139.276474,100.540983 138.893655,99.7384173 138.756835,98.9021634 L138.756835,98.9021634 L109.753089,98.9021634 L96.8511797,111.983281 C97.2057965,112.653359 97.4082353,113.418274 97.4082353,114.230748 C97.4082353,116.860107 95.2978464,119 92.7041176,119 C90.1106681,119 88,116.860107 88,114.230748 C88,111.601106 90.1106681,109.461497 92.7041176,109.461497 C93.8961327,109.461497 94.9828797,109.917275 95.8127389,110.660958 L95.8127389,110.660958 L109.06731,97.2228614 L138.816589,97.2228614 C138.98915,96.4938994 139.351586,95.8014562 139.912271,95.2327243 Z M92.7041176,110.581126 C90.718822,110.581126 89.1043382,112.217964 89.1043382,114.230748 C89.1043382,116.243533 90.718822,117.880371 92.7041176,117.880371 C94.6894133,117.880371 96.3038971,116.243533 96.3038971,114.230748 C96.3038971,112.217964 94.6894133,110.581126 92.7041176,110.581126 Z M28.7415287,82 C31.021808,82 32.9305779,83.6390045 33.3811737,85.8142758 L33.3811737,85.8142758 L180.181119,85.8142758 L187.505482,93.2296883 C189.130554,92.1386333 191.342442,92.3175789 192.774441,93.7673798 C194.40852,95.4217713 194.40852,98.1048148 192.774441,99.7592064 C191.140363,101.413598 188.489982,101.413598 186.855904,99.7592064 C185.423904,98.3096904 185.247437,96.0700215 186.324814,94.4247482 L186.324814,94.4247482 L179.489605,87.5045704 L33.4262051,87.5045704 C33.087625,89.8177551 31.118907,91.6009418 28.7415287,91.6009418 C26.1271724,91.6009418 24,89.4470414 24,86.8004709 C24,84.1536154 26.1271724,82 28.7415287,82 Z M537.298734,91.1069018 C535.314244,91.1069018 533.700643,92.7251334 533.700643,94.7150377 C533.700643,96.704942 535.314244,98.3231736 537.298734,98.3231736 C539.282944,98.3231736 540.896266,96.704942 540.896266,94.7150377 C540.896266,92.7251334 539.282944,91.1069018 537.298734,91.1069018 Z M28.7415287,83.1269581 C26.7404443,83.1269581 25.1131208,84.7745109 25.1131208,86.8004709 C25.1131208,88.8264309 26.7404443,90.4739838 28.7415287,90.4739838 C30.7426131,90.4739838 32.3699366,88.8264309 32.3699366,86.8004709 C32.3699366,84.7745109 30.7426131,83.1269581 28.7415287,83.1269581 Z M750.824224,81.2037089 C749.407518,79.7689547 747.10354,79.7689547 745.687116,81.2037089 C744.27041,82.6384631 744.27041,84.9715082 745.687116,86.4062625 C747.10354,87.8410167 749.407518,87.8410167 750.824224,86.4062625 C752.240648,84.9715082 752.240648,82.6384631 750.824224,81.2037089 Z M764.817094,24 C767.12699,24 769,25.8706727 769,28.1776858 C769,30.4846989 767.12699,32.3556525 764.817094,32.3556525 C762.792735,32.3556525 761.104269,30.9187916 760.717458,29.0110314 L760.717458,29.0110314 L636.104336,29.0110314 L621.573738,43.5232143 L621.573738,75.6115159 C623.789674,76.0068353 625.478703,77.9418492 625.478703,80.2665632 C625.478703,82.8764578 623.352226,85 620.739351,85 C618.126196,85 616,82.8764578 616,80.2665632 C616,77.9418492 617.68931,76.0068353 619.904964,75.6115159 L619.904964,75.6115159 L619.904964,42.8328804 L635.413139,27.3443401 L760.717458,27.3443401 C761.104269,25.43658 762.792735,24 764.817094,24 Z M620.739351,76.6443475 C618.739186,76.6443475 617.11261,78.2688938 617.11261,80.2665632 C617.11261,82.2645135 618.739186,83.8887789 620.739351,83.8887789 C622.739798,83.8887789 624.366093,82.2645135 624.366093,80.2665632 C624.366093,78.2688938 622.739798,76.6443475 620.739351,76.6443475 Z M361.268324,72.1123795 C359.271398,72.1123795 357.647175,73.7386193 357.647175,75.7383712 C357.647175,77.738123 359.271398,79.3643628 361.268324,79.3643628 C363.26525,79.3643628 364.889192,77.738123 364.889192,75.7383712 C364.889192,73.7386193 363.26525,72.1123795 361.268324,72.1123795 Z M772.271211,8 C774.878262,8 777,10.1201423 777,12.7258583 C777,15.3315743 774.878262,17.4517166 772.271211,17.4517166 C770.053197,17.4517166 768.191659,15.9150483 767.683891,13.8524118 L767.683891,13.8524118 L620.221305,13.8524118 L603.693983,30.3692123 L603.693983,68.6936315 C605.752846,68.9500234 607.347728,70.7018477 607.347728,72.8287224 C607.347728,75.1320419 605.478331,77 603.173583,77 C600.868836,77 599,75.1320419 599,72.8287224 C599,70.9226141 600.281351,69.3186218 602.028928,68.8207054 L602.028928,68.8207054 L602.028928,29.6799837 L619.531649,12.1881085 L767.575544,12.1881085 C767.843603,9.83513772 769.846048,8 772.271211,8 Z M291.769443,38 C294.112124,38 296.061574,39.696589 296.460184,41.9224436 L296.460184,41.9224436 L365.03491,41.9224436 L379.094958,55.9560376 C380.637872,55.2784193 382.503806,55.5660821 383.767014,56.8272208 C385.410995,58.4678596 385.410995,61.128882 383.767014,62.7695209 C382.123598,64.4101597 379.457614,64.4101597 377.813915,62.7695209 C376.207586,61.1661821 376.175596,58.5907804 377.708884,56.9430771 L377.708884,56.9430771 L364.339325,43.5986871 L296.460184,43.5986871 C296.061574,45.8245418 294.112124,47.5211307 291.769443,47.5211307 C289.139696,47.5211307 287,45.3851354 287,42.7605654 C287,40.1357128 289.139696,38 291.769443,38 Z M203.264741,35 C205.87564,35 208,37.0988129 208,39.6783144 C208,42.2575382 205.87564,44.3566288 203.264741,44.3566288 C200.938851,44.3566288 199.003092,42.6893527 198.60762,40.5019554 L198.60762,40.5019554 L156.401499,40.5019554 L140.97867,55.7393146 L72.2644285,55.7393146 C71.8602436,57.6020873 70.1856027,59 68.1792942,59 C65.871674,59 64,57.1508342 64,54.8706871 C64,52.5905399 65.871674,50.7413741 68.1792942,50.7413741 C70.2176452,50.7413741 71.9133666,52.1845509 72.2824172,54.0920325 L72.2824172,54.0920325 L140.288351,54.0920325 L155.710899,38.8543957 L198.60762,38.8543957 C199.003373,36.6672761 200.938851,35 203.264741,35 Z M291.769443,39.1175898 C289.756578,39.1175898 288.119674,40.7514468 288.119674,42.7605654 C288.119674,44.7696839 289.756578,46.4035409 291.769443,46.4035409 C293.782309,46.4035409 295.419213,44.7696839 295.419213,42.7605654 C295.419213,40.7514468 293.782309,39.1175898 291.769443,39.1175898 Z M203.264741,36.0982806 C201.266302,36.0982806 199.641131,37.7039085 199.641131,39.6783144 C199.641131,41.6527202 201.266302,43.2583482 203.264741,43.2583482 C205.263179,43.2583482 206.888351,41.6527202 206.888351,39.6783144 C206.888351,37.7039085 205.263179,36.0982806 203.264741,36.0982806 Z M364.197049,12 C366.22797,12 367.922145,13.4554808 368.310264,15.388341 L368.310264,15.388341 L393.860354,15.388341 L412.672415,34.3599764 L449.567719,34.3599764 C449.965153,32.1176877 451.908853,30.4085724 454.244906,30.4085724 C456.866898,30.4085724 459,32.5600537 459,35.2042862 C459,37.8485187 456.866898,40 454.244906,40 C451.908853,40 449.965153,38.2908847 449.567719,36.048596 L449.567719,36.048596 L411.978881,36.048596 L393.167103,17.0769606 L368.310264,17.0769606 C367.922145,19.0098209 366.22797,20.4655863 364.197049,20.4655863 C361.879343,20.4655863 360,18.5700169 360,16.2326508 C360,13.8952848 361.879343,12 364.197049,12 Z M454.244906,31.5344137 C452.237696,31.5344137 450.605902,33.1803339 450.605902,35.2042862 C450.605902,37.2282385 452.237696,38.8741587 454.244906,38.8741587 C456.251835,38.8741587 457.883628,37.2282385 457.883628,35.2042862 C457.883628,33.1803339 456.251835,31.5344137 454.244906,31.5344137 Z M772.271211,9.10944202 C770.275504,9.10944202 768.652272,10.7311068 768.652272,12.7258583 C768.652272,14.7203293 770.275504,16.3422746 772.271211,16.3422746 C774.266919,16.3422746 775.88987,14.7203293 775.88987,12.7258583 C775.88987,10.7311068 774.266919,9.10944202 772.271211,9.10944202 Z M400.065951,263.933928 C400.030233,263.969916 399.984391,264.015464 399.934049,264.066072 C399.982423,264.017432 400.026858,263.97329 400.065951,263.933928 M246.462719,252.462719 C248.413012,250.512427 251.587285,250.512427 253.537281,252.462719 C254.257317,253.182756 254.71152,254.069626 254.89989,255.000127 L274.858769,255 L284.240843,264.329032 L284.240843,320.012738 L292.529614,328.254648 C293.181451,327.845602 293.951106,327.604803 294.778677,327.604803 C297.109788,327.604803 299,329.484611 299,331.802543 C299,334.120474 297.109788,336 294.778677,336 C292.447567,336 290.55707,334.120474 290.55707,331.802543 C290.55707,330.913593 290.837281,330.090418 291.311679,329.411497 L291.311679,329.411497 L282.556742,320.706339 L282.556742,265.022632 L274.161508,256.674579 L254.954735,256.674538 C254.813369,257.722462 254.340884,258.7338 253.537281,259.537281 C251.587285,261.487573 248.413309,261.487573 246.462719,259.537281 C244.512427,257.587285 244.512427,254.413012 246.462719,252.462719 Z M502.892579,302.387898 C504.744399,300.537226 507.758858,300.537508 509.610959,302.387898 C511.463061,304.23857 511.463061,307.25042 509.610677,309.101092 C507.961044,310.750016 505.390435,310.92556 503.539179,309.636739 L503.539179,309.636739 L495.523934,317.64608 L441.302028,317.64608 C440.914294,319.559305 439.221798,321 437.193171,321 C434.87748,321 433,319.123969 433,316.810347 C433,314.496725 434.87748,312.620412 437.193171,312.620412 C439.22208,312.620412 440.914294,314.061389 441.302028,315.974614 L441.302028,315.974614 L494.831088,315.974614 L502.356519,308.45471 C501.066703,306.605165 501.242664,304.036822 502.892579,302.387898 Z M508.822237,303.17573 C507.404398,301.759267 505.098859,301.759267 503.68102,303.176012 C502.263463,304.592475 502.263463,306.896516 503.68102,308.312979 C505.098859,309.730005 507.404398,309.730005 508.822237,308.312979 C510.240076,306.896516 510.240076,304.592475 508.822237,303.17573 Z M264.820507,271 C267.128363,271 269,272.88335 269,275.20565 C269,277.527949 267.128363,279.411017 264.820507,279.411017 C262.798217,279.411017 261.111523,277.964635 260.725054,276.044517 L260.725054,276.044517 L166.452616,276.044517 L150.522762,292.074067 L107.392195,292.074067 C106.996731,294.301902 105.06101,296 102.735166,296 C100.124318,296 98,293.862104 98,291.2352 C98,288.608012 100.124318,286.470682 102.735166,286.470682 C105.06101,286.470682 106.99645,288.168498 107.392195,290.396332 L107.392195,290.396332 L149.832176,290.396332 L165.762311,274.366782 L260.725054,274.366782 C261.111523,272.446382 262.798217,271 264.820507,271 Z M102.735166,287.588983 C100.736767,287.588983 99.111627,289.224294 99.111627,291.2352 C99.111627,293.246388 100.736767,294.881416 102.735166,294.881416 C104.733565,294.881416 106.358705,293.246388 106.358705,291.2352 C106.358705,289.224294 104.733565,287.588983 102.735166,287.588983 Z M252.70704,253.293257 C251.214033,251.800249 248.785967,251.800249 247.293257,253.293257 C245.800546,254.785967 245.800249,257.213736 247.29296,258.706447 C247.29296,258.706743 247.293257,258.706743 247.293257,258.70704 L247.293257,258.70704 L247.451528,258.8564 C248.952881,260.197956 251.265803,260.147991 252.70704,258.70704 C254.200048,257.214033 254.200048,254.785967 252.70704,253.293257 Z M586.793574,235 C588.82875,235 590.52671,236.444078 590.915979,238.361514 L590.915979,238.361514 L591,238.361514 L591,240.037187 L590.915979,240.037187 C590.526993,241.954905 588.829033,243.398983 586.793574,243.398983 C584.757832,243.398983 583.060155,241.954905 582.671169,240.037187 L582.671169,240.037187 L530.651124,240.037187 L519.445209,251.224063 C520.98418,253.091508 520.881204,255.864432 519.133737,257.608737 C517.275656,259.463754 514.251748,259.463754 512.393667,257.608737 C510.535586,255.753719 510.535303,252.734796 512.393667,250.879778 C513.954421,249.321314 516.336431,249.077575 518.160281,250.137827 L518.160281,250.137827 L529.956041,238.361514 L582.671169,238.361514 C583.060155,236.444078 584.757832,235 586.793574,235 Z M518.342468,251.669742 C516.920335,250.24967 514.607069,250.24967 513.184936,251.669742 C511.762236,253.089531 511.762519,255.398983 513.184936,256.819055 C514.607069,258.238844 516.920335,258.238844 518.342468,256.818772 C519.764885,255.398983 519.764885,253.089531 518.342468,251.669742 Z M271.120215,229 L289.52422,247.363911 C291.144603,246.291703 293.350109,246.467558 294.777977,247.892315 C296.407341,249.518129 296.407341,252.155106 294.777977,253.78064 C293.148614,255.406453 290.50588,255.406453 288.876516,253.78064 C287.448648,252.356162 287.27241,250.155181 288.34724,248.538328 L288.34724,248.538328 L270.430977,230.661377 L196.059767,230.661377 L187.601726,239.100991 C188.885348,240.939063 188.710512,243.491193 187.068801,245.129888 L187.068801,245.129888 L187.14,245.058 L187.059,245.139 L186.89753,245.292811 C185.101953,246.915331 182.348147,246.915315 180.553066,245.2923 L180.382405,245.130168 C178.539198,243.291256 178.539198,240.29781 180.382405,238.458899 C182.024397,236.820204 184.58238,236.645469 186.424745,237.926295 L186.424745,237.926295 L195.370529,229 L271.120215,229 Z M186.283586,239.241843 C184.872837,237.833887 182.57837,237.833887 181.16762,239.241563 L181.16762,239.241563 C179.756029,240.650079 179.75631,242.939547 181.167059,244.347223 C182.578089,245.754899 184.872556,245.754899 186.283586,244.347223 C187.694616,242.939267 187.694616,240.649799 186.283586,239.241843 Z M671.811682,136 C674.124567,136 676,137.872016 676,140.180687 C676,142.489357 674.124567,144.361374 671.811682,144.361374 C669.784986,144.361374 668.094618,142.924043 667.707024,141.014631 L667.707024,141.014631 L639.851291,141.014631 L619.85925,160.970248 L619.85925,207.663817 C621.939184,208.166264 623.490684,210.034906 623.490684,212.263163 C623.490684,214.874932 621.361738,217 618.745201,217 C616.128665,217 614,214.874932 614,212.263163 C614,209.840057 615.833744,207.838703 618.188318,207.562034 L618.188318,207.562034 L618.188318,160.279419 L639.1592,139.346743 L667.707024,139.346743 C668.094618,137.437612 669.784986,136 671.811682,136 Z M618.745201,208.638345 C616.742448,208.638345 615.114049,210.264058 615.114049,212.263163 C615.114049,214.262267 616.742448,215.888262 618.745201,215.888262 C620.748236,215.888262 622.376635,214.262267 622.376635,212.263163 C622.376635,210.264058 620.748236,208.638345 618.745201,208.638345 Z M202.73258,75 C205.342002,75 207.46516,77.1237112 207.46516,79.7338136 C207.46516,82.0589935 205.778545,83.9941615 203.565775,84.3895123 L203.565775,84.3895123 L203.565775,188.417081 L228.475377,213.332895 L388.47743,213.332895 L403.461452,198.344687 L434.729573,198.344687 C435.115831,196.437056 436.801604,195.000361 438.82307,195.000361 C441.129666,195.000361 443,196.871183 443,199.17838 C443,201.485576 441.129666,203.356398 438.82307,203.356398 C436.801604,203.356398 435.115831,201.919704 434.729573,200.011791 L434.729573,200.011791 L404.151661,200.011791 L389.167639,215 L227.785169,215 L201.899385,189.107189 L201.899385,84.3895123 C199.686615,83.9941615 198,82.0589935 198,79.7338136 C198,77.1237112 200.123158,75 202.73258,75 Z M235.142032,181 C237.429635,181 239.284343,182.866075 239.284343,185.167418 C239.284343,186.236669 238.880697,187.208665 238.222441,187.946631 L238.222441,187.946631 L249.654884,199.449142 L295.694147,199.449142 C295.856274,198.530398 296.286662,197.650333 296.990883,196.941796 C298.820519,195.100666 301.798136,195.100666 303.627773,196.941796 C305.457409,198.782646 305.457409,201.778512 303.627773,203.619362 C301.798136,205.460213 298.820519,205.460213 296.990883,203.619362 C296.286662,202.911106 295.856274,202.03076 295.694147,201.112017 L295.694147,201.112017 L248.97072,201.112017 L236.879741,188.946654 C236.35074,189.193297 235.763518,189.335116 235.142032,189.335116 C232.854708,189.335116 231,187.468761 231,185.167418 C231,182.866075 232.854708,181 235.142032,181 Z M302.848617,197.725727 C301.448254,196.316221 299.170401,196.316221 297.770038,197.725727 C296.369397,199.134672 296.369397,201.426486 297.770038,202.835712 C299.170401,204.244657 301.448254,204.244657 302.848617,202.835432 C304.249258,201.426486 304.249258,199.134672 302.848617,197.725727 Z M317.383196,185.410129 C319.226896,183.529957 322.227856,183.529957 324.072118,185.410129 C325.714799,187.084796 325.889708,189.693682 324.605547,191.572709 L324.605547,191.572709 L330.806802,197.894999 L380.734374,197.894999 C381.120408,195.951573 382.805483,194.487849 384.825214,194.487849 C387.130752,194.487849 389,196.393781 389,198.743924 C389,201.094068 387.130752,203 384.825214,203 C382.805483,203 381.120408,201.53599 380.734374,199.592564 L380.734374,199.592564 L330.117275,199.592564 L323.428072,192.773111 C321.584653,194.082277 319.025877,193.903962 317.383196,192.229295 C315.538935,190.349409 315.538935,187.290015 317.383196,185.410129 Z M668.28356,152 C670.883929,152 673,154.106892 673,156.696323 C673,159.285754 670.883929,161.392367 668.28356,161.392367 C665.967332,161.392367 664.03966,159.718673 663.645504,157.523135 L663.645504,157.523135 L643.039075,157.523135 L634.993021,165.535624 L634.993021,194.793212 C636.893818,195.176512 638.324874,196.84937 638.324874,198.85507 C638.324874,201.143995 636.46103,203 634.162437,203 C631.863845,203 630,201.143995 630,198.85507 C630,196.84937 631.431336,195.176512 633.332133,194.792934 L633.332133,194.792934 L633.332133,164.850703 L642.35154,155.869233 L663.645504,155.869233 C664.03966,153.673694 665.967332,152 668.28356,152 Z M671.237443,114 C673.863394,114 676,116.116229 676,118.716512 C676,121.316795 673.863394,123.433024 671.237443,123.433024 C668.898427,123.433024 666.951509,121.752135 666.553758,119.547158 L666.553758,119.547158 L632.198722,119.547158 C630.987326,120.814917 625.53281,126.513111 619.85627,132.304132 L619.236323,132.936039 C608.754853,143.611253 605.900202,146.083033 604.876282,146.655554 C604.212798,149.440612 604.442063,170.592546 604.841228,188.725936 C606.823766,189.025774 608.363038,190.696865 608.406008,192.750383 C608.454348,195.048587 606.611745,196.951206 604.291104,196.999079 C601.970463,197.046953 600.04927,195.222163 600.00093,192.923679 C599.959374,190.94911 601.31546,189.270181 603.169937,188.805165 C603.071277,184.342018 602.966397,179.039546 602.890069,173.728116 C602.499951,146.598722 603.179549,145.906657 603.629316,145.44864 C603.765292,145.309779 603.934626,145.219072 604.117247,145.183797 C606.036178,144.177615 621.715838,128.117621 631.228514,118.14623 L631.228514,118.14623 L631.47672,117.886426 L666.553475,117.886426 C666.951226,115.680889 668.898144,114 671.237443,114 Z M213.078036,152 C215.330021,152 217.156347,153.871744 217.156347,156.179732 C217.156347,158.202137 215.754033,159.889209 213.891779,160.275701 L213.891779,160.275701 L213.891779,183.411233 L218.743789,188.384187 C220.544334,187.098505 223.043979,187.273902 224.648974,188.918529 C226.450342,190.764694 226.450342,193.769211 224.648974,195.615376 C222.847606,197.461541 219.915994,197.461541 218.114626,195.615376 C216.509632,193.970748 216.338765,191.40866 217.59325,189.563057 L217.59325,189.563057 L212.264568,184.101859 L212.264568,160.275701 C210.402314,159.889209 209,158.202137 209,156.179732 C209,153.871744 210.826052,152 213.078036,152 Z M525.507219,50 C527.843195,50 529.787584,51.6966755 530.184818,53.9226437 L530.184818,53.9226437 L541.754026,53.9226437 L562,74.1875165 L562,170.070594 L539.682309,192.409118 L485.346725,192.409118 C485.050281,194.439251 483.308039,196 481.198207,196 C478.880018,196 477,194.11851 477,191.797874 C477,189.47752 478.880018,187.596031 481.198207,187.596031 C483.147959,187.596031 484.782917,188.929294 485.254686,190.732789 L485.254686,190.732789 L538.988913,190.732789 L560.325234,169.37655 L560.325234,74.8815596 L541.060631,55.5989726 L530.184818,55.5989726 C529.787584,57.8249408 527.843195,59.5213337 525.507219,59.5213337 C522.884681,59.5213337 520.750569,57.385512 520.750569,54.7605255 C520.750569,52.1358217 522.884681,50 525.507219,50 Z M223.881857,189.704723 C222.50313,188.291429 220.26047,188.291429 218.881469,189.704723 C217.502743,191.117737 217.502743,193.416168 218.881469,194.829182 C220.26047,196.242757 222.50313,196.242476 223.881857,194.829182 C225.260858,193.416168 225.260858,191.117737 223.881857,189.704723 Z M323.137463,186.066659 C321.717697,184.773019 319.530854,184.821199 318.168179,186.210683 C316.756557,187.649506 316.756557,189.989918 318.168179,191.428741 C319.579801,192.86785 321.875232,192.86785 323.286854,191.428741 C324.698195,189.989918 324.698476,187.650079 323.287135,186.21097 L323.301,186.225 L323.286854,186.210683 Z M253.184228,168 C255.494698,168 257.368174,169.841064 257.368174,172.111221 C257.368174,173.079445 257.025163,173.968044 256.454791,174.670573 L256.454791,174.670573 L262.612388,180.720454 L340.571277,180.720454 C340.704655,179.743659 341.147277,178.800041 341.909836,178.050787 C343.757706,176.235159 346.765454,176.235159 348.613887,178.050787 C350.462038,179.866692 350.462038,182.822236 348.613887,184.637864 C346.765454,186.454045 343.757706,186.454045 341.909836,184.637864 C341.249983,183.990078 340.830154,183.195758 340.641624,182.360795 L340.641624,182.360795 L261.921301,182.360795 L255.171666,175.729206 C254.580471,176.043284 253.903454,176.222165 253.184228,176.222165 C250.873757,176.222165 249,174.381378 249,172.111221 C249,169.841064 250.873757,168 253.184228,168 Z M347.826847,178.824095 C346.412313,177.434243 344.11141,177.434243 342.696595,178.824095 C341.282061,180.213948 341.282061,182.474704 342.696595,183.864833 C344.11141,185.254962 346.412313,185.254962 347.826847,183.864833 C349.241661,182.474704 349.241661,180.213948 347.826847,178.824095 Z M684.389537,153.416448 C686.24197,151.527851 689.257428,151.527851 691.110144,153.416448 C692.749887,155.088235 692.935497,157.686494 691.672333,159.571352 L691.672333,159.571352 L692.947909,160.871632 L704.694938,160.871632 C705.083083,158.9192 706.775858,157.448981 708.805721,157.448981 C711.121897,157.448981 713,159.363457 713,161.724491 C713,164.085524 711.121897,166 708.805721,166 C706.775858,166 705.083083,164.529781 704.694938,162.577637 L704.694938,162.577637 L692.255115,162.577637 L690.49859,160.787093 C688.644182,162.130504 686.051,161.960853 684.389537,160.267212 C682.536821,158.378902 682.536821,155.305044 684.389537,153.416448 Z M690.320878,154.220424 C688.902569,152.774934 686.596265,152.774934 685.178238,154.220711 C683.760211,155.666201 683.760211,158.017458 685.178238,159.463235 C686.596547,160.908725 688.902851,160.908725 690.32116,159.463235 C691.739469,158.017746 691.739469,155.666776 690.321442,154.220999 L690.321442,154.220999 L690.3,154.199 Z M668.28356,153.102508 C666.293462,153.102508 664.674566,154.714038 664.674566,156.696323 C664.674566,158.678329 666.293462,160.289859 668.28356,160.289859 C670.274218,160.289859 671.892835,158.678329 671.892835,156.696323 C671.892835,154.714038 670.274218,153.102508 668.28356,153.102508 Z M437.726605,120 C440.048244,120 441.980184,121.691727 442.374933,123.911203 L442.374933,123.911203 L462.902712,123.911203 L481.885162,142.974691 L513.740295,142.974691 C514.126066,141.061214 515.809711,139.620823 517.828344,139.620823 C520.132027,139.620823 522,141.496825 522,143.810411 C522,146.123997 520.132027,148 517.828344,148 C515.809711,148 514.125786,146.559327 513.740015,144.646131 L513.740015,144.646131 L481.195825,144.646131 L462.213655,125.582925 L442.374933,125.582925 C441.980184,127.802119 440.047963,129.493846 437.726605,129.493846 C435.120477,129.493846 433,127.364254 433,124.746923 C433,122.129874 435.120477,120 437.726605,120 Z M167.201943,53 C169.234813,53 170.930849,54.4407123 171.319394,56.3539601 L171.319394,56.3539601 L201.66409,56.3539601 L215.077527,69.7292252 L215.077527,125.584228 C217.303399,125.980966 219,127.921265 219,130.252947 C219,132.870068 216.864271,135 214.2394,135 C211.614528,135 209.478799,132.870068 209.478799,130.252947 C209.478799,127.921265 211.175401,125.980966 213.401272,125.584228 L213.401272,125.584228 L213.401272,70.4215447 L200.970077,58.0254456 L171.319394,58.0254456 C170.930849,59.9386935 169.235095,61.3796875 167.201943,61.3796875 C164.88169,61.3796875 163,59.5033521 163,57.1899846 C163,54.8763354 164.88169,53 167.201943,53 Z M214.2394,126.620312 C212.230266,126.620312 210.596397,128.249532 210.596397,130.252947 C210.596397,132.256363 212.230266,133.885582 214.2394,133.885582 C216.248533,133.885582 217.882402,132.256363 217.882402,130.252947 C217.882402,128.249532 216.248533,126.620312 214.2394,126.620312 Z M385.389638,118.416418 C387.242064,116.527861 390.25723,116.527861 392.110221,118.416418 C393.749959,120.088172 393.935568,122.686377 392.672409,124.571197 L392.672409,124.571197 L393.94798,125.871449 L405.695249,125.871449 C406.083111,123.919058 407.776162,122.448869 409.805453,122.448869 C412.121622,122.448869 414,124.363306 414,126.724578 C414,129.085563 412.121622,131 409.805453,131 C407.776162,131 406.083111,129.529812 405.695249,127.57742 L405.695249,127.57742 L393.254906,127.57742 L391.498669,125.786913 C389.64455,127.130584 387.050813,126.960648 385.389638,125.267042 C383.536646,123.378484 383.536929,120.305264 385.389638,118.416418 Z M437.726605,121.114387 C435.731819,121.114387 434.109337,122.743562 434.109337,124.746923 C434.109337,126.750284 435.731819,128.379459 437.726605,128.379459 C439.721391,128.379459 441.343592,126.750284 441.343592,124.746923 C441.343592,122.743562 439.721391,121.114387 437.726605,121.114387 Z M483.81598,76 C486.126491,76 488,77.8702037 488,80.1766385 C488,82.4830732 486.126491,84.3532769 483.81598,84.3532769 C481.791363,84.3532769 480.102729,82.9170571 479.715533,81.0097752 L479.715533,81.0097752 L381.491092,81.0097752 L372.073458,90.4107931 L372.073458,113.099864 L359.150523,126 L323.598872,126 L316.445039,118.858788 C314.597418,120.143605 312.03281,119.968607 310.386384,118.324805 C308.537919,116.479882 308.537919,113.477669 310.386103,111.632465 C312.234286,109.787542 315.242087,109.787542 317.090271,111.632746 C318.736978,113.276267 318.912286,115.836631 317.625198,117.680431 L317.625198,117.680431 L324.289971,124.333727 L358.459142,124.333727 L370.40424,112.409984 L370.40424,89.7209132 L380.799711,79.3435018 L479.715533,79.3435018 C480.102447,77.4362198 481.791363,76 483.81598,76 Z M391.320958,119.220378 C389.902654,117.774918 387.596358,117.774918 386.178336,119.220666 C384.760032,120.666413 384.760032,123.017335 386.178336,124.463082 C387.59664,125.908542 389.902936,125.908542 391.32124,124.463082 C392.739262,123.017622 392.739544,120.666701 391.321522,119.220953 L391.321522,119.220953 L391.278646,119.177247 L391.278646,119.177247 Z M730.995291,101.396276 C732.823921,99.5345748 735.800177,99.5345748 737.628528,101.396276 C739.457157,103.257977 739.457157,106.287776 737.628528,108.149477 C735.800177,110.011178 732.823921,110.011178 730.995291,108.149477 C730.337953,107.480251 729.920888,106.659379 729.736299,105.79684 L729.736299,105.79684 L711.275716,105.79684 L700.671168,116.593742 C701.054824,117.232922 701.279783,117.981514 701.279783,118.785095 C701.279783,121.112505 699.426096,123 697.139752,123 C694.853687,123 693,121.112505 693,118.785095 C693,116.457686 694.853687,114.570474 697.139752,114.570474 C698.038476,114.570474 698.867874,114.865263 699.546928,115.360734 L699.546928,115.360734 L710.591928,104.11513 L729.673655,104.11513 C729.808408,103.12022 730.245241,102.159607 730.995291,101.396276 Z M671.237443,115.107248 C669.227484,115.107248 667.592943,116.725986 667.592943,118.716512 C667.592943,120.707039 669.227484,122.325776 671.237443,122.325776 C673.247402,122.325776 674.881943,120.707039 674.881943,118.716512 C674.881943,116.725986 673.247402,115.107248 671.237443,115.107248 Z M316.303499,112.41813 C314.888659,111.005786 312.587996,111.005786 311.173157,112.41813 C309.758317,113.830193 309.758317,116.127077 311.173157,117.539421 C312.587996,118.951765 314.888659,118.951765 316.303499,117.539421 C317.718339,116.127077 317.718339,113.830193 316.303499,112.41813 Z M736.85008,102.189086 C735.450209,100.763898 733.17361,100.763898 731.774018,102.188802 C730.374147,103.61399 730.374147,105.931762 731.774018,107.356667 C733.17361,108.781854 735.450209,108.781854 736.85008,107.356667 C738.249672,105.931762 738.249672,103.61399 736.85008,102.189086 Z M202.73258,76.1113096 C200.735272,76.1113096 199.11102,77.7359852 199.11102,79.7338136 C199.11102,81.7316419 200.735272,83.3563175 202.73258,83.3563175 C204.729888,83.3563175 206.35414,81.7316419 206.35414,79.7338136 C206.35414,77.7359852 204.729888,76.1113096 202.73258,76.1113096 Z M636.721775,73 C639.249415,73 641.31379,75.1166973 641.431778,77.7628658 L641.431778,77.7628658 L663.740818,77.7628658 C664.105713,75.7200689 665.797906,74.1737995 667.832855,74.1737995 C670.134047,74.1737995 672,76.1501157 672,78.5867514 C672,81.0236837 670.134047,83 667.832855,83 C665.835461,83 664.16793,81.5104173 663.761557,79.5234166 L663.761557,79.5234166 L641.217101,79.5234166 C640.606701,81.5371283 638.823144,83 636.721775,83 C634.118465,83 632,80.7565739 632,78 C632,75.2431293 634.118465,73 636.721775,73 Z M636.721775,74.1737995 C634.728865,74.1737995 633.108418,75.889832 633.108418,78 C633.108418,80.110168 634.728865,81.8262005 636.721775,81.8262005 C638.714124,81.8262005 640.334851,80.110168 640.334851,78 C640.334851,75.889832 638.714124,74.1737995 636.721775,74.1737995 Z M525.507219,51.1173642 C523.499872,51.1173642 521.867173,52.7513046 521.867173,54.7605255 C521.867173,56.7700291 523.499872,58.4036868 525.507219,58.4036868 C527.514284,58.4036868 529.146983,56.7700291 529.146983,54.7605255 C529.146983,52.7513046 527.514284,51.1173642 525.507219,51.1173642 Z M157.2067,13 C159.242154,13 160.939828,14.4438001 161.329096,16.3615237 L161.329096,16.3615237 L214.044107,16.3615237 L225.839558,28.1375893 C227.663687,27.0773338 230.045409,27.3213564 231.606442,28.8798245 C233.464519,30.7345654 233.464519,33.7534973 231.606442,35.6085207 C229.748082,37.4638264 226.724181,37.4638264 224.866387,35.6085207 C223.118923,33.8644937 223.015666,31.091279 224.554633,29.224111 L224.554633,29.224111 L213.349026,18.0369194 L161.329096,18.0369194 C160.94011,19.9549254 159.242154,21.399008 157.2067,21.399008 C155.170963,21.399008 153.473006,19.9549254 153.084304,18.0369194 L153.084304,18.0369194 L153,18.0369194 L153,16.3615237 L153.084304,16.3615237 C153.473289,14.4438001 155.171245,13 157.2067,13 Z M230.815175,29.6695087 C229.393045,28.2494329 227.079784,28.2494329 225.657371,29.6695087 C224.235241,31.0895844 224.235241,33.3990433 225.657371,34.8188366 C227.079784,36.2389123 229.393045,36.2389123 230.815175,34.8188366 C232.237589,33.3990433 232.237589,31.0895844 230.815175,29.6695087 Z M453.162746,0 C455.176933,0 456.856868,1.44437428 457.241789,3.36248525 L457.241789,3.36248525 L471.028961,3.36248525 L495.84363,28.4032968 L501.645439,28.4032968 C502.039318,26.1781186 503.967283,24.4817627 506.283808,24.4817627 C508.883914,24.4817627 511,26.617109 511,29.2408814 C511,31.8649363 508.883914,34 506.283808,34 C503.967283,34 502.039598,32.3042091 501.645439,30.0790309 L501.645439,30.0790309 L495.156091,30.0790309 L470.341422,5.03821931 L457.242069,5.03821931 C456.856868,6.95633028 455.176933,8.40098706 453.162746,8.40098706 C450.864138,8.40098706 449,6.51988235 449,4.20035228 C449,1.8811047 450.864138,0 453.162746,0 Z M506.283808,25.5990129 C504.293416,25.5990129 502.674508,27.2323734 502.674508,29.2408814 C502.674508,31.2493893 504.293416,32.8827498 506.283808,32.8827498 C508.274199,32.8827498 509.892827,31.2493893 509.892827,29.2408814 C509.892827,27.2323734 508.274199,25.5990129 506.283808,25.5990129 Z M207.821304,285 C210.12872,285 212,286.860415 212,289.154778 C212,291.449141 210.12872,293.309835 207.821304,293.309835 C205.7994,293.309835 204.113027,291.881132 203.72635,289.983554 L203.72635,289.983554 L177.778811,289.983554 L151.492649,316.121295 L145.390404,316.121295 C144.994735,318.322329 143.059664,320 140.734263,320 C138.123913,320 136,317.887823 136,315.292519 C136,312.696935 138.123913,310.585037 140.734263,310.585037 C143.059383,310.585037 144.994735,312.262708 145.390404,314.463743 L145.390404,314.463743 L150.802476,314.463743 L177.088638,288.326281 L203.72635,288.326281 C204.113027,286.428982 205.7994,285 207.821304,285 Z M140.734263,311.690165 C138.735964,311.690165 137.111415,313.305803 137.111415,315.292519 C137.111415,317.279234 138.735964,318.894872 140.734263,318.894872 C142.732281,318.894872 144.357111,317.279234 144.357111,315.292519 C144.357111,313.305803 142.732281,311.690165 140.734263,311.690165 Z M706.941555,275.410228 C708.782436,273.529924 711.778353,273.529924 713.619234,275.410228 C715.460396,277.290245 715.460115,280.350606 713.619234,282.230909 C711.778353,284.111213 708.782436,284.111213 706.941555,282.230909 C706.222916,281.496881 705.788761,280.582495 705.630964,279.628887 L705.630964,279.628887 L690.477887,279.628887 L677.387393,293 L664.760483,293 L661.495497,289.664808 C660.830952,290.123147 660.029631,290.390535 659.167769,290.390535 C656.866107,290.390535 655,288.484179 655,286.133513 C655,283.782847 656.866107,281.876778 659.167769,281.876778 C661.469151,281.876778 663.335257,283.782847 663.335257,286.133513 C663.335257,286.989498 663.085528,287.785077 662.659782,288.452688 L662.659782,288.452688 L665.449132,291.301486 L676.699024,291.301486 L689.789518,277.930659 L705.642455,277.930659 C705.811184,277.006539 706.243376,276.123358 706.941555,275.410228 Z M712.68615,276.066673 C711.26877,274.773243 709.085612,274.821157 707.725499,276.210674 C706.316249,277.650102 706.316249,279.990749 707.725499,281.430177 C709.134468,282.869606 711.42632,282.869606 712.83529,281.430177 C714.244539,279.991035 714.244539,277.650389 712.83557,276.21096 L712.83557,276.21096 Z M247.304529,234 C249.89349,234 252,236.121649 252,238.728591 C252,241.335814 249.89349,243.456902 247.304529,243.456902 C246.387843,243.456902 245.534425,243.186889 244.810609,242.727699 L244.810609,242.727699 L228.714957,258.936604 L213.136596,258.936604 C212.952367,259.610794 212.600353,260.248215 212.074422,260.777575 C210.456217,262.407475 207.831859,262.407475 206.213654,260.777575 C204.595449,259.148236 204.595449,256.505086 206.213654,254.875466 C207.831859,253.245847 210.456217,253.245847 212.074422,254.875466 C212.743054,255.548534 213.130743,256.395341 213.246966,257.271619 L213.246966,257.271619 L228.030439,257.271619 L243.586782,241.605546 C242.976401,240.807297 242.609058,239.811449 242.609058,238.728591 C242.609058,236.121649 244.715568,234 247.304529,234 Z M438.872904,243.242676 C440.503374,241.585775 443.147168,241.585775 444.777358,243.242676 C446.407547,244.899863 446.407547,247.586976 444.777358,249.243592 C443.441422,250.601418 441.426007,250.844845 439.844391,249.977297 L439.844391,249.977297 L428.999671,261 L415.099539,261 L412.180865,258.033216 C410.361151,259.155891 407.95349,258.924165 406.383106,257.327763 C404.538965,255.453405 404.538965,252.403005 406.383106,250.528647 C408.226967,248.654288 411.22847,248.654288 413.072331,250.528647 C414.786473,252.27059 414.905241,255.026765 413.43341,256.912254 L413.43341,256.912254 L415.789688,259.307141 L428.309522,259.307141 L438.561523,248.88687 C437.252261,247.221122 437.355025,244.785712 438.872904,243.242676 Z M412.287279,251.326847 C410.875534,249.89197 408.579903,249.89197 407.168158,251.326847 C405.756693,252.76144 405.756693,255.094971 407.168158,256.529563 C408.579903,257.964726 410.875534,257.96444 412.287279,256.529563 C413.699024,255.094971 413.699024,252.76144 412.287279,251.326847 Z M247.304529,235.110084 C245.322883,235.110084 243.711366,236.732686 243.711366,238.728591 C243.711366,240.724216 245.322883,242.347099 247.304529,242.347099 C249.286176,242.347099 250.897692,240.724216 250.897692,238.728591 C250.897692,236.732686 249.286176,235.110084 247.304529,235.110084 Z M629.817577,217.213404 C631.460713,215.595532 634.125043,215.595532 635.767896,217.213404 C637.410749,218.831554 637.410749,221.456102 635.767613,223.074253 C634.328207,224.492294 632.104442,224.66732 630.470644,223.599887 L630.470644,223.599887 L625.870316,228.131043 L611.455316,228.131043 C611.057195,230.326388 609.108465,232 606.767272,232 C604.138878,232 602,229.893283 602,227.304688 C602,224.715814 604.138878,222.609376 606.767272,222.609376 C609.108465,222.609376 611.056912,224.28271 611.455316,226.477776 L611.455316,226.477776 L625.175089,226.477776 L629.283636,222.431006 C628.200191,220.822052 628.378171,218.631446 629.817577,217.213404 Z M606.767272,223.711647 C604.755443,223.711647 603.119098,225.323108 603.119098,227.304688 C603.119098,229.286267 604.755443,230.897729 606.767272,230.897729 C608.778819,230.897729 610.415164,229.286267 610.415164,227.304688 C610.415164,225.323108 608.778819,223.711647 606.767272,223.711647 Z M157.866243,152 C160.148997,152 162,153.880011 162,156.198193 C162,158.229531 160.578526,159.924054 158.690826,160.312253 L158.690826,160.312253 L158.690826,188.488425 L149.244541,198.081028 L138.290042,198.081028 C137.898602,200.304912 135.984212,202 133.683665,202 C131.101213,202 129,199.866177 129,197.243648 C129,194.6214 131.101213,192.487578 133.683665,192.487578 C135.984212,192.487578 137.898602,194.182665 138.290042,196.406268 L138.290042,196.406268 L148.561466,196.406268 L157.04166,187.795031 L157.04166,160.312253 C155.15396,159.924054 153.732207,158.229531 153.732207,156.198193 C153.732207,153.880011 155.58321,152 157.866243,152 Z M133.683665,193.604178 C131.707001,193.604178 130.099537,195.236307 130.099537,197.243648 C130.099537,199.25127 131.707001,200.883682 133.683665,200.883682 C135.660329,200.883682 137.267793,199.25127 137.267793,197.243648 C137.267793,195.236307 135.660329,193.604178 133.683665,193.604178 Z M537.280368,71.2261377 C538.914442,69.5912874 541.564078,69.5912874 543.19787,71.2261377 C544.629338,72.6588139 544.806337,74.8717467 543.728867,76.4975864 L543.728867,76.4975864 L549,81.7718509 L549,163.802418 L533.489103,179.323358 L455.13742,179.323358 L444.965754,169.145106 L393.656063,168.743574 L381.315669,181.091677 L371.40317,181.091677 C371.006963,183.309397 369.069261,185 366.740699,185 C364.1268,185 362,182.871541 362,180.256231 C362,177.64064 364.1268,175.512462 366.740699,175.512462 C369.069261,175.512462 371.007244,177.203347 371.40317,179.421348 L371.40317,179.421348 L380.624557,179.421348 L392.970017,167.067613 L445.662493,167.480127 L455.828531,177.652748 L532.79771,177.652748 L547.330752,163.110577 L547.330752,82.4636916 L542.548687,77.6785305 C540.923899,78.7569798 538.712117,78.5801479 537.280649,77.1474717 C535.646576,75.5126215 535.646576,72.8609879 537.280368,71.2261377 Z M366.740699,176.626109 C364.739965,176.626109 363.112926,178.254201 363.112926,180.256231 C363.112926,182.258543 364.739965,183.886353 366.740699,183.886353 C368.741434,183.886353 370.368472,182.258543 370.368472,180.256231 C370.368472,178.254201 368.741434,176.626109 366.740699,176.626109 Z M306.294524,98 C308.889002,98 311,100.065749 311,102.604004 C311,105.142533 308.889002,107.208009 306.294524,107.208009 C303.983263,107.208009 302.05968,105.566942 301.666696,103.41429 L301.666696,103.41429 L292.012189,103.41429 L286.616547,108.693577 C287.686012,110.271515 287.510886,112.419522 286.089775,113.809988 C284.467843,115.396671 281.837893,115.396671 280.21624,113.809988 C278.594587,112.223305 278.594587,109.649795 280.21624,108.063112 C281.637351,106.67292 283.83242,106.501025 285.444857,107.547427 L285.444857,107.547427 L291.326212,101.793173 L301.666975,101.793173 C302.060239,99.6407932 303.983543,98 306.294524,98 Z M306.294524,99.0808356 C304.308655,99.0808356 302.693706,100.66096 302.693706,102.604004 C302.693706,104.547049 304.308655,106.127173 306.294524,106.127173 C308.280672,106.127173 309.895343,104.547049 309.895343,102.604004 C309.895343,100.66096 308.280672,99.0808356 306.294524,99.0808356 Z M520.941555,79.4102066 C522.782156,77.5299311 525.778353,77.5299311 527.619234,79.4102066 C529.460396,81.290482 529.460115,84.35051 527.619234,86.2307855 C525.778353,88.1110609 522.782156,88.1110609 520.941555,86.2307855 C520.222916,85.4967681 519.788761,84.5823954 519.630964,83.6290889 L519.630964,83.6290889 L504.477887,83.6290889 L491.387393,97 L478.760483,97 L475.495497,93.6648586 C474.830952,94.1229038 474.029631,94.3902876 473.167769,94.3902876 C470.866107,94.3902876 469,92.4842472 469,90.1336166 C469,87.782986 470.866107,85.8769456 473.167769,85.8769456 C475.469151,85.8769456 477.335257,87.782986 477.335257,90.1336166 C477.335257,90.9895885 477.085528,91.7848694 476.659782,92.4524703 L476.659782,92.4524703 L479.449132,95.3015112 L490.699024,95.3015112 L503.789518,81.9306001 L519.642455,81.9306001 C519.811184,81.0067803 520.243376,80.1236119 520.941555,79.4102066 Z M526.835009,80.2106405 C525.42576,78.7715198 523.134188,78.7715198 521.725218,80.2109268 C520.316249,81.6503337 520.316249,83.9909446 521.725218,85.4303515 C523.134468,86.8694722 525.42632,86.8694722 526.83529,85.4303515 C528.244539,83.9909446 528.244539,81.65062 526.83557,80.2112131 C526.879854,80.2561587 526.923578,80.3008182 526.96534,80.3437599 L526.925083,80.302451 C526.898322,80.2750531 526.870605,80.246807 526.83529,80.2109268 Z M393.164037,45 C395.463792,45 397.328353,46.9034374 397.328353,49.2508577 C397.328353,50.1977163 397.02114,51.0693865 396.508372,51.7760998 L396.508372,51.7760998 L401.021909,56.3840307 L504.638059,56.3840307 C504.794886,55.4300249 505.228961,54.5146139 505.948124,53.7804554 C507.787481,51.9027479 510.780916,51.9027479 512.620273,53.7804554 C514.459909,55.657877 514.459909,58.7140118 512.620273,60.5917194 C510.781196,62.4694269 507.787481,62.4694269 505.948124,60.5917194 C505.251925,59.8807177 504.82037,59.0007568 504.651221,58.0799139 L504.651221,58.0799139 L400.33411,58.0799139 L395.272239,52.9122158 C394.653333,53.284441 393.934169,53.5017153 393.164037,53.5017153 C390.864841,53.5017153 389,51.5982779 389,49.2508577 C389,46.9034374 390.864841,45 393.164037,45 Z M511.837258,54.5797962 C510.429176,53.1426409 508.139221,53.1426409 506.731419,54.5797962 C505.323617,56.0172373 505.323617,58.3549374 506.731419,59.7920927 C508.139221,61.2295338 510.429176,61.2295338 511.836978,59.7920927 C513.24534,58.3549374 513.24534,56.0172373 511.837258,54.5797962 Z M565.836975,25 C568.135738,25 570,26.9239811 570,29.2963808 C570,31.6687804 568.135738,33.5924726 565.836975,33.5924726 C563.822934,33.5924726 562.142606,32.1151764 561.757659,30.1533455 L561.757659,30.1533455 L525.034575,30.1533455 L511.61771,44 L490.650288,44 L487.406936,40.6530414 C485.56927,41.9746046 483.017423,41.7943127 481.379089,40.1037865 C479.540304,38.2060979 479.540304,35.1177311 481.379089,33.2200426 C483.217875,31.322354 486.210382,31.322354 488.049167,33.2200426 C489.687221,34.9105687 489.861917,37.5441606 488.581374,39.4409824 L488.581374,39.4409824 L491.337873,42.2860706 L510.930125,42.2860706 L524.34699,28.4394161 L561.757659,28.4394161 C562.142606,26.4775852 563.822654,25 565.836975,25 Z M487.266116,34.0281782 C485.85875,32.575441 483.569507,32.575441 482.161861,34.0281782 C480.754496,35.4806265 480.754496,37.8432026 482.162141,39.2959398 C483.569507,40.7483881 485.85875,40.7483881 487.266116,39.2959398 C488.673761,37.8432026 488.673761,35.4806265 487.266116,34.0281782 Z" id="Combined-Shape"></path>
                </g>
            </g>
        </g>
    </g>
</svg>