<?xml version="1.0" encoding="UTF-8"?>
<svg width="258px" height="32px" viewBox="0 0 258 32" version="1.1" xmlns="http://www.w3.org/2000/svg" xmlns:xlink="http://www.w3.org/1999/xlink">
    <title>Headline</title>
    <g id="Layout" stroke="none" stroke-width="1" fill="none" fill-rule="evenodd">
        <g id="1440px-Home" transform="translate(-52.000000, -1214.000000)" fill="#619ECE">
            <g id="Directory" transform="translate(0.000000, 1141.000000)">
                <path d="M262.251938,91.5422673 C262.505469,91.5422673 262.744803,91.6527436 262.9086,91.8418621 L262.973995,91.9276349 L269.805143,102.122202 C270.461137,102.2636 270.954871,102.846577 270.954871,103.544296 C270.954871,104.346903 270.301775,105 269.499167,105 C268.696559,105 268.044042,104.346903 268.044042,103.544296 C268.044042,103.349583 268.085951,103.165998 268.157012,102.996802 L268.215574,102.872655 L262.997754,95.0864904 L263.024991,102.41427 C263.357045,102.68142 263.574357,103.085911 263.574357,103.544296 C263.574357,104.346903 262.92126,105 262.118653,105 C261.316045,105 260.662948,104.346903 260.662948,103.544296 C260.662948,103.106451 260.858462,102.713936 261.166053,102.447337 L261.28649,102.353423 L261.249402,92.4155741 C261.247798,91.9726576 261.57801,91.6057826 262.005762,91.5501379 L262.114596,91.5428468 L262.251938,91.5422673 Z M110.42289,91.5422673 C110.676422,91.5422673 110.915755,91.6527436 111.079552,91.8418621 L111.144947,91.9276349 L117.976096,102.122202 C118.63209,102.2636 119.125824,102.846577 119.125824,103.544296 C119.125824,104.346903 118.472727,105 117.67012,105 C116.867512,105 116.214995,104.346903 116.214995,103.544296 C116.214995,103.349583 116.256904,103.165998 116.327965,102.996802 L116.386527,102.872655 L111.168707,95.0864904 L111.195943,102.41427 C111.527997,102.68142 111.74531,103.085911 111.74531,103.544296 C111.74531,104.346903 111.092213,105 110.289605,105 C109.486997,105 108.833901,104.346903 108.833901,103.544296 C108.833901,103.106451 109.029414,102.713936 109.337005,102.447337 L109.457443,102.353423 L109.420355,92.4155741 C109.41875,91.9726576 109.748962,91.6057826 110.176714,91.5501379 L110.285549,91.5428468 L110.42289,91.5422673 Z M262.05201,73 C262.47028,73 262.844595,73.1799455 263.109425,73.4641343 L263.203477,73.5754437 L267.781528,73.5580587 L267.818616,73.5580587 C273.273452,73.5580587 277.721116,77.952988 277.741398,83.3724737 C277.756123,87.5293339 275.121994,91.212987 271.298308,92.6363655 L271.029627,92.7319812 L277.10163,102.104238 C277.830641,102.18305 278.402028,102.795002 278.402028,103.544296 C278.402028,104.346903 277.748932,105 276.946324,105 C276.144296,105 275.491199,104.346903 275.491199,103.544296 C275.491199,103.396088 275.513691,103.253423 275.555007,103.118988 L275.602463,102.987396 L268.923723,92.6780876 C268.767838,92.4370156 268.740601,92.1345165 268.851865,91.8696849 C268.96255,91.6048533 269.197827,91.4118798 269.479464,91.3539297 C273.273452,90.579138 276.016806,87.2249909 276.002898,83.3788482 C275.986403,78.9987605 272.452464,75.4309061 268.067701,75.3002654 L267.818616,75.2965592 L267.788482,75.2965592 L263.221442,75.3139442 C262.95661,75.6743933 262.532995,75.9114089 262.05201,75.9114089 C261.249402,75.9114089 260.596306,75.2583122 260.596306,74.455125 C260.596306,73.6530967 261.249402,73 262.05201,73 Z M255.121767,73 C255.923796,73 256.576892,73.6530967 256.576892,74.455125 C256.576892,74.876486 256.394658,75.2529751 256.107518,75.518251 L255.995074,75.6123868 L256.094748,102.469323 C256.388555,102.735893 256.576892,103.116624 256.576892,103.544296 C256.576892,104.346903 255.923796,105 255.121767,105 C254.31916,105 253.666063,104.346903 253.666063,103.544296 C253.666063,103.075422 253.890903,102.660059 254.23666,102.394528 L254.356248,102.311699 L254.256574,75.6199203 C253.900181,75.3539297 253.666063,74.9332126 253.666063,74.455125 C253.666063,73.6530967 254.31916,73 255.121767,73 Z M110.222963,73 C110.641233,73 111.015547,73.1799455 111.280378,73.4641343 L111.37443,73.5754437 L115.952481,73.5580587 L115.989569,73.5580587 C121.444404,73.5580587 125.892068,77.952988 125.912351,83.3724737 C125.927075,87.5293339 123.292947,91.212987 119.46926,92.6363655 L119.20058,92.7319812 L125.272582,102.104238 C126.001594,102.18305 126.572981,102.795002 126.572981,103.544296 C126.572981,104.346903 125.919884,105 125.117276,105 C124.315248,105 123.662151,104.346903 123.662151,103.544296 C123.662151,103.396088 123.684643,103.253423 123.72596,103.118988 L123.773415,102.987396 L117.094676,92.6780876 C116.93879,92.4370156 116.911554,92.1345165 117.022818,91.8696849 C117.133502,91.6048533 117.368779,91.4118798 117.650417,91.3539297 C121.444404,90.579138 124.187758,87.2249909 124.17385,83.3788482 C124.157356,78.9987605 120.623417,75.4309061 116.238654,75.3002654 L115.989569,75.2965592 L115.959435,75.2965592 L111.392394,75.3139442 C111.127562,75.6743933 110.703948,75.9114089 110.222963,75.9114089 C109.420355,75.9114089 108.767258,75.2583122 108.767258,74.455125 C108.767258,73.6530967 109.420355,73 110.222963,73 Z M103.29272,73 C104.094748,73 104.747845,73.6530967 104.747845,74.455125 C104.747845,74.876486 104.56561,75.2529751 104.278471,75.518251 L104.166027,75.6123868 L104.265701,102.469323 C104.559507,102.735893 104.747845,103.116624 104.747845,103.544296 C104.747845,104.346903 104.094748,105 103.29272,105 C102.490112,105 101.837016,104.346903 101.837016,103.544296 C101.837016,103.075422 102.061856,102.660059 102.407612,102.394528 L102.5272,102.311699 L102.427526,75.6199203 C102.071134,75.3539297 101.837016,74.9332126 101.837016,74.455125 C101.837016,73.6530967 102.490112,73 103.29272,73 Z M308.386527,73 C309.188555,73 309.841652,73.6530967 309.841652,74.4557045 C309.841652,75.1668598 309.327741,75.7542489 308.652311,75.8793288 L308.515176,75.8980804 L298.839841,91.5370518 L298.879826,102.36849 C299.209562,102.635639 299.425136,103.038971 299.425136,103.495618 C299.425136,104.297646 298.772039,104.950742 297.969431,104.950742 C297.166824,104.950742 296.514306,104.297646 296.514306,103.495618 C296.514306,103.055713 296.710736,102.662053 297.019751,102.395225 L297.140746,102.301268 L297.100181,91.2948207 C297.099746,91.1726911 297.125063,91.0525172 297.173687,90.9416335 L297.229989,90.8341181 L307.034553,74.9876856 C306.969649,74.8225281 306.930822,74.644042 306.930822,74.4557045 C306.930822,73.6530967 307.583919,73 308.386527,73 Z M280.619775,73.155306 C281.422383,73.155306 282.07548,73.8084028 282.07548,74.61159 C282.07548,74.725172 282.060027,74.8346332 282.033584,74.9399734 L281.986237,75.0948932 L291.89569,90.7970301 C291.961318,90.9004708 292.003803,91.0162984 292.021188,91.1364451 L292.030134,91.2577327 L292.071279,102.331402 C292.427671,102.596813 292.661789,103.01753 292.661789,103.495618 C292.661789,104.297646 292.008693,104.950742 291.206085,104.950742 C290.404057,104.950742 289.75096,104.297646 289.75096,103.495618 C289.75096,103.074257 289.933195,102.697767 290.220334,102.432491 L290.332778,102.338356 L290.292792,91.5138718 L280.538645,76.058602 C279.774864,76.0157189 279.164071,75.3858022 279.164071,74.61159 C279.164071,73.8084028 279.817168,73.155306 280.619775,73.155306 Z M132.267729,73.0249185 C133.070337,73.0249185 133.723434,73.6780152 133.723434,74.4812025 C133.723434,74.9020484 133.540741,75.2784802 133.253499,75.5437498 L133.141036,75.6378848 L133.24013,102.323868 C133.596523,102.589859 133.830641,103.010576 133.830641,103.488664 C133.830641,104.290692 133.177544,104.943788 132.375516,104.943788 C131.572908,104.943788 130.919812,104.290692 130.919812,103.488664 C130.919812,103.067303 131.102047,102.690813 131.389186,102.425537 L131.50163,102.331402 L131.402535,75.6448388 C131.046722,75.3794277 130.812025,74.9587106 130.812025,74.4812025 C130.812025,73.6780152 131.465121,73.0249185 132.267729,73.0249185 Z M139.079754,73 C139.5006,73 139.877031,73.1822349 140.142301,73.4693745 L140.236436,73.5818182 L153.218979,73.5337197 C153.430496,73.5528432 153.670989,73.6229627 153.834987,73.7863817 C153.97117,73.9215985 154.057853,74.0974607 154.083636,74.2854629 L154.091706,74.3994929 L154.117204,81.2601956 C154.118809,81.703647 153.788596,82.0705631 153.360389,82.1257552 L153.251431,82.1329229 L140.096777,82.1816009 L140.10489,84.6467946 L149.265628,84.6126041 C149.515393,84.6085476 149.717639,84.7024267 149.881058,84.8652662 C150.017723,85.0004829 150.104487,85.1763451 150.130283,85.3643473 L150.138356,85.4783774 L150.163854,92.33908 C150.165458,92.7825314 149.835246,93.1494476 149.407039,93.2046397 L149.29808,93.2118073 L140.137342,93.2459978 L140.146614,95.7291561 L153.301268,95.6804781 C153.546396,95.6642521 153.753278,95.7703006 153.916697,95.9325607 C154.053362,96.0682603 154.140126,96.2438006 154.165922,96.4320174 L154.173995,96.5462514 L154.199499,103.406954 C154.201098,103.850405 153.870886,104.217322 153.442222,104.272514 L153.33314,104.279681 L140.358711,104.32778 C140.093879,104.691706 139.667367,104.931039 139.184064,104.931039 C138.381456,104.931039 137.728359,104.277943 137.728359,103.475915 C137.728359,102.672727 138.381456,102.019631 139.184064,102.019631 C139.599759,102.019631 139.971955,102.197745 140.236754,102.479084 L140.330895,102.589279 L152.457515,102.544658 L152.438971,97.4224556 L139.283738,97.4711336 C138.838682,97.4711336 138.473123,97.1412917 138.41815,96.7136064 L138.411011,96.6047809 L138.395364,92.3831221 C138.394205,92.152481 138.485187,91.9311119 138.648026,91.7676929 C138.783243,91.6315103 138.959105,91.5444243 139.147107,91.5185078 L139.261137,91.5103948 L148.421876,91.4767838 L148.403332,86.3545817 L139.242593,86.3887722 C139.010214,86.3887722 138.790004,86.2977907 138.627164,86.1361101 C138.490499,86.0008934 138.403332,85.8250312 138.377738,85.6366936 L138.369866,85.5224194 L138.354799,81.3193046 C138.353194,80.8753183 138.683406,80.5088547 139.111614,80.4537355 L139.220572,80.4465773 L152.375226,80.3978993 L152.356682,75.2756972 L140.244549,75.3203187 C139.978558,75.6772908 139.557841,75.9119884 139.079754,75.9119884 C138.277725,75.9119884 137.624629,75.2588917 137.624629,74.456284 C137.624629,73.6530967 138.277725,73 139.079754,73 Z M215.828758,79.8827237 C216.630786,79.8827237 217.283883,80.5358204 217.283883,81.3384281 C217.283883,82.1416154 216.630786,82.7947121 215.828758,82.7947121 C215.407912,82.7947121 215.031022,82.6120193 214.765651,82.324778 L214.671496,82.2123144 L209.402101,82.2314379 L209.476856,102.375444 C209.779935,102.642014 209.975806,103.02854 209.975806,103.463166 C209.975806,104.266353 209.322709,104.919449 208.520101,104.919449 C207.717494,104.919449 207.064397,104.266353 207.064397,103.463166 C207.064397,103.000551 207.283135,102.589569 207.620912,102.323161 L207.737776,102.239841 L207.660123,81.3691416 C207.658964,81.137921 207.750525,80.916552 207.912785,80.7531329 C208.048002,80.6169504 208.223864,80.5298644 208.411866,80.5042832 L208.525896,80.4964143 L214.664542,80.4738138 C214.929953,80.1174212 215.35067,79.8827237 215.828758,79.8827237 Z M194.299746,79.8827237 C194.758189,79.8827237 195.166876,80.0972372 195.433289,80.4299445 L195.516697,80.5450924 L201.595654,80.5224919 C201.828033,80.5224919 202.048243,80.6128939 202.211083,80.7745744 C202.347265,80.9102741 202.433949,81.0858143 202.459731,81.2740311 L202.467802,81.3882651 L202.545455,102.299529 C202.901847,102.56494 203.136545,102.985657 203.136545,103.463166 C203.136545,104.266353 202.483448,104.919449 201.68084,104.919449 C200.878233,104.919449 200.225136,104.266353 200.225136,103.463166 C200.225136,103.042835 200.407371,102.66646 200.69451,102.401197 L200.806954,102.307063 L200.732778,82.2644694 L195.39732,82.2841724 C195.13017,82.5936255 194.740167,82.7947121 194.299746,82.7947121 C193.497139,82.7947121 192.844042,82.1416154 192.844042,81.3384281 C192.844042,80.5358204 193.497139,79.8827237 194.299746,79.8827237 Z M93.9969576,73 C94.7995654,73 95.4526621,73.6530967 95.4526621,74.4557045 C95.4526621,74.9042376 95.2484752,75.3053618 94.9283946,75.5724737 L94.8175299,75.6564288 L94.9160449,102.338356 C95.2411445,102.605505 95.4526621,103.00536 95.4526621,103.45795 C95.4526621,104.260558 94.7995654,104.913654 93.9969576,104.913654 C93.1943499,104.913654 92.5412532,104.260558 92.5412532,103.45795 C92.5412532,103.008895 92.7459095,102.60725 93.0665063,102.340039 L93.1775444,102.256067 L93.0784498,75.5758783 C92.7533502,75.3087287 92.5412532,74.9082941 92.5412532,74.4557045 C92.5412532,73.6530967 93.1943499,73 93.9969576,73 Z M87.066715,73 C87.8687432,73 88.5218399,73.6530967 88.5218399,74.4557045 C88.5218399,74.9042376 88.317653,75.3058312 87.9975725,75.573037 L87.8867077,75.6570083 L87.9858022,102.338356 C88.3103223,102.606085 88.5218399,103.00594 88.5218399,103.45795 C88.5218399,104.260558 87.8687432,104.913654 87.066715,104.913654 C86.2641072,104.913654 85.6110105,104.260558 85.6110105,103.45795 C85.6110105,103.008895 85.8156668,102.60725 86.1362637,102.340039 L86.2473017,102.256067 L86.1482072,75.5752988 C85.8231076,75.3081492 85.6110105,74.9082941 85.6110105,74.4557045 C85.6110105,73.6530967 86.2641072,73 87.066715,73 Z M238.773595,73.0956175 C239.422055,73.0956175 239.966206,73.5250272 240.153964,74.1120608 C246.305358,76.4167331 250.519484,82.3160449 250.544506,88.869033 C250.57048,95.9963057 245.698042,102.257805 238.815898,104.171894 C238.564395,104.609996 238.097318,104.909598 237.557224,104.909598 C236.754616,104.909598 236.101519,104.256501 236.101519,103.453314 C236.101519,102.651286 236.754616,101.998189 237.557224,101.998189 C237.964033,101.998189 238.330856,102.166244 238.595109,102.436291 C244.602787,100.65259 248.828502,95.1345889 248.805902,88.875987 C248.783881,83.0607026 245.049002,77.820862 239.59069,75.7555234 C239.357151,75.9143064 239.076094,76.0076059 238.773595,76.0076059 C237.970987,76.0076059 237.31789,75.3545092 237.31789,74.551322 C237.31789,73.7487142 237.970987,73.0956175 238.773595,73.0956175 Z M230.813001,73 C231.615029,73 232.268126,73.6525172 232.268126,74.455125 C232.268126,75.2583122 231.615029,75.9114089 230.813001,75.9114089 C230.447336,75.9114089 230.116441,75.7711699 229.860882,75.5474828 C224.009089,77.4598334 220.032559,82.8260051 220.055159,88.981456 C220.07776,95.0893879 224.082686,100.433539 229.90956,102.320971 C230.158745,102.122202 230.469937,101.998189 230.813001,101.998189 C231.615029,101.998189 232.268126,102.651286 232.268126,103.453314 C232.268126,104.256501 231.615029,104.909598 230.813001,104.909598 C230.203946,104.909598 229.682975,104.532923 229.466242,104.000942 C222.878484,101.910105 218.342736,95.8844622 218.316552,88.98841 C218.291161,82.0089098 222.835022,75.9415429 229.495217,73.8460703 C229.727017,73.3477001 230.228285,73 230.813001,73 Z M169.615471,73 C170.418079,73 171.071176,73.6530967 171.071176,74.456284 C171.071176,75.2588917 170.418079,75.9119884 169.615471,75.9119884 C169.316449,75.9119884 169.037709,75.8204274 168.806489,75.6645418 C163.346438,77.8341905 159.765127,83.0612821 159.787148,89.0052155 C159.809169,94.9004708 163.389321,100.085838 168.806489,102.239841 C169.037709,102.084535 169.316449,101.992974 169.615471,101.992974 C170.418079,101.992974 171.071176,102.64607 171.071176,103.448678 C171.071176,104.251865 170.418079,104.904962 169.615471,104.904962 C168.964113,104.904962 168.417644,104.471496 168.232784,103.879826 C162.119636,101.480695 158.073566,95.6491851 158.048533,89.0121695 C158.023729,82.3201014 162.071538,76.4404926 168.232784,74.0245563 C168.418224,73.4334661 168.964113,73 169.615471,73 Z M179.315145,73.2016661 C179.989104,73.2016661 180.551799,73.6641072 180.716956,74.2870699 C185.437881,76.3836225 188.902454,80.6464121 189.945621,85.7097166 L190.014457,86.0642521 L190.016196,86.0729446 L190.020252,86.0926476 L190.026627,86.1737776 L190.03416,86.2433176 L190.033001,86.2543281 L190.02257,86.3609562 L190.014457,86.4270192 L189.986641,86.5180007 L189.962882,86.5898587 L189.922896,86.6640348 L189.882331,86.7364723 L189.828437,86.8025353 L189.776282,86.8639623 L189.707322,86.9213329 L189.647633,86.9694314 L189.572878,87.0105759 L189.497543,87.0494024 L189.422208,87.0731619 L189.331226,87.0992394 L189.319057,87.1027164 L189.190987,87.1137269 L189.168387,87.1160449 L182.49834,87.1409634 C182.118188,87.1409634 181.783816,86.8981528 181.667916,86.5394422 C180.640981,83.3689205 177.756519,81.2158903 174.432666,81.1047686 L174.16223,81.1002535 L174.133255,81.1002535 C172.026192,81.1083665 170.047778,81.9329953 168.564258,83.4217313 C167.080737,84.9104672 166.268278,86.8848243 166.276391,88.9808765 C166.292305,93.2174017 169.692352,96.6679563 173.911934,96.7991031 L174.161071,96.8029699 L174.191205,96.8029699 C177.295962,96.7917208 180.074809,94.9904222 181.347755,92.1896207 L181.459296,91.9322709 L181.496746,91.8529518 L181.496746,91.8529518 L181.541585,91.7792829 L181.582729,91.7282869 L181.648792,91.6494748 L181.707901,91.5996378 L181.7786,91.5422673 L181.834232,91.5121333 L181.926953,91.4622963 L181.983164,91.4443318 L182.087474,91.4124593 L182.171791,91.3993481 L182.171791,91.3993481 L182.257847,91.3944947 L182.259586,91.3944947 L189.044374,91.3689967 L189.047851,91.3689967 L189.055964,91.3701557 L189.120288,91.3765302 L189.229234,91.3886997 L189.235609,91.3892792 L189.393812,91.4414343 L189.46625,91.4808403 L189.540426,91.5231438 L189.608807,91.5793553 L189.668495,91.6315103 L189.721809,91.6958348 L189.773385,91.7618979 L189.812211,91.8325969 L189.851617,91.9096704 L189.877695,91.9942774 L189.899716,92.070192 L189.911306,92.1797175 L189.917101,92.23477 L189.916522,92.2411445 L189.90667,92.3396595 L189.897398,92.4178921 C188.740716,97.6409272 185.029596,101.933285 180.08588,103.880985 C179.90044,104.472075 179.354551,104.904962 178.703193,104.904962 C177.901165,104.904962 177.248068,104.251865 177.248068,103.448678 C177.248068,102.64607 177.901165,101.992974 178.703193,101.992974 C179.001636,101.992974 179.278637,102.083955 179.509857,102.238102 C183.433007,100.671995 186.474621,97.4478108 187.802784,93.4654617 L187.915507,93.1121333 L182.821701,93.1312568 C181.267835,96.3302588 178.085501,98.4096539 174.505924,98.5354883 L174.198159,98.5414705 L174.161071,98.5414705 C168.870813,98.5414705 164.557594,94.2636001 164.537818,88.9878305 C164.528039,86.4252807 165.520723,84.0134009 167.33282,82.1949294 C169.065022,80.4566304 171.347575,79.4606175 173.79251,79.3686721 L174.12688,79.361753 L174.162809,79.361753 C178.040491,79.361753 181.477463,81.6413249 182.991288,85.129461 L183.103917,85.4001449 L188.082983,85.3816009 C186.999897,81.1854401 184.034595,77.682941 180.06328,75.8998189 C179.844229,76.0325244 179.589828,76.1136545 179.315145,76.1136545 C178.513117,76.1136545 177.86002,75.4605578 177.86002,74.65795 C177.86002,73.8547628 178.513117,73.2016661 179.315145,73.2016661 Z M53.4557045,73 C54.2583122,73 54.9114089,73.6530967 54.9114089,74.456284 C54.9114089,74.8771299 54.7287161,75.2535617 54.4414748,75.5188313 L54.3290112,75.6129663 L54.4275263,102.057298 C54.7839189,102.322709 55.0180369,102.744006 55.0180369,103.221514 C55.0180369,104.024122 54.3649402,104.677218 53.5623325,104.677218 C52.7603042,104.677218 52.1072075,104.024122 52.1072075,103.221514 C52.1072075,102.800668 52.2894425,102.424236 52.576582,102.15856 L52.6890257,102.064252 L52.5905107,75.6199203 C52.2341181,75.3545092 52,74.9337921 52,74.456284 C52,73.6530967 52.6530967,73 53.4557045,73 Z M60.4091271,73 C60.8134895,73 61.1752693,73.1689565 61.4383004,73.4364582 L61.5321985,73.5412532 L64.5455994,73.5302427 L64.6093444,73.5302427 C73.4658457,73.5302427 80.6846795,80.3382108 80.7155021,88.7340094 C80.7310395,92.8206447 79.063238,96.6656284 76.018544,99.5619703 C73.0289026,102.406737 69.0610648,103.998624 64.8307135,104.055415 L64.746034,104.070047 L64.746034,104.070047 L64.6591815,104.075118 L61.573343,104.086708 C61.3079319,104.4431 60.8872148,104.677218 60.4091271,104.677218 C59.6070989,104.677218 58.9540022,104.024122 58.9540022,103.221514 C58.9540022,102.418906 59.6070989,101.765809 60.4091271,101.765809 C60.8304881,101.765809 61.2069773,101.948044 61.4722532,102.235184 L61.566389,102.347628 L64.4830134,102.337197 C64.5386454,102.325027 64.5960159,102.318653 64.653966,102.318653 C68.5018472,102.304745 72.1127128,100.878015 74.8207171,98.3027164 C77.5148135,95.7395871 78.9908004,92.343716 78.9768924,88.7409634 C78.950029,81.4032527 72.6843413,75.4342839 64.9331574,75.2721274 L64.6093444,75.2687432 L64.5525534,75.2687432 L61.6075335,75.2791742 C61.3450199,75.6604853 60.9063383,75.9119884 60.4091271,75.9119884 C59.6070989,75.9119884 58.9540022,75.2588917 58.9540022,74.456284 C58.9540022,73.6530967 59.6070989,73 60.4091271,73 Z M234.432559,79.406954 C239.750632,79.406954 244.086452,83.6546903 244.106218,88.8927925 C244.12495,94.0531117 239.948869,98.2832267 234.740643,98.4462601 L234.46559,98.4510685 L234.429661,98.4510685 C229.110429,98.451648 224.774609,94.2033321 224.755413,88.9646505 C224.745634,86.4177472 225.745272,84.0215139 227.569538,82.2157914 C229.310609,80.4919043 231.604152,79.5039409 234.059154,79.4136825 L234.394891,79.406954 L234.432559,79.406954 Z M65.6269526,80.5335024 C67.7085172,80.5335024 69.6643303,81.3917421 71.1374198,82.9517566 C72.6023963,84.5042376 73.413117,86.5684172 73.4218799,88.7641434 C73.430502,90.9598696 72.6342688,93.0298443 71.1803028,94.5927562 C69.8150004,96.0604564 68.0239768,96.9188627 66.0978888,97.0382978 L65.7926896,97.050996 L65.6594046,97.0620065 L60.461288,97.08113 C60.0162318,97.08113 59.6506735,96.7512881 59.5956999,96.3240585 L59.5885607,96.2153568 L59.5335024,81.4253531 C59.531903,80.9819018 59.8621156,80.6149856 60.2903233,80.5597935 L60.3992814,80.5526259 L65.5979776,80.5335024 L65.6269526,80.5335024 Z M234.432559,81.1454545 L234.401845,81.1454545 C232.278557,81.1535675 230.286814,81.9718218 228.792284,83.4507063 C227.302389,84.9261137 226.485873,86.8819268 226.493926,88.9576965 C226.50933,93.1572786 229.931665,96.5786939 234.178892,96.7087337 L234.429661,96.7125679 L234.459216,96.7125679 C238.835601,96.6963419 242.383881,93.1915248 242.36771,88.8997465 C242.351429,84.6178196 238.794457,81.1454545 234.432559,81.1454545 Z M65.6263731,82.2720029 L65.6043521,82.2720029 L61.2754857,82.2876494 L61.3235842,95.3391525 L65.5301761,95.3240855 L65.6524506,95.314234 C67.2588251,95.3090185 68.7701616,94.6321623 69.9077204,93.4088374 C71.0591873,92.1704455 71.690263,90.523506 71.6833658,88.7705179 C71.676355,87.0181094 71.0336893,85.3752264 69.8729504,84.145527 C68.7319146,82.9366896 67.2246346,82.2720029 65.6263731,82.2720029 Z M115.349801,79.0117349 C116.486201,79.0117349 117.556537,79.4492575 118.364361,80.2449113 C119.178558,81.04636 119.62883,82.1149583 119.632923,83.2530967 C119.637523,84.3912351 119.194784,85.4633104 118.387541,86.2711336 C117.639033,87.0185647 116.659678,87.4566994 115.60862,87.5191884 L115.364868,87.5269105 L110.29598,87.5454545 C109.850924,87.5454545 109.485365,87.2156126 109.430392,86.7883831 L109.423252,86.6796813 L109.397743,79.9030062 C109.396595,79.6723651 109.487577,79.450996 109.649837,79.287577 C109.785537,79.1513944 109.961479,79.0643084 110.149495,79.0383919 L110.263528,79.0302789 L115.332416,79.0117349 L115.349801,79.0117349 Z M267.178848,79.0117349 C268.315248,79.0117349 269.385585,79.4492575 270.193408,80.2449113 C271.007606,81.04636 271.457878,82.1149583 271.46197,83.2530967 C271.46657,84.3912351 271.023832,85.4633104 270.216588,86.2711336 C269.468081,87.0185647 268.488726,87.4566994 267.437668,87.5191884 L267.193915,87.5269105 L262.125027,87.5454545 C261.679971,87.5454545 261.314413,87.2156126 261.259439,86.7883831 L261.2523,86.6796813 L261.226791,79.9030062 C261.225643,79.6723651 261.316624,79.450996 261.478884,79.287577 C261.614584,79.1513944 261.790527,79.0643084 261.978542,79.0383919 L262.092575,79.0302789 L267.161463,79.0117349 L267.178848,79.0117349 Z M115.33937,80.7502345 L111.139732,80.7658819 L111.158276,85.803477 L115.357914,85.78841 C116.039406,85.7855125 116.678595,85.5201014 117.157841,85.0414343 C117.635929,84.5639261 117.897284,83.9316914 117.89441,83.2594712 C117.892068,82.5878305 117.625498,81.9573343 117.144513,81.4838827 C116.661789,81.0086925 116.007534,80.7496559 115.33937,80.7502345 Z M267.168417,80.7502345 L262.968779,80.7658819 L262.987323,85.803477 L267.186961,85.78841 C267.868453,85.7855125 268.507642,85.5201014 268.986889,85.0414343 C269.464976,84.5639261 269.726331,83.9316914 269.723457,83.2594712 C269.721116,82.5878305 269.454545,81.9573343 268.97356,81.4838827 C268.490837,81.0086925 267.836581,80.7496559 267.168417,80.7502345 Z M300.770156,73 C301.572763,73 302.22586,73.6530967 302.22586,74.4557045 C302.22586,75.169033 301.708385,75.7575765 301.030599,75.8808823 L300.89301,75.8992394 L295.286925,84.6044911 C295.147483,84.8210069 294.920636,84.9629844 294.668887,84.9958722 L294.559652,85.0031873 C294.300036,85.0031873 294.058611,84.8900489 293.894386,84.6971591 L293.828903,84.6097066 L288.126621,75.8969214 C287.392974,75.8233249 286.815212,75.2090547 286.815212,74.4557045 C286.815212,73.6530967 287.468309,73 288.270916,73 C289.073524,73 289.726621,73.6530967 289.726621,74.4557045 C289.726621,74.6008693 289.704455,74.7401666 289.664279,74.8721297 L289.618254,75.0015936 L294.55038,82.537414 L299.416443,74.9807316 C299.353278,74.8173126 299.315031,74.641724 299.315031,74.4557045 C299.315031,73.6530967 299.967548,73 300.770156,73 Z M215.828758,73 C216.630786,73 217.283883,73.6530967 217.283883,74.455125 C217.283883,75.2583122 216.630786,75.9114089 215.828758,75.9114089 C215.416669,75.9114089 215.048536,75.7365 214.784188,75.4599425 L214.69004,75.3516117 L195.353278,75.4234698 C195.086708,75.7207534 194.703658,75.9114089 194.274248,75.9114089 C193.471641,75.9114089 192.818544,75.2583122 192.818544,74.455125 C192.818544,73.6530967 193.471641,73 194.274248,73 C194.741036,73 195.154782,73.2224933 195.420856,73.5656681 L195.503948,73.6843897 L214.645418,73.6131112 C214.90967,73.2433901 215.340239,73 215.828758,73 Z" id="Headline"></path>
            </g>
        </g>
    </g>
</svg>