<?xml version="1.0" encoding="UTF-8"?>
<svg width="124px" height="47px" viewBox="0 0 124 47" version="1.1" xmlns="http://www.w3.org/2000/svg" xmlns:xlink="http://www.w3.org/1999/xlink">
    <title>Springfield Devs Logo</title>
    <defs>
        <polygon id="path-1" points="0 47 124 47 124 0 0 0"></polygon>
    </defs>
    <g id="Layout" stroke="none" stroke-width="1" fill="none" fill-rule="evenodd">
        <g id="1440px-Home" transform="translate(-50.000000, -28.000000)">
            <g id="Springfield-Devs-Logo" transform="translate(50.000000, 28.000000)">
                <path d="M15,6.75563093 L15.985639,5.54454396 C16.6679409,6.12221103 17.3826842,6.48895013 18.2493026,6.48895013 C18.9313979,6.48895013 19.3432173,6.21124596 19.3432173,5.75568393 L19.3432173,5.73342519 C19.3432173,5.30012189 19.0830664,5.07774657 17.8159934,4.74450156 C16.2887695,4.34448036 15.3033371,3.91117706 15.3033371,2.3666331 L15.3033371,2.34437437 C15.3033371,0.933382797 16.4079967,0 17.956917,0 C19.06137,0 20.0038227,0.355715724 20.7727038,0.988923631 L19.906292,2.27781016 C19.234735,1.80020139 18.5741296,1.51126186 17.9350139,1.51126186 C17.296105,1.51126186 16.9603265,1.81122476 16.9603265,2.18898723 L16.9603265,2.21124596 C16.9603265,2.72234883 17.2853601,2.88897133 18.5956194,3.23345169 C20.1337948,3.64449626 21,4.21113997 21,5.56680269 L21,5.58906142 C21,7.1333934 19.8519475,8 18.2166546,8 C17.0688088,8 15.9098047,7.58895543 15,6.75563093" id="Fill-1" fill="#619ECE"></path>
                <path d="M26.9892555,4.03434272 C27.8231972,4.03434272 28.3106275,3.50862656 28.3106275,2.82286244 L28.3106275,2.79996729 C28.3106275,2.01150209 27.7907569,1.58848701 26.9568152,1.58848701 L25.6678835,1.58848701 L25.6678835,4.03434272 L26.9892555,4.03434272 Z M24,0 L27.0975274,0 C28.906123,0 30,1.13145629 30,2.7657336 L30,2.78862874 C30,4.64008286 28.6354432,5.60015263 26.9351195,5.60015263 L25.6678835,5.60015263 L25.6678835,8 L24,8 L24,0 Z" id="Fill-3" fill="#619ECE"></path>
                <path d="M36.5868626,3.88574543 C37.4546057,3.88574543 37.9521617,3.42850913 37.9521617,2.75431998 L37.9521617,2.7316435 C37.9521617,1.9772145 37.4197282,1.58866176 36.5522059,1.58866176 L34.7818423,1.58866176 L34.7818423,3.88574543 L36.5868626,3.88574543 Z M33,0 L36.7023115,0 C37.7320804,0 38.5307307,0.285854456 39.0629435,0.811556282 C39.5141434,1.2572363 39.7569613,1.88585446 39.7569613,2.64006541 L39.7569613,2.66295993 C39.7569613,3.95421096 39.051244,4.76576724 38.0214752,5.14298174 L40,8 L37.9172842,8 L36.1817981,5.43995639 L34.7818423,5.43995639 L34.7818423,8 L33,8 L33,0 Z" id="Fill-5" fill="#619ECE"></path>
                <mask id="mask-2" fill="white">
                    <use xlink:href="#path-1"></use>
                </mask>
                <g id="Clip-8"></g>
                <polygon id="Fill-7" fill="#619ECE" mask="url(#mask-2)" points="42 8 44 8 44 0 42 0"></polygon>
                <polygon id="Fill-9" fill="#619ECE" mask="url(#mask-2)" points="47 0 48.5980921 0 52.2893994 4.92581085 52.2893994 0 54 0 54 8 52.5255813 8 48.7108153 2.91436359 48.7108153 8 47 8"></polygon>
                <path d="M56,4.02213555 L56,4.00021081 C56,1.80120164 57.8590389,0 60.4016018,0 C61.9130435,0 62.8244851,0.375882787 63.7,1.06082007 L62.5366133,2.35353642 C61.8887872,1.85643512 61.3132723,1.56909455 60.3418764,1.56909455 C58.998627,1.56909455 57.9308924,2.66301254 57.9308924,3.97807526 L57.9308924,4.00021081 C57.9308924,5.41435649 58.9864989,6.453041 60.4736842,6.453041 C61.1453089,6.453041 61.7448513,6.29830294 62.2128146,5.98903763 L62.2128146,4.88394645 L60.3535469,4.88394645 L60.3535469,3.41435649 L64,3.41435649 L64,6.7734795 C63.1363844,7.44766523 61.9489703,8 60.41373,8 C57.7988558,8 56,6.30947613 56,4.02213555" id="Fill-10" fill="#619ECE" mask="url(#mask-2)"></path>
                <polygon id="Fill-11" fill="#619ECE" mask="url(#mask-2)" points="67 0 73 0 73 1.6 68.7336149 1.6 68.7336149 3.30291633 72.4933601 3.30291633 72.4933601 4.90291633 68.7336149 4.90291633 68.7336149 8 67 8"></polygon>
                <polygon id="Fill-12" fill="#619ECE" mask="url(#mask-2)" points="76 8 78 8 78 0 76 0"></polygon>
                <polygon id="Fill-13" fill="#619ECE" mask="url(#mask-2)" points="81 0 86.9437305 0 86.9437305 1.56576724 82.7224469 1.56576724 82.7224469 3.18866176 86.4370906 3.18866176 86.4370906 4.75421096 82.7224469 4.75421096 82.7224469 6.43423276 87 6.43423276 87 8 81 8"></polygon>
                <polygon id="Fill-14" fill="#619ECE" mask="url(#mask-2)" points="89 0 90.8370505 0 90.8370505 6.4 95 6.4 95 8 89 8"></polygon>
                <path d="M100.386181,6.41133824 C101.948888,6.41133824 103.003313,5.43995639 103.003313,4.02267648 L103.003313,4 C103.003313,2.58272009 101.948888,1.58844372 100.386181,1.58844372 L98.9103171,1.58844372 L98.9103171,6.41133824 L100.386181,6.41133824 Z M97,0 L100.386181,0 C103.114766,0 105,1.7255928 105,3.97710548 L105,4 C105,6.25129463 103.114766,8 100.386181,8 L97,8 L97,0 Z" id="Fill-15" fill="#619ECE" mask="url(#mask-2)"></path>
                <path d="M28.5056659,27.7103978 C27.786878,25.0414317 26.3163674,22.6622217 24.3268155,20.7898681 C24.0934928,20.5703821 23.8516156,20.3589209 23.6043919,20.1537493 C21.9565904,18.7860831 20.009383,17.7448263 17.8699142,17.1351673 C17.7456608,17.0998153 17.6207658,17.0653309 17.4952292,17.0330152 C16.2065008,16.6994487 14.8538279,16.5187849 13.4577411,16.5187849 L13.3961491,16.5187849 L10.4880627,16.5296291 C10.2303598,16.2092924 9.84305694,16 9.40464121,16 C8.67131071,16 8.06843563,16.5732226 8.00620198,17.3012999 C8.0027802,17.3422908 8,17.3832818 8,17.4251403 C8,18.2104748 8.63003548,18.8496299 9.40464121,18.8496299 C9.88411832,18.8496299 10.3073499,18.6036842 10.5609894,18.2308618 L13.4025649,18.2200176 L13.4577411,18.2200176 C21.0808282,18.2200176 27.2954246,24.1237984 27.3221573,31.4043545 C27.3352028,34.9304434 25.9111002,38.2533127 23.3109742,40.7615683 C20.6978026,43.2819693 17.2137877,44.6782641 13.5002995,44.6919277 C13.4444817,44.6919277 13.3893055,44.6982174 13.3354125,44.7097122 L10.5207835,44.7205563 C10.2641499,44.3765794 9.86144901,44.150587 9.40464121,44.150587 C8.63003548,44.150587 8,44.789959 8,45.5757273 C8,45.6930611 8.01561188,45.8064911 8.04213068,45.9155834 C8.19311678,46.537171 8.74594832,47 9.40464121,47 C9.86551238,47 10.271635,46.7707543 10.5280548,46.4217891 L13.5056461,46.4105111 C13.5621055,46.4105111 13.6172817,46.4037878 13.6713886,46.3916423 C17.7533598,46.3356864 21.5821192,44.7778135 24.4671085,41.9938993 C27.4053493,39.1601019 29.0146558,35.3967426 29,31.3976311 C28.9964776,30.4923601 28.9043034,29.6074762 28.739844,28.7466663 C28.6729054,28.3972673 28.5974124,28.0509046 28.5056659,27.7103978" id="Fill-20" fill="#153557" mask="url(#mask-2)"></path>
                <path d="M2.41290938,44.4360054 L2.31531796,18.5568374 C2.66448818,18.2965774 2.89381701,17.8881862 2.89381701,17.4249234 C2.89381701,17.3832818 2.89095315,17.342074 2.8874284,17.3012999 C2.82332207,16.5732226 2.20230577,16 1.4469085,16 C0.649214275,16 0,16.6389383 0,17.4249234 C0,17.8923069 0.232853576,18.3039515 0.587310912,18.5639946 L0.684902335,44.4429457 C0.335732119,44.7034226 0.106182993,45.1118138 0.106182993,45.5755104 C0.106182993,46.3608449 0.755617565,47 1.55331179,47 C2.23182553,47 2.80107211,46.5369541 2.95660156,45.9155834 C2.98391834,45.8062742 3,45.6928442 3,45.5755104 C3,45.1079099 2.76692613,44.6958316 2.41290938,44.4360054" id="Fill-21" fill="#153557" mask="url(#mask-2)"></path>
                <path d="M13.1194974,24.6808271 L13.1418379,24.6808271 C14.7530297,24.6808271 16.2724023,25.3236728 17.4227111,26.4925805 C18.5926794,27.6816307 19.2405518,29.2701023 19.2477532,30.9646435 C19.2544029,32.6591847 18.6183709,34.2515134 17.4575621,35.4493491 C16.3108279,36.6317566 14.7876573,37.2861735 13.1681996,37.2915305 C13.126423,37.2915305 13.08554,37.294959 13.0448804,37.3009589 L8.80466679,37.3157444 L8.75618806,24.6962554 L13.1194974,24.6808271 Z M7.93160279,39 L7.93517726,39 L13.1749017,38.9813575 C13.2204762,38.9813575 13.2656038,38.9775004 13.3096145,38.9708577 C15.3676149,38.9288584 17.2920195,38.087802 18.7403496,36.594043 C20.2061052,35.0827128 21.0085735,33.0811057 20.9999309,30.9580007 C20.9913713,28.8351101 20.173935,26.8395029 18.6970092,25.3384582 C17.2120408,23.8299138 15.2404979,23 13.1425081,23 L13.1134655,23 L7.87307086,23.0186425 C7.38940055,23.0201425 6.99866643,23.39835 7.00000342,23.8622703 L7.05541113,38.1628007 C7.05719836,38.6256495 7.4490495,39 7.93160279,39 L7.93160279,39 Z" id="Fill-22" fill="#153557" mask="url(#mask-2)"></path>
                <path d="M107.061725,38.5563296 C107.870256,39.4242927 109.238978,40 110.727272,40 L110.748953,40 C113.151333,39.9911958 115.174633,38.5067255 115.168063,36.7598478 C115.164997,35.8650427 114.629772,35.001589 113.69926,34.3913092 C112.871895,33.8493154 111.824002,33.5508323 110.744792,33.5508323 C110.723111,33.5504028 110.702088,33.5508323 110.681064,33.5508323 C108.049176,33.5508323 105.575402,32.674924 103.710875,31.081153 C101.870655,29.5084262 100.852545,27.4248424 100.844004,25.2154232 C100.826704,20.5996719 105.230922,16.828048 110.661354,16.8080775 L110.702745,16.8080775 C115.587002,16.8080775 119.713315,19.9230386 120.423299,23.9428974 C120.111887,24.2199069 119.912382,24.6160949 119.912382,25.060169 C119.912382,25.2160674 119.936472,25.3663826 119.981366,25.5078937 C120.176491,26.1246156 120.763837,26.5740582 121.456082,26.5740582 C122.307317,26.5740582 123,25.8948481 123,25.060169 C123,24.5173163 122.705013,24.0440381 122.266146,23.7766917 C121.474039,18.8388363 116.540946,15 110.702745,15 L110.654128,15 C104.207556,15.023621 98.9792573,19.6090945 99,25.2225095 C99.0103547,27.9593204 100.252935,30.5243425 102.499172,32.4442975 C104.699639,34.324741 107.603082,35.3589098 110.680407,35.3589098 L110.730995,35.3589098 C111.439883,35.3331415 112.151181,35.5513133 112.673923,35.8944615 C113.08016,36.1605195 113.322807,36.4867035 113.324121,36.7662899 C113.326311,37.3366288 112.24294,38.1859099 110.741726,38.1917078 L110.727272,38.1917078 C109.871657,38.1917078 109.108019,37.9065383 108.637179,37.5384807 C108.690395,37.3855886 108.725872,37.2247513 108.725872,37.0542509 C108.725872,36.2191424 108.033189,35.5399323 107.181954,35.5399323 C106.543582,35.5399323 105.99456,35.921733 105.759797,36.4650152 C105.681396,36.6462524 105.638035,36.8455275 105.638035,37.0542509 C105.638035,37.8487743 106.267428,38.4949151 107.061725,38.5563296" id="Fill-23" fill="#153557" mask="url(#mask-2)"></path>
                <path d="M114.734225,26.4450362 C115.359266,26.4450362 115.897801,26.0780523 116.140459,25.5528079 C116.228061,25.3627665 116.278213,25.1527546 116.278213,24.931147 C116.278213,24.1628215 115.689526,23.5332154 114.932863,23.4365842 C114.125609,22.5720568 112.763176,22 111.272187,22 L111.250725,22 C108.849549,22.0088042 106.825501,23.4926303 106.831415,25.2407964 C106.837985,26.98295 108.861595,28.4491677 111.254886,28.4491677 L111.275253,28.4491677 C113.904632,28.4255467 116.415091,29.3160571 118.288902,30.9182027 C120.129423,32.491359 121.147579,34.5745134 121.155902,36.7845768 C121.164224,38.993996 120.161836,41.0846661 118.333579,42.6713508 C116.471376,44.2872395 113.986759,45.1824741 111.338327,45.1919225 L111.296935,45.1919225 C106.472465,45.1919225 102.383853,42.1454622 101.605069,38.1932453 C101.900946,37.9173094 102.087976,37.5301404 102.087976,37.0991651 C102.087976,36.8902269 102.044832,36.6909519 101.966209,36.5099294 C101.731655,35.9666472 101.182389,35.5848465 100.543988,35.5848465 C99.6927141,35.5848465 99,36.2640566 99,37.0991651 C99,37.6559757 99.3118637,38.1380581 99.769804,38.4011098 C100.65152,43.2502792 105.534245,47 111.296935,47 L111.345554,47 C114.441853,46.988619 117.35791,45.9323324 119.555629,44.0252615 C121.787513,42.0894161 123.010877,39.5149456 123,36.7774905 C122.989853,34.0400354 121.747216,31.4750133 119.501097,29.5548436 C117.300311,27.6746148 114.396738,26.6410902 111.319054,26.6410902 L111.254886,26.6410902 C109.760831,26.6410902 108.678068,25.8021164 108.67544,25.2341396 C108.673688,24.6640154 109.757108,23.8140901 111.257952,23.8080775 L111.272187,23.8080775 C112.089077,23.8080775 112.817927,24.0653313 113.291417,24.4063321 C113.22922,24.5706052 113.190237,24.7458298 113.190237,24.931147 C113.190237,25.765826 113.882951,26.4450362 114.734225,26.4450362" id="Fill-24" fill="#153557" mask="url(#mask-2)"></path>
                <path d="M36.4130387,43.4554102 L36.3145878,17.5374868 C36.6636811,17.2791965 36.8931796,16.873896 36.8931796,16.4141393 C36.8931796,16.3474143 36.8865722,16.282196 36.8773218,16.2178387 C36.7790911,15.5307865 36.1758314,15 35.4463696,15 C34.648851,15 34,15.6341026 34,16.4141393 C34,16.8777704 34.2330225,17.2865147 34.5869613,17.5445898 L34.685192,43.462298 C34.3360987,43.7208035 34.1068204,44.1263192 34.1068204,44.5862912 C34.1068204,45.3656821 34.7561119,46 35.5534102,46 C36.3509287,46 37,45.3656821 37,44.5862912 C37,44.5660584 36.9971368,44.5466867 36.9960355,44.5266692 C36.9770942,44.0875757 36.7517803,43.7020774 36.4130387,43.4554102" id="Fill-25" fill="#153557" mask="url(#mask-2)"></path>
                <path d="M56.7274408,37.2639298 C56.5695567,37.1062188 56.3695273,37.0035883 56.133129,37.0188645 L43.4345817,37.0661993 L43.4258104,34.6553512 L52.2686049,34.622432 C52.7317744,34.6207107 53.105947,34.2416019 53.1044494,33.7751388 L53.0798469,27.1147002 C53.0787772,26.8911507 52.9895663,26.676638 52.8318961,26.5191421 C52.674012,26.3614311 52.4784753,26.2702041 52.2375843,26.2740769 L43.3947898,26.3069961 L43.3864463,23.9137909 L56.0849936,23.8664561 C56.5481632,23.86495 56.9223357,23.4858412 56.9208382,23.019163 L56.8962356,16.3587243 C56.8951659,16.1351749 56.8061689,15.9208773 56.6482848,15.7631663 C56.4899728,15.6048098 56.2582811,15.5368198 56.053973,15.5181011 L43.5214394,15.5650056 C43.2647172,15.2239797 42.8618774,15 42.4051259,15 C41.6884432,15 41.0962708,15.5430594 41.0115525,16.2416782 C41.0047066,16.2982649 41,16.3552818 41,16.4135897 C41,17.1926777 41.6304668,17.826749 42.4051259,17.826749 C42.86637,17.826749 43.2726328,17.5991116 43.5291411,17.2527068 L55.2213375,17.2092449 L55.2393081,22.1819822 L42.5407608,22.229317 C42.0775912,22.2308232 41.7032048,22.609932 41.7049162,23.0763951 L41.7198917,27.1575167 C41.7203196,27.3810661 41.8097445,27.5953637 41.9678425,27.7530747 C42.1250848,27.9101402 42.3375224,27.9981399 42.5587313,27.9981399 L42.5621543,27.9981399 L51.4049488,27.9652207 L51.4229193,32.9379581 L42.5801248,32.9708773 C42.3578462,32.9719531 42.1447669,33.0614589 41.9881663,33.2202457 C41.831138,33.3790325 41.7432106,33.5937604 41.7442803,33.8179553 L41.7596836,37.9167199 C41.7613951,38.3814617 42.1366373,38.757128 42.5987372,38.757128 L42.6021602,38.757128 L55.3004935,38.7100083 L55.3184641,43.6827457 L43.6123618,43.7264228 C43.3552118,43.3922821 42.9570785,43.173251 42.5054615,43.173251 C41.7468475,43.173251 41.1279332,43.7819336 41.1029028,44.5395058 C41.1024749,44.5554275 41.1005495,44.5709189 41.1005495,44.5868406 C41.1005495,45.3659287 41.7308024,46 42.5054615,46 C42.9722679,46 43.3838791,45.7674139 43.6393177,45.4141241 L56.1641496,45.3672196 C56.6275331,45.3654983 57.0017056,44.9863895 57,44.5199264 L56.9753916,37.8594878 C56.9743219,37.6359384 56.8853249,37.4216408 56.7274408,37.2639298" id="Fill-26" fill="#153557" mask="url(#mask-2)"></path>
                <path d="M75.945093,43.2256834 L65.5404958,17.1772303 C65.6824418,16.9560316 65.7664721,16.6927815 65.7664721,16.4091494 C65.7664721,16.3649526 65.7637343,16.321614 65.7599434,16.2784899 C65.6948673,15.5625441 65.1026536,15 64.3834467,15 C63.620645,15 63,15.6322721 63,16.4091494 C63,17.0448543 63.417835,17.5771472 63.9860401,17.7524327 L74.4253866,43.8869195 C74.3068175,44.0948163 74.2337385,44.3329642 74.2337385,44.5902069 C74.2337385,45.3677279 74.8541729,46 75.6167639,46 C76.3795656,46 77,45.3677279 77,44.5902069 C77,44.5580248 76.9941031,44.527559 76.9919971,44.4960205 C76.9509297,43.8779085 76.5196161,43.3694304 75.945093,43.2256834" id="Fill-27" fill="#153557" mask="url(#mask-2)"></path>
                <path d="M94.58965,15 C93.8537685,15 93.2484432,15.5664872 93.1857419,16.2856965 C93.1820915,16.3262365 93.1795147,16.3672054 93.1795147,16.4088179 C93.1795147,16.6788699 93.2596092,16.9289737 93.3918832,17.143471 L83.019111,43.2441394 C82.4621001,43.4062993 82.0485291,43.8989995 82.007945,44.4965888 C82.0057977,44.5281199 82,44.5585785 82,44.5907531 C82,45.3680911 82.6325961,46 83.4101353,46 C84.1878892,46 84.8207,45.3680911 84.8207,44.5907531 C84.8207,44.3125502 84.7367404,44.0547245 84.5969508,43.8359373 L94.958557,17.762939 C95.5565815,17.5999211 96,17.0576721 96,16.4088179 C96,15.6321234 95.3671892,15 94.58965,15" id="Fill-28" fill="#153557" mask="url(#mask-2)"></path>
                <path d="M72.0707791,17.7908582 L78.7617379,35.4406586 C78.8890128,35.7764367 79.2211912,36 79.5933124,36 L79.5966973,36 C79.9701724,35.9989168 80.3021252,35.7725374 80.4269178,35.4352428 L86.9698406,17.7711447 C87.5651441,17.5863584 88,17.055179 88,16.4228329 C88,16.3808065 87.9970664,16.33943 87.9934557,16.29827 C87.927336,15.5721227 87.2911871,15 86.5178341,15 C85.7007022,15 85.0356683,15.6384118 85.0356683,16.4228329 C85.0356683,16.7198341 85.1313501,16.9951722 85.2940544,17.2235014 L79.5833831,32.640052 L73.7280607,17.1949061 C73.8758711,16.9735091 73.964106,16.712252 73.964106,16.4301984 C73.964106,15.6457772 73.2990721,15.0073655 72.4819402,15.0073655 C71.7112952,15.0073655 71.0765003,15.5755888 71.0067699,16.29827 C71.002708,16.3418129 71,16.385789 71,16.4301984 C71,17.0772754 71.4544887,17.6184198 72.0707791,17.7908582" id="Fill-29" fill="#153557" mask="url(#mask-2)"></path>
            </g>
        </g>
    </g>
</svg>