<?xml version="1.0" encoding="UTF-8"?>
<svg width="352px" height="136px" viewBox="0 0 352 136" version="1.1" xmlns="http://www.w3.org/2000/svg" xmlns:xlink="http://www.w3.org/1999/xlink">
    <title>Group 36</title>
    <g id="Layout" stroke="none" stroke-width="1" fill="none" fill-rule="evenodd" opacity="0.195963542">
        <g id="375px-Leadership" transform="translate(-12.000000, -127.000000)" fill="#619ECE">
            <g id="Group-5" transform="translate(0.000000, 103.000000)">
                <g id="Group-36" transform="translate(12.000000, 24.000000)">
                    <path d="M191.293754,-7.99360578e-15 C192.260865,-7.99360578e-15 193.04839,0.795947194 193.04839,1.77410768 C193.04839,2.35111642 192.770276,2.86032488 192.346815,3.18449503 L192.346815,3.18449503 L192.467005,35.9157929 C192.821287,36.2399631 193.04839,36.7046776 193.04839,37.2251861 C193.04839,38.2040528 192.260865,39 191.293754,39 C190.325944,39 189.538419,38.2040528 189.538419,37.2251861 C189.538419,36.5902646 189.873135,36.0358559 190.370666,35.7229858 L190.370666,35.7229858 L190.250476,3.19226381 C189.820727,2.86879991 189.538419,2.35606019 189.538419,1.77410768 C189.538419,0.795947194 190.325944,-7.99360578e-15 191.293754,-7.99360578e-15 Z M199.99814,22.7922078 C200.351076,22.7922078 200.680719,22.9659823 200.877658,23.2563045 L200.877658,23.2563045 L209.198496,35.5335815 C209.99684,35.7038666 210.598244,36.4059437 210.598244,37.246203 C210.598244,38.2134782 209.802724,39 208.825795,39 C207.84816,39 207.052641,38.2134782 207.052641,37.246203 C207.052641,36.9530893 207.13311,36.6802144 207.261579,36.4380466 L207.261579,36.4380466 L200.906599,27.0598038 L200.939775,35.8860158 C201.343535,36.2070451 201.608237,36.6941722 201.608237,37.246203 C201.608237,38.2134782 200.812718,39 199.835789,39 C198.858154,39 198.062634,38.2134782 198.062634,37.246203 C198.062634,36.6522988 198.364042,36.1288815 198.821448,35.8120395 L198.821448,35.8120395 L198.776272,23.8439277 C198.774155,23.266075 199.246384,22.7956972 199.830142,22.7929057 L199.830142,22.7929057 Z M199.323947,-7.99360578e-15 C199.893749,-7.99360578e-15 200.395483,0.278263704 200.718277,0.702015538 L200.718277,0.702015538 L206.261917,0.680121693 L206.306126,0.680121693 C212.912179,0.680121693 218.297228,6.03634487 218.32249,12.6412234 C218.340735,17.8258271 215.000517,22.4051719 210.194392,24.0479166 L210.194392,24.0479166 L217.547784,35.4708535 C218.429854,35.5669039 219.122459,36.3120009 219.122459,37.2251861 C219.122459,38.2040528 218.331613,39 217.359722,39 C216.38783,39 215.596985,38.2040528 215.596985,37.2251861 C215.596985,36.98506 215.646105,36.7555278 215.732418,36.5464769 L215.732418,36.5464769 L207.64502,23.982235 C207.455554,23.6884337 207.422572,23.3197697 207.558006,22.997012 C207.692035,22.6742544 207.976235,22.4390721 208.317975,22.3684468 C212.912179,21.4241865 216.234152,17.3363938 216.217311,12.6496985 C216.196259,7.21013745 211.75433,2.79888086 206.306126,2.79888086 L206.306126,2.79888086 L206.270337,2.79888086 L200.740031,2.82077471 C200.41864,3.26006411 199.905678,3.54892161 199.323947,3.54892161 C198.352056,3.54892161 197.56121,2.75297441 197.56121,1.77410768 C197.56121,0.795947194 198.352056,-7.99360578e-15 199.323947,-7.99360578e-15 Z M1.77003944,-7.99360578e-15 C2.74595689,-7.99360578e-15 3.54007889,0.7930319 3.54007889,1.76831337 C3.54007889,2.34320872 3.25893011,2.84984844 2.83192218,3.17283126 L2.83192218,3.17283126 L2.95452842,36.2486648 L10.1953426,36.2416282 L26.3998001,36.1811129 C26.7225222,35.7490618 27.2340862,35.4647806 27.8147042,35.4647806 C28.789917,35.4647806 29.584039,36.2578125 29.584039,37.2323903 C29.584039,38.2069681 28.789917,39 27.8147042,39 C27.2376093,39 26.7295686,38.7192372 26.4061418,38.2914081 L26.4061418,38.2914081 L1.90321518,38.361071 C1.31977861,38.361071 0.846969511,37.8910219 0.84485561,37.3097936 L0.84485561,37.3097936 L0.718021573,3.18127526 C0.285376582,2.85829244 0,2.34743072 0,1.76831337 C0,0.7930319 0.794121995,-7.99360578e-15 1.77003944,-7.99360578e-15 Z M324.671943,-7.99360578e-15 C325.639753,-7.99360578e-15 326.427278,0.796928544 326.427278,1.77629503 C326.427278,2.35401519 326.149164,2.86314434 325.725703,3.1884213 L325.725703,3.1884213 L325.845194,35.910576 C326.200175,36.235853 326.427278,36.7018476 326.427278,37.2229978 C326.427278,38.2030715 325.639753,39 324.671943,39 C323.704832,39 322.917307,38.2030715 322.917307,37.2229978 C322.917307,36.5872935 323.251324,36.0322013 323.749554,35.7189455 L323.749554,35.7189455 L323.629364,3.19761391 C323.199614,2.87304408 322.917307,2.35896506 322.917307,1.77629503 C322.917307,0.796928544 323.704832,-7.99360578e-15 324.671943,-7.99360578e-15 Z M238.495217,8.61038961 C240.239451,8.61038961 241.833153,9.30678594 242.777774,10.3570079 C243.663011,10.4751842 244.352143,11.2398133 244.352143,12.1739692 C244.352143,13.1883162 243.541481,14.0141438 242.545072,14.0141438 C241.549353,14.0141438 240.739382,13.1883162 240.739382,12.1739692 C240.739382,11.948168 240.784956,11.7357319 240.857459,11.5359576 C240.302978,11.121637 239.450195,10.8086104 238.495217,10.8086104 L238.495217,10.8086104 L238.477954,10.8086104 C236.721981,10.8156447 235.4542,11.8489843 235.456962,12.5418634 C235.459724,13.2333358 236.726814,14.2526068 238.474501,14.2526068 L238.474501,14.2526068 L238.549767,14.2526068 C242.150789,14.2526068 245.547419,15.5089339 248.12234,17.79438 C250.75043,20.1283629 252.204649,23.2466709 252.216468,26.5738978 C252.228817,29.9018281 250.798076,33.0306876 248.186558,35.3843665 C245.61509,37.7021705 242.203268,38.9866348 238.58084,39 L238.58084,39 L238.523528,39 C231.781365,39 226.068756,34.4417695 225.037131,28.5477242 C224.501293,28.2276632 224.136702,27.6417055 224.136702,26.9650052 C224.136702,25.9499548 224.946673,25.1241273 225.943083,25.1241273 C226.938802,25.1241273 227.749463,25.9499548 227.749463,26.9650052 C227.749463,27.4890611 227.530571,27.9596561 227.184624,28.2951926 C228.09541,33.0996238 232.87928,36.8017793 238.523528,36.8017793 L238.523528,36.8017793 L238.571864,36.8017793 C241.670883,36.7912278 244.57794,35.7023172 246.756507,33.7383388 C248.895714,31.809532 250.068204,29.2687406 250.058537,26.582339 C250.04887,23.8959374 248.857736,21.3635871 246.704718,19.4509592 C244.511651,17.5038632 241.574902,16.4219868 238.498669,16.4501241 L238.498669,16.4501241 L238.474501,16.4501241 C235.674474,16.4501241 233.306707,14.6683343 233.299111,12.5503046 C233.292206,10.4252407 235.660663,8.6216445 238.469668,8.61038961 L238.469668,8.61038961 Z M333.191522,-7.99360578e-15 C333.757207,-7.99360578e-15 334.255316,0.278263704 334.575081,0.700603031 L334.575081,0.700603031 L340.027112,0.680121693 L340.071001,0.680121693 C346.628625,0.680121693 351.97546,6.04411365 351.999922,12.6574673 C352.02353,19.2870647 346.69202,24.7004944 340.11489,24.7252132 L340.11489,24.7252132 L334.267856,24.7464008 L334.308958,35.871299 C334.691423,36.1968816 334.941522,36.6799587 334.941522,37.2251861 C334.941522,38.2040528 334.156391,39 333.191522,39 C332.226653,39 331.441522,38.2040528 331.441522,37.2251861 C331.441522,36.6121584 331.750837,36.0704623 332.218293,35.7519422 L332.218293,35.7519422 L332.173707,23.6954963 C332.172314,23.4137013 332.281689,23.1446189 332.47745,22.9447493 C332.672513,22.7455859 332.937939,22.6325854 333.214512,22.6318792 L333.214512,22.6318792 L340.107227,22.6064541 C345.532088,22.5859727 349.929381,18.1259847 349.909875,12.6659423 C349.889672,7.21790623 345.479839,2.79888086 340.071001,2.79888086 L340.071001,2.79888086 L340.034775,2.79888086 L334.598071,2.8193622 C334.279002,3.25935785 333.769747,3.54892161 333.191522,3.54892161 C332.226653,3.54892161 331.441522,2.75297441 331.441522,1.77410768 C331.441522,0.795947194 332.226653,-7.99360578e-15 333.191522,-7.99360578e-15 Z M262.558416,0.0335346939 L262.558416,38.7524521 L259.326142,38.7524521 L259.326142,0.0335346939 L262.558416,0.0335346939 Z M96.3972992,29.3766234 C96.8384033,29.3766234 97.2327447,29.6630592 97.3821059,30.0916306 L97.3821059,30.0916306 L99.0830089,34.9689755 C99.7788646,35.2099567 100.284878,35.8823954 100.284878,36.6810967 C100.284878,37.6803752 99.4982889,38.4935065 98.5316288,38.4935065 C97.5649687,38.4935065 96.7790776,37.6803752 96.7790776,36.6810967 C96.7790776,36.2972583 96.8963331,35.9422799 97.0945507,35.6486291 L97.0945507,35.6486291 L95.6630563,31.5440115 L84.8134308,31.5858586 L83.4259072,35.6587302 C83.6199371,35.9494949 83.7337029,36.3023088 83.7337029,36.6810967 C83.7337029,37.6803752 82.9478117,38.4935065 81.9811516,38.4935065 C81.0144915,38.4935065 80.2279024,37.6803752 80.2279024,36.6810967 C80.2279024,35.8773449 80.7401974,35.2012987 81.4423346,34.965368 L81.4423346,34.965368 L83.0832139,30.1464646 C83.2304813,29.7150072 83.6248228,29.4249639 84.0666248,29.4235209 L84.0666248,29.4235209 L96.3931115,29.3766234 Z M94.4239981,0.0756445129 C94.9628466,-0.139703825 95.573075,0.119980935 95.7907138,0.661166791 L95.7907138,0.661166791 L109.56984,35.0437106 C110.287838,35.2660964 110.81479,35.9318465 110.81479,36.7263834 C110.81479,37.7003772 110.026812,38.4935065 109.057584,38.4935065 C108.088357,38.4935065 107.299678,37.7003772 107.299678,36.7263834 C107.299678,36.3674695 107.408148,36.0338907 107.591496,35.7552046 L107.591496,35.7552046 L93.8424615,1.45007361 C93.6262223,0.908887755 93.8865491,0.293807862 94.4239981,0.0756445129 Z M292.080057,-7.99360578e-15 C293.047168,-7.99360578e-15 293.834693,0.787735724 293.834693,1.75650388 C293.834693,2.32965676 293.554482,2.83500985 293.128226,3.15583567 L293.128226,3.15583567 L293.128925,35.3376708 C293.555181,35.6584966 293.834693,36.1645487 293.834693,36.7377016 C293.834693,37.7057708 293.047168,38.4935065 292.080057,38.4935065 C291.112247,38.4935065 290.324722,37.7057708 290.324722,36.7377016 C290.324722,36.1631508 290.604933,35.6570987 291.032586,35.3369719 L291.032586,35.3369719 L291.031887,3.15583567 C290.604933,2.83570881 290.324722,2.32965676 290.324722,1.75650388 C290.324722,0.787735724 291.112247,-7.99360578e-15 292.080057,-7.99360578e-15 Z M125.595966,-7.99360578e-15 C126.140316,-7.99360578e-15 126.620788,0.259144401 126.940872,0.65701556 L126.940872,0.65701556 L130.55205,0.643635822 L130.628426,0.643635822 C141.239085,0.643635822 149.888278,8.91653914 149.925893,19.1189415 C149.943824,24.084937 147.94556,28.7579865 144.297582,32.2768577 C140.715564,35.7337595 135.962223,37.6681879 130.893658,37.7379034 C130.826308,37.7526915 130.75757,37.7611419 130.688138,37.7611419 L130.688138,37.7611419 L126.990863,37.7752258 C126.672168,38.209011 126.168089,38.4935065 125.595966,38.4935065 C124.634327,38.4935065 123.851824,37.6998768 123.851824,36.7245643 C123.851824,35.7492518 124.634327,34.9556221 125.595966,34.9556221 C126.163229,34.9556221 126.663142,35.2358924 126.981837,35.6626356 L126.981837,35.6626356 L130.476369,35.6492559 C130.543719,35.6344677 130.611762,35.6274258 130.681195,35.6274258 C135.2922,35.6098208 139.617838,33.8760885 142.862414,30.7466381 C146.090326,27.6319759 147.858769,23.5060872 147.8428,19.1273919 C147.809472,10.0869141 140.09345,2.75622605 130.628426,2.75622605 L130.628426,2.75622605 L130.559688,2.75622605 L127.031828,2.76960579 C126.716605,3.23296724 126.191002,3.53788443 125.595966,3.53788443 C124.634327,3.53788443 123.851824,2.7442547 123.851824,1.76964641 C123.851824,0.793629728 124.634327,-7.99360578e-15 125.595966,-7.99360578e-15 Z M46.3875933,-7.99360578e-15 C46.9605093,-7.99360578e-15 47.4654047,0.277343825 47.7872755,0.701393451 L47.7872755,0.701393451 L63.4972352,0.643409729 C63.7531891,0.666463498 64.0442051,0.750993983 64.2426571,0.947300318 C64.4404078,1.14360665 64.5519055,1.40907429 64.553308,1.68711672 L64.553308,1.68711672 L64.5841627,9.95783092 C64.5862664,10.5369695 64.1171345,11.0078253 63.5365048,11.0099211 L63.5365048,11.0099211 L47.6182758,11.0686034 L47.6280932,14.0397452 L58.7133515,13.9992265 C59.0155875,13.9943363 59.2603215,14.1075093 59.4580722,14.303117 C59.6565241,14.4994234 59.7680219,14.7655896 59.7694244,15.0429334 L59.7694244,15.0429334 L59.8002791,23.3136476 C59.8023828,23.8927863 59.3332509,24.363642 58.7526212,24.3657378 L58.7526212,24.3657378 L47.6673628,24.4062566 L47.6785827,27.4004521 L63.5968118,27.3417698 C63.8934378,27.322209 64.1437817,27.4500526 64.3415324,27.6456604 C64.5399844,27.8412681 64.6514821,28.1074344 64.6528846,28.3854768 L64.6528846,28.3854768 L64.6837463,36.656191 C64.685843,37.2353296 64.2167111,37.7054868 63.6360814,37.7075826 L63.6360814,37.7075826 L47.9352379,37.7655663 C47.6147696,38.2042865 47.0986543,38.4935065 46.5138172,38.4935065 C45.5425948,38.4935065 44.7522933,37.7054868 44.7522933,36.7386257 C44.7522933,35.7703674 45.5425948,34.9830462 46.5138172,34.9830462 C47.0797207,34.9830462 47.5790062,35.2554999 47.9015782,35.6697691 L47.9015782,35.6697691 L62.5758011,35.615977 L62.5533613,29.4410599 L46.6344311,29.4997423 C46.0509964,29.4997423 45.580462,29.0330781 45.5790595,28.4560353 L45.5790595,28.4560353 L45.5594247,23.3667412 C45.5580222,23.0886987 45.6681174,22.8218339 45.8651669,22.624829 C46.0615151,22.4271254 46.3286889,22.3160482 46.6070826,22.314651 L46.6070826,22.314651 L57.6923409,22.2741322 L57.6699011,16.0992152 L46.5846428,16.139734 C46.3034441,16.139734 46.0369715,16.0307525 45.8399221,15.8358434 C45.6414702,15.6402356 45.5292712,15.3740694 45.52857,15.096027 L45.52857,15.096027 L45.5103376,10.0283894 C45.5082339,9.44925081 45.9773658,8.97839505 46.5579955,8.97629925 L46.5579955,8.97629925 L62.4762245,8.91761693 L62.4537847,2.74339849 L47.7970929,2.79719061 C47.4752221,3.22682903 46.9661193,3.50976165 46.3875933,3.50976165 C45.4170722,3.50976165 44.6267707,2.72244051 44.6267707,1.75557942 C44.6267707,0.787321134 45.4170722,-7.99360578e-15 46.3875933,-7.99360578e-15 Z M311.133834,-7.99360578e-15 C312.100753,-7.99360578e-15 312.888819,0.787735724 312.888819,1.75650388 C312.888819,2.35691647 312.584911,2.88743237 312.123109,3.20406438 L312.123109,3.20406438 L312.242577,35.3865985 C312.633117,35.7095212 312.888819,36.1918084 312.888819,36.7377016 C312.888819,37.7057708 312.100753,38.4935065 311.133834,38.4935065 C310.166915,38.4935065 309.378849,37.7057708 309.378849,36.7377016 C309.378849,36.1358911 309.684155,35.6046762 310.145956,35.2880442 L310.145956,35.2880442 L310.027187,3.10690798 C309.634551,2.78468423 309.378849,2.30169808 309.378849,1.75650388 C309.378849,0.787735724 310.166915,-7.99360578e-15 311.133834,-7.99360578e-15 Z M303.111393,-7.99360578e-15 C304.078504,-7.99360578e-15 304.866029,0.787735724 304.866029,1.75650388 C304.866029,2.35691647 304.56206,2.88813133 304.100167,3.20476335 L304.100167,3.20476335 L304.219658,35.3872975 C304.610975,35.7095212 304.866029,36.1918084 304.866029,36.7377016 C304.866029,37.7057708 304.078504,38.4935065 303.111393,38.4935065 C302.143583,38.4935065 301.356058,37.7057708 301.356058,36.7377016 C301.356058,36.1358911 301.660726,35.6046762 302.123319,35.2880442 L302.123319,35.2880442 L302.003827,3.10690798 C301.611812,2.78468423 301.356058,2.30169808 301.356058,1.75650388 C301.356058,0.787735724 302.143583,-7.99360578e-15 303.111393,-7.99360578e-15 Z M283.090459,22.2857143 C283.656939,22.2857143 284.11669,22.7541799 284.11669,23.3329548 L284.11669,23.3329548 L284.117374,35.3413126 C284.534708,35.6617682 284.809054,36.1672363 284.809054,36.7397277 C284.809054,37.7066798 284.038012,38.4935065 283.090459,38.4935065 C282.142906,38.4935065 281.371865,37.7066798 281.371865,36.7397277 C281.371865,36.1665381 281.646895,35.6603718 282.064913,35.3406144 L282.064913,35.3406144 L282.064228,24.3801953 L270.50545,24.3801953 L270.506134,35.3420107 C270.923468,35.6624663 271.197813,36.1672363 271.197813,36.7397277 C271.197813,37.7066798 270.426772,38.4935065 269.479219,38.4935065 C268.531666,38.4935065 267.760624,37.7066798 267.760624,36.7397277 C267.760624,36.1658399 268.035654,35.6603718 268.453672,35.3399163 L268.453672,35.3399163 L268.452988,23.3329548 C268.452988,23.0557851 268.561768,22.7890879 268.754016,22.5929048 C268.946263,22.3960236 269.20761,22.2857143 269.479219,22.2857143 L269.479219,22.2857143 Z M156.131368,-7.99360578e-15 C157.063947,-7.99360578e-15 157.823351,0.786922446 157.823351,1.7555499 C157.823351,2.3272218 157.555167,2.82970602 157.146827,3.15048524 L157.146827,3.15048524 L157.262052,35.3332371 C157.676456,35.6540164 157.948683,36.1620915 157.948683,36.7379566 C157.948683,37.7058852 157.189279,38.4935065 156.256027,38.4935065 C155.323449,38.4935065 154.564044,37.7058852 154.564044,36.7379566 C154.564044,36.1662847 154.832228,35.6631016 155.240568,35.3423224 L155.240568,35.3423224 L155.125343,3.15957049 C154.710939,2.83879127 154.438712,2.33141499 154.438712,1.7555499 C154.438712,0.786922446 155.198116,-7.99360578e-15 156.131368,-7.99360578e-15 Z M38.2966367,-7.99360578e-15 C39.2292149,-7.99360578e-15 39.9886192,0.786922446 39.9886192,1.7555499 C39.9886192,2.3272218 39.7204356,2.82970602 39.3120957,3.15048524 L39.3120957,3.15048524 L39.4273203,35.3332371 C39.8417246,35.6540164 40.1139512,36.1620915 40.1139512,36.7379566 C40.1139512,37.7058852 39.3545469,38.4935065 38.421295,38.4935065 C37.488043,38.4935065 36.7293125,37.7058852 36.7293125,36.7379566 C36.7293125,36.1662847 36.9974961,35.6631016 37.405836,35.3423224 L37.405836,35.3423224 L37.2906113,3.15957049 C36.876207,2.83879127 36.6039805,2.33141499 36.6039805,1.7555499 C36.6039805,0.786922446 37.3633848,-7.99360578e-15 38.2966367,-7.99360578e-15 Z M164.222325,-7.99360578e-15 C164.795241,-7.99360578e-15 165.300136,0.277343825 165.622007,0.701393451 L165.622007,0.701393451 L181.331967,0.643409729 C181.587921,0.666463498 181.878937,0.750993983 182.077389,0.947300318 C182.275139,1.14360665 182.386637,1.40907429 182.38804,1.68711672 L182.38804,1.68711672 L182.418894,9.95783092 C182.420998,10.5369695 181.951866,11.0078253 181.371236,11.0099211 L181.371236,11.0099211 L165.453007,11.0686034 L165.462825,14.0397452 L176.548083,13.9992265 C176.850319,13.9943363 177.095053,14.1075093 177.292804,14.303117 C177.491256,14.4994234 177.602754,14.7655896 177.604156,15.0429334 L177.604156,15.0429334 L177.635011,23.3136476 C177.637114,23.8927863 177.167983,24.363642 176.587353,24.3657378 L176.587353,24.3657378 L165.502095,24.4062566 L165.513314,27.4004521 L181.431543,27.3417698 C181.728169,27.322209 181.978513,27.4500526 182.176264,27.6456604 C182.374716,27.8412681 182.486214,28.1074344 182.487616,28.3854768 L182.487616,28.3854768 L182.518478,36.656191 C182.520575,37.2353296 182.051443,37.7054868 181.470112,37.7075826 L181.470112,37.7075826 L165.76997,37.7655663 C165.449501,38.2042865 164.933386,38.4935065 164.348549,38.4935065 C163.377327,38.4935065 162.587025,37.7054868 162.587025,36.7386257 C162.587025,35.7703674 163.377327,34.9830462 164.348549,34.9830462 C164.914452,34.9830462 165.413738,35.2554999 165.73631,35.6697691 L165.73631,35.6697691 L180.410533,35.615977 L180.388093,29.4410599 L164.469163,29.4997423 C163.885728,29.4997423 163.415194,29.0330781 163.413791,28.4560353 L163.413791,28.4560353 L163.394156,23.3667412 C163.392754,23.0886987 163.502849,22.8218339 163.699899,22.624829 C163.896247,22.4271254 164.163421,22.3160482 164.441814,22.314651 L164.441814,22.314651 L175.527073,22.2741322 L175.504633,16.0992152 L164.419374,16.139734 C164.138176,16.139734 163.871703,16.0307525 163.674654,15.8358434 C163.476202,15.6402356 163.364003,15.3740694 163.363302,15.096027 L163.363302,15.096027 L163.345069,10.0283894 C163.342966,9.44925081 163.812098,8.97839505 164.392727,8.97629925 L164.392727,8.97629925 L180.310956,8.91761693 L180.288516,2.74339849 L165.631825,2.79719061 C165.310655,3.22682903 164.800851,3.50976165 164.222325,3.50976165 C163.251804,3.50976165 162.461502,2.72244051 162.461502,1.75557942 C162.461502,0.787321134 163.251804,-7.99360578e-15 164.222325,-7.99360578e-15 Z M116.518818,-7.99360578e-15 C117.452428,-7.99360578e-15 118.212124,0.793629728 118.212124,1.76964641 C118.212124,2.34427095 117.943837,2.8519968 117.535341,3.17522311 L117.535341,3.17522311 L117.649261,35.309833 C118.063825,35.6330593 118.336156,36.1443062 118.336156,36.7252685 C118.336156,37.700581 117.57646,38.4935065 116.64285,38.4935065 C115.709913,38.4935065 114.950217,37.700581 114.950217,36.7252685 C114.950217,36.1492355 115.218504,35.6422139 115.627001,35.3189876 L115.627001,35.3189876 L115.51308,3.18367347 C115.098516,2.86115136 114.826185,2.34920033 114.826185,1.76964641 C114.826185,0.793629728 115.585207,-7.99360578e-15 116.518818,-7.99360578e-15 Z M85.2491253,0.669662637 C85.4582793,0.125216782 86.0602012,-0.139610698 86.5917148,0.0738008082 C87.1239187,0.287916643 87.3848435,0.901386681 87.1756895,1.44371955 L87.1756895,1.44371955 L73.9057969,35.798746 C74.0693927,36.0685038 74.1687926,36.3840429 74.1687926,36.7242335 C74.1687926,37.6997284 73.39085,38.4935065 72.4348158,38.4935065 C71.4787816,38.4935065 70.700839,37.6997284 70.700839,36.7242335 C70.700839,35.9107342 71.2447776,35.2310573 71.9785425,35.0246891 L71.9785425,35.0246891 Z M10.2861556,-7.99360578e-15 C11.2569066,-7.99360578e-15 12.0473952,0.785097444 12.0473952,1.75062101 C12.0473952,2.32046104 11.7682342,2.82203172 11.3424786,3.14178303 L11.3424786,3.14178303 L11.4336618,27.5905673 L26.4669746,27.5355339 C26.7903244,27.1440301 27.2742971,26.889065 27.8227994,26.889065 C28.7935504,26.889065 29.584039,27.6741624 29.584039,28.639686 C29.584039,29.6045129 28.7935504,30.3896104 27.8227994,30.3896104 C27.2195871,30.3896104 26.6865158,30.0858815 26.3687772,29.6254117 L26.3687772,29.6254117 L10.3899643,29.6846249 C9.80639145,29.6846249 9.33574558,29.2192788 9.33364136,28.6438658 L9.33364136,28.6438658 L9.23824964,3.14874929 C8.80758413,2.8296946 8.52421463,2.32394417 8.52421463,1.75062101 C8.52421463,0.785097444 9.3147033,-7.99360578e-15 10.2861556,-7.99360578e-15 Z M238.574894,-7.99360578e-15 C245.52778,-7.99360578e-15 251.401854,4.58878287 252.345726,10.4911169 C252.867913,10.8106855 253.219317,11.3765016 253.219317,12.0253226 C253.219317,13.0234555 252.39422,13.8348276 251.38077,13.8348276 C250.36732,13.8348276 249.542222,13.0234555 249.542222,12.0253226 C249.542222,11.4947835 249.779772,11.0209643 250.150855,10.6896368 C249.305376,5.88434969 244.391338,2.16089202 238.574894,2.16089202 L238.574894,2.16089202 L238.525697,2.16089202 C232.058453,2.18579347 226.814095,6.69364664 226.834476,12.2107 C226.844316,14.8516366 228.05666,17.3424727 230.248721,19.2225318 C232.468893,21.1268006 235.414364,22.1740447 238.54889,22.1740447 C238.574191,22.1740447 238.599492,22.173353 238.624794,22.1740447 C239.91023,22.1740447 241.158419,22.5309654 242.143756,23.1790946 C243.251383,23.9088453 243.88883,24.9401801 243.892344,26.0102505 C243.900778,28.0985134 241.490847,29.8727413 238.629713,29.8831169 L238.629713,29.8831169 L238.604412,29.8831169 C236.831929,29.8831169 235.202116,29.1955603 234.238565,28.1580001 C233.292585,28.0839875 232.543391,27.311351 232.543391,26.3623293 C232.543391,25.3635047 233.368488,24.5521326 234.381938,24.5521326 C235.395388,24.5521326 236.220485,25.3635047 236.220485,26.3623293 C236.220485,26.5656911 236.178317,26.7579856 236.115064,26.9412879 C236.675905,27.3805217 237.58534,27.7222249 238.604412,27.7222249 L238.604412,27.7222249 L238.621279,27.7222249 C240.409225,27.7146161 241.699581,26.6991905 241.69677,26.0178593 C241.694662,25.6830732 241.40651,25.2936423 240.922275,24.9761489 C240.299586,24.5652751 239.452702,24.3045016 238.608629,24.3356284 L238.608629,24.3356284 L238.548187,24.3356284 C234.88304,24.3356284 231.425925,23.0995484 228.805152,20.8515013 C226.130262,18.5571099 224.65085,15.4907736 224.638127,12.2196922 C224.613601,5.50944461 230.839783,0.0283599785 238.516561,-7.99360578e-15 L238.516561,-7.99360578e-15 Z M132.114162,9.11688312 C134.594287,9.11688312 136.924582,10.1683236 138.679726,12.0782277 C140.425204,13.9789086 141.391845,16.5053456 141.401595,19.1935427 C141.411868,21.8817398 140.463179,24.4166905 138.73082,26.3301419 C137.019175,28.2215997 134.744807,29.2865202 132.311633,29.3397307 C132.259848,29.3482444 132.206683,29.3532107 132.152827,29.3532107 L132.152827,29.3532107 L125.95942,29.3766234 C125.384959,29.3766234 124.921661,28.9026947 124.91959,28.3166692 L124.91959,28.3166692 L124.85468,10.2087636 C124.852616,9.62131915 125.314532,9.14242418 125.886231,9.14029576 L125.886231,9.14029576 L132.079639,9.11688312 Z M132.113471,11.2453052 L132.087234,11.2453052 L126.929513,11.2651705 L126.986821,27.2439445 L131.998855,27.2254981 C132.047187,27.2176939 132.095519,27.2134371 132.144542,27.2134371 C134.059182,27.2063423 135.859206,26.3776767 137.214575,24.8806865 C138.586515,23.363831 139.338423,21.3482153 139.330205,19.2020564 C139.322543,17.0566069 138.556134,15.0452481 137.173147,13.5397442 C135.814326,12.0597814 134.017754,11.2453052 132.113471,11.2453052 L132.113471,11.2453052 Z M90.2256693,12.1558442 C90.65359,12.1558442 91.0354686,12.4287658 91.1810429,12.8388375 L91.1810429,12.8388375 L94.2076337,21.3855585 C94.3193535,21.7018995 94.2739885,22.0540788 94.0837263,22.329068 C93.8948183,22.6047464 93.5860654,22.7687751 93.2563227,22.7701535 L93.2563227,22.7701535 L87.2647562,22.7922078 C86.9323052,22.7922078 86.6235523,22.6302467 86.4332901,22.357325 C86.2416737,22.0837142 86.1929232,21.7322242 86.3026118,21.415194 L86.3026118,21.415194 L89.2675875,12.8464187 C89.4104534,12.4335902 89.7923319,12.1572225 90.2216068,12.1558442 L90.2216068,12.1558442 Z M90.2371799,16.2696558 L89.2682645,19.0691704 L88.6968009,20.7197951 L91.808705,20.7080787 L90.2371799,16.2696558 Z M339.422143,7.09195564 C340.770543,7.06310237 342.033092,7.63223321 342.986988,8.62911386 C343.94429,9.62815849 344.473702,10.9590158 344.478514,12.3778756 C344.483923,13.796014 343.963368,15.1319207 343.014242,16.1374573 C342.066478,17.1422726 340.803929,17.6984195 339.460299,17.7034688 L339.460299,17.7034688 L333.500495,17.7272727 C332.933608,17.7272727 332.47642,17.245423 332.474376,16.6488816 L332.474376,16.6488816 L332.444383,8.20208539 C332.443033,7.91427397 332.550006,7.6387252 332.740785,7.43530961 C332.932246,7.23189402 333.19116,7.11720226 333.462339,7.11575959 L333.462339,7.11575959 Z M205.562953,7.09090909 C206.898407,7.09090909 208.156868,7.636234 209.107357,8.62793081 C210.063978,9.62685047 210.59339,10.9580211 210.598202,12.3765881 C210.603611,13.7958774 210.083056,15.132104 209.13393,16.1382465 C208.186166,17.1422222 206.924299,17.6983813 205.579987,17.7034373 L205.579987,17.7034373 L199.620183,17.7272727 C199.053296,17.7272727 198.596108,17.2447866 198.594064,16.6474572 L198.594064,16.6474572 L198.564071,8.20178287 C198.562721,7.91431358 198.669694,7.63840085 198.861154,7.43471658 C199.051934,7.23031003 199.311529,7.11546677 199.582027,7.1140222 L199.582027,7.1140222 L205.541831,7.09090909 Z M283.09039,-7.99360578e-15 C284.037981,-7.99360578e-15 284.809054,0.794285421 284.809054,1.77110848 C284.809054,2.34902689 284.534013,2.85928656 284.115978,3.18207513 L284.115978,3.18207513 L284.116662,15.1506244 C284.116662,15.4304215 284.008562,15.7003517 283.816307,15.8976896 C283.624052,16.0964372 283.362694,16.2077922 283.09039,16.2077922 L283.09039,16.2077922 L269.479288,16.2077922 C268.912786,16.2077922 268.453016,15.734181 268.453016,15.1506244 L268.453016,15.1506244 L268.452332,3.18207513 C268.034981,2.85858178 267.760624,2.34902689 267.760624,1.77110848 C267.760624,0.794285421 268.531697,-7.99360578e-15 269.478604,-7.99360578e-15 C270.426195,-7.99360578e-15 271.197267,0.794285421 271.197267,1.77110848 C271.197267,2.34902689 270.92291,2.85858178 270.504875,3.18207513 L270.504875,3.18207513 L270.50556,14.0934566 L282.064118,14.0934566 L282.063434,3.18137035 C281.646084,2.85858178 281.372411,2.34902689 281.372411,1.77110848 C281.372411,0.794285421 282.143483,-7.99360578e-15 283.09039,-7.99360578e-15 Z M339.43032,9.25595125 L334.492547,9.27542721 L334.51435,15.5589491 L339.452123,15.5394732 C340.253395,15.5358665 341.004247,15.2054965 341.567727,14.6082337 C342.129844,14.0131349 342.437816,13.2232765 342.434438,12.3858102 C342.431684,11.5476226 342.118261,10.7606495 341.552056,10.1706001 C340.984488,9.57766526 340.223416,9.24513127 339.43032,9.25595125 L339.43032,9.25595125 Z M205.550007,9.2577618 L200.612234,9.27654242 L200.634038,15.5560851 L205.571811,15.5365834 C206.373083,15.532972 207.125298,15.2021656 207.688778,14.6055585 C208.250214,14.0111182 208.557504,13.2223834 208.554126,12.3852555 C208.551372,11.5481276 208.237949,10.7622819 207.672425,10.1721754 C207.104857,9.57917968 206.335609,9.25704073 205.550007,9.2577618 L205.550007,9.2577618 Z" id="leadership-Graphic-Copy"></path>
                    <path d="M191.293754,48 C192.260865,48 193.04839,48.7959472 193.04839,49.7741077 C193.04839,50.3511164 192.770276,50.8603249 192.346815,51.184495 L192.346815,51.184495 L192.467005,83.9157929 C192.821287,84.2399631 193.04839,84.7046776 193.04839,85.2251861 C193.04839,86.2040528 192.260865,87 191.293754,87 C190.325944,87 189.538419,86.2040528 189.538419,85.2251861 C189.538419,84.5902646 189.873135,84.0358559 190.370666,83.7229858 L190.370666,83.7229858 L190.250476,51.1922638 C189.820727,50.8687999 189.538419,50.3560602 189.538419,49.7741077 C189.538419,48.7959472 190.325944,48 191.293754,48 Z M199.99814,70.7922078 C200.351076,70.7922078 200.680719,70.9659823 200.877658,71.2563045 L200.877658,71.2563045 L209.198496,83.5335815 C209.99684,83.7038666 210.598244,84.4059437 210.598244,85.246203 C210.598244,86.2134782 209.802724,87 208.825795,87 C207.84816,87 207.052641,86.2134782 207.052641,85.246203 C207.052641,84.9530893 207.13311,84.6802144 207.261579,84.4380466 L207.261579,84.4380466 L200.906599,75.0598038 L200.939775,83.8860158 C201.343535,84.2070451 201.608237,84.6941722 201.608237,85.246203 C201.608237,86.2134782 200.812718,87 199.835789,87 C198.858154,87 198.062634,86.2134782 198.062634,85.246203 C198.062634,84.6522988 198.364042,84.1288815 198.821448,83.8120395 L198.821448,83.8120395 L198.776272,71.8439277 C198.774155,71.266075 199.246384,70.7956972 199.830142,70.7929057 L199.830142,70.7929057 Z M199.323947,48 C199.893749,48 200.395483,48.2782637 200.718277,48.7020155 L200.718277,48.7020155 L206.261917,48.6801217 L206.306126,48.6801217 C212.912179,48.6801217 218.297228,54.0363449 218.32249,60.6412234 C218.340735,65.8258271 215.000517,70.4051719 210.194392,72.0479166 L210.194392,72.0479166 L217.547784,83.4708535 C218.429854,83.5669039 219.122459,84.3120009 219.122459,85.2251861 C219.122459,86.2040528 218.331613,87 217.359722,87 C216.38783,87 215.596985,86.2040528 215.596985,85.2251861 C215.596985,84.98506 215.646105,84.7555278 215.732418,84.5464769 L215.732418,84.5464769 L207.64502,71.982235 C207.455554,71.6884337 207.422572,71.3197697 207.558006,70.997012 C207.692035,70.6742544 207.976235,70.4390721 208.317975,70.3684468 C212.912179,69.4241865 216.234152,65.3363938 216.217311,60.6496985 C216.196259,55.2101374 211.75433,50.7988809 206.306126,50.7988809 L206.306126,50.7988809 L206.270337,50.7988809 L200.740031,50.8207747 C200.41864,51.2600641 199.905678,51.5489216 199.323947,51.5489216 C198.352056,51.5489216 197.56121,50.7529744 197.56121,49.7741077 C197.56121,48.7959472 198.352056,48 199.323947,48 Z M1.77003944,48 C2.74595689,48 3.54007889,48.7930319 3.54007889,49.7683134 C3.54007889,50.3432087 3.25893011,50.8498484 2.83192218,51.1728313 L2.83192218,51.1728313 L2.95452842,84.2486648 L10.1953426,84.2416282 L26.3998001,84.1811129 C26.7225222,83.7490618 27.2340862,83.4647806 27.8147042,83.4647806 C28.789917,83.4647806 29.584039,84.2578125 29.584039,85.2323903 C29.584039,86.2069681 28.789917,87 27.8147042,87 C27.2376093,87 26.7295686,86.7192372 26.4061418,86.2914081 L26.4061418,86.2914081 L1.90321518,86.361071 C1.31977861,86.361071 0.846969511,85.8910219 0.84485561,85.3097936 L0.84485561,85.3097936 L0.718021573,51.1812753 C0.285376582,50.8582924 0,50.3474307 0,49.7683134 C0,48.7930319 0.794121995,48 1.77003944,48 Z M324.671943,48 C325.639753,48 326.427278,48.7969285 326.427278,49.776295 C326.427278,50.3540152 326.149164,50.8631443 325.725703,51.1884213 L325.725703,51.1884213 L325.845194,83.910576 C326.200175,84.235853 326.427278,84.7018476 326.427278,85.2229978 C326.427278,86.2030715 325.639753,87 324.671943,87 C323.704832,87 322.917307,86.2030715 322.917307,85.2229978 C322.917307,84.5872935 323.251324,84.0322013 323.749554,83.7189455 L323.749554,83.7189455 L323.629364,51.1976139 C323.199614,50.8730441 322.917307,50.3589651 322.917307,49.776295 C322.917307,48.7969285 323.704832,48 324.671943,48 Z M238.495217,56.6103896 C240.239451,56.6103896 241.833153,57.3067859 242.777774,58.3570079 C243.663011,58.4751842 244.352143,59.2398133 244.352143,60.1739692 C244.352143,61.1883162 243.541481,62.0141438 242.545072,62.0141438 C241.549353,62.0141438 240.739382,61.1883162 240.739382,60.1739692 C240.739382,59.948168 240.784956,59.7357319 240.857459,59.5359576 C240.302978,59.121637 239.450195,58.8086104 238.495217,58.8086104 L238.495217,58.8086104 L238.477954,58.8086104 C236.721981,58.8156447 235.4542,59.8489843 235.456962,60.5418634 C235.459724,61.2333358 236.726814,62.2526068 238.474501,62.2526068 L238.474501,62.2526068 L238.549767,62.2526068 C242.150789,62.2526068 245.547419,63.5089339 248.12234,65.79438 C250.75043,68.1283629 252.204649,71.2466709 252.216468,74.5738978 C252.228817,77.9018281 250.798076,81.0306876 248.186558,83.3843665 C245.61509,85.7021705 242.203268,86.9866348 238.58084,87 L238.58084,87 L238.523528,87 C231.781365,87 226.068756,82.4417695 225.037131,76.5477242 C224.501293,76.2276632 224.136702,75.6417055 224.136702,74.9650052 C224.136702,73.9499548 224.946673,73.1241273 225.943083,73.1241273 C226.938802,73.1241273 227.749463,73.9499548 227.749463,74.9650052 C227.749463,75.4890611 227.530571,75.9596561 227.184624,76.2951926 C228.09541,81.0996238 232.87928,84.8017793 238.523528,84.8017793 L238.523528,84.8017793 L238.571864,84.8017793 C241.670883,84.7912278 244.57794,83.7023172 246.756507,81.7383388 C248.895714,79.809532 250.068204,77.2687406 250.058537,74.582339 C250.04887,71.8959374 248.857736,69.3635871 246.704718,67.4509592 C244.511651,65.5038632 241.574902,64.4219868 238.498669,64.4501241 L238.498669,64.4501241 L238.474501,64.4501241 C235.674474,64.4501241 233.306707,62.6683343 233.299111,60.5503046 C233.292206,58.4252407 235.660663,56.6216445 238.469668,56.6103896 L238.469668,56.6103896 Z M333.191522,48 C333.757207,48 334.255316,48.2782637 334.575081,48.700603 L334.575081,48.700603 L340.027112,48.6801217 L340.071001,48.6801217 C346.628625,48.6801217 351.97546,54.0441137 351.999922,60.6574673 C352.02353,67.2870647 346.69202,72.7004944 340.11489,72.7252132 L340.11489,72.7252132 L334.267856,72.7464008 L334.308958,83.871299 C334.691423,84.1968816 334.941522,84.6799587 334.941522,85.2251861 C334.941522,86.2040528 334.156391,87 333.191522,87 C332.226653,87 331.441522,86.2040528 331.441522,85.2251861 C331.441522,84.6121584 331.750837,84.0704623 332.218293,83.7519422 L332.218293,83.7519422 L332.173707,71.6954963 C332.172314,71.4137013 332.281689,71.1446189 332.47745,70.9447493 C332.672513,70.7455859 332.937939,70.6325854 333.214512,70.6318792 L333.214512,70.6318792 L340.107227,70.6064541 C345.532088,70.5859727 349.929381,66.1259847 349.909875,60.6659423 C349.889672,55.2179062 345.479839,50.7988809 340.071001,50.7988809 L340.071001,50.7988809 L340.034775,50.7988809 L334.598071,50.8193622 C334.279002,51.2593579 333.769747,51.5489216 333.191522,51.5489216 C332.226653,51.5489216 331.441522,50.7529744 331.441522,49.7741077 C331.441522,48.7959472 332.226653,48 333.191522,48 Z M262.558416,48.0335347 L262.558416,86.7524521 L259.326142,86.7524521 L259.326142,48.0335347 L262.558416,48.0335347 Z M96.3972992,77.3766234 C96.8384033,77.3766234 97.2327447,77.6630592 97.3821059,78.0916306 L97.3821059,78.0916306 L99.0830089,82.9689755 C99.7788646,83.2099567 100.284878,83.8823954 100.284878,84.6810967 C100.284878,85.6803752 99.4982889,86.4935065 98.5316288,86.4935065 C97.5649687,86.4935065 96.7790776,85.6803752 96.7790776,84.6810967 C96.7790776,84.2972583 96.8963331,83.9422799 97.0945507,83.6486291 L97.0945507,83.6486291 L95.6630563,79.5440115 L84.8134308,79.5858586 L83.4259072,83.6587302 C83.6199371,83.9494949 83.7337029,84.3023088 83.7337029,84.6810967 C83.7337029,85.6803752 82.9478117,86.4935065 81.9811516,86.4935065 C81.0144915,86.4935065 80.2279024,85.6803752 80.2279024,84.6810967 C80.2279024,83.8773449 80.7401974,83.2012987 81.4423346,82.965368 L81.4423346,82.965368 L83.0832139,78.1464646 C83.2304813,77.7150072 83.6248228,77.4249639 84.0666248,77.4235209 L84.0666248,77.4235209 L96.3931115,77.3766234 Z M94.4239981,48.0756445 C94.9628466,47.8602962 95.573075,48.1199809 95.7907138,48.6611668 L95.7907138,48.6611668 L109.56984,83.0437106 C110.287838,83.2660964 110.81479,83.9318465 110.81479,84.7263834 C110.81479,85.7003772 110.026812,86.4935065 109.057584,86.4935065 C108.088357,86.4935065 107.299678,85.7003772 107.299678,84.7263834 C107.299678,84.3674695 107.408148,84.0338907 107.591496,83.7552046 L107.591496,83.7552046 L93.8424615,49.4500736 C93.6262223,48.9088878 93.8865491,48.2938079 94.4239981,48.0756445 Z M292.080057,48 C293.047168,48 293.834693,48.7877357 293.834693,49.7565039 C293.834693,50.3296568 293.554482,50.8350098 293.128226,51.1558357 L293.128226,51.1558357 L293.128925,83.3376708 C293.555181,83.6584966 293.834693,84.1645487 293.834693,84.7377016 C293.834693,85.7057708 293.047168,86.4935065 292.080057,86.4935065 C291.112247,86.4935065 290.324722,85.7057708 290.324722,84.7377016 C290.324722,84.1631508 290.604933,83.6570987 291.032586,83.3369719 L291.032586,83.3369719 L291.031887,51.1558357 C290.604933,50.8357088 290.324722,50.3296568 290.324722,49.7565039 C290.324722,48.7877357 291.112247,48 292.080057,48 Z M125.595966,48 C126.140316,48 126.620788,48.2591444 126.940872,48.6570156 L126.940872,48.6570156 L130.55205,48.6436358 L130.628426,48.6436358 C141.239085,48.6436358 149.888278,56.9165391 149.925893,67.1189415 C149.943824,72.084937 147.94556,76.7579865 144.297582,80.2768577 C140.715564,83.7337595 135.962223,85.6681879 130.893658,85.7379034 C130.826308,85.7526915 130.75757,85.7611419 130.688138,85.7611419 L130.688138,85.7611419 L126.990863,85.7752258 C126.672168,86.209011 126.168089,86.4935065 125.595966,86.4935065 C124.634327,86.4935065 123.851824,85.6998768 123.851824,84.7245643 C123.851824,83.7492518 124.634327,82.9556221 125.595966,82.9556221 C126.163229,82.9556221 126.663142,83.2358924 126.981837,83.6626356 L126.981837,83.6626356 L130.476369,83.6492559 C130.543719,83.6344677 130.611762,83.6274258 130.681195,83.6274258 C135.2922,83.6098208 139.617838,81.8760885 142.862414,78.7466381 C146.090326,75.6319759 147.858769,71.5060872 147.8428,67.1273919 C147.809472,58.0869141 140.09345,50.756226 130.628426,50.756226 L130.628426,50.756226 L130.559688,50.756226 L127.031828,50.7696058 C126.716605,51.2329672 126.191002,51.5378844 125.595966,51.5378844 C124.634327,51.5378844 123.851824,50.7442547 123.851824,49.7696464 C123.851824,48.7936297 124.634327,48 125.595966,48 Z M46.3875933,48 C46.9605093,48 47.4654047,48.2773438 47.7872755,48.7013935 L47.7872755,48.7013935 L63.4972352,48.6434097 C63.7531891,48.6664635 64.0442051,48.750994 64.2426571,48.9473003 C64.4404078,49.1436067 64.5519055,49.4090743 64.553308,49.6871167 L64.553308,49.6871167 L64.5841627,57.9578309 C64.5862664,58.5369695 64.1171345,59.0078253 63.5365048,59.0099211 L63.5365048,59.0099211 L47.6182758,59.0686034 L47.6280932,62.0397452 L58.7133515,61.9992265 C59.0155875,61.9943363 59.2603215,62.1075093 59.4580722,62.303117 C59.6565241,62.4994234 59.7680219,62.7655896 59.7694244,63.0429334 L59.7694244,63.0429334 L59.8002791,71.3136476 C59.8023828,71.8927863 59.3332509,72.363642 58.7526212,72.3657378 L58.7526212,72.3657378 L47.6673628,72.4062566 L47.6785827,75.4004521 L63.5968118,75.3417698 C63.8934378,75.322209 64.1437817,75.4500526 64.3415324,75.6456604 C64.5399844,75.8412681 64.6514821,76.1074344 64.6528846,76.3854768 L64.6528846,76.3854768 L64.6837463,84.656191 C64.685843,85.2353296 64.2167111,85.7054868 63.6360814,85.7075826 L63.6360814,85.7075826 L47.9352379,85.7655663 C47.6147696,86.2042865 47.0986543,86.4935065 46.5138172,86.4935065 C45.5425948,86.4935065 44.7522933,85.7054868 44.7522933,84.7386257 C44.7522933,83.7703674 45.5425948,82.9830462 46.5138172,82.9830462 C47.0797207,82.9830462 47.5790062,83.2554999 47.9015782,83.6697691 L47.9015782,83.6697691 L62.5758011,83.615977 L62.5533613,77.4410599 L46.6344311,77.4997423 C46.0509964,77.4997423 45.580462,77.0330781 45.5790595,76.4560353 L45.5790595,76.4560353 L45.5594247,71.3667412 C45.5580222,71.0886987 45.6681174,70.8218339 45.8651669,70.624829 C46.0615151,70.4271254 46.3286889,70.3160482 46.6070826,70.314651 L46.6070826,70.314651 L57.6923409,70.2741322 L57.6699011,64.0992152 L46.5846428,64.139734 C46.3034441,64.139734 46.0369715,64.0307525 45.8399221,63.8358434 C45.6414702,63.6402356 45.5292712,63.3740694 45.52857,63.096027 L45.52857,63.096027 L45.5103376,58.0283894 C45.5082339,57.4492508 45.9773658,56.978395 46.5579955,56.9762992 L46.5579955,56.9762992 L62.4762245,56.9176169 L62.4537847,50.7433985 L47.7970929,50.7971906 C47.4752221,51.226829 46.9661193,51.5097616 46.3875933,51.5097616 C45.4170722,51.5097616 44.6267707,50.7224405 44.6267707,49.7555794 C44.6267707,48.7873211 45.4170722,48 46.3875933,48 Z M311.133834,48 C312.100753,48 312.888819,48.7877357 312.888819,49.7565039 C312.888819,50.3569165 312.584911,50.8874324 312.123109,51.2040644 L312.123109,51.2040644 L312.242577,83.3865985 C312.633117,83.7095212 312.888819,84.1918084 312.888819,84.7377016 C312.888819,85.7057708 312.100753,86.4935065 311.133834,86.4935065 C310.166915,86.4935065 309.378849,85.7057708 309.378849,84.7377016 C309.378849,84.1358911 309.684155,83.6046762 310.145956,83.2880442 L310.145956,83.2880442 L310.027187,51.106908 C309.634551,50.7846842 309.378849,50.3016981 309.378849,49.7565039 C309.378849,48.7877357 310.166915,48 311.133834,48 Z M303.111393,48 C304.078504,48 304.866029,48.7877357 304.866029,49.7565039 C304.866029,50.3569165 304.56206,50.8881313 304.100167,51.2047634 L304.100167,51.2047634 L304.219658,83.3872975 C304.610975,83.7095212 304.866029,84.1918084 304.866029,84.7377016 C304.866029,85.7057708 304.078504,86.4935065 303.111393,86.4935065 C302.143583,86.4935065 301.356058,85.7057708 301.356058,84.7377016 C301.356058,84.1358911 301.660726,83.6046762 302.123319,83.2880442 L302.123319,83.2880442 L302.003827,51.106908 C301.611812,50.7846842 301.356058,50.3016981 301.356058,49.7565039 C301.356058,48.7877357 302.143583,48 303.111393,48 Z M283.090459,70.2857143 C283.656939,70.2857143 284.11669,70.7541799 284.11669,71.3329548 L284.11669,71.3329548 L284.117374,83.3413126 C284.534708,83.6617682 284.809054,84.1672363 284.809054,84.7397277 C284.809054,85.7066798 284.038012,86.4935065 283.090459,86.4935065 C282.142906,86.4935065 281.371865,85.7066798 281.371865,84.7397277 C281.371865,84.1665381 281.646895,83.6603718 282.064913,83.3406144 L282.064913,83.3406144 L282.064228,72.3801953 L270.50545,72.3801953 L270.506134,83.3420107 C270.923468,83.6624663 271.197813,84.1672363 271.197813,84.7397277 C271.197813,85.7066798 270.426772,86.4935065 269.479219,86.4935065 C268.531666,86.4935065 267.760624,85.7066798 267.760624,84.7397277 C267.760624,84.1658399 268.035654,83.6603718 268.453672,83.3399163 L268.453672,83.3399163 L268.452988,71.3329548 C268.452988,71.0557851 268.561768,70.7890879 268.754016,70.5929048 C268.946263,70.3960236 269.20761,70.2857143 269.479219,70.2857143 L269.479219,70.2857143 Z M156.131368,48 C157.063947,48 157.823351,48.7869224 157.823351,49.7555499 C157.823351,50.3272218 157.555167,50.829706 157.146827,51.1504852 L157.146827,51.1504852 L157.262052,83.3332371 C157.676456,83.6540164 157.948683,84.1620915 157.948683,84.7379566 C157.948683,85.7058852 157.189279,86.4935065 156.256027,86.4935065 C155.323449,86.4935065 154.564044,85.7058852 154.564044,84.7379566 C154.564044,84.1662847 154.832228,83.6631016 155.240568,83.3423224 L155.240568,83.3423224 L155.125343,51.1595705 C154.710939,50.8387913 154.438712,50.331415 154.438712,49.7555499 C154.438712,48.7869224 155.198116,48 156.131368,48 Z M38.2966367,48 C39.2292149,48 39.9886192,48.7869224 39.9886192,49.7555499 C39.9886192,50.3272218 39.7204356,50.829706 39.3120957,51.1504852 L39.3120957,51.1504852 L39.4273203,83.3332371 C39.8417246,83.6540164 40.1139512,84.1620915 40.1139512,84.7379566 C40.1139512,85.7058852 39.3545469,86.4935065 38.421295,86.4935065 C37.488043,86.4935065 36.7293125,85.7058852 36.7293125,84.7379566 C36.7293125,84.1662847 36.9974961,83.6631016 37.405836,83.3423224 L37.405836,83.3423224 L37.2906113,51.1595705 C36.876207,50.8387913 36.6039805,50.331415 36.6039805,49.7555499 C36.6039805,48.7869224 37.3633848,48 38.2966367,48 Z M164.222325,48 C164.795241,48 165.300136,48.2773438 165.622007,48.7013935 L165.622007,48.7013935 L181.331967,48.6434097 C181.587921,48.6664635 181.878937,48.750994 182.077389,48.9473003 C182.275139,49.1436067 182.386637,49.4090743 182.38804,49.6871167 L182.38804,49.6871167 L182.418894,57.9578309 C182.420998,58.5369695 181.951866,59.0078253 181.371236,59.0099211 L181.371236,59.0099211 L165.453007,59.0686034 L165.462825,62.0397452 L176.548083,61.9992265 C176.850319,61.9943363 177.095053,62.1075093 177.292804,62.303117 C177.491256,62.4994234 177.602754,62.7655896 177.604156,63.0429334 L177.604156,63.0429334 L177.635011,71.3136476 C177.637114,71.8927863 177.167983,72.363642 176.587353,72.3657378 L176.587353,72.3657378 L165.502095,72.4062566 L165.513314,75.4004521 L181.431543,75.3417698 C181.728169,75.322209 181.978513,75.4500526 182.176264,75.6456604 C182.374716,75.8412681 182.486214,76.1074344 182.487616,76.3854768 L182.487616,76.3854768 L182.518478,84.656191 C182.520575,85.2353296 182.051443,85.7054868 181.470112,85.7075826 L181.470112,85.7075826 L165.76997,85.7655663 C165.449501,86.2042865 164.933386,86.4935065 164.348549,86.4935065 C163.377327,86.4935065 162.587025,85.7054868 162.587025,84.7386257 C162.587025,83.7703674 163.377327,82.9830462 164.348549,82.9830462 C164.914452,82.9830462 165.413738,83.2554999 165.73631,83.6697691 L165.73631,83.6697691 L180.410533,83.615977 L180.388093,77.4410599 L164.469163,77.4997423 C163.885728,77.4997423 163.415194,77.0330781 163.413791,76.4560353 L163.413791,76.4560353 L163.394156,71.3667412 C163.392754,71.0886987 163.502849,70.8218339 163.699899,70.624829 C163.896247,70.4271254 164.163421,70.3160482 164.441814,70.314651 L164.441814,70.314651 L175.527073,70.2741322 L175.504633,64.0992152 L164.419374,64.139734 C164.138176,64.139734 163.871703,64.0307525 163.674654,63.8358434 C163.476202,63.6402356 163.364003,63.3740694 163.363302,63.096027 L163.363302,63.096027 L163.345069,58.0283894 C163.342966,57.4492508 163.812098,56.978395 164.392727,56.9762992 L164.392727,56.9762992 L180.310956,56.9176169 L180.288516,50.7433985 L165.631825,50.7971906 C165.310655,51.226829 164.800851,51.5097616 164.222325,51.5097616 C163.251804,51.5097616 162.461502,50.7224405 162.461502,49.7555794 C162.461502,48.7873211 163.251804,48 164.222325,48 Z M116.518818,48 C117.452428,48 118.212124,48.7936297 118.212124,49.7696464 C118.212124,50.344271 117.943837,50.8519968 117.535341,51.1752231 L117.535341,51.1752231 L117.649261,83.309833 C118.063825,83.6330593 118.336156,84.1443062 118.336156,84.7252685 C118.336156,85.700581 117.57646,86.4935065 116.64285,86.4935065 C115.709913,86.4935065 114.950217,85.700581 114.950217,84.7252685 C114.950217,84.1492355 115.218504,83.6422139 115.627001,83.3189876 L115.627001,83.3189876 L115.51308,51.1836735 C115.098516,50.8611514 114.826185,50.3492003 114.826185,49.7696464 C114.826185,48.7936297 115.585207,48 116.518818,48 Z M85.2491253,48.6696626 C85.4582793,48.1252168 86.0602012,47.8603893 86.5917148,48.0738008 C87.1239187,48.2879166 87.3848435,48.9013867 87.1756895,49.4437196 L87.1756895,49.4437196 L73.9057969,83.798746 C74.0693927,84.0685038 74.1687926,84.3840429 74.1687926,84.7242335 C74.1687926,85.6997284 73.39085,86.4935065 72.4348158,86.4935065 C71.4787816,86.4935065 70.700839,85.6997284 70.700839,84.7242335 C70.700839,83.9107342 71.2447776,83.2310573 71.9785425,83.0246891 L71.9785425,83.0246891 Z M10.2861556,48 C11.2569066,48 12.0473952,48.7850974 12.0473952,49.750621 C12.0473952,50.320461 11.7682342,50.8220317 11.3424786,51.141783 L11.3424786,51.141783 L11.4336618,75.5905673 L26.4669746,75.5355339 C26.7903244,75.1440301 27.2742971,74.889065 27.8227994,74.889065 C28.7935504,74.889065 29.584039,75.6741624 29.584039,76.639686 C29.584039,77.6045129 28.7935504,78.3896104 27.8227994,78.3896104 C27.2195871,78.3896104 26.6865158,78.0858815 26.3687772,77.6254117 L26.3687772,77.6254117 L10.3899643,77.6846249 C9.80639145,77.6846249 9.33574558,77.2192788 9.33364136,76.6438658 L9.33364136,76.6438658 L9.23824964,51.1487493 C8.80758413,50.8296946 8.52421463,50.3239442 8.52421463,49.750621 C8.52421463,48.7850974 9.3147033,48 10.2861556,48 Z M238.574894,48 C245.52778,48 251.401854,52.5887829 252.345726,58.4911169 C252.867913,58.8106855 253.219317,59.3765016 253.219317,60.0253226 C253.219317,61.0234555 252.39422,61.8348276 251.38077,61.8348276 C250.36732,61.8348276 249.542222,61.0234555 249.542222,60.0253226 C249.542222,59.4947835 249.779772,59.0209643 250.150855,58.6896368 C249.305376,53.8843497 244.391338,50.160892 238.574894,50.160892 L238.574894,50.160892 L238.525697,50.160892 C232.058453,50.1857935 226.814095,54.6936466 226.834476,60.2107 C226.844316,62.8516366 228.05666,65.3424727 230.248721,67.2225318 C232.468893,69.1268006 235.414364,70.1740447 238.54889,70.1740447 C238.574191,70.1740447 238.599492,70.173353 238.624794,70.1740447 C239.91023,70.1740447 241.158419,70.5309654 242.143756,71.1790946 C243.251383,71.9088453 243.88883,72.9401801 243.892344,74.0102505 C243.900778,76.0985134 241.490847,77.8727413 238.629713,77.8831169 L238.629713,77.8831169 L238.604412,77.8831169 C236.831929,77.8831169 235.202116,77.1955603 234.238565,76.1580001 C233.292585,76.0839875 232.543391,75.311351 232.543391,74.3623293 C232.543391,73.3635047 233.368488,72.5521326 234.381938,72.5521326 C235.395388,72.5521326 236.220485,73.3635047 236.220485,74.3623293 C236.220485,74.5656911 236.178317,74.7579856 236.115064,74.9412879 C236.675905,75.3805217 237.58534,75.7222249 238.604412,75.7222249 L238.604412,75.7222249 L238.621279,75.7222249 C240.409225,75.7146161 241.699581,74.6991905 241.69677,74.0178593 C241.694662,73.6830732 241.40651,73.2936423 240.922275,72.9761489 C240.299586,72.5652751 239.452702,72.3045016 238.608629,72.3356284 L238.608629,72.3356284 L238.548187,72.3356284 C234.88304,72.3356284 231.425925,71.0995484 228.805152,68.8515013 C226.130262,66.5571099 224.65085,63.4907736 224.638127,60.2196922 C224.613601,53.5094446 230.839783,48.02836 238.516561,48 L238.516561,48 Z M132.114162,57.1168831 C134.594287,57.1168831 136.924582,58.1683236 138.679726,60.0782277 C140.425204,61.9789086 141.391845,64.5053456 141.401595,67.1935427 C141.411868,69.8817398 140.463179,72.4166905 138.73082,74.3301419 C137.019175,76.2215997 134.744807,77.2865202 132.311633,77.3397307 C132.259848,77.3482444 132.206683,77.3532107 132.152827,77.3532107 L132.152827,77.3532107 L125.95942,77.3766234 C125.384959,77.3766234 124.921661,76.9026947 124.91959,76.3166692 L124.91959,76.3166692 L124.85468,58.2087636 C124.852616,57.6213191 125.314532,57.1424242 125.886231,57.1402958 L125.886231,57.1402958 L132.079639,57.1168831 Z M132.113471,59.2453052 L132.087234,59.2453052 L126.929513,59.2651705 L126.986821,75.2439445 L131.998855,75.2254981 C132.047187,75.2176939 132.095519,75.2134371 132.144542,75.2134371 C134.059182,75.2063423 135.859206,74.3776767 137.214575,72.8806865 C138.586515,71.363831 139.338423,69.3482153 139.330205,67.2020564 C139.322543,65.0566069 138.556134,63.0452481 137.173147,61.5397442 C135.814326,60.0597814 134.017754,59.2453052 132.113471,59.2453052 L132.113471,59.2453052 Z M90.2256693,60.1558442 C90.65359,60.1558442 91.0354686,60.4287658 91.1810429,60.8388375 L91.1810429,60.8388375 L94.2076337,69.3855585 C94.3193535,69.7018995 94.2739885,70.0540788 94.0837263,70.329068 C93.8948183,70.6047464 93.5860654,70.7687751 93.2563227,70.7701535 L93.2563227,70.7701535 L87.2647562,70.7922078 C86.9323052,70.7922078 86.6235523,70.6302467 86.4332901,70.357325 C86.2416737,70.0837142 86.1929232,69.7322242 86.3026118,69.415194 L86.3026118,69.415194 L89.2675875,60.8464187 C89.4104534,60.4335902 89.7923319,60.1572225 90.2216068,60.1558442 L90.2216068,60.1558442 Z M90.2371799,64.2696558 L89.2682645,67.0691704 L88.6968009,68.7197951 L91.808705,68.7080787 L90.2371799,64.2696558 Z M339.422143,55.0919556 C340.770543,55.0631024 342.033092,55.6322332 342.986988,56.6291139 C343.94429,57.6281585 344.473702,58.9590158 344.478514,60.3778756 C344.483923,61.796014 343.963368,63.1319207 343.014242,64.1374573 C342.066478,65.1422726 340.803929,65.6984195 339.460299,65.7034688 L339.460299,65.7034688 L333.500495,65.7272727 C332.933608,65.7272727 332.47642,65.245423 332.474376,64.6488816 L332.474376,64.6488816 L332.444383,56.2020854 C332.443033,55.914274 332.550006,55.6387252 332.740785,55.4353096 C332.932246,55.231894 333.19116,55.1172023 333.462339,55.1157596 L333.462339,55.1157596 Z M205.562953,55.0909091 C206.898407,55.0909091 208.156868,55.636234 209.107357,56.6279308 C210.063978,57.6268505 210.59339,58.9580211 210.598202,60.3765881 C210.603611,61.7958774 210.083056,63.132104 209.13393,64.1382465 C208.186166,65.1422222 206.924299,65.6983813 205.579987,65.7034373 L205.579987,65.7034373 L199.620183,65.7272727 C199.053296,65.7272727 198.596108,65.2447866 198.594064,64.6474572 L198.594064,64.6474572 L198.564071,56.2017829 C198.562721,55.9143136 198.669694,55.6384008 198.861154,55.4347166 C199.051934,55.23031 199.311529,55.1154668 199.582027,55.1140222 L199.582027,55.1140222 L205.541831,55.0909091 Z M283.09039,48 C284.037981,48 284.809054,48.7942854 284.809054,49.7711085 C284.809054,50.3490269 284.534013,50.8592866 284.115978,51.1820751 L284.115978,51.1820751 L284.116662,63.1506244 C284.116662,63.4304215 284.008562,63.7003517 283.816307,63.8976896 C283.624052,64.0964372 283.362694,64.2077922 283.09039,64.2077922 L283.09039,64.2077922 L269.479288,64.2077922 C268.912786,64.2077922 268.453016,63.734181 268.453016,63.1506244 L268.453016,63.1506244 L268.452332,51.1820751 C268.034981,50.8585818 267.760624,50.3490269 267.760624,49.7711085 C267.760624,48.7942854 268.531697,48 269.478604,48 C270.426195,48 271.197267,48.7942854 271.197267,49.7711085 C271.197267,50.3490269 270.92291,50.8585818 270.504875,51.1820751 L270.504875,51.1820751 L270.50556,62.0934566 L282.064118,62.0934566 L282.063434,51.1813704 C281.646084,50.8585818 281.372411,50.3490269 281.372411,49.7711085 C281.372411,48.7942854 282.143483,48 283.09039,48 Z M339.43032,57.2559513 L334.492547,57.2754272 L334.51435,63.5589491 L339.452123,63.5394732 C340.253395,63.5358665 341.004247,63.2054965 341.567727,62.6082337 C342.129844,62.0131349 342.437816,61.2232765 342.434438,60.3858102 C342.431684,59.5476226 342.118261,58.7606495 341.552056,58.1706001 C340.984488,57.5776653 340.223416,57.2451313 339.43032,57.2559513 L339.43032,57.2559513 Z M205.550007,57.2577618 L200.612234,57.2765424 L200.634038,63.5560851 L205.571811,63.5365834 C206.373083,63.532972 207.125298,63.2021656 207.688778,62.6055585 C208.250214,62.0111182 208.557504,61.2223834 208.554126,60.3852555 C208.551372,59.5481276 208.237949,58.7622819 207.672425,58.1721754 C207.104857,57.5791797 206.335609,57.2570407 205.550007,57.2577618 L205.550007,57.2577618 Z" id="leadership-Graphic-Copy-2"></path>
                    <path d="M191.293754,97 C192.260865,97 193.04839,97.7959472 193.04839,98.7741077 C193.04839,99.3511164 192.770276,99.8603249 192.346815,100.184495 L192.346815,100.184495 L192.467005,132.915793 C192.821287,133.239963 193.04839,133.704678 193.04839,134.225186 C193.04839,135.204053 192.260865,136 191.293754,136 C190.325944,136 189.538419,135.204053 189.538419,134.225186 C189.538419,133.590265 189.873135,133.035856 190.370666,132.722986 L190.370666,132.722986 L190.250476,100.192264 C189.820727,99.8687999 189.538419,99.3560602 189.538419,98.7741077 C189.538419,97.7959472 190.325944,97 191.293754,97 Z M199.99814,119.792208 C200.351076,119.792208 200.680719,119.965982 200.877658,120.256304 L200.877658,120.256304 L209.198496,132.533581 C209.99684,132.703867 210.598244,133.405944 210.598244,134.246203 C210.598244,135.213478 209.802724,136 208.825795,136 C207.84816,136 207.052641,135.213478 207.052641,134.246203 C207.052641,133.953089 207.13311,133.680214 207.261579,133.438047 L207.261579,133.438047 L200.906599,124.059804 L200.939775,132.886016 C201.343535,133.207045 201.608237,133.694172 201.608237,134.246203 C201.608237,135.213478 200.812718,136 199.835789,136 C198.858154,136 198.062634,135.213478 198.062634,134.246203 C198.062634,133.652299 198.364042,133.128881 198.821448,132.812039 L198.821448,132.812039 L198.776272,120.843928 C198.774155,120.266075 199.246384,119.795697 199.830142,119.792906 L199.830142,119.792906 Z M199.323947,97 C199.893749,97 200.395483,97.2782637 200.718277,97.7020155 L200.718277,97.7020155 L206.261917,97.6801217 L206.306126,97.6801217 C212.912179,97.6801217 218.297228,103.036345 218.32249,109.641223 C218.340735,114.825827 215.000517,119.405172 210.194392,121.047917 L210.194392,121.047917 L217.547784,132.470853 C218.429854,132.566904 219.122459,133.312001 219.122459,134.225186 C219.122459,135.204053 218.331613,136 217.359722,136 C216.38783,136 215.596985,135.204053 215.596985,134.225186 C215.596985,133.98506 215.646105,133.755528 215.732418,133.546477 L215.732418,133.546477 L207.64502,120.982235 C207.455554,120.688434 207.422572,120.31977 207.558006,119.997012 C207.692035,119.674254 207.976235,119.439072 208.317975,119.368447 C212.912179,118.424186 216.234152,114.336394 216.217311,109.649698 C216.196259,104.210137 211.75433,99.7988809 206.306126,99.7988809 L206.306126,99.7988809 L206.270337,99.7988809 L200.740031,99.8207747 C200.41864,100.260064 199.905678,100.548922 199.323947,100.548922 C198.352056,100.548922 197.56121,99.7529744 197.56121,98.7741077 C197.56121,97.7959472 198.352056,97 199.323947,97 Z M1.77003944,97 C2.74595689,97 3.54007889,97.7930319 3.54007889,98.7683134 C3.54007889,99.3432087 3.25893011,99.8498484 2.83192218,100.172831 L2.83192218,100.172831 L2.95452842,133.248665 L10.1953426,133.241628 L26.3998001,133.181113 C26.7225222,132.749062 27.2340862,132.464781 27.8147042,132.464781 C28.789917,132.464781 29.584039,133.257812 29.584039,134.23239 C29.584039,135.206968 28.789917,136 27.8147042,136 C27.2376093,136 26.7295686,135.719237 26.4061418,135.291408 L26.4061418,135.291408 L1.90321518,135.361071 C1.31977861,135.361071 0.846969511,134.891022 0.84485561,134.309794 L0.84485561,134.309794 L0.718021573,100.181275 C0.285376582,99.8582924 0,99.3474307 0,98.7683134 C0,97.7930319 0.794121995,97 1.77003944,97 Z M324.671943,97 C325.639753,97 326.427278,97.7969285 326.427278,98.776295 C326.427278,99.3540152 326.149164,99.8631443 325.725703,100.188421 L325.725703,100.188421 L325.845194,132.910576 C326.200175,133.235853 326.427278,133.701848 326.427278,134.222998 C326.427278,135.203071 325.639753,136 324.671943,136 C323.704832,136 322.917307,135.203071 322.917307,134.222998 C322.917307,133.587294 323.251324,133.032201 323.749554,132.718945 L323.749554,132.718945 L323.629364,100.197614 C323.199614,99.8730441 322.917307,99.3589651 322.917307,98.776295 C322.917307,97.7969285 323.704832,97 324.671943,97 Z M238.495217,105.61039 C240.239451,105.61039 241.833153,106.306786 242.777774,107.357008 C243.663011,107.475184 244.352143,108.239813 244.352143,109.173969 C244.352143,110.188316 243.541481,111.014144 242.545072,111.014144 C241.549353,111.014144 240.739382,110.188316 240.739382,109.173969 C240.739382,108.948168 240.784956,108.735732 240.857459,108.535958 C240.302978,108.121637 239.450195,107.80861 238.495217,107.80861 L238.495217,107.80861 L238.477954,107.80861 C236.721981,107.815645 235.4542,108.848984 235.456962,109.541863 C235.459724,110.233336 236.726814,111.252607 238.474501,111.252607 L238.474501,111.252607 L238.549767,111.252607 C242.150789,111.252607 245.547419,112.508934 248.12234,114.79438 C250.75043,117.128363 252.204649,120.246671 252.216468,123.573898 C252.228817,126.901828 250.798076,130.030688 248.186558,132.384367 C245.61509,134.70217 242.203268,135.986635 238.58084,136 L238.58084,136 L238.523528,136 C231.781365,136 226.068756,131.441769 225.037131,125.547724 C224.501293,125.227663 224.136702,124.641706 224.136702,123.965005 C224.136702,122.949955 224.946673,122.124127 225.943083,122.124127 C226.938802,122.124127 227.749463,122.949955 227.749463,123.965005 C227.749463,124.489061 227.530571,124.959656 227.184624,125.295193 C228.09541,130.099624 232.87928,133.801779 238.523528,133.801779 L238.523528,133.801779 L238.571864,133.801779 C241.670883,133.791228 244.57794,132.702317 246.756507,130.738339 C248.895714,128.809532 250.068204,126.268741 250.058537,123.582339 C250.04887,120.895937 248.857736,118.363587 246.704718,116.450959 C244.511651,114.503863 241.574902,113.421987 238.498669,113.450124 L238.498669,113.450124 L238.474501,113.450124 C235.674474,113.450124 233.306707,111.668334 233.299111,109.550305 C233.292206,107.425241 235.660663,105.621645 238.469668,105.61039 L238.469668,105.61039 Z M333.191522,97 C333.757207,97 334.255316,97.2782637 334.575081,97.700603 L334.575081,97.700603 L340.027112,97.6801217 L340.071001,97.6801217 C346.628625,97.6801217 351.97546,103.044114 351.999922,109.657467 C352.02353,116.287065 346.69202,121.700494 340.11489,121.725213 L340.11489,121.725213 L334.267856,121.746401 L334.308958,132.871299 C334.691423,133.196882 334.941522,133.679959 334.941522,134.225186 C334.941522,135.204053 334.156391,136 333.191522,136 C332.226653,136 331.441522,135.204053 331.441522,134.225186 C331.441522,133.612158 331.750837,133.070462 332.218293,132.751942 L332.218293,132.751942 L332.173707,120.695496 C332.172314,120.413701 332.281689,120.144619 332.47745,119.944749 C332.672513,119.745586 332.937939,119.632585 333.214512,119.631879 L333.214512,119.631879 L340.107227,119.606454 C345.532088,119.585973 349.929381,115.125985 349.909875,109.665942 C349.889672,104.217906 345.479839,99.7988809 340.071001,99.7988809 L340.071001,99.7988809 L340.034775,99.7988809 L334.598071,99.8193622 C334.279002,100.259358 333.769747,100.548922 333.191522,100.548922 C332.226653,100.548922 331.441522,99.7529744 331.441522,98.7741077 C331.441522,97.7959472 332.226653,97 333.191522,97 Z M262.558416,97.0335347 L262.558416,135.752452 L259.326142,135.752452 L259.326142,97.0335347 L262.558416,97.0335347 Z M96.3972992,126.376623 C96.8384033,126.376623 97.2327447,126.663059 97.3821059,127.091631 L97.3821059,127.091631 L99.0830089,131.968975 C99.7788646,132.209957 100.284878,132.882395 100.284878,133.681097 C100.284878,134.680375 99.4982889,135.493506 98.5316288,135.493506 C97.5649687,135.493506 96.7790776,134.680375 96.7790776,133.681097 C96.7790776,133.297258 96.8963331,132.94228 97.0945507,132.648629 L97.0945507,132.648629 L95.6630563,128.544012 L84.8134308,128.585859 L83.4259072,132.65873 C83.6199371,132.949495 83.7337029,133.302309 83.7337029,133.681097 C83.7337029,134.680375 82.9478117,135.493506 81.9811516,135.493506 C81.0144915,135.493506 80.2279024,134.680375 80.2279024,133.681097 C80.2279024,132.877345 80.7401974,132.201299 81.4423346,131.965368 L81.4423346,131.965368 L83.0832139,127.146465 C83.2304813,126.715007 83.6248228,126.424964 84.0666248,126.423521 L84.0666248,126.423521 L96.3931115,126.376623 Z M94.4239981,97.0756445 C94.9628466,96.8602962 95.573075,97.1199809 95.7907138,97.6611668 L95.7907138,97.6611668 L109.56984,132.043711 C110.287838,132.266096 110.81479,132.931847 110.81479,133.726383 C110.81479,134.700377 110.026812,135.493506 109.057584,135.493506 C108.088357,135.493506 107.299678,134.700377 107.299678,133.726383 C107.299678,133.367469 107.408148,133.033891 107.591496,132.755205 L107.591496,132.755205 L93.8424615,98.4500736 C93.6262223,97.9088878 93.8865491,97.2938079 94.4239981,97.0756445 Z M292.080057,97 C293.047168,97 293.834693,97.7877357 293.834693,98.7565039 C293.834693,99.3296568 293.554482,99.8350098 293.128226,100.155836 L293.128226,100.155836 L293.128925,132.337671 C293.555181,132.658497 293.834693,133.164549 293.834693,133.737702 C293.834693,134.705771 293.047168,135.493506 292.080057,135.493506 C291.112247,135.493506 290.324722,134.705771 290.324722,133.737702 C290.324722,133.163151 290.604933,132.657099 291.032586,132.336972 L291.032586,132.336972 L291.031887,100.155836 C290.604933,99.8357088 290.324722,99.3296568 290.324722,98.7565039 C290.324722,97.7877357 291.112247,97 292.080057,97 Z M125.595966,97 C126.140316,97 126.620788,97.2591444 126.940872,97.6570156 L126.940872,97.6570156 L130.55205,97.6436358 L130.628426,97.6436358 C141.239085,97.6436358 149.888278,105.916539 149.925893,116.118942 C149.943824,121.084937 147.94556,125.757987 144.297582,129.276858 C140.715564,132.733759 135.962223,134.668188 130.893658,134.737903 C130.826308,134.752692 130.75757,134.761142 130.688138,134.761142 L130.688138,134.761142 L126.990863,134.775226 C126.672168,135.209011 126.168089,135.493506 125.595966,135.493506 C124.634327,135.493506 123.851824,134.699877 123.851824,133.724564 C123.851824,132.749252 124.634327,131.955622 125.595966,131.955622 C126.163229,131.955622 126.663142,132.235892 126.981837,132.662636 L126.981837,132.662636 L130.476369,132.649256 C130.543719,132.634468 130.611762,132.627426 130.681195,132.627426 C135.2922,132.609821 139.617838,130.876088 142.862414,127.746638 C146.090326,124.631976 147.858769,120.506087 147.8428,116.127392 C147.809472,107.086914 140.09345,99.756226 130.628426,99.756226 L130.628426,99.756226 L130.559688,99.756226 L127.031828,99.7696058 C126.716605,100.232967 126.191002,100.537884 125.595966,100.537884 C124.634327,100.537884 123.851824,99.7442547 123.851824,98.7696464 C123.851824,97.7936297 124.634327,97 125.595966,97 Z M46.3875933,97 C46.9605093,97 47.4654047,97.2773438 47.7872755,97.7013935 L47.7872755,97.7013935 L63.4972352,97.6434097 C63.7531891,97.6664635 64.0442051,97.750994 64.2426571,97.9473003 C64.4404078,98.1436067 64.5519055,98.4090743 64.553308,98.6871167 L64.553308,98.6871167 L64.5841627,106.957831 C64.5862664,107.53697 64.1171345,108.007825 63.5365048,108.009921 L63.5365048,108.009921 L47.6182758,108.068603 L47.6280932,111.039745 L58.7133515,110.999226 C59.0155875,110.994336 59.2603215,111.107509 59.4580722,111.303117 C59.6565241,111.499423 59.7680219,111.76559 59.7694244,112.042933 L59.7694244,112.042933 L59.8002791,120.313648 C59.8023828,120.892786 59.3332509,121.363642 58.7526212,121.365738 L58.7526212,121.365738 L47.6673628,121.406257 L47.6785827,124.400452 L63.5968118,124.34177 C63.8934378,124.322209 64.1437817,124.450053 64.3415324,124.64566 C64.5399844,124.841268 64.6514821,125.107434 64.6528846,125.385477 L64.6528846,125.385477 L64.6837463,133.656191 C64.685843,134.23533 64.2167111,134.705487 63.6360814,134.707583 L63.6360814,134.707583 L47.9352379,134.765566 C47.6147696,135.204286 47.0986543,135.493506 46.5138172,135.493506 C45.5425948,135.493506 44.7522933,134.705487 44.7522933,133.738626 C44.7522933,132.770367 45.5425948,131.983046 46.5138172,131.983046 C47.0797207,131.983046 47.5790062,132.2555 47.9015782,132.669769 L47.9015782,132.669769 L62.5758011,132.615977 L62.5533613,126.44106 L46.6344311,126.499742 C46.0509964,126.499742 45.580462,126.033078 45.5790595,125.456035 L45.5790595,125.456035 L45.5594247,120.366741 C45.5580222,120.088699 45.6681174,119.821834 45.8651669,119.624829 C46.0615151,119.427125 46.3286889,119.316048 46.6070826,119.314651 L46.6070826,119.314651 L57.6923409,119.274132 L57.6699011,113.099215 L46.5846428,113.139734 C46.3034441,113.139734 46.0369715,113.030753 45.8399221,112.835843 C45.6414702,112.640236 45.5292712,112.374069 45.52857,112.096027 L45.52857,112.096027 L45.5103376,107.028389 C45.5082339,106.449251 45.9773658,105.978395 46.5579955,105.976299 L46.5579955,105.976299 L62.4762245,105.917617 L62.4537847,99.7433985 L47.7970929,99.7971906 C47.4752221,100.226829 46.9661193,100.509762 46.3875933,100.509762 C45.4170722,100.509762 44.6267707,99.7224405 44.6267707,98.7555794 C44.6267707,97.7873211 45.4170722,97 46.3875933,97 Z M311.133834,97 C312.100753,97 312.888819,97.7877357 312.888819,98.7565039 C312.888819,99.3569165 312.584911,99.8874324 312.123109,100.204064 L312.123109,100.204064 L312.242577,132.386599 C312.633117,132.709521 312.888819,133.191808 312.888819,133.737702 C312.888819,134.705771 312.100753,135.493506 311.133834,135.493506 C310.166915,135.493506 309.378849,134.705771 309.378849,133.737702 C309.378849,133.135891 309.684155,132.604676 310.145956,132.288044 L310.145956,132.288044 L310.027187,100.106908 C309.634551,99.7846842 309.378849,99.3016981 309.378849,98.7565039 C309.378849,97.7877357 310.166915,97 311.133834,97 Z M303.111393,97 C304.078504,97 304.866029,97.7877357 304.866029,98.7565039 C304.866029,99.3569165 304.56206,99.8881313 304.100167,100.204763 L304.100167,100.204763 L304.219658,132.387297 C304.610975,132.709521 304.866029,133.191808 304.866029,133.737702 C304.866029,134.705771 304.078504,135.493506 303.111393,135.493506 C302.143583,135.493506 301.356058,134.705771 301.356058,133.737702 C301.356058,133.135891 301.660726,132.604676 302.123319,132.288044 L302.123319,132.288044 L302.003827,100.106908 C301.611812,99.7846842 301.356058,99.3016981 301.356058,98.7565039 C301.356058,97.7877357 302.143583,97 303.111393,97 Z M283.090459,119.285714 C283.656939,119.285714 284.11669,119.75418 284.11669,120.332955 L284.11669,120.332955 L284.117374,132.341313 C284.534708,132.661768 284.809054,133.167236 284.809054,133.739728 C284.809054,134.70668 284.038012,135.493506 283.090459,135.493506 C282.142906,135.493506 281.371865,134.70668 281.371865,133.739728 C281.371865,133.166538 281.646895,132.660372 282.064913,132.340614 L282.064913,132.340614 L282.064228,121.380195 L270.50545,121.380195 L270.506134,132.342011 C270.923468,132.662466 271.197813,133.167236 271.197813,133.739728 C271.197813,134.70668 270.426772,135.493506 269.479219,135.493506 C268.531666,135.493506 267.760624,134.70668 267.760624,133.739728 C267.760624,133.16584 268.035654,132.660372 268.453672,132.339916 L268.453672,132.339916 L268.452988,120.332955 C268.452988,120.055785 268.561768,119.789088 268.754016,119.592905 C268.946263,119.396024 269.20761,119.285714 269.479219,119.285714 L269.479219,119.285714 Z M156.131368,97 C157.063947,97 157.823351,97.7869224 157.823351,98.7555499 C157.823351,99.3272218 157.555167,99.829706 157.146827,100.150485 L157.146827,100.150485 L157.262052,132.333237 C157.676456,132.654016 157.948683,133.162092 157.948683,133.737957 C157.948683,134.705885 157.189279,135.493506 156.256027,135.493506 C155.323449,135.493506 154.564044,134.705885 154.564044,133.737957 C154.564044,133.166285 154.832228,132.663102 155.240568,132.342322 L155.240568,132.342322 L155.125343,100.15957 C154.710939,99.8387913 154.438712,99.331415 154.438712,98.7555499 C154.438712,97.7869224 155.198116,97 156.131368,97 Z M38.2966367,97 C39.2292149,97 39.9886192,97.7869224 39.9886192,98.7555499 C39.9886192,99.3272218 39.7204356,99.829706 39.3120957,100.150485 L39.3120957,100.150485 L39.4273203,132.333237 C39.8417246,132.654016 40.1139512,133.162092 40.1139512,133.737957 C40.1139512,134.705885 39.3545469,135.493506 38.421295,135.493506 C37.488043,135.493506 36.7293125,134.705885 36.7293125,133.737957 C36.7293125,133.166285 36.9974961,132.663102 37.405836,132.342322 L37.405836,132.342322 L37.2906113,100.15957 C36.876207,99.8387913 36.6039805,99.331415 36.6039805,98.7555499 C36.6039805,97.7869224 37.3633848,97 38.2966367,97 Z M164.222325,97 C164.795241,97 165.300136,97.2773438 165.622007,97.7013935 L165.622007,97.7013935 L181.331967,97.6434097 C181.587921,97.6664635 181.878937,97.750994 182.077389,97.9473003 C182.275139,98.1436067 182.386637,98.4090743 182.38804,98.6871167 L182.38804,98.6871167 L182.418894,106.957831 C182.420998,107.53697 181.951866,108.007825 181.371236,108.009921 L181.371236,108.009921 L165.453007,108.068603 L165.462825,111.039745 L176.548083,110.999226 C176.850319,110.994336 177.095053,111.107509 177.292804,111.303117 C177.491256,111.499423 177.602754,111.76559 177.604156,112.042933 L177.604156,112.042933 L177.635011,120.313648 C177.637114,120.892786 177.167983,121.363642 176.587353,121.365738 L176.587353,121.365738 L165.502095,121.406257 L165.513314,124.400452 L181.431543,124.34177 C181.728169,124.322209 181.978513,124.450053 182.176264,124.64566 C182.374716,124.841268 182.486214,125.107434 182.487616,125.385477 L182.487616,125.385477 L182.518478,133.656191 C182.520575,134.23533 182.051443,134.705487 181.470112,134.707583 L181.470112,134.707583 L165.76997,134.765566 C165.449501,135.204286 164.933386,135.493506 164.348549,135.493506 C163.377327,135.493506 162.587025,134.705487 162.587025,133.738626 C162.587025,132.770367 163.377327,131.983046 164.348549,131.983046 C164.914452,131.983046 165.413738,132.2555 165.73631,132.669769 L165.73631,132.669769 L180.410533,132.615977 L180.388093,126.44106 L164.469163,126.499742 C163.885728,126.499742 163.415194,126.033078 163.413791,125.456035 L163.413791,125.456035 L163.394156,120.366741 C163.392754,120.088699 163.502849,119.821834 163.699899,119.624829 C163.896247,119.427125 164.163421,119.316048 164.441814,119.314651 L164.441814,119.314651 L175.527073,119.274132 L175.504633,113.099215 L164.419374,113.139734 C164.138176,113.139734 163.871703,113.030753 163.674654,112.835843 C163.476202,112.640236 163.364003,112.374069 163.363302,112.096027 L163.363302,112.096027 L163.345069,107.028389 C163.342966,106.449251 163.812098,105.978395 164.392727,105.976299 L164.392727,105.976299 L180.310956,105.917617 L180.288516,99.7433985 L165.631825,99.7971906 C165.310655,100.226829 164.800851,100.509762 164.222325,100.509762 C163.251804,100.509762 162.461502,99.7224405 162.461502,98.7555794 C162.461502,97.7873211 163.251804,97 164.222325,97 Z M116.518818,97 C117.452428,97 118.212124,97.7936297 118.212124,98.7696464 C118.212124,99.344271 117.943837,99.8519968 117.535341,100.175223 L117.535341,100.175223 L117.649261,132.309833 C118.063825,132.633059 118.336156,133.144306 118.336156,133.725268 C118.336156,134.700581 117.57646,135.493506 116.64285,135.493506 C115.709913,135.493506 114.950217,134.700581 114.950217,133.725268 C114.950217,133.149236 115.218504,132.642214 115.627001,132.318988 L115.627001,132.318988 L115.51308,100.183673 C115.098516,99.8611514 114.826185,99.3492003 114.826185,98.7696464 C114.826185,97.7936297 115.585207,97 116.518818,97 Z M85.2491253,97.6696626 C85.4582793,97.1252168 86.0602012,96.8603893 86.5917148,97.0738008 C87.1239187,97.2879166 87.3848435,97.9013867 87.1756895,98.4437196 L87.1756895,98.4437196 L73.9057969,132.798746 C74.0693927,133.068504 74.1687926,133.384043 74.1687926,133.724234 C74.1687926,134.699728 73.39085,135.493506 72.4348158,135.493506 C71.4787816,135.493506 70.700839,134.699728 70.700839,133.724234 C70.700839,132.910734 71.2447776,132.231057 71.9785425,132.024689 L71.9785425,132.024689 Z M10.2861556,97 C11.2569066,97 12.0473952,97.7850974 12.0473952,98.750621 C12.0473952,99.320461 11.7682342,99.8220317 11.3424786,100.141783 L11.3424786,100.141783 L11.4336618,124.590567 L26.4669746,124.535534 C26.7903244,124.14403 27.2742971,123.889065 27.8227994,123.889065 C28.7935504,123.889065 29.584039,124.674162 29.584039,125.639686 C29.584039,126.604513 28.7935504,127.38961 27.8227994,127.38961 C27.2195871,127.38961 26.6865158,127.085881 26.3687772,126.625412 L26.3687772,126.625412 L10.3899643,126.684625 C9.80639145,126.684625 9.33574558,126.219279 9.33364136,125.643866 L9.33364136,125.643866 L9.23824964,100.148749 C8.80758413,99.8296946 8.52421463,99.3239442 8.52421463,98.750621 C8.52421463,97.7850974 9.3147033,97 10.2861556,97 Z M238.574894,97 C245.52778,97 251.401854,101.588783 252.345726,107.491117 C252.867913,107.810685 253.219317,108.376502 253.219317,109.025323 C253.219317,110.023456 252.39422,110.834828 251.38077,110.834828 C250.36732,110.834828 249.542222,110.023456 249.542222,109.025323 C249.542222,108.494783 249.779772,108.020964 250.150855,107.689637 C249.305376,102.88435 244.391338,99.160892 238.574894,99.160892 L238.574894,99.160892 L238.525697,99.160892 C232.058453,99.1857935 226.814095,103.693647 226.834476,109.2107 C226.844316,111.851637 228.05666,114.342473 230.248721,116.222532 C232.468893,118.126801 235.414364,119.174045 238.54889,119.174045 C238.574191,119.174045 238.599492,119.173353 238.624794,119.174045 C239.91023,119.174045 241.158419,119.530965 242.143756,120.179095 C243.251383,120.908845 243.88883,121.94018 243.892344,123.010251 C243.900778,125.098513 241.490847,126.872741 238.629713,126.883117 L238.629713,126.883117 L238.604412,126.883117 C236.831929,126.883117 235.202116,126.19556 234.238565,125.158 C233.292585,125.083988 232.543391,124.311351 232.543391,123.362329 C232.543391,122.363505 233.368488,121.552133 234.381938,121.552133 C235.395388,121.552133 236.220485,122.363505 236.220485,123.362329 C236.220485,123.565691 236.178317,123.757986 236.115064,123.941288 C236.675905,124.380522 237.58534,124.722225 238.604412,124.722225 L238.604412,124.722225 L238.621279,124.722225 C240.409225,124.714616 241.699581,123.699191 241.69677,123.017859 C241.694662,122.683073 241.40651,122.293642 240.922275,121.976149 C240.299586,121.565275 239.452702,121.304502 238.608629,121.335628 L238.608629,121.335628 L238.548187,121.335628 C234.88304,121.335628 231.425925,120.099548 228.805152,117.851501 C226.130262,115.55711 224.65085,112.490774 224.638127,109.219692 C224.613601,102.509445 230.839783,97.02836 238.516561,97 L238.516561,97 Z M132.114162,106.116883 C134.594287,106.116883 136.924582,107.168324 138.679726,109.078228 C140.425204,110.978909 141.391845,113.505346 141.401595,116.193543 C141.411868,118.88174 140.463179,121.41669 138.73082,123.330142 C137.019175,125.2216 134.744807,126.28652 132.311633,126.339731 C132.259848,126.348244 132.206683,126.353211 132.152827,126.353211 L132.152827,126.353211 L125.95942,126.376623 C125.384959,126.376623 124.921661,125.902695 124.91959,125.316669 L124.91959,125.316669 L124.85468,107.208764 C124.852616,106.621319 125.314532,106.142424 125.886231,106.140296 L125.886231,106.140296 L132.079639,106.116883 Z M132.113471,108.245305 L132.087234,108.245305 L126.929513,108.26517 L126.986821,124.243944 L131.998855,124.225498 C132.047187,124.217694 132.095519,124.213437 132.144542,124.213437 C134.059182,124.206342 135.859206,123.377677 137.214575,121.880686 C138.586515,120.363831 139.338423,118.348215 139.330205,116.202056 C139.322543,114.056607 138.556134,112.045248 137.173147,110.539744 C135.814326,109.059781 134.017754,108.245305 132.113471,108.245305 L132.113471,108.245305 Z M90.2256693,109.155844 C90.65359,109.155844 91.0354686,109.428766 91.1810429,109.838838 L91.1810429,109.838838 L94.2076337,118.385559 C94.3193535,118.7019 94.2739885,119.054079 94.0837263,119.329068 C93.8948183,119.604746 93.5860654,119.768775 93.2563227,119.770154 L93.2563227,119.770154 L87.2647562,119.792208 C86.9323052,119.792208 86.6235523,119.630247 86.4332901,119.357325 C86.2416737,119.083714 86.1929232,118.732224 86.3026118,118.415194 L86.3026118,118.415194 L89.2675875,109.846419 C89.4104534,109.43359 89.7923319,109.157223 90.2216068,109.155844 L90.2216068,109.155844 Z M90.2371799,113.269656 L89.2682645,116.06917 L88.6968009,117.719795 L91.808705,117.708079 L90.2371799,113.269656 Z M339.422143,104.091956 C340.770543,104.063102 342.033092,104.632233 342.986988,105.629114 C343.94429,106.628158 344.473702,107.959016 344.478514,109.377876 C344.483923,110.796014 343.963368,112.131921 343.014242,113.137457 C342.066478,114.142273 340.803929,114.698419 339.460299,114.703469 L339.460299,114.703469 L333.500495,114.727273 C332.933608,114.727273 332.47642,114.245423 332.474376,113.648882 L332.474376,113.648882 L332.444383,105.202085 C332.443033,104.914274 332.550006,104.638725 332.740785,104.43531 C332.932246,104.231894 333.19116,104.117202 333.462339,104.11576 L333.462339,104.11576 Z M205.562953,104.090909 C206.898407,104.090909 208.156868,104.636234 209.107357,105.627931 C210.063978,106.62685 210.59339,107.958021 210.598202,109.376588 C210.603611,110.795877 210.083056,112.132104 209.13393,113.138247 C208.186166,114.142222 206.924299,114.698381 205.579987,114.703437 L205.579987,114.703437 L199.620183,114.727273 C199.053296,114.727273 198.596108,114.244787 198.594064,113.647457 L198.594064,113.647457 L198.564071,105.201783 C198.562721,104.914314 198.669694,104.638401 198.861154,104.434717 C199.051934,104.23031 199.311529,104.115467 199.582027,104.114022 L199.582027,104.114022 L205.541831,104.090909 Z M283.09039,97 C284.037981,97 284.809054,97.7942854 284.809054,98.7711085 C284.809054,99.3490269 284.534013,99.8592866 284.115978,100.182075 L284.115978,100.182075 L284.116662,112.150624 C284.116662,112.430421 284.008562,112.700352 283.816307,112.89769 C283.624052,113.096437 283.362694,113.207792 283.09039,113.207792 L283.09039,113.207792 L269.479288,113.207792 C268.912786,113.207792 268.453016,112.734181 268.453016,112.150624 L268.453016,112.150624 L268.452332,100.182075 C268.034981,99.8585818 267.760624,99.3490269 267.760624,98.7711085 C267.760624,97.7942854 268.531697,97 269.478604,97 C270.426195,97 271.197267,97.7942854 271.197267,98.7711085 C271.197267,99.3490269 270.92291,99.8585818 270.504875,100.182075 L270.504875,100.182075 L270.50556,111.093457 L282.064118,111.093457 L282.063434,100.18137 C281.646084,99.8585818 281.372411,99.3490269 281.372411,98.7711085 C281.372411,97.7942854 282.143483,97 283.09039,97 Z M339.43032,106.255951 L334.492547,106.275427 L334.51435,112.558949 L339.452123,112.539473 C340.253395,112.535867 341.004247,112.205497 341.567727,111.608234 C342.129844,111.013135 342.437816,110.223277 342.434438,109.38581 C342.431684,108.547623 342.118261,107.76065 341.552056,107.1706 C340.984488,106.577665 340.223416,106.245131 339.43032,106.255951 L339.43032,106.255951 Z M205.550007,106.257762 L200.612234,106.276542 L200.634038,112.556085 L205.571811,112.536583 C206.373083,112.532972 207.125298,112.202166 207.688778,111.605559 C208.250214,111.011118 208.557504,110.222383 208.554126,109.385256 C208.551372,108.548128 208.237949,107.762282 207.672425,107.172175 C207.104857,106.57918 206.335609,106.257041 205.550007,106.257762 L205.550007,106.257762 Z" id="leadership-Graphic-Copy-3"></path>
                </g>
            </g>
        </g>
    </g>
</svg>