<?xml version="1.0" encoding="UTF-8"?>
<svg width="1285px" height="141px" viewBox="0 0 1285 141" version="1.1" xmlns="http://www.w3.org/2000/svg" xmlns:xlink="http://www.w3.org/1999/xlink">
    <title>leadership-Graphic</title>
    <g id="Layout" stroke="none" stroke-width="1" fill="none" fill-rule="evenodd" opacity="0.195963542">
        <g id="1440px-Leadership" transform="translate(-94.000000, -168.000000)" fill="#619ECE">
            <g id="Intro" transform="translate(0.000000, 116.000000)">
                <path d="M1279.49871,52 C1283.08322,52 1286,54.8812032 1286,58.4219897 C1286,60.5106703 1284.96994,62.351368 1283.40155,63.5273693 L1283.40155,63.5273693 L1283.84412,181.830544 C1285.15887,183.006545 1286,184.691295 1286,186.575454 C1286,190.118797 1283.08322,193 1279.49871,193 C1275.91678,193 1273,190.118797 1273,186.575454 C1273,184.277138 1274.23711,182.270266 1276.08242,181.137726 L1276.08242,181.137726 L1275.63727,63.5606041 C1274.04559,62.3871594 1273,60.528566 1273,58.4219897 C1273,54.8812032 1275.91678,52 1279.49871,52 Z M792.501294,52 C796.083217,52 799,54.8776552 799,58.4140816 C799,60.5001901 797.969938,62.3411746 796.401553,63.5131743 L796.401553,63.5131743 L796.846705,181.849405 C798.158869,183.021405 799,184.701527 799,186.583365 C799,190.122345 796.083217,193 792.501294,193 C788.916783,193 786,190.122345 786,186.583365 C786,184.28788 787.239697,182.283479 789.082421,181.152333 L789.082421,181.152333 L788.637269,63.5412615 C787.04559,62.3718151 786,60.5180638 786,58.4140816 C786,54.8776552 788.916783,52 792.501294,52 Z M823.102427,134 C824.397545,134 825.607185,134.632578 826.329861,135.689416 L826.329861,135.689416 L856.863562,180.381459 C859.793119,181.001335 862,183.557053 862,186.615785 C862,190.136884 859.080804,193 855.495918,193 C851.908441,193 848.989245,190.136884 848.989245,186.615785 C848.989245,185.548786 849.284532,184.55546 849.755955,183.673915 L849.755955,183.673915 L826.436061,149.535007 L826.557802,181.664399 C828.039417,182.833018 829.010755,184.606269 829.010755,186.615785 C829.010755,190.136884 826.091559,193 822.506673,193 C818.919196,193 816,190.136884 816,186.615785 C816,184.453841 817.106031,182.548484 818.784504,181.395109 L818.784504,181.395109 L818.618729,137.828496 C818.610958,135.724983 820.343826,134.012702 822.485951,134.00254 L822.485951,134.00254 L823.084295,134 Z M100.39809,52.1212408 C103.926543,52.1212408 106.79771,54.9858908 106.79771,58.5088765 C106.79771,60.5855571 105.78121,62.4156796 104.237352,63.5823827 L104.237352,63.5823827 L104.680638,183.061418 L130.859971,183.036 L189.447567,182.817402 C190.614376,181.256714 192.463948,180.229812 194.563186,180.229812 C198.08909,180.229812 200.960257,183.094462 200.960257,186.614906 C200.960257,190.13535 198.08909,193 194.563186,193 C192.476686,193 190.639852,191.985807 189.470495,190.44037 L189.470495,190.44037 L100.87959,190.692012 C98.7701619,190.692012 97.0607095,188.994065 97.0530667,186.894508 L97.0530667,186.894508 L96.5944952,63.6128847 C95.0302571,62.4461816 93.9984714,60.6008082 93.9984714,58.5088765 C93.9984714,54.9858908 96.8696381,52.1212408 100.39809,52.1212408 Z M963.668778,83 C970.066842,83 975.912737,85.5207166 979.377722,89.322161 C982.624878,89.749919 985.152696,92.5176149 985.152696,95.8989399 C985.152696,99.5705291 982.179091,102.559743 978.52414,102.559743 C974.871722,102.559743 971.90065,99.5705291 971.90065,95.8989399 C971.90065,95.0816166 972.06782,94.3126707 972.333773,93.589556 C970.299867,92.089857 967.171756,90.9568076 963.668778,90.9568076 L963.668778,90.9568076 L963.605456,90.9568076 C957.164334,90.9822693 952.51396,94.7226054 952.524091,97.2305912 C952.534223,99.7334846 957.182064,103.422897 963.592792,103.422897 L963.592792,103.422897 L963.868876,103.422897 C977.077863,103.422897 989.537117,107.970372 998.982239,116.242905 C1008.62239,124.691125 1013.95665,135.978334 1014,148.021758 C1014.0453,160.067728 1008.79716,171.39313 999.217798,179.912643 C989.78534,188.302301 977.270363,192.951623 963.982856,193 L963.982856,193 L963.772627,193 C939.041553,193 918.087008,176.500764 914.30288,155.166335 C912.337362,154.007824 911,151.886857 911,149.437433 C911,145.763298 913.971072,142.774085 917.626023,142.774085 C921.278441,142.774085 924.252046,145.763298 924.252046,149.437433 C924.252046,151.334336 923.449122,153.03773 922.180148,154.252257 C925.521021,171.642655 943.068837,185.043192 963.772627,185.043192 L963.772627,185.043192 L963.949928,185.043192 C975.317509,185.005 985.980949,181.063516 993.972196,173.954585 C1001.81907,166.972964 1006.11991,157.776168 1006.08444,148.052312 C1006.04898,138.328457 1001.67976,129.162215 993.78223,122.239156 C985.737792,115.191334 974.965439,111.275311 963.681443,111.377158 L963.681443,111.377158 L963.592792,111.377158 C953.32195,111.377158 944.636692,104.927689 944.60883,97.2611453 C944.583502,89.5691403 953.271292,83.0407389 963.575062,83 L963.575062,83 Z M1309.29498,52.121495 C1311.37911,52.121495 1313.21428,53.1229787 1314.39238,54.642997 L1314.39238,54.642997 L1334.47911,54.5692838 L1334.64081,54.5692838 C1358.80085,54.5692838 1378.50001,73.8745338 1378.59014,97.676293 C1378.67711,121.536514 1359.03441,141.019693 1334.80251,141.108657 L1334.80251,141.108657 L1313.26048,141.184912 L1313.41191,181.223925 C1314.82101,182.395711 1315.74245,184.134328 1315.74245,186.096626 C1315.74245,189.619611 1312.84981,192.484261 1309.29498,192.484261 C1305.74015,192.484261 1302.84751,189.619611 1302.84751,186.096626 C1302.84751,183.890311 1303.98711,181.940723 1305.70935,180.794354 L1305.70935,180.794354 L1305.54508,137.402659 C1305.53995,136.388466 1305.94291,135.420027 1306.66415,134.700687 C1307.38281,133.983889 1308.36071,133.577195 1309.37968,133.574653 L1309.37968,133.574653 L1334.77428,133.483147 C1354.76091,133.409434 1370.96171,117.357735 1370.88985,97.706795 C1370.81541,78.0990664 1354.56841,62.194794 1334.64081,62.194794 L1334.64081,62.194794 L1334.50735,62.194794 L1314.47708,62.2685072 C1313.30155,63.8520715 1311.42531,64.8942246 1309.29498,64.8942246 C1305.74015,64.8942246 1302.84751,62.0295746 1302.84751,58.5065889 C1302.84751,54.986145 1305.74015,52.121495 1309.29498,52.121495 Z M821.906918,52.1207324 C823.979497,52.1207324 825.804489,53.1222161 826.978609,54.6473182 L826.978609,54.6473182 L847.142857,54.5685212 L847.303661,54.5685212 C871.332297,54.5685212 890.919695,73.845811 891.011582,97.6170682 C891.077946,116.276692 878.928348,132.757961 861.446711,138.670273 L861.446711,138.670273 L888.193692,179.781941 C891.402105,180.12763 893.92136,182.809268 893.92136,186.095863 C893.92136,189.618849 891.044764,192.483499 887.50964,192.483499 C883.974515,192.483499 881.097919,189.618849 881.097919,186.095863 C881.097919,185.231639 881.27659,184.405542 881.590539,183.653158 L881.590539,183.653158 L852.173709,138.433882 C851.484552,137.376478 851.364587,136.04964 851.857207,134.88802 C852.344723,133.726401 853.378459,132.879969 854.621496,132.625786 C871.332297,129.22735 883.415531,114.515199 883.354273,97.6475702 C883.2777,78.0703437 867.120777,62.1940314 847.303661,62.1940314 L847.303661,62.1940314 L847.173486,62.1940314 L827.057735,62.2728284 C825.888719,63.8538508 824.022888,64.893462 821.906918,64.893462 C818.371794,64.893462 815.495198,62.028812 815.495198,58.5058263 C815.495198,54.9853824 818.371794,52.1207324 821.906918,52.1207324 Z M1046.31689,52.1209866 L1046.33889,52.121029 L1046.33889,52.121029 L1052.30383,52.1212408 L1052.30383,192.105019 L1040.33234,192.105019 L1040.33234,52.1212408 L1046.272,52.121 L1046.31689,52.1209866 Z M1158.52475,52.1207324 C1161.98475,52.1207324 1164.80225,54.9853824 1164.80225,58.5083682 C1164.80225,60.5926743 1163.79975,62.4304222 1162.27475,63.5971253 L1162.27475,63.5971253 L1162.27725,180.628372 C1163.80225,181.795075 1164.80225,183.635365 1164.80225,185.719671 C1164.80225,189.240115 1161.98475,192.104765 1158.52475,192.104765 C1155.06225,192.104765 1152.24475,189.240115 1152.24475,185.719671 C1152.24475,183.630281 1153.24725,181.789992 1154.77725,180.62583 L1154.77725,180.62583 L1154.77475,63.5971253 C1153.24725,62.4329641 1152.24475,60.5926743 1152.24475,58.5083682 C1152.24475,54.9853824 1155.06225,52.1207324 1158.52475,52.1207324 Z M1199.23801,52.1207324 C1202.53654,52.1207324 1205.22256,54.9853824 1205.22256,58.5083682 C1205.22256,60.6918059 1204.18581,62.6236018 1202.61042,63.7750539 L1202.61042,63.7750539 L1203.01797,180.808843 C1204.35264,181.980629 1205.22256,183.734497 1205.22256,185.719671 C1205.22256,189.240115 1202.53654,192.104765 1199.23801,192.104765 C1195.93709,192.104765 1193.25107,189.240115 1193.25107,185.719671 C1193.25107,183.53115 1194.29021,181.599354 1195.86797,180.447902 L1195.86797,180.447902 L1195.46042,63.4191967 C1194.12337,62.24741 1193.25107,60.4910008 1193.25107,58.5083682 C1193.25107,54.9853824 1195.93709,52.1207324 1199.23801,52.1207324 Z M1229.14005,52.1207324 C1232.43858,52.1207324 1235.12698,54.9853824 1235.12698,58.5083682 C1235.12698,60.6918059 1234.09023,62.62106 1232.51485,63.772512 L1232.51485,63.772512 L1232.9224,180.806301 C1234.25468,181.980629 1235.12698,183.734497 1235.12698,185.719671 C1235.12698,189.240115 1232.43858,192.104765 1229.14005,192.104765 C1225.84152,192.104765 1223.15312,189.240115 1223.15312,185.719671 C1223.15312,183.53115 1224.19463,181.599354 1225.77002,180.447902 L1225.77002,180.447902 L1225.36485,63.4191967 C1224.02542,62.24741 1223.15312,60.4910008 1223.15312,58.5083682 C1223.15312,54.9853824 1225.84152,52.1207324 1229.14005,52.1207324 Z M446.850646,160 C448.456102,160 449.89136,161.005381 450.434979,162.509655 L450.434979,162.509655 L456.625639,179.628997 C459.158298,180.474834 461,182.835074 461,185.638493 C461,189.145932 458.137105,192 454.618819,192 C451.100532,192 448.240178,189.145932 448.240178,185.638493 C448.240178,184.291231 448.666945,183.045267 449.388384,182.014562 L449.388384,182.014562 L444.178272,167.607471 L404.689634,167.754353 L399.639559,182.050016 C400.345756,183.070592 400.759822,184.308959 400.759822,185.638493 C400.759822,189.145932 397.899468,192 394.381181,192 C390.862895,192 388,189.145932 388,185.638493 C388,182.817347 389.864565,180.444444 392.420086,179.616334 L392.420086,179.616334 L398.392282,162.702121 C398.928281,161.187718 400.363538,160.169674 401.971535,160.164609 L401.971535,160.164609 L446.835404,160 Z M404.752579,54.4355476 C405.510978,52.4554106 407.693567,51.4922391 409.620854,52.2684118 C411.550643,53.0471462 412.496765,55.2783227 411.738366,57.2507749 L411.738366,57.2507749 L363.621286,182.199218 C364.21449,183.180321 364.574917,184.327929 364.574917,185.565195 C364.574917,189.113047 361.754071,192 358.287459,192 C354.820846,192 352,189.113047 352,185.565195 C352,182.606517 353.97234,180.134547 356.632996,179.383991 L356.632996,179.383991 Z M664.26915,52 C667.723171,52 670.535803,54.8620189 670.535803,58.3848947 C670.535803,60.4640523 669.542523,62.2915759 668.03014,63.4582426 L668.03014,63.4582426 L668.456902,180.506173 C669.991745,181.67284 671,183.520697 671,185.615105 C671,189.135439 668.187368,192 664.73085,192 C661.276829,192 658.464197,189.135439 658.464197,185.615105 C658.464197,183.535948 659.457477,181.705882 660.96986,180.539216 L660.96986,180.539216 L660.543098,63.4912854 C659.008255,62.3246187 658,60.4793028 658,58.3848947 C658,54.8620189 660.812632,52 664.26915,52 Z M553.354722,52 C555.338043,52 557.088628,52.9425022 558.254841,54.3895505 L558.254841,54.3895505 L571.412051,54.3408887 L571.690323,54.3408887 C610.349904,54.3408887 641.862952,84.4292483 642,121.535152 C642.065332,139.596363 634.784722,156.592137 621.493436,169.390191 C608.442475,181.962863 591.123833,188.998335 572.656686,189.251889 C572.4113,189.305673 572.160855,189.336407 571.907881,189.336407 L571.907881,189.336407 L558.436982,189.38763 C557.275829,190.965296 555.439233,192 553.354722,192 C549.851024,192 547,189.113587 547,185.566398 C547,182.019209 549.851024,179.132795 553.354722,179.132795 C555.421525,179.132795 557.242942,180.152132 558.404096,181.704187 L558.404096,181.704187 L571.136308,181.655526 C571.381694,181.601742 571.629609,181.57613 571.882583,181.57613 C588.682628,181.512101 604.442946,175.206557 616.26445,163.824818 C628.02524,152.496863 634.468504,137.4911 634.41032,121.565886 C634.288892,88.6858753 606.175823,62.0243309 571.690323,62.0243309 L571.690323,62.0243309 L571.439878,62.0243309 L558.586237,62.0729927 C557.437733,63.7582277 555.522715,64.8672045 553.354722,64.8672045 C549.851024,64.8672045 547,61.9807914 547,58.4361634 C547,54.8864131 549.851024,52 553.354722,52 Z M233.26915,52 C236.723171,52 239.535803,54.8620189 239.535803,58.3848947 C239.535803,60.4640523 238.542523,62.2915759 237.03014,63.4582426 L237.03014,63.4582426 L237.456902,180.506173 C238.991745,181.67284 240,183.520697 240,185.615105 C240,189.135439 237.187368,192 233.73085,192 C230.274333,192 227.464197,189.135439 227.464197,185.615105 C227.464197,183.535948 228.457477,181.705882 229.96986,180.539216 L229.96986,180.539216 L229.543098,63.4912854 C228.008255,62.3246187 227,60.4793028 227,58.3848947 C227,54.8620189 229.812632,52 233.26915,52 Z M693.408745,52 C695.493948,52 697.331582,53.0086931 698.503073,54.5509519 L698.503073,54.5509519 L755.681537,54.3400664 C756.613114,54.4239125 757.672306,54.7313479 758.394598,55.4453095 C759.114337,56.1592712 759.520148,57.1247709 759.525252,58.1360048 L759.525252,58.1360048 L759.637552,88.2164026 C759.645209,90.3227165 757.937742,92.0352081 755.824464,92.0428304 L755.824464,92.0428304 L697.887976,92.2562567 L697.923708,103.062231 L738.269963,102.914865 C739.369991,102.89708 740.260732,103.308688 740.980472,104.020109 C741.702764,104.73407 742.108574,105.702111 742.113679,106.710804 L742.113679,106.710804 L742.225979,136.791202 C742.233636,138.897515 740.526168,140.610007 738.41289,140.617629 L738.41289,140.617629 L698.066635,140.764995 L698.107471,151.654816 L756.043959,151.441389 C757.123568,151.370247 758.034728,151.835212 758.754467,152.546633 C759.476759,153.258053 759.88257,154.226094 759.887675,155.237328 L759.887675,155.237328 L760,185.317726 C760.007631,187.424039 758.300164,189.13399 756.184333,189.141613 L756.184333,189.141613 L699.041601,189.352498 C697.875215,190.948113 695.996745,192 693.868154,192 C690.333262,192 687.456856,189.13399 687.456856,185.617539 C687.456856,182.096006 690.333262,179.232537 693.868154,179.232537 C695.927834,179.232537 697.745049,180.223444 698.919092,181.730132 L698.919092,181.730132 L752.327856,181.534491 L752.246184,159.07646 L694.307144,159.289886 L694.294382,159.289886 C692.183657,159.289886 690.471085,157.592639 690.46598,155.493947 L690.46598,155.493947 L690.394517,136.984302 C690.389412,135.973068 690.790118,135.002486 691.507306,134.285984 C692.221941,133.566941 693.194355,133.162955 694.207605,133.157874 L694.207605,133.157874 L734.553861,133.010508 L734.472188,110.552476 L694.125933,110.699842 L694.110619,110.699842 C693.102473,110.699842 692.132611,110.303479 691.415424,109.594599 C690.693132,108.883178 690.284769,107.915138 690.282217,106.903904 L690.282217,106.903904 L690.215858,88.4730223 C690.208201,86.3667084 691.915669,84.6542168 694.028947,84.6465944 L694.028947,84.6465944 L751.965434,84.4331682 L751.883762,61.9776774 L698.538804,62.1733181 C697.369866,63.7359032 695.514367,64.7649226 693.408745,64.7649226 C689.876406,64.7649226 687,61.9014537 687,58.3850021 C687,54.8634689 689.876406,52 693.408745,52 Z M264.408745,52 C266.493948,52 268.331582,53.0086931 269.503073,54.5509519 L269.503073,54.5509519 L326.681537,54.3400664 C327.613114,54.4239125 328.672306,54.7313479 329.394598,55.4453095 C330.114337,56.1592712 330.520148,57.1247709 330.525252,58.1360048 L330.525252,58.1360048 L330.637552,88.2164026 C330.645209,90.3227165 328.937742,92.0352081 326.824464,92.0428304 L326.824464,92.0428304 L268.887976,92.2562567 L268.923708,103.062231 L309.269963,102.914865 C310.369991,102.89708 311.260732,103.308688 311.980472,104.020109 C312.702764,104.73407 313.108574,105.702111 313.113679,106.710804 L313.113679,106.710804 L313.225979,136.791202 C313.233636,138.897515 311.526168,140.610007 309.41289,140.617629 L309.41289,140.617629 L269.066635,140.764995 L269.107471,151.654816 L327.043959,151.441389 C328.123568,151.370247 329.034728,151.835212 329.754467,152.546633 C330.476759,153.258053 330.88257,154.226094 330.887675,155.237328 L330.887675,155.237328 L331,185.317726 C331.007631,187.424039 329.300164,189.13399 327.186886,189.141613 L327.186886,189.141613 L270.041601,189.352498 C268.875215,190.948113 266.996745,192 264.868154,192 C261.333262,192 258.456856,189.13399 258.456856,185.617539 C258.456856,182.096006 261.333262,179.232537 264.868154,179.232537 C266.927834,179.232537 268.745049,180.223444 269.919092,181.730132 L269.919092,181.730132 L323.327856,181.534491 L323.246184,159.07646 L265.307144,159.289886 L265.294382,159.289886 C263.183657,159.289886 261.471085,157.592639 261.46598,155.493947 L261.46598,155.493947 L261.394517,136.984302 C261.389412,135.973068 261.790118,135.002486 262.507306,134.285984 C263.221941,133.566941 264.194355,133.162955 265.207605,133.157874 L265.207605,133.157874 L305.553861,133.010508 L305.472188,110.552476 L265.125933,110.699842 L265.110619,110.699842 C264.102473,110.699842 263.132611,110.303479 262.415424,109.594599 C261.693132,108.883178 261.284769,107.915138 261.282217,106.903904 L261.282217,106.903904 L261.215858,88.4730223 C261.208201,86.3667084 262.915669,84.6542168 265.028947,84.6465944 L265.028947,84.6465944 L322.965434,84.4331682 L322.883762,61.9776774 L269.538804,62.1733181 C268.367313,63.7359032 266.514367,64.7649226 264.408745,64.7649226 C260.876406,64.7649226 258,61.9014537 258,58.3850021 C258,54.8634689 260.876406,52 264.408745,52 Z M1126.64918,133 C1128.74253,133 1130.44147,134.70532 1130.44147,136.81219 L1130.44147,136.81219 L1130.444,180.525307 C1131.9862,181.691837 1133,183.531854 1133,185.615852 C1133,189.135774 1130.15073,192 1126.64918,192 C1123.14764,192 1120.29837,189.135774 1120.29837,185.615852 C1120.29837,183.529313 1121.3147,181.686754 1122.85942,180.522765 L1122.85942,180.522765 L1122.8569,140.624381 L1080.1431,140.624381 L1080.14563,180.527848 C1081.68783,181.694379 1082.70163,183.531854 1082.70163,185.615852 C1082.70163,189.135774 1079.85236,192 1076.35082,192 C1072.84927,192 1070,189.135774 1070,185.615852 C1070,183.526771 1071.01633,181.686754 1072.56106,180.520224 L1072.56106,180.520224 L1072.55853,136.81219 C1072.55853,135.803231 1072.96051,134.832393 1073.67093,134.118243 C1074.38136,133.401551 1075.34712,133 1076.35082,133 L1076.35082,133 Z M438.446352,52.3944375 C440.386752,51.614726 442.584192,52.5549663 443.367912,54.5144375 L443.367912,54.5144375 L492.986712,179.003284 C495.572232,179.808476 497.469792,182.218957 497.469792,185.095736 C497.469792,188.622274 494.632272,191.493957 491.142072,191.493957 C487.651872,191.493957 484.811832,188.622274 484.811832,185.095736 C484.811832,183.796216 485.202432,182.588428 485.862672,181.579389 L485.862672,181.579389 L436.352232,57.3708317 C435.573552,55.4113606 436.510992,53.1843413 438.446352,52.3944375 Z M520.5208,52.1210288 C523.821717,52.1210288 526.507733,54.9927115 526.507733,58.5243462 C526.507733,60.6035769 525.559167,62.4407404 524.114867,63.6103077 L524.114867,63.6103077 L524.51765,179.886702 C525.9834,181.056269 526.946267,182.906173 526.946267,185.008337 C526.946267,188.537423 524.26025,191.406558 520.959333,191.406558 C517.6608,191.406558 514.974783,188.537423 514.974783,185.008337 C514.974783,182.92401 515.92335,181.089394 517.36765,179.919827 L517.36765,179.919827 L516.964867,63.6408846 C515.499117,62.4738654 514.53625,60.6214135 514.53625,58.5243462 C514.53625,54.9927115 517.219883,52.1210288 520.5208,52.1210288 Z M130.540257,52.1169289 C134.08262,52.1169289 136.967188,54.9638486 136.967188,58.4650293 C136.967188,60.5313827 135.948503,62.3501779 134.39488,63.5096598 L134.39488,63.5096598 L134.727617,152.16582 L189.585607,151.966258 C190.765541,150.546588 192.531603,149.622033 194.533141,149.622033 C198.075503,149.622033 200.960072,152.468953 200.960072,155.970134 C200.960072,159.468788 198.075503,162.315708 194.533141,162.315708 C192.331962,162.315708 190.386733,161.214327 189.227275,159.544571 L189.227275,159.544571 L130.919065,159.75929 L130.903708,159.75929 C128.789552,159.75929 127.072121,158.071853 127.064442,155.98529 L127.064442,155.98529 L126.716349,63.5349209 C125.144809,62.3779651 124.110767,60.5440133 124.110767,58.4650293 C124.110767,54.9638486 126.995335,52.1169289 130.540257,52.1169289 Z M963.527179,52.1153384 C988.893846,52.1153384 1010.32462,68.9025945 1013.76821,90.495247 C1015.67333,91.6643323 1016.95538,93.7342713 1016.95538,96.1078689 C1016.95538,99.7593628 1013.94513,102.727625 1010.24769,102.727625 C1006.55026,102.727625 1003.54,99.7593628 1003.54,96.1078689 C1003.54,94.1669848 1004.40667,92.4336006 1005.76051,91.221497 C1002.6759,73.6421982 984.747692,60.0205823 963.527179,60.0205823 L963.527179,60.0205823 L963.347692,60.0205823 C939.752821,60.1116799 920.619487,76.6028689 920.693846,96.7860396 C920.729744,106.447442 925.152821,115.559729 933.150256,122.437595 C941.250256,129.404027 951.99641,133.235186 963.432308,133.235186 C963.524615,133.235186 963.616923,133.232655 963.709231,133.235186 C968.398974,133.235186 972.952821,134.540918 976.547692,136.911985 C980.588718,139.581649 982.914359,143.354607 982.927179,147.269271 C982.957949,154.908814 974.165641,161.399515 963.727179,161.437473 L963.727179,161.437473 L963.634872,161.437473 C957.168205,161.437473 951.222051,158.922168 947.706667,155.126436 C944.255385,154.855674 941.522051,152.029119 941.522051,148.55729 C941.522051,144.903265 944.532308,141.935003 948.229744,141.935003 C951.927179,141.935003 954.937436,144.903265 954.937436,148.55729 C954.937436,149.301253 954.78359,150.004729 954.552821,150.675308 C956.598974,152.282168 959.916923,153.532229 963.634872,153.532229 L963.634872,153.532229 L963.69641,153.532229 C970.219487,153.504393 974.927179,149.789637 974.916923,147.297107 C974.909231,146.072351 973.857949,144.647686 972.091282,143.486192 C969.819487,141.983082 966.729744,141.029088 963.650256,141.14296 L963.650256,141.14296 L963.429744,141.14296 C950.057949,141.14296 937.445128,136.620979 927.88359,128.396893 C918.124615,120.003265 912.727179,108.785613 912.680761,96.818936 C912.591282,72.2706738 935.306667,52.2190884 963.314359,52.1153384 L963.314359,52.1153384 Z M575.323152,85 C584.316169,85 592.765899,88.7885558 599.130111,95.670332 C605.459272,102.518875 608.964346,111.622146 608.999701,121.308271 C609.036951,130.994397 605.596972,140.128344 599.315379,147.022902 C593.108896,153.838213 584.861959,157.67534 576.039188,157.867068 C575.851416,157.897745 575.658637,157.915639 575.463355,157.915639 L575.463355,157.915639 L553.005848,158 L552.990827,158 C550.922833,158 549.242902,156.292338 549.235391,154.180768 L549.235391,154.180768 L549.000025,88.9342695 C548.992539,86.8175865 550.667464,85.0920297 552.740464,85.0843606 L552.740464,85.0843606 L575.19797,85 Z M575.320648,92.6691413 L575.22551,92.6691413 L556.52344,92.74072 L556.731241,150.31552 L574.905046,150.249054 C575.0803,150.220934 575.255554,150.205596 575.433311,150.205596 C582.37586,150.180032 588.902807,147.19418 593.817421,141.800217 C598.792122,136.334676 601.518568,129.071999 601.48877,121.338948 C601.460985,113.608454 598.681962,106.361115 593.667204,100.936476 C588.740072,95.6038661 582.225643,92.6691413 575.320648,92.6691413 L575.320648,92.6691413 Z M423.885124,96 C425.485268,96 426.913245,97.0007128 427.457597,98.5043089 L427.457597,98.5043089 L438.775072,129.842286 C439.192831,131.002203 439.023196,132.293527 438.311739,133.301821 C437.605347,134.312642 436.450812,134.91408 435.21779,134.919134 L435.21779,134.919134 L412.813241,135 L412.79805,135 C411.570091,135 410.415557,134.406143 409.7041,133.40543 C408.98758,132.40219 408.805285,131.113393 409.215449,129.950949 L409.215449,129.950949 L420.302523,98.5321065 C420.836748,97.0184021 422.264725,96.0050541 423.869933,96 L423.869933,96 Z M423.928166,111.083976 L420.305055,121.348863 L418.168153,127.401153 L429.804644,127.358193 L423.928166,111.083976 Z M844.589714,79 C849.472469,79 854.073718,80.9482548 857.548944,84.49124 C861.046591,88.0600299 862.982254,92.8158359 862.999847,97.8838789 C863.019622,102.954502 861.116344,107.728372 857.646101,111.322966 C854.18084,114.909819 849.567134,116.896781 844.651994,116.914844 L844.651994,116.914844 L822.861455,117 L822.846508,117 C820.788776,117 819.11718,115.276246 819.109706,113.142197 L819.109706,113.142197 L819.000046,82.9687627 C818.995111,81.9417357 819.386229,80.9559962 820.086257,80.2283037 C820.783793,79.4980307 821.732941,79.087736 822.721948,79.082575 L822.721948,79.082575 L844.512487,79 Z M1332.51249,79.003739 C1337.44257,78.9006563 1342.05877,80.9339614 1345.54645,84.4954666 C1349.04659,88.064703 1350.98225,92.8193898 1350.99985,97.8884786 C1351.01962,102.95499 1349.11634,107.727717 1345.6461,111.320147 C1342.18084,114.909999 1337.56464,116.896917 1332.65199,116.914957 L1332.65199,116.914957 L1310.86146,117 L1310.84651,117 C1308.78878,117 1307.11718,115.27852 1307.10971,113.147286 L1307.10971,113.147286 L1307.00005,82.9698435 C1306.99511,81.9415942 1307.38623,80.957155 1308.08377,80.2304224 C1308.78379,79.5036898 1309.73045,79.0939363 1310.72195,79.0887821 L1310.72195,79.0887821 Z M1126.58818,52.1070213 C1130.06844,52.1070213 1132.90039,54.9405298 1132.90039,58.4252173 C1132.90039,60.4868651 1131.89024,62.3071491 1130.3549,63.4586548 L1130.3549,63.4586548 L1130.35742,106.154876 C1130.35742,107.153016 1129.96039,108.115956 1129.25429,108.819933 C1128.54818,109.528939 1127.58829,109.926183 1126.58818,109.926183 L1126.58818,109.926183 L1076.59813,109.926183 C1074.51752,109.926183 1072.8289,108.236638 1072.8289,106.154876 L1072.8289,106.154876 L1072.82639,63.4586548 C1071.29357,62.3046349 1070.28593,60.4868651 1070.28593,58.4252173 C1070.28593,54.9405298 1073.11788,52.1070213 1076.59562,52.1070213 C1080.07588,52.1070213 1082.90783,54.9405298 1082.90783,58.4252173 C1082.90783,60.4868651 1081.90018,62.3046349 1080.36485,63.4586548 L1080.36485,63.4586548 L1080.36736,102.38357 L1122.81895,102.38357 L1122.81644,63.4561406 C1121.28362,62.3046349 1120.27849,60.4868651 1120.27849,58.4252173 C1120.27849,54.9405298 1123.11044,52.1070213 1126.58818,52.1070213 Z M1332.54238,86.7349369 L1314.48864,86.8045177 L1314.56836,109.25334 L1332.6221,109.183759 C1335.55175,109.170874 1338.29706,107.990577 1340.35728,105.856767 C1342.41252,103.730687 1343.53854,100.9088 1343.52619,97.9168263 C1343.51612,94.9222756 1342.37017,92.1106966 1340.29998,90.0026566 C1338.22481,87.8843084 1335.44214,86.696281 1332.54238,86.7349369 L1332.54238,86.7349369 Z M844.542381,86.7414054 L826.488645,86.808502 L826.568363,109.243107 L844.6221,109.173435 C847.551753,109.160532 850.302039,107.978677 852.362262,105.847209 C854.415012,103.723482 855.538544,100.905609 855.526191,97.9148445 C855.516123,94.9240799 854.370171,92.1165286 852.302474,90.0082847 C850.227303,87.8897189 847.414736,86.7388293 844.542381,86.7414054 L844.542381,86.7414054 Z" id="leadership-Graphic"></path>
            </g>
        </g>
    </g>
</svg>