<?xml version="1.0" encoding="UTF-8"?>
<svg width="173px" height="32px" viewBox="0 0 173 32" version="1.1" xmlns="http://www.w3.org/2000/svg" xmlns:xlink="http://www.w3.org/1999/xlink">
    <title>Group 4</title>
    <g id="Layout" stroke="none" stroke-width="1" fill="none" fill-rule="evenodd">
        <g id="1440px-Home" transform="translate(-50.000000, -763.000000)" fill="#FFFFFF">
            <g id="Upcoming-Events" transform="translate(0.000000, 630.000000)">
                <g id="Group-4" transform="translate(50.000000, 133.000000)">
                    <path d="M153.353506,17.4443694 C155.462295,19.3248391 158.244366,20.3590974 161.193725,20.3590974 L161.242027,20.3590974 C161.921199,20.3331806 162.603315,20.5513633 163.104006,20.8949107 C163.493366,21.1607078 163.72604,21.4867764 163.727218,21.766436 C163.729574,22.3366041 162.691084,23.185829 161.25263,23.1918561 L161.238493,23.1918561 C160.418539,23.1918561 159.686942,22.9067721 159.235732,22.5385135 C159.28639,22.3860267 159.320555,22.2251019 159.320555,22.0545336 C159.320555,21.2191711 158.656699,20.5399118 157.840868,20.5399118 C157.025038,20.5399118 156.361181,21.2191711 156.361181,22.0545336 C156.361181,22.8489115 156.964366,23.4950216 157.726004,23.5564985 C158.500601,24.4244075 159.812409,25 161.238493,25 L161.25911,25 C163.561695,24.991562 165.500839,23.5070759 165.49436,21.7598062 C165.491414,20.8653777 164.978354,20.0016876 164.086537,19.3917404 C163.293679,18.8492972 162.289353,18.5509535 161.255575,18.5509535 L161.194314,18.5509535 C158.672014,18.5509535 156.301099,17.6752091 154.514518,16.081029 C152.750911,14.5085465 151.775448,12.424962 151.767202,10.2154102 C151.750708,5.5998216 155.971232,1.82803346 161.175465,1.80814388 L161.214931,1.80814388 C165.895501,1.80814388 169.850364,4.92297307 170.530714,8.94307963 C170.232067,9.21972564 170.040626,9.61631187 170.040626,10.0605125 C170.040626,10.8946696 170.704483,11.573929 171.520313,11.573929 C172.336144,11.573929 173,10.8946696 173,10.0605125 C173,9.51746667 172.717257,9.04433569 172.296678,8.77673039 C171.537396,3.83868946 166.810291,0 161.214931,0 L161.168396,0 C154.990468,0.0235058704 149.980032,4.60895875 150,10.2226428 C150.010074,12.9595699 151.200538,15.5247234 153.353506,17.4443694" id="Fill-41"></path>
                    <path d="M168.646901,14.5550278 C166.538005,12.6745582 163.755205,11.6409026 160.805695,11.6409026 L160.744431,11.6409026 C159.312385,11.6409026 158.27502,10.8019239 158.272664,10.2341667 C158.270896,9.66399865 159.30885,8.81417103 160.747377,8.80814388 L160.760926,8.80814388 C161.543809,8.80814388 162.242455,9.06550303 162.696044,9.40603679 C162.636547,9.57057788 162.598846,9.74596784 162.598846,9.93100123 C162.598846,10.765761 163.262736,11.4450204 164.078608,11.4450204 C164.89448,11.4450204 165.55837,10.765761 165.55837,9.93100123 C165.55837,9.16254008 164.994034,8.53330601 164.26888,8.43626896 C163.495422,7.57197618 162.190027,7 160.760926,7 L160.740308,7 C158.439372,7.008438 156.499541,8.49232142 156.505432,10.2407965 C156.511323,11.9826418 158.450565,13.4490465 160.744431,13.4490465 L160.763871,13.4490465 C163.283354,13.4255406 165.689145,14.3157501 167.485241,15.9183683 C169.248938,17.4914535 170.225039,19.5744353 170.232697,21.7845898 C170.240944,23.9941416 169.280159,26.0849587 167.528244,27.6719063 C165.74334,29.2871815 163.36229,30.1828154 160.824546,30.1918561 L160.784489,30.1918561 C156.161411,30.1918561 152.24287,27.1457364 151.496509,23.1937366 C151.780444,22.9176933 151.959524,22.5301478 151.959524,22.0992068 C151.959524,21.2638444 151.295634,20.584585 150.479762,20.584585 C149.66389,20.584585 149,21.2638444 149,22.0992068 C149,22.6561151 149.298662,23.1382868 149.737525,23.4010704 C150.58285,28.2505123 155.26189,32 160.784489,32 L160.831026,32 C163.798207,31.9891511 166.593379,30.9325924 168.699329,29.0256033 C170.838269,27.0896839 172.010532,24.5148871 172,21.7773572 C171.990503,19.0398274 170.799389,16.4746739 168.646901,14.5550278" id="Fill-42"></path>
                    <path d="M0.586868881,2.54449891 L0.685352275,28.4628177 C0.336340948,28.7211511 0.107122288,29.1263798 0.107122288,29.5867647 C0.107122288,30.3657044 0.756191208,31 1.55384911,31 C2.35093108,31 3,30.3657044 3,29.5867647 C3,29.1224401 2.76732578,28.7138344 2.41313112,28.4555011 L2.31464773,2.5377451 C2.66365905,2.27941176 2.89345364,1.87418301 2.89345364,1.41436093 C2.89345364,0.63429557 2.24438472,0 1.44672682,0 C0.649068919,0 0,0.63429557 0,1.41436093 C0,1.87812273 0.233250144,2.2867284 0.586868881,2.54449891" id="Fill-43"></path>
                    <path d="M8.50534875,28.1734814 C7.73057802,28.1734814 7.10013282,28.8075353 7.10013282,29.5873033 C7.10013282,30.3659462 7.73057802,31 8.50534875,31 C8.97188938,31 9.3836087,30.7676449 9.63925507,30.41433 L22.1636895,30.367634 C22.6274331,30.3659462 23.0016726,29.9867516 23,29.5203535 L22.9753807,22.859694 C22.9742619,22.6357779 22.8853171,22.4219887 22.7270066,22.2638972 C22.5692554,22.1063683 22.3695492,22.0034119 22.1329224,22.0191648 L9.43451421,22.0664235 L9.42556379,19.6556687 L18.2685787,19.6224751 C18.7317629,19.6207873 19.1060023,19.2415927 19.1043241,18.7751946 L19.0797105,12.1145351 C19.0785917,11.8911816 18.9896469,11.6768298 18.8313363,11.5193009 C18.6735852,11.3612094 18.4783541,11.2700677 18.2372522,11.2740059 L9.39423732,11.3071995 L9.38640571,8.91388541 L22.0848139,8.86662674 C22.5479982,8.86493893 22.9222376,8.48574436 22.9205594,8.01934629 L22.8959457,1.35868678 C22.8948269,1.1353333 22.8058821,0.92098147 22.648131,0.763452569 C22.4898204,0.604798461 22.2576689,0.536723471 22.0534875,0.518157565 L9.52122141,0.564853632 C9.26445624,0.223916081 8.86168734,0 8.40465652,0 C7.6304452,0 7,0.634053828 7,1.41382189 C7,2.19302735 7.6304452,2.82708118 8.40465652,2.82708118 C8.86616255,2.82708118 9.27228785,2.59922687 9.52905302,2.25266329 L21.2210984,2.20934284 L21.2389993,7.1821927 L8.54059103,7.22945137 C8.0774068,7.23113918 7.70316736,7.60977115 7.70484557,8.07673182 L7.71939,12.157293 C7.7199494,12.3812091 7.8094536,12.5955609 7.96776415,12.7530898 C8.1249559,12.9100561 8.33752837,12.9983848 8.55849187,12.9983848 L8.56184827,12.9983848 L17.4048631,12.9651912 L17.422764,17.9380411 L8.57974911,17.970672 C8.35766682,17.9717972 8.14453495,18.0618138 7.9879026,18.2204679 C7.83071085,18.379122 7.74288485,18.5940364 7.74400365,18.8179525 L7.75910749,22.9165169 C7.76078569,23.3817898 8.13614393,23.7576088 8.59820935,23.7576088 L8.60156576,23.7576088 L21.3005334,23.7103501 L21.3184342,28.6831999 L9.61240381,28.7265204 C9.35507924,28.3923341 8.95678555,28.1734814 8.50534875,28.1734814" id="Fill-44"></path>
                    <path d="M61.5868689,2.54449891 L61.6853523,28.4628177 C61.3363409,28.7211511 61.1071223,29.1263798 61.1071223,29.5867647 C61.1071223,30.3657044 61.7561912,31 62.5538491,31 C63.3509311,31 64,30.3657044 64,29.5867647 C64,29.1224401 63.7673258,28.7138344 63.4131311,28.4555011 L63.3146477,2.5377451 C63.6636591,2.27941176 63.8934536,1.87418301 63.8934536,1.41436093 C63.8934536,0.63429557 63.2443847,0 62.4467268,0 C61.6490689,0 61,0.63429557 61,1.41436093 C61,1.87812273 61.2332501,2.2867284 61.5868689,2.54449891" id="Fill-43"></path>
                    <path d="M69.5053487,28.1734814 C68.730578,28.1734814 68.1001328,28.8075353 68.1001328,29.5873033 C68.1001328,30.3659462 68.730578,31 69.5053487,31 C69.9718894,31 70.3836087,30.7676449 70.6392551,30.41433 L83.1636895,30.367634 C83.6274331,30.3659462 84.0016726,29.9867516 84,29.5203535 L83.9753807,22.859694 C83.9742619,22.6357779 83.8853171,22.4219887 83.7270066,22.2638972 C83.5692554,22.1063683 83.3695492,22.0034119 83.1329224,22.0191648 L70.4345142,22.0664235 L70.4255638,19.6556687 L79.2685787,19.6224751 C79.7317629,19.6207873 80.1060023,19.2415927 80.1043241,18.7751946 L80.0797105,12.1145351 C80.0785917,11.8911816 79.9896469,11.6768298 79.8313363,11.5193009 C79.6735852,11.3612094 79.4783541,11.2700677 79.2372522,11.2740059 L70.3942373,11.3071995 L70.3864057,8.91388541 L83.0848139,8.86662674 C83.5479982,8.86493893 83.9222376,8.48574436 83.9205594,8.01934629 L83.8959457,1.35868678 C83.8948269,1.1353333 83.8058821,0.92098147 83.648131,0.763452569 C83.4898204,0.604798461 83.2576689,0.536723471 83.0534875,0.518157565 L70.5212214,0.564853632 C70.2644562,0.223916081 69.8616873,0 69.4046565,0 C68.6304452,0 68,0.634053828 68,1.41382189 C68,2.19302735 68.6304452,2.82708118 69.4046565,2.82708118 C69.8661625,2.82708118 70.2722879,2.59922687 70.529053,2.25266329 L82.2210984,2.20934284 L82.2389993,7.1821927 L69.540591,7.22945137 C69.0774068,7.23113918 68.7031674,7.60977115 68.7048456,8.07673182 L68.71939,12.157293 C68.7199494,12.3812091 68.8094536,12.5955609 68.9677642,12.7530898 C69.1249559,12.9100561 69.3375284,12.9983848 69.5584919,12.9983848 L69.5618483,12.9983848 L78.4048631,12.9651912 L78.422764,17.9380411 L69.5797491,17.970672 C69.3576668,17.9717972 69.1445349,18.0618138 68.9879026,18.2204679 C68.8307108,18.379122 68.7428849,18.5940364 68.7440037,18.8179525 L68.7591075,22.9165169 C68.7607857,23.3817898 69.1361439,23.7576088 69.5982094,23.7576088 L69.6015658,23.7576088 L82.3005334,23.7103501 L82.3184342,28.6831999 L70.6124038,28.7265204 C70.3550792,28.3923341 69.9567856,28.1734814 69.5053487,28.1734814" id="Fill-44"></path>
                    <path d="M142.576127,7 C142.108307,7 141.696626,7.2343533 141.436915,7.59022313 L135.430111,7.61279048 C135.20499,7.61336913 134.988942,7.70595315 134.830167,7.86913249 C134.671392,8.03231182 134.581798,8.25335617 134.582932,8.48423757 L134.658917,29.3243218 C134.264247,29.5829784 134,30.0325896 134,30.5458522 C134,31.3478613 134.63907,32 135.42444,32 C136.20981,32 136.84888,31.3478613 136.84888,30.5458522 C136.84888,30.1118646 136.657216,29.725905 136.360646,29.459726 L136.287496,9.34526896 L141.44372,9.3261735 C141.703998,9.67683548 142.112844,9.90771688 142.576127,9.90771688 C143.36093,9.90771688 144,9.25557819 144,8.45356911 C144,7.65213869 143.36093,7 142.576127,7" id="Fill-94"></path>
                    <path d="M127.17133,30.5458522 C127.17133,31.3478613 127.805867,32 128.585665,32 C129.365464,32 130,31.3478613 130,30.5458522 C130,30.0690445 129.771972,29.6489445 129.425708,29.3839228 L129.350262,8.50333302 C129.349136,8.27303027 129.259614,8.05314323 129.100839,7.89054254 C128.942627,7.72909916 128.728675,7.63882974 128.505715,7.63882974 L128.5029,7.63882974 L122.596701,7.66139709 C122.344463,7.26444311 121.909239,7 121.414335,7 C120.634536,7 120,7.65213869 120,8.45356911 C120,9.25557819 120.634536,9.90771688 121.414335,9.90771688 C121.842239,9.90771688 122.221159,9.70692528 122.480716,9.39792612 L127.664546,9.37825201 L127.736614,29.3914452 C127.395417,29.6570456 127.17133,30.0736737 127.17133,30.5458522" id="Fill-95"></path>
                    <path d="M25.0561718,2.84107279 L36.2415624,29.818524 C36.1147038,30.0333707 36.0362285,30.2794889 36.0362285,30.5447175 C36.0362285,31.3473524 36.7012037,32 37.5184093,32 C38.3350248,32 39,31.3473524 39,30.5447175 C39,29.8625357 38.5167571,29.2921206 37.8700732,29.1363422 L26.7218551,2.24749358 C26.8734954,2.01874842 26.9637715,1.74714973 26.9637715,1.45470339 C26.9637715,0.65264758 26.2987963,0 25.4821808,0 C24.6649752,0 24,0.65264758 24,1.45470339 C24,2.11082558 24.4472504,2.65981396 25.0561718,2.84107279" id="Fill-99"></path>
                    <path d="M45.4104436,32 C46.1880966,32 46.8208871,31.3475059 46.8208871,30.5450598 C46.8208871,30.2578929 46.7372263,29.9915688 46.5968557,29.7657723 L56.9590118,2.85198386 C57.5569905,2.68350491 58,2.12364531 58,1.45378227 C58,0.652494075 57.3677709,0 56.5901179,0 C55.8124649,0 55.1796743,0.652494075 55.1796743,1.45378227 C55.1796743,1.73284363 55.2599663,1.99106222 55.3919147,2.21222703 L45.0196519,29.1549637 C44.4329029,29.3309692 44,29.8844602 44,30.5450598 C44,31.3475059 44.6327906,32 45.4104436,32" id="Fill-100"></path>
                    <path d="M34.0079484,2.79040785 L40.305543,20.4408988 C40.4249419,20.7768127 40.7376002,21 41.0880219,21 L41.091354,21 C41.4423311,20.9994335 41.7549894,20.7728474 41.8727222,20.4352341 L48.0303703,2.77114804 C48.5907119,2.5859139 49,2.05513595 49,1.42239426 C49,0.638406344 48.3741279,0 47.6049773,0 C46.8358266,0 46.2099545,0.638406344 46.2099545,1.42239426 C46.2099545,1.71978852 46.2999202,1.99509063 46.453195,2.22337613 L41.0785811,17.6402946 L35.5679081,2.1944864 C35.706744,1.97356495 35.7900455,1.71185801 35.7900455,1.43032477 C35.7900455,0.645770393 35.1641734,0.00736404834 34.3950227,0.00736404834 C33.6258721,0.00736404834 33,0.645770393 33,1.43032477 C33,2.0772281 33.4281698,2.61820242 34.0079484,2.79040785" id="Fill-101"></path>
                    <path d="M90,30.5501245 C90,31.3495184 90.6731037,32 91.4997014,32 C92.3268963,32 93,31.3495184 93,30.5501245 C93,30.0745283 92.7587099,29.6554958 92.3913996,29.3905703 L92.2886721,2.67753689 C92.713916,2.42184625 93,1.96933733 93,1.45045273 C93,0.650481584 92.3268963,0 91.4997014,0 C90.6731037,0 90,0.650481584 90,1.45045273 C90,1.87525703 90.1935099,2.2550413 90.4963169,2.51996681 L90.5996416,29.3974965 C90.2377065,29.662422 90,30.0785686 90,30.5501245" id="Fill-117"></path>
                    <path d="M111,30.5501245 C111,31.3495184 111.67297,32 112.5,32 C113.32703,32 114,31.3495184 114,30.5501245 C114,30.124743 113.805932,29.7455359 113.503185,29.4800332 L113.399881,2.60250352 C113.761744,2.33757801 114,1.92200859 114,1.45045273 C114,0.650481584 113.32703,0 112.5,0 C111.67297,0 111,0.650481584 111,1.45045273 C111,1.92547166 111.241839,2.34508135 111.608479,2.60942967 L111.711186,29.3224631 C111.286027,29.5787309 111,30.0312399 111,30.5501245" id="Fill-118"></path>
                    <path d="M106.793307,29.0815192 L99.3021734,14.4838355 C99.1166198,14.1207119 98.701503,13.9277109 98.3000649,14.0250914 C97.8992215,14.1189521 97.6149438,14.4726895 97.614349,14.8792236 L97.6018599,21.1631968 L97.6321907,29.3267302 C97.2509732,29.5936466 97,30.0306854 97,30.5263872 C97,31.3388688 97.670253,32 98.4933499,32 C99.3170415,32 99.9872946,31.3388688 99.9872946,30.5263872 C99.9872946,30.0594302 99.7612997,29.6470298 99.4163603,29.3765937 L99.3860294,21.1614369 L99.3907872,18.553283 L105.187554,29.8488303 C105.079314,30.0529773 105.012111,30.2811761 105.012111,30.5263872 C105.012111,31.3388688 105.682364,32 106.506055,32 C107.329747,32 108,31.3388688 108,30.5263872 C108,29.8106994 107.479617,29.2140974 106.793307,29.0815192" id="Fill-119"></path>
                    <path d="M98.1268991,2.9095218 L105.112909,17.522579 C105.255547,17.8211862 105.540278,18 105.843043,18 C105.908624,18 105.975844,17.991819 106.041972,17.9737039 C106.412504,17.8743629 106.669909,17.5155667 106.662805,17.1076843 L106.555689,10.8094666 L106.527271,2.62260169 C106.814187,2.35321235 107,1.96286076 107,1.52283868 C107,0.713501932 106.384086,0.0555140733 105.627172,0.0555140733 C104.870259,0.0555140733 104.254345,0.713501932 104.254345,1.52283868 C104.254345,2.04116482 104.507924,2.49521151 104.887747,2.75641983 L104.916166,10.8287504 L104.95934,13.348505 L99.5931796,2.12531247 C99.6871789,1.92663052 99.7451088,1.70515859 99.7451088,1.46790897 C99.7451088,0.658572217 99.1291944,0 98.3722811,0 C97.6159143,0 97,0.658572217 97,1.46790897 C97,2.18783885 97.487485,2.7850534 98.1268991,2.9095218" id="Fill-120"></path>
                    <path d="M142.572552,3 C143.359325,3 144,2.32703025 144,1.49940287 C144,0.672969745 143.359325,0 142.572552,0 C142.093325,0 141.670946,0.250796178 141.41172,0.631767516 L122.634327,0.705214968 C122.381354,0.283041401 121.936804,0 121.428016,0 C120.640675,0 120,0.672969745 120,1.49940287 C120,2.32703025 120.640675,3 121.428016,3 C121.849259,3 122.225023,2.80354299 122.486522,2.49721338 L141.455493,2.42316879 C141.717561,2.7718949 142.11777,3 142.572552,3" id="Fill-96"></path>
                </g>
            </g>
        </g>
    </g>
</svg>