<?xml version="1.0" encoding="UTF-8"?>
<svg width="201px" height="33px" viewBox="0 0 201 33" version="1.1" xmlns="http://www.w3.org/2000/svg" xmlns:xlink="http://www.w3.org/1999/xlink">
    <title>History Graphic</title>
    <g id="Layout" stroke="none" stroke-width="1" fill="none" fill-rule="evenodd">
        <g id="1440px-Leadership" transform="translate(-76.000000, -1498.000000)" fill="#619ECE">
            <g id="Group-2" transform="translate(76.000000, 1491.000000)">
                <path d="M127.775238,7 C128.448734,7 129.013893,7.44540984 129.208298,8.05431694 C135.597785,10.4454645 139.974608,16.5639891 140,23.3611475 C140.027573,30.7539891 134.96642,37.2481967 127.818573,39.2342077 C127.557962,39.6886339 127.072852,40 126.511906,40 C125.678311,40 125,39.3225683 125,38.4894536 C125,37.6569399 125.678311,36.9795082 126.511906,36.9795082 C126.933819,36.9795082 127.315407,37.1538251 127.589861,37.4339344 C133.82888,35.5843716 138.21774,29.8601639 138.194267,23.3683607 C138.171998,17.3363934 134.292924,11.9013115 128.623277,9.75901639 C128.380722,9.92311475 128.089416,10.0204918 127.775238,10.0204918 C126.941643,10.0204918 126.263332,9.34306011 126.263332,8.50994536 C126.263332,7.67743169 126.941643,7 127.775238,7 Z M152.697787,26 C153.007489,26 153.29737,26.1501033 153.469565,26.4008784 L153.469565,26.4008784 L160.771102,37.0057699 C161.472268,37.1528591 162,37.7593007 162,38.4851016 C162,39.3206166 161.301931,40 160.444057,40 C159.586182,40 158.888113,39.3206166 158.888113,38.4851016 C158.888113,38.2319153 158.959345,37.9962108 159.072076,37.7864278 L159.072076,37.7864278 L153.49496,29.6862728 L153.524072,37.3095935 C153.878991,37.5874957 154.111268,38.0082673 154.111268,38.4851016 C154.111268,39.3206166 153.413199,40 152.555943,40 C151.698069,40 151,39.3206166 151,38.4851016 C151,37.9720978 151.264486,37.5199793 151.66586,37.2456941 L151.66586,37.2456941 L151.626218,26.9084568 C151.624359,26.4093179 152.038741,26.0030141 152.550988,26.0006028 L152.550988,26.0006028 Z M20.4890441,26 C20.9874789,26 21.3920058,26.4052552 21.3920058,26.9045876 L21.3920058,26.9045876 L21.3920058,37.2777945 C21.7592102,37.5545983 22,37.9906095 22,38.4851174 C22,39.3203532 21.3215748,40 20.4884421,40 C19.6547074,40 18.9762822,39.3203532 18.9762822,38.4851174 C18.9762822,37.9900065 19.2182759,37.5533922 19.5860824,37.2765884 L19.5860824,37.2765884 L19.5860824,27.8091751 L9.41572357,27.8091751 L9.41632555,37.2777945 C9.782928,37.5545983 10.0243198,37.9906095 10.0243198,38.4851174 C10.0243198,39.3203532 9.34589453,40 8.51215988,40 C7.67842523,40 7,39.3203532 7,38.4851174 C7,37.9900065 7.24259571,37.5527891 7.61040212,37.2759854 L7.61040212,37.2759854 L7.60980014,26.9045876 C7.60980014,26.6651734 7.70491211,26.4348051 7.87406694,26.2653457 C8.04382374,26.0952832 8.27377799,26 8.51276186,26 L8.51276186,26 Z M104.433116,14 C105.297023,14 106,14.6782242 106,15.5117119 C106,16.3458013 105.297023,17.0234238 104.433116,17.0234238 C103.923504,17.0234238 103.474398,16.7845107 103.188092,16.4198222 L103.188092,16.4198222 L97.5156223,16.4390797 L97.5960873,37.358115 C97.9223136,37.6349412 98.1331443,38.0363392 98.1331443,38.4876863 C98.1331443,39.3217758 97.4301673,40 96.566884,40 C95.702977,40 95,39.3217758 95,38.4876863 C95,37.954495 95.2900482,37.4862976 95.7241849,37.2178965 L95.7241849,37.2178965 L95.6406011,15.5430053 C95.6393536,15.3034904 95.7379076,15.0736043 95.9125602,14.9038978 C96.0872129,14.7341913 96.3248653,14.6379039 96.5724979,14.6373021 L96.5724979,14.6373021 L103.179983,14.6144338 C103.465665,14.2437274 103.919138,14 104.433116,14 Z M64.2723367,14 C65.7631477,14 67.125298,14.5952039 67.932673,15.494329 C68.689292,15.5948336 69.2777079,16.2496181 69.2777079,17.0488403 C69.2777079,17.9166705 68.5854192,18.6232119 67.7343704,18.6232119 C66.8827313,18.6232119 66.1904427,17.9166705 66.1904427,17.0488403 C66.1904427,16.8556548 66.2288048,16.673904 66.2913645,16.502986 C65.818035,16.1485116 65.0885646,15.8807 64.2723367,15.8807 L64.2723367,15.8807 L64.2575821,15.8807 C62.756738,15.8867182 61.6731557,16.7707976 61.6755164,17.3635943 C61.6778772,17.9545854 62.7608693,18.8266284 64.2546311,18.8266284 L64.2546311,18.8266284 L64.3189615,18.8266284 C67.3967837,18.8266284 70.2999108,19.901486 72.500716,21.857414 C74.7475558,23.8536642 75.9898982,26.5215499 76,29.3681774 C76.0105548,32.2154067 74.7870983,34.8929216 72.5556034,36.9066247 C70.3577491,38.8896347 67.4416379,39.9885653 64.3455199,40 L64.3455199,40 L64.2971246,40 C58.533954,40 53.6513416,36.1001805 52.7696031,31.0568955 C52.3116184,30.7836674 52,30.282348 52,29.7033934 C52,28.8349613 52.6922887,28.12842 53.5439277,28.12842 C54.3949766,28.12842 55.0878554,28.8349613 55.0878554,29.7033934 C55.0878554,30.1511504 54.9007663,30.5537707 54.6050829,30.8414425 C55.3835388,34.9512986 59.4723505,38.1193 64.2971246,38.1193 L64.2971246,38.1193 L64.3384376,38.1193 C66.9866042,38.1096708 69.471289,37.1786491 71.3333273,35.4983566 C73.1617248,33.8481552 74.1638614,31.6743669 74.156189,29.3760011 C74.1473362,27.0776353 73.1292646,24.9110689 71.2884731,23.2747095 C69.4146311,21.6088607 66.9045682,20.6826536 64.2746975,20.7073284 L64.2746975,20.7073284 L64.2546311,20.7073284 C61.8614251,20.7073284 59.8376759,19.1829082 59.8311838,17.3708162 C59.8252819,15.5521041 61.8496214,14.0096292 64.2504998,14 L64.2504998,14 Z M44.5,7 C45.3264331,7 46,7.67531595 46,8.50582873 C46,9.02055491 45.7402468,9.47595874 45.3455414,9.74680418 L45.3455414,9.74680418 L45.4476513,37.337086 C45.781449,37.6133244 46,38.0267831 46,38.4947705 C46,39.324684 45.3264331,40 44.5,40 C43.6735669,40 43,39.324684 43,38.4947705 C43,37.9788459 43.2609475,37.523442 43.6556529,37.2519974 L43.6556529,37.2519974 L43.5541401,9.66411243 C43.218551,9.38727484 43,8.9738161 43,8.50582873 C43,7.67531595 43.6735669,7 44.5,7 Z M199.471499,7 C200.31397,7 201,7.67453207 201,8.50408082 C201,9.28754353 200.385799,9.92496735 199.606635,9.99379716 L199.606635,9.99379716 L189.443411,26.146057 L189.485412,37.3323963 C189.831775,37.608314 190.05822,38.0248839 190.05822,38.4965177 C190.05822,39.3254679 189.372799,40 188.52911,40 C187.68603,40 187,39.3254679 187,38.4965177 C187,37.9859801 187.261751,37.5352945 187.658637,37.2635665 L187.658637,37.2635665 L187.616027,25.8958757 C187.615418,25.727093 187.662898,25.5625 187.752989,25.4200522 L187.752989,25.4200522 L198.051959,9.0535222 C197.983173,8.88294399 197.942389,8.69800131 197.942389,8.50408082 C197.942389,7.67453207 198.628419,7 199.471499,7 Z M1.49970137,7 C2.32689628,7 3,7.67531595 3,8.50582873 C3,8.9971855 2.76109894,9.43041836 2.39617758,9.70545831 L2.39617758,9.70545831 L2.39677484,37.2951409 C2.76109894,37.5701809 3,38.0034137 3,38.4947705 C3,39.324684 2.32689628,40 1.49970137,40 C0.673103723,40 0,39.324684 0,38.4947705 C0,38.0028145 0.24009556,37.5683832 0.605016922,36.8918688 L0.605016922,36.8918688 L0.60441967,9.30398388 C0.239498308,9.43101758 0,8.9971855 0,8.50582873 C0,7.67531595 0.673103723,7 1.49970137,7 Z M152.47105,7 C152.946753,7 153.366216,7.23604723 153.635118,7.59400239 L153.635118,7.59400239 L158.263271,7.57607475 L158.300179,7.57607475 C163.815297,7.57607475 168.31105,12.1081815 168.33214,17.6968237 C168.347372,22.0837166 165.558763,25.9584767 161.54633,27.3484662 L161.54633,27.3484662 L167.68537,37.0132556 C168.42236,37.0945275 169,37.7249828 169,38.4982616 C169,39.3265184 168.339756,40 167.528365,40 C166.717559,40 166.057315,39.3265184 166.057315,38.4982616 C166.057315,38.2950817 166.097738,38.1008656 166.169797,37.9239796 L166.169797,37.9239796 L159.417966,27.2928905 C159.259788,27.0442939 159.232254,26.732353 159.345321,26.4592554 C159.457217,26.1861577 159.694483,25.9871609 159.979788,25.9274021 C163.815297,25.1284271 166.588674,21.6695882 166.574614,17.7033972 C166.557038,13.1013726 162.848657,9.36883851 158.300179,9.36883851 L158.300179,9.36883851 L158.270301,9.36883851 L153.653865,9.38676614 C153.385549,9.75846583 152.956713,10.0028793 152.47105,10.0028793 C151.659658,10.0028793 151,9.3293977 151,8.50114085 C151,7.67348158 151.659658,7 152.47105,7 Z M27.5002986,7 C28.3268963,7 29,7.67531595 29,8.50582873 C29,8.9971855 28.7610989,9.43041836 28.3967748,9.70545831 L28.3967748,9.70545831 L28.3973721,37.2951409 C28.7610989,37.5701809 29,38.0034137 29,38.4947705 C29,39.324684 28.3268963,40 27.5002986,40 C26.6731037,40 26,39.324684 26,38.4947705 C26,38.0028145 26.2400956,37.5683832 26.6056142,37.2939425 L26.6056142,37.2939425 L26.6050169,9.70605752 C26.2394983,9.43101758 26,8.9971855 26,8.50582873 C26,7.67531595 26.6731037,7 27.5002986,7 Z M37.5002986,7 C38.3268963,7 39,7.67531595 39,8.50582873 C39,9.02055491 38.7401951,9.47595874 38.3454111,9.7474034 L38.3454111,9.7474034 L38.4475413,37.337086 C38.7820028,37.6133244 39,38.0273823 39,38.4947705 C39,39.324684 38.3268963,40 37.5002986,40 C36.6731037,40 36,39.324684 36,38.4947705 C36,37.9788459 36.2604022,37.523442 36.6557834,37.2519974 L36.6557834,37.2519974 L36.5536532,9.66351322 C36.2185945,9.38727484 36,8.97321688 36,8.50582873 C36,7.67531595 36.6731037,7 37.5002986,7 Z M145.500299,7 C146.326896,7 147,7.67348158 147,8.50114085 C147,8.98996777 146.762293,9.42023107 146.400956,9.69512151 L146.400956,9.69512151 L146.502489,37.389736 C146.805893,37.6640288 147,38.0578393 147,38.4982616 C147,39.3265184 146.326896,40 145.500299,40 C144.673104,40 144,39.3265184 144,38.4982616 C144,37.96103 144.286084,37.4919235 144.711328,37.2265945 L144.711328,37.2265945 L144.609198,9.70169498 C144.24129,9.42799971 144,8.99415088 144,8.50114085 C144,7.67348158 144.673104,7 145.500299,7 Z M170.509875,7 C171.341748,7 172.019148,7.67783914 172.019148,8.51145497 C172.019148,8.68828257 171.983084,8.85488545 171.927185,9.01306796 L171.927185,9.01306796 L182.205392,25.3100771 C182.295552,25.4532232 182.343637,25.6186232 182.344238,25.7882334 L182.344238,25.7882334 L182.386914,37.281426 C182.75717,37.5568921 183,37.993548 183,38.4897479 C183,39.3221609 182.3226,40 181.490125,40 C180.657651,40 179.980251,39.3221609 179.980251,38.4897479 C179.980251,37.9977582 180.219474,37.564711 180.58372,37.2886434 L180.58372,37.2886434 L180.542246,26.0540762 L170.425125,10.0132867 C169.632921,9.96877905 169,9.31559954 169,8.51145497 C169,7.67783914 169.6774,7 170.509875,7 Z M119.539824,7 C120.344636,7 121,7.67480251 121,8.50482157 C121,9.33543993 120.344636,10.0108417 119.539824,10.0108417 C119.17289,10.0108417 118.840847,9.86641242 118.584401,9.63508581 C112.712296,11.6127486 108.721963,17.1621901 108.744642,23.5278671 C108.767321,29.8438028 112.786148,35.3704713 118.633248,37.3223645 C118.883298,37.1168074 119.195569,36.9891583 119.539824,36.9891583 C120.344636,36.9891583 121,37.6645601 121,38.4939798 C121,39.3245982 120.344636,40 119.539824,40 C118.928656,40 118.405295,39.6104604 118.18781,39.0603105 C111.577185,36.8974666 107.026275,30.6660311 107,23.5344593 C106.974521,16.3165895 111.534153,10.0420049 118.217467,7.87496595 C118.450071,7.36017434 118.953661,7 119.539824,7 Z M81.5553241,14 C82.0997804,14 82.5785799,14.2750208 82.8566924,14.6872512 L82.8566924,14.6872512 L89.3530041,14.6637811 C89.6020046,14.6637811 89.8373782,14.7576613 90.0114308,14.9261642 C90.1861028,15.0946672 90.2845881,15.3239515 90.2858269,15.5628645 L90.2858269,15.5628645 L90.3688271,37.2786779 C90.7497607,37.5549023 91,37.9918063 91,38.4876863 C91,39.3217758 90.3019314,40 89.4446759,40 C88.5868011,40 87.8887325,39.3217758 87.8887325,38.4876863 C87.8887325,37.9966207 88.1352554,37.5633275 88.5106143,37.287103 L88.5106143,37.287103 L88.4313306,16.4727803 L82.7284757,16.4932414 C82.4429303,16.8152023 82.0254519,17.0234238 81.5553241,17.0234238 C80.6980686,17.0234238 80,16.3458013 80,15.5111101 C80,14.6782242 80.6980686,14 81.5553241,14 Z M124.001502,14 C129.497825,14 133.978972,18.4609439 134,23.9619633 C134.019699,29.475763 129.549931,33.979308 124.03624,34 L124.03624,34 L123.998507,34 C118.501585,34.0006086 114.019839,29.5390561 114,24.0374281 C113.989893,21.3626875 115.023036,18.845571 116.908448,16.9492134 C118.789668,15.0571159 121.295565,14.0091288 123.963171,14 L123.963171,14 Z M64.7025856,7 C70.5411574,7 75.4744053,10.9930097 76.2664162,16.1276532 C76.704914,16.4056894 77,16.8985719 77,17.4630697 C77,18.3308798 76.3077282,19.036803 75.4567002,19.036803 C74.6056721,19.036803 73.9128101,18.3308798 73.9128101,17.4630697 C73.9128101,17.0014814 74.1122883,16.5892415 74.4233089,16.3009745 C73.7139222,12.1202 69.5874394,8.88065644 64.7025856,8.88065644 L64.7025856,8.88065644 L64.6612735,8.88065644 C59.2311007,8.90171979 54.8266469,12.8237159 54.8437619,17.6243548 C54.8526145,19.9220656 55.8706612,22.0891836 57.7108176,23.7249034 C59.575171,25.3816865 62.0491721,26.2928269 64.6813394,26.2928269 L64.6813394,26.2928269 L64.7450779,26.2928269 C65.8245026,26.2928269 66.8720579,26.6033609 67.6994791,27.1666551 C68.6301804,27.8015647 69.1654664,28.6994653 69.1684173,29.6298637 C69.1749091,31.44733 67.1512093,32.990371 64.7492091,33 L64.7492091,33 L64.7273728,33 C63.2395491,33 61.87035,32.401199 61.0618143,31.4984839 C60.2674428,31.434692 59.6377293,30.7624702 59.6377293,29.9367868 C59.6377293,29.0677731 60.3305912,28.3618499 61.1822094,28.3618499 C62.0332375,28.3618499 62.7260995,29.0677731 62.7260995,29.9367868 C62.7260995,30.113719 62.6906891,30.2810222 62.6369835,30.4399 C63.1079408,30.8226512 63.8716234,31.1193436 64.7273728,31.1193436 L64.7273728,31.1193436 L64.7421271,31.1193436 C66.2435247,31.1133255 67.3270805,30.2298683 67.3241297,29.6370854 C67.3229493,29.3458093 67.0809788,29.0069903 66.6743503,28.7301576 C66.1508677,28.3732843 65.4397104,28.1464019 64.7309138,28.1728815 L64.7309138,28.1728815 L64.6807492,28.1728815 C61.6030021,28.1728815 58.6999459,27.0980487 56.4991944,25.1421661 C54.2524095,23.1459621 53.0100974,20.4781381 53,17.6321783 C52.9788183,11.7940189 58.2077424,7.02527602 64.6541915,7 L64.6541915,7 Z M124.001502,15.8257615 L123.969759,15.8257615 C121.775302,15.8336731 119.716802,16.6929982 118.172776,18.2467212 C116.632943,19.7961842 115.788461,21.8501658 115.796784,24.0301251 C115.813017,28.5269756 119.489809,32.1742385 123.998507,32.1742385 L123.998507,32.1742385 L124.029052,32.1742385 C128.552723,32.1571981 132.219334,28.4764629 132.203217,23.9686578 C132.185795,19.4724158 128.5102,15.8257615 124.001502,15.8257615 L124.001502,15.8257615 Z M157.397446,13 C158.61814,13 159.768458,13.4614288 160.637268,14.3005568 C161.511684,15.1457966 161.995602,16.2721717 162,17.4724976 C162.004944,18.6734347 161.529122,19.804088 160.661557,20.6554394 C159.795238,21.5049572 158.641807,21.9755534 157.413016,21.9798316 L157.413016,21.9798316 L151.965357,22 C151.447184,22 151.029284,21.5917425 151.027415,21.0863099 L151.027415,21.0863099 L151,13.9399701 C150.998766,13.6967269 151.096546,13.4632623 151.271554,13.290914 C151.445939,13.1179546 151.683227,13.0207796 151.93048,13.0195572 L151.93048,13.0195572 L157.378139,13 Z M20.4878401,7 C21.3215748,7 22,7.68608949 22,8.52985172 C22,9.02904727 21.7580063,9.46980041 21.3908018,9.74922816 L21.3908018,9.74922816 L21.3914038,20.0868374 C21.3914038,20.3291299 21.2962918,20.561682 21.126535,20.7327477 C20.9573802,20.9038135 20.727426,21 20.4884421,21 L20.4884421,21 L8.51215988,21 C8.01372502,21 7.60919817,20.5909032 7.60919817,20.0868374 L7.60919817,20.0868374 L7.6085962,9.74861939 C7.24139176,9.46919163 7,9.02904727 7,8.52985172 C7,7.68608949 7.67842523,7 8.51155791,7 C9.34529256,7 10.0237178,7.68608949 10.0237178,8.52985172 C10.0237178,9.02904727 9.78232603,9.46980041 9.41451962,9.74861939 L9.41451962,9.74861939 L9.4151216,19.1736748 L19.5854804,19.1736748 L19.5848784,9.74861939 C19.217072,9.46919163 18.9756802,9.02904727 18.9756802,8.52985172 C18.9756802,7.68608949 19.6541055,7 20.4878401,7 Z M157.385613,14.8334908 L152.872158,14.849382 L152.892088,20.1628412 L157.405542,20.1463398 C158.137959,20.143284 158.825534,19.8633709 159.340592,19.3585495 C159.853782,18.8555616 160.134666,18.1881706 160.131577,17.4798316 C160.129061,16.7714926 159.842571,16.1065462 159.325644,15.6072253 C158.806849,15.1054597 158.103705,14.8328806 157.385613,14.8334908 L157.385613,14.8334908 Z M191.488568,7 C192.321901,7 193,7.65292328 193,8.45589726 C193,9.21599961 192.38929,9.83532081 191.616125,9.89846956 L191.616125,9.89846956 L185.795427,18.6014097 C185.630566,18.8487906 185.345969,18.9988413 185.040915,19 L185.040915,19 C184.732852,19 184.448857,18.8522667 184.28219,18.6066239 L184.28219,18.6066239 L178.361613,9.89615217 C177.599278,9.82257519 177,9.20846811 177,8.45589726 C177,7.65292328 177.678099,7 178.511432,7 C179.344765,7 180.022864,7.65292328 180.022864,8.45589726 C180.022864,8.64881958 179.981348,8.83247236 179.910349,9.00106213 L179.910349,9.00106213 L185.031288,16.5348815 L190.083634,8.98078501 C190.017449,8.81740936 189.977738,8.64128808 189.977738,8.45589726 C189.977738,7.65292328 190.655836,7 191.488568,7 Z M103.512483,7 C104.332631,7 105,7.67296975 105,8.49940287 C105,9.32703025 104.332631,10 103.512483,10 C103.039343,10 102.621867,9.77129777 102.349472,9.42316879 L102.349472,9.42316879 L82.5901274,9.49661624 C82.3171396,9.80354299 81.9263111,10 81.4875172,10 C80.6673694,10 80,9.32703025 80,8.49940287 C80,7.67296975 80.6673694,7 81.4875172,7 C82.0169122,7 82.4799848,7.2830414 82.743498,7.70461783 L82.743498,7.70461783 L102.303875,7.63176752 C102.573902,7.25079618 103.013288,7 103.512483,7 Z" id="History-Graphic"></path>
            </g>
        </g>
    </g>
</svg>