<?xml version="1.0" encoding="UTF-8"?>
<svg width="875px" height="396px" viewBox="0 0 875 396" version="1.1" xmlns="http://www.w3.org/2000/svg" xmlns:xlink="http://www.w3.org/1999/xlink">
    <title>Group 242</title>
    <g id="Layout" stroke="none" stroke-width="1" fill="none" fill-rule="evenodd">
        <g id="1440px-Groups" transform="translate(-426.000000, -149.000000)" fill="#619ECE">
            <g id="Group-242" transform="translate(426.000000, 149.000000)">
                <path d="M632.381622,314.107649 C634.983594,314.107649 637.149389,315.989263 637.591857,318.457862 L637.591857,318.457862 L706.752318,318.457862 L732.540592,344.157372 L732.540592,379.043068 L740.980493,387.45392 C742.795962,386.253936 745.267742,386.450747 746.867795,388.045293 C748.693641,389.864541 748.693641,392.815453 746.867795,394.635329 C745.041948,396.45489 742.080844,396.45489 740.254683,394.635329 C738.65463,393.040783 738.457139,390.577825 739.661582,388.768291 L739.661582,388.768291 L730.675121,379.812762 L730.675121,344.927379 L705.979651,320.316598 L637.591857,320.316598 C637.149389,322.785198 634.983594,324.667125 632.381622,324.667125 C629.460456,324.667125 627.083333,322.298184 627.083333,319.387073 C627.083333,316.476276 629.460456,314.107649 632.381622,314.107649 Z M598.160882,318.594901 L622.572801,343.224453 L662.702522,343.224453 C663.136238,341.073323 665.021645,339.454267 667.281997,339.454267 C669.862606,339.454267 671.955128,341.565444 671.955128,344.16906 C671.955128,346.772676 669.862606,348.883853 667.281997,348.883853 C665.018817,348.883853 663.132152,347.260675 662.701265,345.105423 L662.701265,345.105423 L621.800913,345.105423 L597.388993,320.475871 L553.184228,320.475871 L544.67994,329.055976 C546.169974,331.142103 545.991773,334.075174 544.132766,335.951071 L544.132766,335.951071 L544.084,335.999 L544.131823,335.951705 C542.126565,337.974532 538.89938,338.032028 536.824586,336.124774 L536.644567,335.951388 C534.580016,333.868749 534.580016,330.479387 536.644567,328.396748 C538.463031,326.562073 541.285955,326.345818 543.343906,327.743863 L543.343906,327.743863 L552.41234,318.594901 L598.160882,318.594901 Z M543.253391,329.283646 C541.673157,327.689006 539.103547,327.689006 537.523313,329.283646 C535.943078,330.877651 535.943078,333.470486 537.523313,335.064491 C539.103547,336.658813 541.673157,336.658813 543.253391,335.064491 C544.833312,333.470486 544.833312,330.877651 543.253391,329.283646 Z M632.381622,315.34712 C630.145699,315.34712 628.327085,317.158847 628.327085,319.387073 C628.327085,321.615614 630.145699,323.427654 632.381622,323.427654 C634.617545,323.427654 636.435844,321.615614 636.435844,319.387073 C636.435844,317.158847 634.617545,315.34712 632.381622,315.34712 Z M463.088868,234.458924 C465.683916,234.458924 467.788462,236.553452 467.788462,239.136148 C467.788462,241.718529 465.683916,243.813058 463.088868,243.813058 C462.376502,243.813058 461.703958,243.650755 461.099047,243.368297 L461.099047,243.368297 L444.78068,259.608991 L357.663743,259.608991 L339.867864,277.320479 L339.867864,308.185128 C340.744258,308.41663 341.573561,308.86894 342.259695,309.551808 C344.335481,311.617399 344.335481,314.979842 342.259695,317.045747 C340.18391,319.111338 336.805702,319.111338 334.729916,317.045433 C332.654131,314.979842 332.654131,311.617399 334.729916,309.551808 C335.640443,308.645616 336.801277,308.137318 337.993084,308.02597 L337.993084,308.02597 L337.993084,276.547967 L356.88722,257.743134 L444.004473,257.743134 L459.581081,242.240353 C458.842483,241.414054 458.389591,240.328887 458.389591,239.136148 C458.389591,236.553452 460.49382,234.458924 463.088868,234.458924 Z M341.375716,310.431265 C339.786957,308.849753 337.202654,308.849753 335.613579,310.431265 C334.024503,312.012777 334.024503,314.584464 335.613895,316.165976 C337.202654,317.747174 339.786957,317.747174 341.375716,316.165976 C342.964792,314.584464 342.964792,312.012777 341.375716,310.431265 Z M503.524967,296.587603 C505.611817,294.519902 509.008349,294.519902 511.094881,296.587603 C513.182048,298.654988 513.182048,302.020353 511.094881,304.088054 C509.236161,305.930032 506.339744,306.126476 504.25384,304.686516 L504.25384,304.686516 L498.527712,310.360414 L459.194346,310.360414 C458.757149,312.498003 456.850453,314.107649 454.564069,314.107649 C451.955189,314.107649 449.839744,312.0113 449.839744,309.42636 C449.839744,306.84142 451.955189,304.745386 454.564069,304.745386 C456.850453,304.745386 458.757149,306.355031 459.194346,308.492935 L459.194346,308.492935 L497.74705,308.492935 L502.921281,303.36587 C501.467984,301.299114 501.666248,298.429896 503.524967,296.587603 Z M510.206508,297.467823 C508.608963,295.885252 506.011203,295.885252 504.413658,297.467823 C502.81643,299.05071 502.81643,301.624946 504.413658,303.207518 C506.011203,304.790404 508.608963,304.790404 510.206508,303.207518 C511.804054,301.624946 511.804054,299.05071 510.206508,297.467823 Z M545.283973,237.137298 C547.35698,235.061883 550.730665,235.061883 552.803671,237.137298 C554.876677,239.212712 554.876993,242.590317 552.803671,244.665732 C550.956966,246.514898 548.079754,246.711759 546.007695,245.266426 L546.007695,245.266426 L534.724835,256.562395 L534.724835,286.422076 L549.301212,301.014757 L714.36812,301.014757 L743.124769,272.224382 L782.694632,272.224382 C783.128613,270.078818 785.022977,268.463483 787.293563,268.463483 C789.885452,268.463483 791.987179,270.567336 791.987179,273.161921 C791.987179,275.756505 789.885452,277.860359 787.293563,277.860359 C785.022661,277.860359 783.128613,276.244708 782.694632,274.098828 L782.694632,274.098828 L743.899937,274.098828 L715.143288,302.889518 L548.525413,302.889518 L532.852564,287.198145 L532.852564,255.786327 L544.683976,243.940853 C543.24032,241.866386 543.437268,238.986464 545.283973,237.137298 Z M457.569947,256.189761 C459.647723,254.138824 463.030004,254.138824 465.108097,256.189761 C467.18619,258.240386 467.18619,261.578468 465.108097,263.629406 C463.25686,265.456451 460.372588,265.651303 458.295444,264.223016 L458.295444,264.223016 L445.8484,276.507719 L363.913058,276.507719 L354.521456,285.776596 L354.521456,291.452584 C356.669789,291.881944 358.287525,293.756141 358.287525,296.002555 C358.287525,298.566851 356.180956,300.645892 353.582707,300.645892 C350.98509,300.645892 348.878205,298.566851 348.878205,296.002555 C348.878205,293.756141 350.496258,291.881944 352.644591,291.452584 L352.644591,291.452584 L352.644591,285.009368 L363.135671,274.655381 L445.07133,274.655381 L456.968477,262.913077 C455.521278,260.863076 455.718393,258.016807 457.569947,256.189761 Z M436.653405,283.818697 C439.59431,283.818697 441.987179,286.152807 441.987179,289.020808 C441.987179,291.889118 439.59431,294.22292 436.653405,294.22292 C434.033533,294.22292 431.853419,292.368971 431.407645,289.936975 L431.407645,289.936975 L375.179966,289.936975 L371.171799,293.846201 C372.153895,295.590223 371.891117,297.823669 370.375865,299.301517 C368.53768,301.094017 365.556567,301.094017 363.718382,299.301517 C361.880197,297.508708 361.880197,294.600873 363.718382,292.808064 C365.421695,291.146797 368.10457,291.028224 369.952253,292.445241 L369.952253,292.445241 L374.402078,288.105259 L431.407645,288.105259 C431.853103,285.672955 434.033533,283.818697 436.653405,283.818697 Z M115.227478,270.356941 C117.82631,270.356941 119.989491,272.233915 120.431739,274.696526 L120.431739,274.696526 L175.537733,274.696526 L190.368417,289.459996 L210.624172,289.459996 C211.056369,287.336948 212.94126,285.738252 215.201183,285.738252 C217.780228,285.738252 219.871795,287.820027 219.871795,290.387383 C219.871795,292.955052 217.780228,295.036827 215.201183,295.036827 C212.94126,295.036827 211.056369,293.438131 210.624172,291.314771 L210.624172,291.314771 L189.596368,291.314771 L174.766312,276.551301 L120.431739,276.551301 C119.989805,279.014224 117.826624,280.891824 115.227478,280.891824 C112.309837,280.891824 109.935897,278.528331 109.935897,275.624226 C109.935897,272.719809 112.309837,270.356941 115.227478,270.356941 Z M436.653405,285.039944 C434.402373,285.039944 432.571787,286.825343 432.571787,289.020808 C432.571787,291.216274 434.402373,293.001673 436.653405,293.001673 C438.904437,293.001673 440.735023,291.216274 440.735023,289.020808 C440.735023,286.825343 438.904437,285.039944 436.653405,285.039944 Z M115.227478,271.593249 C112.994253,271.593249 111.178148,273.401123 111.178148,275.624226 C111.178148,277.847642 112.994253,279.655203 115.227478,279.655203 C117.460702,279.655203 119.276807,277.847642 119.276807,275.624226 C119.276807,273.401123 117.460702,271.593249 115.227478,271.593249 Z M464.223135,257.062846 C462.632293,255.493104 460.045434,255.493104 458.454592,257.062846 C456.864066,258.6329 456.864066,261.185955 458.454592,262.756009 C460.045434,264.326063 462.632293,264.326063 464.223135,262.756009 C465.813978,261.185955 465.813978,258.6329 464.223135,257.062846 Z M63.6371958,187.342776 C66.5616083,187.342776 68.9410582,189.728132 68.9410582,192.659099 C68.9410582,195.270399 67.0508469,197.443695 64.5709677,197.887695 L64.5709677,197.887695 L64.5709677,231.632317 L87.9067662,255.022937 L189.78393,255.022937 L198.946922,245.838419 C197.741141,244.016663 197.938851,241.536323 199.540682,239.931044 C201.368558,238.098558 204.333268,238.098558 206.161144,239.931044 C207.98902,241.762898 207.98902,244.734258 206.161144,246.566743 C204.559313,248.172338 202.085101,248.370513 200.267299,247.162214 L200.267299,247.162214 L190.557456,256.895184 L87.1335551,256.895184 L62.7034238,232.407344 L62.7034238,197.887695 C60.2235447,197.443379 58.3333333,195.270399 58.3333333,192.659099 C58.3333333,189.728132 60.7130981,187.342776 63.6371958,187.342776 Z M661.01991,177.246459 C663.956838,177.246459 666.346154,179.632403 666.346154,182.564094 C666.346154,185.176039 664.447854,187.349871 661.957678,187.793981 L661.957678,187.793981 L661.957678,224.803106 L635.822536,250.894461 L578.058437,250.894461 C577.623384,253.037676 575.726032,254.651558 573.45117,254.651558 C570.855077,254.651558 568.75,252.550008 568.75,249.958264 C568.75,247.366521 570.855077,245.264971 573.45117,245.264971 C575.726032,245.264971 577.6237,246.878853 578.058437,249.022068 L578.058437,249.022068 L635.046016,249.022068 L660.082143,224.027888 L660.082143,187.793981 C657.591651,187.349556 655.693351,185.176039 655.693351,182.564094 C655.693351,179.632403 658.083299,177.246459 661.01991,177.246459 Z M551.920876,238.021118 C550.334243,236.432326 547.753401,236.432326 546.166453,238.021118 C544.57982,239.609594 544.57982,242.193435 546.166769,243.781911 C547.753401,245.371019 550.334243,245.371019 551.920876,243.781911 C553.50814,242.193435 553.50814,239.609594 551.920876,238.021118 Z M725.113858,206.845759 C727.18885,204.773793 730.565768,204.773793 732.640761,206.845759 C734.489552,208.692133 734.686689,211.568022 733.241334,213.639356 L733.241334,213.639356 L742.837227,223.222708 L848.871941,223.222708 C849.306338,221.080383 851.202201,219.466857 853.475278,219.466857 C856.069651,219.466857 858.173077,221.567533 858.173077,224.1582 C858.173077,226.749182 856.069651,228.849858 853.475278,228.849858 C851.202201,228.849858 849.306338,227.236647 848.871941,225.094323 L848.871941,225.094323 L742.061316,225.094323 L731.91603,214.962927 C729.842301,216.405762 726.962964,216.209199 725.11449,214.363455 L725.11449,214.363455 L725.162,214.411 L725.113858,214.36314 L725.113858,214.36314 L725.01,214.259 L725.113542,214.362509 C723.098142,212.349436 723.040857,209.109675 724.941108,207.026505 Z M621.314159,49.3597734 C623.897092,49.3597734 625.991497,51.4621242 625.991497,54.0548552 C625.991497,54.8619458 625.78797,55.6210403 625.430934,56.2844586 L625.430934,56.2844586 L646.153846,77.0863015 L646.153846,197.828435 L616.366921,227.728045 L516.68511,227.728045 L498.128954,209.10181 L467.058269,209.10181 C466.859775,210.094254 466.379742,211.040912 465.614708,211.808848 C463.548614,213.88278 460.186178,213.88278 458.120083,211.809163 C456.053989,209.735231 456.053989,206.359723 458.120083,204.286107 C460.186178,202.211859 463.548614,202.211859 465.614708,204.286107 C466.439825,205.114354 466.929924,206.150688 467.095703,207.228388 L467.095703,207.228388 L498.901537,207.228388 L517.458007,225.854938 L615.594023,225.854938 L644.287818,197.05229 L644.287818,77.8618158 L624.226761,57.7246542 C623.427439,58.3650218 622.416097,58.7499371 621.314159,58.7499371 C618.731227,58.7499371 616.636821,56.6475862 616.636821,54.0548552 C616.636821,51.4621242 618.731227,49.3597734 621.314159,49.3597734 Z M731.756804,207.727929 C730.168651,206.142168 727.585652,206.142168 725.997499,207.728245 C724.409346,209.314322 724.409346,211.894261 725.997499,213.480654 C727.585652,215.067046 730.168967,215.067046 731.75712,213.480654 C733.345589,211.894576 733.345905,209.314953 731.757752,207.72856 L731.757752,207.72856 Z M464.734857,205.168981 C463.153514,203.581324 460.581277,203.581324 458.999935,205.168981 C457.418278,206.756322 457.417964,209.338317 458.999935,210.925974 C460.581277,212.513315 463.153514,212.513315 464.734857,210.925974 C466.316513,209.338317 466.316513,206.756322 464.734857,205.168981 Z M5.30921794,142.470255 C7.91702814,142.470255 10.0871044,144.376835 10.5308261,146.877872 L10.5308261,146.877872 L31.2328998,146.877872 L50.1607171,165.950658 L134.051844,165.950658 L149.934432,181.954942 L149.934432,199.308186 C152.074255,199.74482 153.685897,201.650447 153.685897,203.935549 C153.685897,206.542965 151.587674,208.657224 149.000033,208.657224 C146.412392,208.657224 144.313853,206.542965 144.313853,203.935549 C144.313853,201.650447 145.92518,199.745137 148.065003,199.308186 L148.065003,199.308186 L148.065003,182.735167 L133.277537,167.834374 L49.3860951,167.834374 L30.458908,148.761905 L10.5308261,148.761905 C10.0874195,151.262942 7.91702814,153.16984 5.30921794,153.16984 C2.38185251,153.16984 0,150.769467 0,147.820047 C0,144.87031 2.38185251,142.470255 5.30921794,142.470255 Z M826.5383,151.444759 C829.14035,151.444759 831.25,153.567578 831.25,156.185158 C831.25,158.478848 829.629898,160.391903 827.478422,160.830557 L827.478422,160.830557 L827.478422,185.990693 L810.524224,203.048159 L742.105397,203.048159 L735.306227,196.207257 C733.226362,197.665718 730.338188,197.466794 728.483927,195.601557 C726.402794,193.508067 726.402794,190.100208 728.483927,188.006399 C730.565059,185.91259 733.95197,185.91259 736.033103,188.006399 C737.887047,189.871636 738.084768,192.77772 736.635453,194.870254 L736.635453,194.870254 L742.883921,201.1571 L809.746017,201.1571 L825.598495,185.207428 L825.598495,160.830557 C823.447019,160.391903 821.826917,158.478848 821.826917,156.185158 C821.826917,153.567578 823.936567,151.444759 826.5383,151.444759 Z M77.6413035,181.733711 C79.9273669,181.733711 81.8340613,183.343347 82.2709393,185.480923 L82.2709393,185.480923 L121.604574,185.480923 L127.331012,191.155101 C129.416588,189.714834 132.312692,189.911277 134.172044,191.753244 C136.258891,193.820932 136.258891,197.185961 134.172044,199.253649 C132.085197,201.321336 128.688987,201.321651 126.60214,199.253649 C124.742787,197.411682 124.544842,194.542167 125.998137,192.475424 L125.998137,192.475424 L120.823912,187.348704 L82.2709393,187.348704 C81.8340613,189.485966 79.9273669,191.095916 77.6413035,191.095916 C75.0321093,191.095916 72.9166667,188.99958 72.9166667,186.414656 C72.9166667,183.829732 75.0321093,181.733711 77.6413035,181.733711 Z M133.283355,192.633774 C131.686129,191.050898 129.088055,191.050898 127.490512,192.633774 C125.893286,194.216336 125.892968,196.790557 127.490512,198.373119 C129.088055,199.95631 131.686129,199.95631 133.283355,198.373119 C134.880899,196.790557 134.880899,194.216336 133.283355,192.633774 Z M63.6371958,188.590836 C61.3987876,188.590836 59.5784675,190.415432 59.5784675,192.659099 C59.5784675,194.902766 61.3987876,196.727678 63.6371958,196.727678 C65.8756039,196.727678 67.695924,194.902766 67.695924,192.659099 C67.695924,190.415432 65.8756039,188.590836 63.6371958,188.590836 Z M735.146847,188.898053 C733.553995,187.29518 730.963035,187.29518 729.369866,188.898053 C727.777013,190.500926 727.777013,193.107348 729.370182,194.710221 C730.963035,196.312776 733.553995,196.312776 735.146847,194.710221 C736.740016,193.107348 736.740016,190.500926 735.146847,188.898053 Z M498.535034,159.29745 L513.245131,174.12481 C515.063343,172.90925 517.538857,173.108616 519.141327,174.723543 C520.969932,176.567042 520.969932,179.55626 519.141642,181.399442 C517.312722,183.242624 514.347145,183.242624 512.518225,181.399442 C510.916069,179.784515 510.717965,177.289585 511.924227,175.456562 L511.924227,175.456562 L497.7612,161.180632 L444.582684,161.180632 L428.969307,176.91879 L351.557838,176.91879 L348.43573,180.065786 C349.87663,182.149604 349.680101,185.043266 347.837008,186.900734 C345.768725,188.985821 342.402215,188.985821 340.333618,186.901051 C338.26502,184.815964 338.264705,181.422617 340.333618,179.337529 C342.176395,177.479744 345.047173,177.281648 347.114826,178.734035 L347.114826,178.734035 L350.784004,175.035608 L428.195473,175.035608 L443.809164,159.29745 L498.535034,159.29745 Z M346.956405,180.225152 C345.372832,178.628955 342.797793,178.628955 341.21422,180.225152 C339.630647,181.821349 339.630647,184.417232 341.21422,186.013111 C342.797793,187.608991 345.372832,187.608991 346.956405,186.013111 C348.539978,184.417232 348.539978,181.821349 346.956405,180.225152 Z M661.01991,178.494826 C658.771607,178.494826 656.943813,180.319873 656.943813,182.564094 C656.943813,184.808315 658.771607,186.633678 661.01991,186.633678 C663.267898,186.633678 665.096007,184.808315 665.096007,182.564094 C665.096007,180.319873 663.267898,178.494826 661.01991,178.494826 Z M411.503637,150.322946 C414.089288,150.322946 416.185897,152.410839 416.185897,154.985354 C416.185897,157.559868 414.089288,159.647448 411.503637,159.647448 C409.23761,159.647448 407.347891,158.044295 406.914902,155.915327 L406.914902,155.915327 L321.137173,155.915327 L309.171571,167.82908 C310.611928,169.8875 310.415744,172.745459 308.572945,174.580008 C306.504676,176.639682 303.139016,176.639368 301.070432,174.580008 C299.002164,172.520961 299.002164,169.169483 301.070432,167.109809 C302.913232,165.275259 305.783553,165.079608 307.850562,166.51376 L307.850562,166.51376 L320.363462,154.055067 L406.914902,154.055067 C407.347891,151.9261 409.23761,150.322946 411.503637,150.322946 Z M307.692482,167.986793 C306.109161,166.410291 303.534216,166.410291 301.95121,167.986793 C300.367889,169.563295 300.367889,172.126835 301.95121,173.703337 C303.534216,175.279526 306.109161,175.279839 307.692482,173.703337 C309.275803,172.126835 309.275803,169.563295 307.692482,167.986793 Z M403.654924,98.7195467 C406.238448,98.7195467 408.333333,100.80207 408.333333,103.370349 C408.333333,105.938627 406.238448,108.021463 403.654924,108.021463 C401.390762,108.021463 399.502596,106.422193 399.069649,104.298382 L399.069649,104.298382 L306.073801,104.298382 L297.900665,112.422976 L297.900665,145.479984 C300.379098,145.920385 302.268208,148.074224 302.268208,150.66252 C302.268208,153.567981 299.88983,155.932011 296.967437,155.932011 C294.044729,155.932011 291.666667,153.567981 291.666667,150.66252 C291.666667,148.074536 293.555776,145.920385 296.03421,145.480297 L296.03421,145.480297 L296.03421,111.654463 L305.30104,102.442628 L399.069649,102.442628 C399.502596,100.318817 401.390762,98.7195467 403.654924,98.7195467 Z M296.967437,146.630095 C294.730334,146.630095 292.911075,148.438618 292.911075,150.66252 C292.911075,152.886735 294.730334,154.694946 296.967437,154.694946 C299.204541,154.694946 301.0238,152.886735 301.0238,150.66252 C301.0238,148.438618 299.204541,146.630095 296.967437,146.630095 Z M5.30921794,143.726172 C3.0685496,143.726172 1.24639146,145.562255 1.24639146,147.820047 C1.24639146,150.077839 3.0685496,151.913923 5.30921794,151.913923 C7.54988629,151.913923 9.37204442,150.077839 9.37204442,147.820047 C9.37204442,145.562255 7.54988629,143.726172 5.30921794,143.726172 Z M604.417209,3.36543909 C607.059171,3.36543909 609.257667,5.26397442 609.707199,7.75477435 L609.707199,7.75477435 L642.990494,7.75477435 L660.302289,24.9004077 L660.302289,134.282478 C662.470135,134.717269 664.102564,136.615172 664.102564,138.890316 C664.102564,141.48673 661.976862,143.592068 659.355014,143.592068 C656.733485,143.592068 654.607783,141.48673 654.607783,138.890316 C654.607783,136.615172 656.240213,134.717269 658.408058,134.282478 L658.408058,134.282478 L658.408058,25.6770237 L642.206366,9.63054244 L609.707199,9.63054244 C609.257667,12.1213424 607.059171,14.0198777 604.417209,14.0198777 C601.451507,14.0198777 599.038462,11.6296331 599.038462,8.69265839 C599.038462,5.75536748 601.451507,3.36543909 604.417209,3.36543909 Z M836.66389,45.9943343 C839.249543,45.9943343 841.346154,48.0819298 841.346154,50.6564638 C841.346154,53.2309978 839.249543,55.3185933 836.66389,55.3185933 C834.398177,55.3185933 832.508141,53.7154278 832.075152,51.586444 L832.075152,51.586444 L746.297366,51.586444 L734.331755,63.5002873 C735.772113,65.558723 735.575929,68.4167034 733.733443,70.2512666 C731.665173,72.3109565 728.299196,72.3109565 726.230926,70.2512666 C724.162341,68.1922038 724.162341,64.8407005 726.230926,62.7813242 C728.073412,60.9464474 730.943735,60.7507941 733.01106,62.1852714 L733.01106,62.1852714 L745.523654,49.7264836 L832.075152,49.7264836 C832.508141,47.5971863 834.398177,45.9943343 836.66389,45.9943343 Z M732.852665,63.6580014 C731.269658,62.0818009 728.694712,62.0814874 727.111704,63.6580014 C725.528067,65.2345155 725.528067,67.7980753 727.111704,69.3745893 C728.694712,70.9511034 731.269658,70.9511034 732.852665,69.3745893 C734.435988,67.7980753 734.435988,65.2345155 732.852665,63.6580014 Z M360.999129,4.72875372 C362.845379,2.91100088 365.839892,2.91100088 367.685825,4.72875372 C369.532075,6.54681964 369.532075,9.49479772 367.685825,11.3125506 C366.068209,12.9055107 363.569125,13.102126 361.73305,11.9033359 L361.73305,11.9033359 L349.080859,24.3602339 L311.679179,24.3602339 L293.561056,42.1983816 C295.015861,44.2537636 294.817435,47.107504 292.956557,48.9393455 C290.868316,50.9956667 287.469319,50.9956667 285.38076,48.9393455 C283.291883,46.8830244 283.291883,43.5364932 285.38076,41.480172 C287.241321,39.6483305 290.139801,39.4529675 292.227406,40.8850036 L292.227406,40.8850036 L310.897877,22.5027197 L348.299557,22.5027197 L360.399081,10.5902709 C359.181497,8.78253666 359.381195,6.32171384 360.999129,4.72875372 Z M292.067457,42.3558618 C290.468602,40.7816866 287.868397,40.7816866 286.269861,42.3558618 C284.671006,43.9297239 284.671006,46.4897937 286.269861,48.0636558 C287.868397,49.637831 290.468602,49.637831 292.067457,48.0636558 C293.666311,46.4897937 293.666311,43.9297239 292.067457,42.3558618 Z M604.417209,4.61605655 C602.147197,4.61605655 600.301176,6.44439287 600.301176,8.69265839 C600.301176,10.9409239 602.147197,12.7692602 604.417209,12.7692602 C606.687221,12.7692602 608.533242,10.9409239 608.533242,8.69265839 C608.533242,6.44439287 606.687221,4.61605655 604.417209,4.61605655 Z M704.446323,38.1009557 C704.460836,38.1154644 704.488599,38.1432201 704.528036,38.1823304 C704.485444,38.140066 704.459574,38.1142027 704.446323,38.1009557 M705.690529,40.4666438 C705.674755,40.4508735 705.615126,40.3912618 705.527419,40.3038944 C705.623014,40.399147 705.673808,40.4499273 705.690529,40.4666438 M473.182566,332.056657 C475.779145,332.056657 477.884615,334.155855 477.884615,336.744698 C477.884615,339.333541 475.779145,341.43274 473.182566,341.43274 C470.906963,341.43274 469.00894,339.820979 468.574122,337.680163 L468.574122,337.680163 L450.726637,337.680163 L432.626799,355.725448 L397.586113,355.725448 C397.141175,358.208984 394.963604,360.101983 392.346786,360.101983 C389.40931,360.101983 387.019231,357.719024 387.019231,354.790299 C387.019231,351.861889 389.40931,349.47893 392.346786,349.47893 C394.963287,349.47893 397.141175,351.371929 397.586113,353.85515 L397.586113,353.85515 L431.850134,353.85515 L449.949656,335.809549 L468.574122,335.809549 C469.00894,333.668733 470.906963,332.056657 473.182566,332.056657 Z M392.346786,350.725901 C390.098063,350.725901 388.269611,352.54859 388.269611,354.790299 C388.269611,357.032323 390.098063,358.855328 392.346786,358.855328 C394.595194,358.855328 396.423645,357.032323 396.423645,354.790299 C396.423645,352.54859 394.595194,350.725901 392.346786,350.725901 Z M412.722378,325.586852 C414.541014,323.743004 417.490424,323.743004 419.309061,325.586852 C421.127697,327.4307 421.127697,330.421317 419.309374,332.264848 C417.490424,334.109013 414.541014,334.109013 412.722378,332.264848 C412.008831,331.541726 411.579387,330.64108 411.425902,329.703277 L411.425902,329.703277 L378.889668,329.703277 L364.416382,344.377845 C364.814189,345.129548 365.041283,345.987639 365.041283,346.898766 C365.041283,349.848732 362.673861,352.249292 359.764231,352.249292 C356.854915,352.249292 354.487179,349.848732 354.487179,346.898766 C354.487179,343.949116 356.854915,341.548874 359.764231,341.548874 C361.10174,341.548874 362.320533,342.059855 363.251778,342.894445 L363.251778,342.894445 L378.120366,327.819096 L411.492935,327.819096 C411.686513,327.001337 412.093091,326.225181 412.722378,325.586852 Z M359.764231,342.804889 C357.537138,342.804889 355.72602,344.640798 355.72602,346.898766 C355.72602,349.157051 357.537138,350.993277 359.764231,350.993277 C361.991638,350.993277 363.802756,349.157051 363.802756,346.898766 C363.802756,344.640798 361.991638,342.804889 359.764231,342.804889 Z M392.820237,302.889518 C395.08432,302.889518 396.972682,304.523375 397.40536,306.693115 L397.40536,306.693115 L433.725728,306.693115 L449.242017,322.450098 L518.958483,322.450098 C519.365043,319.888909 521.551087,317.924639 524.185857,317.924639 C527.108554,317.924639 529.487179,320.339474 529.487179,323.307769 C529.487179,326.275744 527.108554,328.691218 524.185857,328.691218 C521.612448,328.691218 519.463536,326.818658 518.985545,324.345665 L518.985545,324.345665 L448.469176,324.345665 L432.952887,308.589002 L397.40536,308.589002 C396.972682,310.758743 395.08432,312.392599 392.820237,312.392599 C390.236444,312.392599 388.141026,310.264719 388.141026,307.640899 C388.141026,305.017079 390.236444,302.889518 392.820237,302.889518 Z M524.185857,319.188137 C521.948521,319.188137 520.128758,321.035772 520.128758,323.307769 C520.128758,325.580085 521.948521,327.4274 524.185857,327.4274 C526.423193,327.4274 528.242642,325.580085 528.242642,323.307769 C528.242642,321.035772 526.423193,319.188137 524.185857,319.188137 Z M768.71059,250.164306 C771.648066,250.164306 774.038462,252.547265 774.038462,255.47599 C774.038462,258.4044 771.648066,260.787359 768.71059,260.787359 C766.094089,260.787359 763.916201,258.89436 763.471263,256.410824 L763.471263,256.410824 L729.207242,256.410824 L711.10772,274.45674 L692.483254,274.45674 C692.048436,276.597556 690.150413,278.209632 687.875126,278.209632 C685.278548,278.209632 683.173077,276.110434 683.173077,273.521591 C683.173077,270.932748 685.278548,268.833549 687.875126,268.833549 C690.150413,268.833549 692.04812,270.44531 692.483254,272.586126 L692.483254,272.586126 L710.331055,272.586126 L728.430577,254.540841 L763.471263,254.540841 C763.916201,252.057305 766.094089,250.164306 768.71059,250.164306 Z M768.71059,251.410961 C766.462499,251.410961 764.633731,253.233966 764.633731,255.47599 C764.633731,257.717699 766.462499,259.540388 768.71059,259.540388 C770.958997,259.540388 772.787765,257.717699 772.787765,255.47599 C772.787765,253.233966 770.958997,251.410961 768.71059,251.410961 Z M482.516294,242.311615 C484.857832,242.311615 486.789126,244.049406 487.099379,246.302998 L487.099379,246.302998 L499.703875,246.302998 L503.178023,249.69054 C505.23049,248.17425 508.144875,248.338199 510.003901,250.193897 L510.003901,250.193897 L510.004212,250.194208 L510.174826,250.373048 C512.048156,252.427073 511.99138,255.621502 510.004212,257.60611 C507.958287,259.64971 504.628674,259.64971 502.582748,257.60611 C500.790383,255.816365 500.568596,253.042618 501.916452,251.008661 L501.916452,251.008661 L498.938833,248.104876 L486.993158,248.104876 C486.474512,250.093412 484.669375,251.563348 482.516294,251.563348 C479.958576,251.563348 477.884615,249.491749 477.884615,246.937326 C477.884615,244.382903 479.958576,242.311615 482.516294,242.311615 Z M509.132949,251.064348 C507.567044,249.50046 505.019917,249.50046 503.454011,251.064348 C501.887483,252.628547 501.887483,255.172082 503.4537,256.736281 L503.4537,256.736281 L503.468,256.75 L503.544796,256.827087 L503.544796,256.827087 L503.605,256.887 L503.471,256.753 L503.613518,256.887487 C505.13432,258.250078 507.45263,258.250078 508.973161,256.887487 L509.132949,256.736281 C510.699166,255.172082 510.699166,252.628547 509.132949,251.064348 Z M215.175081,213.144476 C217.768713,213.144476 219.871795,215.232921 219.871795,217.808502 C219.871795,220.384084 217.768713,222.472529 215.175081,222.472529 C212.885003,222.472529 210.979973,220.843931 210.5646,218.689928 L210.5646,218.689928 L199.468618,218.689928 L181.080709,236.949863 L121.595212,236.949863 C121.105293,239.364843 118.952935,241.189802 116.378887,241.189802 C113.44506,241.189802 111.057692,238.81905 111.057692,235.905641 C111.057692,232.991918 113.44506,230.621166 116.378887,230.621166 C119.032535,230.621166 121.232906,232.562498 121.630274,235.088832 L121.630274,235.088832 L180.30461,235.088832 L198.692518,216.828897 L210.583869,216.828897 C211.037462,214.723827 212.919749,213.144476 215.175081,213.144476 Z M116.378887,231.861435 C114.133031,231.861435 112.306654,233.675101 112.306654,235.905641 C112.306654,238.135867 114.133031,239.949219 116.378887,239.949219 C118.625059,239.949219 120.45112,238.135867 120.45112,235.905641 C120.45112,233.675101 118.625059,231.861435 116.378887,231.861435 Z M602.738964,100.963173 C605.646692,100.963173 608.012821,103.33613 608.012821,106.252563 C608.012821,108.740747 606.288157,110.827681 603.977128,111.388425 L603.977128,111.388425 L603.977128,156.601773 L570.469386,190.205903 L539.845893,190.205903 C539.466461,192.401784 537.5621,194.073654 535.264219,194.073654 C532.69366,194.073654 530.608974,191.983267 530.608974,189.405289 C530.608974,186.827312 532.69366,184.736924 535.264219,184.736924 C537.470059,184.736924 539.313686,186.277871 539.793612,188.343455 L539.793612,188.343455 L569.700504,188.343455 L602.119726,155.830358 L602.119726,111.50208 C599.502834,111.193452 597.464794,108.958639 597.464794,106.252563 C597.464794,103.33613 599.830923,100.963173 602.738964,100.963173 Z M152.273091,146.957507 C154.885197,146.957507 157.059164,148.846902 157.503301,151.325709 L157.503301,151.325709 L173.883966,151.325709 L196.822516,174.193235 L209.408289,174.193235 C209.712272,171.901982 211.67506,170.131855 214.056417,170.131855 C216.64832,170.131855 218.75,172.227056 218.75,174.81097 C218.75,177.394884 216.64832,179.490085 214.056417,179.490085 C211.89918,179.490085 210.0857,178.036535 209.537079,176.059972 L209.537079,176.059972 L196.04725,176.059972 L173.108699,153.192446 L157.503301,153.192446 C157.059164,155.671253 154.885197,157.560648 152.273091,157.560648 C149.34122,157.560648 146.955128,155.182226 146.955128,152.259077 C146.955128,149.336243 149.34122,146.957507 152.273091,146.957507 Z M869.71375,135.739377 C872.628451,135.739377 875,138.137065 875,141.083894 C875,144.030722 872.628451,146.428411 869.71375,146.428411 C867.227044,146.428411 865.141349,144.681061 864.580624,142.338572 L864.580624,142.338572 L815.514546,142.338572 L801.365896,156.643174 L773.180302,156.643174 C772.748855,158.797223 770.865548,160.419263 768.608215,160.419263 C766.350568,160.419263 764.467261,158.797223 764.035814,156.643174 L764.035814,156.643174 L763.942308,156.643174 L763.942308,154.761315 L764.035814,154.761315 C764.467261,152.607265 766.350568,150.984908 768.608215,150.984908 C770.865861,150.984908 772.748855,152.607265 773.180302,154.761315 L773.180302,154.761315 L800.595253,154.761315 L814.743903,140.456396 L864.46735,140.456396 C864.775795,137.804917 867.009281,135.739377 869.71375,135.739377 Z M152.273091,148.202103 C150.028732,148.202103 148.203573,150.021637 148.203573,152.259077 C148.203573,154.496518 150.028732,156.316052 152.273091,156.316052 C154.517766,156.316052 156.34261,154.496518 156.34261,152.259077 C156.34261,150.021637 154.517766,148.202103 152.273091,148.202103 Z M396.912332,66.1869688 C399.502211,66.1869688 401.602564,68.2864027 401.602564,70.8751474 C401.602564,73.4638921 399.502211,75.5630107 396.912332,75.5630107 C394.642916,75.5630107 392.749791,73.9509961 392.316094,71.8102609 L392.316094,71.8102609 L278.149163,71.8102609 L257.531383,92.4196452 L257.531383,145.396694 C260.015913,145.840289 261.909669,148.011606 261.909669,150.620529 C261.909669,153.549143 259.525441,155.932011 256.59586,155.932011 C253.665963,155.932011 251.282051,153.549143 251.282051,150.620529 C251.282051,148.011606 253.175807,145.840289 255.660337,145.396694 L255.660337,145.396694 L255.660337,91.645008 L277.374187,69.9400339 L392.316094,69.9400339 C392.749791,67.7992987 394.642916,66.1869688 396.912332,66.1869688 Z M405.268953,79.6487252 C408.195315,79.6487252 410.576923,82.0334259 410.576923,84.9642917 C410.576923,87.8951576 408.195315,90.2798583 405.268953,90.2798583 C402.661756,90.2798583 400.49219,88.3854758 400.048572,85.9001243 L400.048572,85.9001243 L289.441343,85.9001243 L275.971822,99.3892381 L275.971822,146.642785 C278.111142,147.076625 279.72209,148.970061 279.72209,151.240228 C279.72209,153.831279 277.62436,155.932011 275.037327,155.932011 C272.450294,155.932011 270.352564,153.831279 270.352564,151.240228 C270.352564,148.970061 271.963513,147.076625 274.102832,146.642785 L274.102832,146.642785 L274.102832,98.6143208 L288.667534,84.0284592 L400.048572,84.0284592 C400.491875,81.5431077 402.661756,79.6487252 405.268953,79.6487252 Z M212.935808,127.886686 C215.527056,127.886686 217.628205,130.000307 217.628205,132.606228 C217.628205,135.212466 215.527056,137.326087 212.935808,137.326087 C210.664876,137.326087 208.771065,135.702862 208.337139,133.54766 L208.337139,133.54766 L140.237259,133.54766 L123.477931,150.404256 L81.2185842,150.404256 C80.774244,152.90448 78.6011423,154.810198 75.9896965,154.810198 C73.05825,154.810198 70.6730769,152.411227 70.6730769,149.462823 C70.6730769,146.514736 73.05825,144.115448 75.9896965,144.115448 C78.6008268,144.115448 80.774244,146.021166 81.2182686,148.52139 L81.2182686,148.52139 L122.702545,148.52139 L139.462189,131.664795 L208.337139,131.664795 C208.771065,129.509593 210.665191,127.886686 212.935808,127.886686 Z M256.59586,146.555969 C254.353254,146.555969 252.52952,148.378905 252.52952,150.620529 C252.52952,152.862153 254.353254,154.685088 256.59586,154.685088 C258.838466,154.685088 260.6622,152.862153 260.6622,150.620529 C260.6622,148.378905 258.838466,146.555969 256.59586,146.555969 Z M75.9896965,145.370797 C73.7455889,145.370797 71.921206,147.206051 71.921206,149.462823 C71.921206,151.719595 73.7455889,153.554849 75.9896965,153.554849 C78.2334887,153.554849 80.0581871,151.719595 80.0581871,149.462823 C80.0581871,147.206051 78.2334887,145.370797 75.9896965,145.370797 Z M869.71375,136.994055 C867.482461,136.994055 865.668499,138.828328 865.668499,141.083894 C865.668499,143.33946 867.482461,145.173733 869.71375,145.173733 C871.944725,145.173733 873.759,143.33946 873.759,141.083894 C873.759,138.828328 871.944725,136.994055 869.71375,136.994055 Z M439.99572,112.407221 C441.827621,110.610246 444.798859,110.610246 446.630759,112.407221 C447.334366,113.097413 447.765049,113.953189 447.928172,114.846414 L447.928172,114.846414 L535.726566,114.846414 L549.460456,128.318771 C550.26566,127.837184 551.206851,127.554608 552.216511,127.554608 C555.147047,127.554608 557.532051,129.893832 557.532051,132.768805 C557.532051,135.643779 555.147047,137.983003 552.216511,137.983003 C549.285659,137.983003 546.901286,135.643779 546.901286,132.768805 C546.901286,131.547507 547.334492,130.425249 548.05419,129.535737 L548.05419,129.535737 L534.951652,116.682386 L447.883368,116.682386 C447.694372,117.500403 447.279781,118.278803 446.630759,118.91576 C444.798859,120.712734 441.827621,120.712734 439.99572,118.91576 C438.16382,117.118785 438.16382,114.204505 439.99572,112.407221 Z M552.216511,128.778693 C549.972858,128.778693 548.148846,130.568239 548.148846,132.768805 C548.148846,134.969372 549.972858,136.758918 552.216511,136.758918 C554.459847,136.758918 556.284176,134.969372 556.284176,132.768805 C556.284176,130.568239 554.459847,128.778693 552.216511,128.778693 Z M835.624221,90.2003441 C837.699922,88.0975246 841.078824,88.0975246 843.154525,90.2003441 C845.230543,92.3028434 845.230543,95.7245267 843.154525,97.8267059 C841.078824,99.9295254 837.699922,99.9295254 835.624221,97.8267059 C834.915252,97.1093337 834.454407,96.2367068 834.229989,95.3167033 L834.229989,95.3167033 L787.125444,95.3167033 L773.51533,109.100751 L699.485774,109.100751 L681.649977,127.163743 C682.170562,127.930092 682.476844,128.857138 682.476844,129.85749 C682.476844,132.485934 680.37238,134.617564 677.776726,134.617564 C675.181388,134.617564 673.076923,132.485934 673.076923,129.85749 C673.076923,127.229046 675.181388,125.097736 677.776726,125.097736 C678.706003,125.097736 679.570167,125.374633 680.299365,125.846159 L680.299365,125.846159 L698.70948,107.201523 L772.738403,107.201523 L786.348834,93.4177955 L834.102293,93.4177955 C834.230622,92.2417019 834.735402,91.0998604 835.624221,90.2003441 Z M156.952868,106.833311 C158.771819,104.989463 161.721231,104.989463 163.539868,106.833311 C165.358505,108.677159 165.358505,111.667776 163.539868,113.511306 C161.721231,115.355155 158.771819,115.355155 156.952868,113.511624 C156.239634,112.788185 155.81019,111.887856 155.656705,110.949736 L155.656705,110.949736 L123.120452,110.949736 L108.647157,125.624303 C109.044964,126.376007 109.272059,127.234098 109.272059,128.145542 C109.272059,131.095191 106.904635,133.495751 103.995004,133.495751 C101.085685,133.495751 98.7179487,131.095191 98.7179487,128.145542 C98.7179487,125.195575 101.085685,122.795333 103.995004,122.795333 C105.3322,122.795333 106.551307,123.306631 107.482239,124.140904 L107.482239,124.140904 L122.351149,109.065873 L155.723737,109.065873 C155.917316,108.248114 156.323894,107.471322 156.952868,106.833311 Z M103.995004,124.051348 C101.767909,124.051348 99.9567896,125.887574 99.9567896,128.145542 C99.9567896,130.40351 101.767909,132.239736 103.995004,132.239736 C106.222098,132.239736 108.033218,130.40351 108.033218,128.145542 C108.033218,125.887574 106.222098,124.051348 103.995004,124.051348 Z M32.2420995,91.9886686 C34.8001051,91.9886686 36.9413534,93.8273252 37.4468295,96.2675728 L37.4468295,96.2675728 L202.126255,96.2675728 L210.342688,104.586279 C212.165685,103.36232 214.64697,103.563063 216.25338,105.189469 C218.08648,107.045387 218.08648,110.05526 216.25338,111.911178 C214.420279,113.767096 211.447095,113.767096 209.613994,111.911178 C208.007585,110.285092 207.809625,107.772602 209.018221,105.926913 L209.018221,105.926913 L201.350519,98.1637673 L37.4973455,98.1637673 C37.1175281,100.758728 34.9090303,102.75913 32.2420995,102.75913 C29.309328,102.75913 26.9230769,100.342857 26.9230769,97.3738994 C26.9230769,94.4046224 29.309328,91.9886686 32.2420995,91.9886686 Z M602.738964,102.20491 C600.512774,102.20491 598.702645,104.020263 598.702645,106.252563 C598.702645,108.484864 600.512774,110.300217 602.738964,110.300217 C604.964841,110.300217 606.774657,108.484864 606.774657,106.252563 C606.774657,104.020263 604.964841,102.20491 602.738964,102.20491 Z M32.2420995,93.2529048 C29.9972933,93.2529048 28.1717701,95.101151 28.1717701,97.3738994 C28.1717701,99.6466477 29.9972933,101.494894 32.2420995,101.494894 C34.4869057,101.494894 36.3124288,99.6466477 36.3124288,97.3738994 C36.3124288,95.101151 34.4869057,93.2529048 32.2420995,93.2529048 Z M842.270764,91.0953788 C840.681511,89.4858528 838.09692,89.4858528 836.507982,91.0953788 C834.918729,92.7049048 834.918729,95.3221452 836.507982,96.9316712 C838.09692,98.5411972 840.681511,98.5411972 842.270764,96.9316712 C843.859701,95.3221452 843.859701,92.7049048 842.270764,91.0953788 Z M857.967894,26.9235127 C860.559123,26.9235127 862.660256,29.0220577 862.660256,31.6100951 C862.660256,34.1981324 860.559123,36.2969926 857.967894,36.2969926 C855.696979,36.2969926 853.802866,34.6851033 853.368944,32.544953 L853.368944,32.544953 L713.578582,32.544953 L697.278232,48.8249089 L697.278232,84.8219839 C699.764057,85.2654583 701.658801,87.4361821 701.658801,90.0440765 C701.658801,92.9718903 699.27333,95.3541076 696.342221,95.3541076 C693.410796,95.3541076 691.025641,92.9718903 691.025641,90.0440765 C691.025641,87.4361821 692.9207,85.2654583 695.40621,84.8219839 L695.40621,84.8219839 L695.40621,48.0504834 L712.803201,30.6752371 L853.368944,30.6752371 C853.802866,28.5350869 855.696979,26.9235127 857.967894,26.9235127 Z M696.342221,85.9806278 C694.098446,85.9806278 692.273761,87.803065 692.273761,90.0440765 C692.273761,92.2854033 694.098446,94.1075253 696.342221,94.1075253 C698.586312,94.1075253 700.410681,92.2854033 700.410681,90.0440765 C700.410681,87.803065 698.586312,85.9806278 696.342221,85.9806278 Z M405.268953,80.8966071 C403.028812,80.8966071 401.206767,82.7209441 401.206767,84.9642917 C401.206767,87.2076394 403.028812,89.0319764 405.268953,89.0319764 C407.509095,89.0319764 409.330825,87.2076394 409.330825,84.9642917 C409.330825,82.7209441 407.509095,80.8966071 405.268953,80.8966071 Z M866.329885,8.97450425 C869.254461,8.97450425 871.634615,11.3529075 871.634615,14.2760337 C871.634615,17.1991599 869.254461,19.5775631 866.329885,19.5775631 C863.841728,19.5775631 861.753464,17.8537085 861.183852,15.5398161 L861.183852,15.5398161 L695.76108,15.5398161 L677.220814,34.0685781 L677.220814,77.0614109 C679.530436,77.3490347 681.319567,79.3142541 681.319567,81.7002099 C681.319567,84.2841036 679.222487,86.3796034 676.637033,86.3796034 C674.051578,86.3796034 671.955128,84.2841036 671.955128,81.7002099 C671.955128,79.5619127 673.392541,77.7625332 675.352965,77.2039641 L675.352965,77.2039641 L675.352965,33.2953925 L694.987427,13.672779 L861.062309,13.672779 C861.363017,11.0331857 863.609348,8.97450425 866.329885,8.97450425 Z M327.305465,42.6288952 C329.933473,42.6288952 332.120356,44.5321508 332.567514,47.0291436 L332.567514,47.0291436 L409.49429,47.0291436 L425.26678,62.7722122 C426.997613,62.0120511 429.090808,62.334755 430.507868,63.7495168 C432.352078,65.5900069 432.352078,68.5751764 430.507868,70.4156665 C428.664293,72.2561565 425.673605,72.2561565 423.829712,70.4156665 C422.027741,68.6170202 421.991854,65.727901 423.711889,63.879486 L423.711889,63.879486 L408.713986,48.9095753 L332.567514,48.9095753 C332.120356,51.4065681 329.933473,53.3098237 327.305465,53.3098237 C324.355428,53.3098237 321.955128,50.9136363 321.955128,47.9693595 C321.955128,45.0247656 324.355428,42.6288952 327.305465,42.6288952 Z M228.021344,39.2634561 C230.950237,39.2634561 233.333333,41.6179317 233.333333,44.5116501 C233.333333,47.4050571 230.950237,49.7598442 228.021344,49.7598442 C225.412172,49.7598442 223.240648,47.8894722 222.79701,45.4356214 L222.79701,45.4356214 L175.4504,45.4356214 L158.149149,62.5290894 L81.0658653,62.5290894 C80.6124528,64.6187722 78.7338492,66.1869688 76.4831826,66.1869688 C73.894506,66.1869688 71.7948718,64.1125506 71.7948718,61.5546518 C71.7948718,58.996753 73.894506,56.9223347 76.4831826,56.9223347 C78.7697943,56.9223347 80.6720459,58.5413093 81.086045,60.6811469 L81.086045,60.6811469 L157.374753,60.6811469 L174.675688,43.5873674 L222.79701,43.5873674 C223.240963,41.1338281 225.412172,39.2634561 228.021344,39.2634561 Z M327.305465,43.882622 C325.047443,43.882622 323.211173,45.7155041 323.211173,47.9693595 C323.211173,50.2232148 325.047443,52.0560969 327.305465,52.0560969 C329.563487,52.0560969 331.399758,50.2232148 331.399758,47.9693595 C331.399758,45.7155041 329.563487,43.882622 327.305465,43.882622 Z M228.021344,40.4955216 C225.779506,40.4955216 223.956396,42.2967359 223.956396,44.5116501 C223.956396,46.7265644 225.779506,48.5277787 228.021344,48.5277787 C230.263182,48.5277787 232.086291,46.7265644 232.086291,44.5116501 C232.086291,42.2967359 230.263182,40.4955216 228.021344,40.4955216 Z M408.554382,13.4617564 C410.832659,13.4617564 412.733176,15.0945337 413.168566,17.2628415 L413.168566,17.2628415 L441.830525,17.2628415 L462.933799,38.5454693 L504.322761,38.5454693 C504.768601,36.0300406 506.949034,34.1127328 509.569606,34.1127328 C512.510943,34.1127328 514.903846,36.5262925 514.903846,39.492627 C514.903846,42.4589615 512.510943,44.8725212 509.569606,44.8725212 C506.949034,44.8725212 504.768601,42.9552134 504.322761,40.4397848 L504.322761,40.4397848 L462.155796,40.4397848 L441.05284,19.157157 L413.168566,19.157157 C412.733176,21.3254648 410.832659,22.9585614 408.554382,22.9585614 C405.954391,22.9585614 403.846154,20.8320869 403.846154,18.2099992 C403.846154,15.5879115 405.954391,13.4617564 408.554382,13.4617564 Z M509.569606,35.3757162 C507.317928,35.3757162 505.48739,37.2221309 505.48739,39.492627 C505.48739,41.7631231 507.317928,43.6095378 509.569606,43.6095378 C511.820968,43.6095378 513.651506,41.7631231 513.651506,39.492627 C513.651506,37.2221309 511.820968,35.3757162 509.569606,35.3757162 Z M866.329885,10.2190908 C864.09111,10.2190908 862.270177,12.0382955 862.270177,14.2760337 C862.270177,16.5134572 864.09111,18.3329766 866.329885,18.3329766 C868.568659,18.3329766 870.389277,16.5134572 870.389277,14.2760337 C870.389277,12.0382955 868.568659,10.2190908 866.329885,10.2190908 Z M448.791932,296.08452 C448.751864,296.124892 448.700439,296.175988 448.643966,296.232761 C448.69823,296.178195 448.748078,296.128677 448.791932,296.08452 M276.480615,283.215968 C278.668443,281.028105 282.229326,281.028105 284.416821,283.215968 C285.224639,284.023799 285.734184,285.018825 285.945456,286.062792 L308.335157,286.062323 L318.85992,296.527752 L318.85992,358.99446 L328.158221,368.240342 C328.889448,367.781468 329.752843,367.511337 330.681208,367.511337 C333.296236,367.511337 335.416667,369.620131 335.416667,372.220416 C335.416667,374.820702 333.296236,376.929178 330.681208,376.929178 C328.066181,376.929178 325.945432,374.820702 325.945432,372.220416 C325.945432,371.223181 326.25977,370.299733 326.791948,369.53811 L326.791948,369.53811 L316.970705,359.77255 L316.970705,297.305843 L307.552974,287.940888 L286.006975,287.940387 C285.848467,289.116124 285.318416,290.250832 284.416821,291.152303 C282.229326,293.340167 278.668776,293.340167 276.480615,291.152303 C274.292787,288.964773 274.292787,285.403832 276.480615,283.215968 Z M564.142317,339.222685 C566.219678,337.146577 569.601283,337.146893 571.678961,339.222685 C573.756639,341.298793 573.756639,344.677525 571.678644,346.753633 C569.828094,348.603418 566.944398,348.800345 564.867669,347.354529 L564.867669,347.354529 L555.876208,356.339512 L495.050352,356.339512 C494.615393,358.485792 492.71676,360.101983 490.441058,360.101983 C487.843327,360.101983 485.737179,357.997427 485.737179,355.401976 C485.737179,352.806525 487.843327,350.701652 490.441058,350.701652 C492.717076,350.701652 494.615393,352.318159 495.050352,354.46444 L495.050352,354.46444 L555.098977,354.46444 L563.540967,346.028513 C562.094058,343.953669 562.29145,341.072469 564.142317,339.222685 Z M570.794176,340.106485 C569.203652,338.517478 566.617309,338.517478 565.026785,340.106801 C563.436577,341.695807 563.436577,344.280511 565.026785,345.869517 C566.617309,347.459156 569.203652,347.459156 570.794176,345.869517 C572.3847,344.280511 572.3847,341.695807 570.794176,340.106485 Z M297.074287,304.011331 C299.663228,304.011331 301.762821,306.124099 301.762821,308.729284 C301.762821,311.33447 299.663228,313.44692 297.074287,313.44692 C294.805692,313.44692 292.913568,311.82435 292.480028,309.670336 L292.480028,309.670336 L186.725691,309.670336 L168.855662,327.652494 L120.472013,327.652494 C120.028384,330.151708 117.856902,332.056657 115.247782,332.056657 C112.318946,332.056657 109.935897,329.658338 109.935897,326.711442 C109.935897,323.764229 112.318946,321.366544 115.247782,321.366544 C117.856902,321.366544 120.028069,323.271176 120.472013,325.77039 L120.472013,325.77039 L168.080966,325.77039 L185.951311,307.788232 L292.480028,307.788232 C292.913568,305.633901 294.805692,304.011331 297.074287,304.011331 Z M115.247782,322.621069 C113.005988,322.621069 111.182915,324.455582 111.182915,326.711442 C111.182915,328.96762 113.005988,330.801815 115.247782,330.801815 C117.489576,330.801815 119.312649,328.96762 119.312649,326.711442 C119.312649,324.455582 117.489576,322.621069 115.247782,322.621069 Z M283.485462,284.147676 C281.810614,282.472801 279.086822,282.472801 277.412307,284.147676 C275.737792,285.822218 275.737459,288.545721 277.411974,290.220263 L277.394,290.202 L277.412307,290.220929 L277.41264,290.221096 L277.578227,290.378055 C279.262103,291.893708 281.864964,291.841131 283.485462,290.220929 C285.16031,288.546054 285.16031,285.822218 283.485462,284.147676 Z M658.262022,263.626062 C660.545072,263.626062 662.449835,265.246048 662.886515,267.397052 L662.886515,267.397052 L662.980769,267.397052 L662.980769,269.276844 L662.886515,269.276844 C662.450152,271.428165 660.545389,273.048151 658.262022,273.048151 C655.978337,273.048151 654.073892,271.428165 653.637529,269.276844 L653.637529,269.276844 L595.281709,269.276844 L582.710971,281.826428 C584.437381,283.921352 584.321864,287.032054 582.361564,288.988838 C580.277178,291.069821 576.884974,291.069821 574.800588,288.988838 C572.716202,286.907854 572.715885,283.521187 574.800588,281.440204 C576.551434,279.691899 579.223561,279.418469 581.269546,280.607874 L581.269546,280.607874 L594.501969,267.397052 L653.637529,267.397052 C654.073892,265.246048 655.978337,263.626062 658.262022,263.626062 Z M581.473923,282.326396 C579.878581,280.733341 577.283571,280.733341 575.688229,282.326396 C574.092252,283.919134 574.092569,286.509908 575.688229,288.102962 C577.283571,289.6957 579.878581,289.6957 581.473923,288.102645 C583.069582,286.509908 583.069582,283.919134 581.473923,282.326396 Z M304.141266,256.895184 L324.786786,277.496059 C326.604523,276.293242 329.078648,276.490518 330.680423,278.088829 C332.508235,279.912688 332.508235,282.870884 330.680423,284.694429 C328.852612,286.518288 325.888006,286.518288 324.060194,284.694429 C322.458419,283.096431 322.260716,280.627342 323.466455,278.813535 L323.466455,278.813535 L303.368083,258.758938 L219.938841,258.758938 L210.450654,268.226608 C211.890614,270.28858 211.694485,273.151593 209.852822,274.989902 L209.852822,274.989902 L209.973,274.869 L209.852192,274.990845 C207.843263,276.994514 204.610654,277.051761 202.532378,275.162012 L202.352057,274.990216 C200.284357,272.927302 200.284357,269.569215 202.352057,267.5063 C204.194035,265.667991 207.063567,265.471971 209.130323,266.908818 L209.130323,266.908818 L219.165657,256.895184 L304.141266,256.895184 Z M208.971971,268.384617 C207.3894,266.805154 204.815479,266.805154 203.232907,268.384303 L203.232907,268.384303 L203.214,268.402 L203.078982,268.546101 C201.700406,270.079746 201.70068,272.417388 203.079295,273.95076 L203.232278,274.111899 C204.815164,275.691048 207.389085,275.691048 208.971971,274.111899 C210.554857,272.532436 210.554857,269.96408 208.971971,268.384617 Z M753.6349,152.566572 C756.229482,152.566572 758.333333,154.666625 758.333333,157.256521 C758.333333,159.846418 756.229482,161.94647 753.6349,161.94647 C751.361363,161.94647 749.465116,160.334054 749.030316,158.192051 L749.030316,158.192051 L717.781896,158.192051 L695.354928,180.578522 L695.354928,232.959976 C697.688187,233.523628 699.428652,235.619895 699.428652,238.119582 C699.428652,241.049499 697.040411,243.433428 694.105194,243.433428 C691.169976,243.433428 688.782051,241.049499 688.782051,238.119582 C688.782051,235.40131 690.839136,233.156166 693.480484,232.845795 L693.480484,232.845795 L693.480484,179.80354 L717.005513,156.320992 L749.030316,156.320992 C749.465116,154.179304 751.361363,152.566572 753.6349,152.566572 Z M694.105194,234.053214 C691.858515,234.053214 690.031786,235.876961 690.031786,238.119582 C690.031786,240.362203 691.858515,242.186265 694.105194,242.186265 C696.352188,242.186265 698.178917,240.362203 698.178917,238.119582 C698.178917,235.876961 696.352188,234.053214 694.105194,234.053214 Z M227.424369,84.1359773 C230.351605,84.1359773 232.733353,86.5183843 232.733353,89.4464311 C232.733353,92.0548483 230.841316,94.2257449 228.359042,94.6692546 L228.359042,94.6692546 L228.359042,211.368737 L256.302507,239.319622 L435.791989,239.319622 L452.600988,222.505654 L487.677405,222.505654 C488.110708,220.365649 490.001799,218.753946 492.26947,218.753946 C494.856997,218.753946 496.955128,220.852658 496.955128,223.440902 C496.955128,226.029145 494.856997,228.127857 492.26947,228.127857 C490.001799,228.127857 488.110708,226.516155 487.677405,224.375834 L487.677405,224.375834 L453.375261,224.375834 L436.566261,241.189802 L255.528234,241.189802 L226.489695,212.142909 L226.489695,94.6692546 C224.007421,94.2257449 222.115385,92.0548483 222.115385,89.4464311 C222.115385,86.5183843 224.497132,84.1359773 227.424369,84.1359773 Z M263.781126,203.048159 C266.347347,203.048159 268.427949,205.141546 268.427949,207.723222 C268.427949,208.922723 267.975141,210.01312 267.236712,210.84098 L267.236712,210.84098 L280.061569,223.744646 L331.708178,223.744646 C331.890051,222.713988 332.372858,221.726719 333.162849,220.931873 C335.215326,218.866469 338.555601,218.866469 340.608078,220.931873 C342.660555,222.996963 342.660555,226.357764 340.608078,228.422854 C338.555601,230.487944 335.215326,230.487944 333.162849,228.422854 C332.372858,227.628323 331.890051,226.64074 331.708178,225.610081 L331.708178,225.610081 L279.294077,225.610081 L265.730479,211.962819 C265.137048,212.239506 264.478306,212.398601 263.781126,212.398601 C261.215217,212.398601 259.134615,210.304899 259.134615,207.723222 C259.134615,205.141546 261.215217,203.048159 263.781126,203.048159 Z M339.734025,221.811297 C338.163106,220.230095 335.607822,220.230095 334.036902,221.811297 C332.465669,223.39187 332.465669,225.962857 334.036902,227.543745 C335.607822,229.124318 338.163106,229.124318 339.734025,227.54343 C341.305258,225.962857 341.305258,223.39187 339.734025,221.811297 Z M356.038842,207.995499 C358.107095,205.886297 361.473557,205.886297 363.54244,207.995499 C365.385191,209.874162 365.581403,212.800844 364.140838,214.908761 L364.140838,214.908761 L371.097374,222.001189 L427.105868,222.001189 C427.538919,219.821028 429.429228,218.179003 431.694952,218.179003 C434.281292,218.179003 436.378205,220.317102 436.378205,222.953524 C436.378205,225.589946 434.281292,227.728045 431.694952,227.728045 C429.429228,227.728045 427.538919,226.0857 427.105868,223.905539 L427.105868,223.905539 L370.323866,223.905539 L362.819953,216.255388 C360.752015,217.724027 357.881593,217.523992 356.038842,215.645328 C353.969959,213.536448 353.969959,210.10438 356.038842,207.995499 Z M749.677071,170.515581 C752.594151,170.515581 754.967949,172.87912 754.967949,175.783977 C754.967949,178.688835 752.594151,181.052061 749.677071,181.052061 C747.078737,181.052061 744.916286,179.174489 744.474123,176.711505 L744.474123,176.711505 L721.357936,176.711505 L712.331915,185.70002 L712.331915,218.521564 C714.464219,218.951554 716.069571,220.828188 716.069571,223.078209 C716.069571,225.645955 713.978719,227.728045 711.40017,227.728045 C708.821621,227.728045 706.730769,225.645955 706.730769,223.078209 C706.730769,220.828188 708.336435,218.951554 710.468739,218.521251 L710.468739,218.521251 L710.468739,184.931667 L720.586664,174.856136 L744.474123,174.856136 C744.916286,172.393153 747.078737,170.515581 749.677071,170.515581 Z M752.990721,127.886686 C755.936499,127.886686 758.333333,130.260699 758.333333,133.17773 C758.333333,136.094761 755.936499,138.468775 752.990721,138.468775 C750.366825,138.468775 748.182782,136.583132 747.736587,134.10956 L747.736587,134.10956 L709.197284,134.10956 C707.950545,135.414328 702.697436,140.902396 696.921221,146.816263 L696.277444,147.474921 C695.739463,148.024944 695.198104,148.577425 694.656132,149.129381 C692.675827,151.146323 690.938211,152.902224 689.412221,154.43087 L688.849834,154.993526 C681.758285,162.079259 679.478105,163.999542 678.547111,164.520112 C677.974005,166.925834 677.994678,181.547787 678.238932,197.433541 L678.258411,198.673758 L678.258411,198.673758 L678.278755,199.917939 C678.344511,203.862907 678.422709,207.850182 678.507788,211.715214 C680.731788,212.051577 682.458536,213.926228 682.506739,216.229891 C682.560968,218.808047 680.493944,220.942429 677.890662,220.996134 C675.287379,221.049839 673.132194,219.002767 673.077966,216.424297 C673.031349,214.2092 674.552599,212.325755 676.632942,211.804094 C676.522265,206.797278 676.404612,200.848896 676.318988,194.890464 C676.231461,188.803643 676.191935,183.903131 676.188746,179.953767 L676.188868,178.797257 C676.203923,164.503612 676.72685,163.604972 677.1177,163.197559 L677.148271,163.16618 C677.300808,163.010404 677.490766,162.908647 677.695629,162.869075 C679.051797,162.157964 686.534797,154.744179 694.554877,146.558295 L695.320139,145.776542 C699.791554,141.204915 704.373965,136.453093 708.10891,132.537981 L708.10891,132.537981 L708.387346,132.246529 L747.73627,132.246529 C748.182465,129.772329 750.366508,127.886686 752.990721,127.886686 Z M239.029848,170.515581 C241.556113,170.515581 243.604876,172.615328 243.604876,175.204458 C243.604876,177.473219 242.031768,179.365798 239.9427,179.799369 L239.9427,179.799369 L239.9427,205.753112 L245.38566,211.331836 C247.405503,209.889541 250.209592,210.086303 252.010067,211.931268 C254.030832,214.00232 254.030832,217.372825 252.010067,219.443878 C249.989301,221.51493 246.700635,221.51493 244.679869,219.443878 C242.879394,217.598913 242.687717,214.724729 244.094992,212.654307 L244.094992,212.654307 L238.117304,206.527864 L238.117304,179.799369 C236.028236,179.365798 234.455128,177.473219 234.455128,175.204458 C234.455128,172.615328 236.503584,170.515581 239.029848,170.515581 Z M589.511304,56.0906516 C592.13179,56.0906516 594.312994,57.9940042 594.75861,60.4911243 L594.75861,60.4911243 L607.736889,60.4911243 L630.448718,83.2245227 L630.448718,190.787408 L605.412846,215.847056 L544.459467,215.847056 C544.126918,218.124485 542.17248,219.875354 539.805681,219.875354 C537.205148,219.875354 535.096154,217.764674 535.096154,215.161354 C535.096154,212.558352 537.205148,210.447672 539.805681,210.447672 C541.992903,210.447672 543.82699,211.943344 544.356218,213.966528 L544.356218,213.966528 L604.634998,213.966528 L628.569975,190.008821 L628.569975,84.0031093 L606.959041,62.371652 L594.75861,62.371652 C594.312994,64.8687721 592.13179,66.7718077 589.511304,66.7718077 C586.569354,66.7718077 584.175318,64.3758152 584.175318,61.4310711 C584.175318,58.4866442 586.569354,56.0906516 589.511304,56.0906516 Z M251.149519,212.813231 C249.60287,211.227778 247.087066,211.227778 245.54011,212.813231 C243.993461,214.398368 243.993461,216.976778 245.54011,218.561915 C247.087066,220.147682 249.60287,220.147367 251.149519,218.561915 C252.696475,216.976778 252.696475,214.398368 251.149519,212.813231 Z M362.499633,208.737192 C360.907104,207.280654 358.449893,207.332974 356.919432,208.893571 C355.335881,210.507661 355.335881,213.133166 356.919432,214.747256 C358.502982,216.361667 361.077984,216.361667 362.661535,214.747256 C364.24477,213.133166 364.245085,210.508303 362.66185,208.893892 L362.66185,208.893892 Z M284.020768,188.464589 C286.612642,188.464589 288.714298,190.529919 288.714298,193.07661 C288.714298,194.162777 288.32951,195.159619 287.68967,195.947725 L287.68967,195.947725 L294.59723,202.734561 L382.051112,202.734561 C382.200735,201.638779 382.697266,200.580216 383.552701,199.739693 C385.625632,197.702898 388.999708,197.702898 391.07327,199.739693 C393.146517,201.776799 393.146517,205.092367 391.07327,207.129162 C388.999708,209.166578 385.625632,209.166578 383.552701,207.129162 C382.812481,206.402467 382.341518,205.511388 382.130027,204.574717 L382.130027,204.574717 L293.821972,204.574717 L286.250266,197.135313 C285.587067,197.48765 284.827592,197.688321 284.020768,197.688321 C281.428895,197.688321 279.326923,195.623302 279.326923,193.07661 C279.326923,190.529919 281.428895,188.464589 284.020768,188.464589 Z M390.190373,200.6072 C388.603556,199.048045 386.022415,199.048045 384.435283,200.6072 C382.848466,202.166355 382.848466,204.702501 384.435283,206.261966 C386.022415,207.821431 388.603556,207.821431 390.190373,206.261966 C391.777505,204.702501 391.777505,202.166355 390.190373,200.6072 Z M767.744673,172.10457 C769.822723,169.985918 773.205448,169.985918 775.283815,172.10457 C777.123271,173.980003 777.331487,176.894763 775.914477,179.009222 L775.914477,179.009222 L777.345411,180.467893 L790.523167,180.467893 C790.958586,178.277629 792.857532,176.628319 795.134622,176.628319 C797.732897,176.628319 799.839744,178.776003 799.839744,181.424641 C799.839744,184.073279 797.732897,186.220963 795.134622,186.220963 C792.857532,186.220963 790.958586,184.571653 790.523167,182.381712 L790.523167,182.381712 L776.568238,182.381712 L774.597777,180.373057 C772.517511,181.880113 769.608494,181.689795 767.744673,179.789846 C765.666306,177.671517 765.666306,174.223223 767.744673,172.10457 Z M774.236069,172.84973 C772.635996,171.386714 770.167145,171.438975 768.629434,173.006804 C767.038699,174.628373 767.038699,177.266044 768.629434,178.887935 C770.220486,180.509504 772.807685,180.509504 774.398737,178.887935 C775.989789,177.266366 775.989789,174.629018 774.399054,173.007126 L774.399054,173.007126 L774.398737,173.006804 Z M749.677071,171.752389 C747.444589,171.752389 745.628519,173.560224 745.628519,175.783977 C745.628519,178.007417 747.444589,179.815253 749.677071,179.815253 C751.910181,179.815253 753.725936,178.007417 753.725936,175.783977 C753.725936,173.560224 751.910181,171.752389 749.677071,171.752389 Z M491.03946,134.617564 C493.643863,134.617564 495.811104,136.515365 496.253931,139.005203 L496.253931,139.005203 L519.281888,139.005203 L540.576304,160.390872 L576.311229,160.390872 C576.743985,158.244308 578.632688,156.628458 580.897181,156.628458 C583.481441,156.628458 585.576923,158.732982 585.576923,161.328393 C585.576923,163.923805 583.481441,166.028329 580.897181,166.028329 C578.632688,166.028329 576.74367,164.412163 576.310914,162.265915 L576.310914,162.265915 L539.803009,162.265915 L518.508908,140.880562 L496.253931,140.880562 C495.811104,143.370083 493.643549,145.267884 491.03946,145.267884 C488.11592,145.267884 485.737179,142.87888 485.737179,139.942724 C485.737179,137.006884 488.11592,134.617564 491.03946,134.617564 Z M187.566282,59.4560907 C189.846745,59.4560907 191.74935,61.0723005 192.185218,63.2186068 L192.185218,63.2186068 L226.225742,63.2186068 L241.272867,78.2231534 L241.272867,140.882024 C243.769838,141.32709 245.673077,143.503742 245.673077,146.119454 C245.673077,149.055373 243.277228,151.444759 240.33266,151.444759 C237.388092,151.444759 234.992243,149.055373 234.992243,146.119454 C234.992243,143.503742 236.895481,141.32709 239.392452,140.882024 L239.392452,140.882024 L239.392452,78.9998066 L225.447202,65.093701 L192.185218,65.093701 C191.74935,67.2400074 189.847062,68.8565333 187.566282,68.8565333 C184.963435,68.8565333 182.852564,66.7516358 182.852564,64.15647 C182.852564,61.5609882 184.963435,59.4560907 187.566282,59.4560907 Z M240.33266,142.044317 C238.078824,142.044317 236.245958,143.871996 236.245958,146.119454 C236.245958,148.366912 238.078824,150.194591 240.33266,150.194591 C242.586495,150.194591 244.419361,148.366912 244.419361,146.119454 C244.419361,143.871996 242.586495,142.044317 240.33266,142.044317 Z M432.328119,132.841081 C434.406162,130.722472 437.788559,130.722472 439.867235,132.841081 C441.706684,134.716476 441.9149,137.631176 440.497894,139.745592 L440.497894,139.745592 L441.928823,141.204232 L455.10685,141.204232 C455.541951,139.014014 457.441207,137.364737 459.717656,137.364737 C462.315922,137.364737 464.423077,139.512377 464.423077,142.161283 C464.423077,144.809867 462.315922,146.957507 459.717656,146.957507 C457.441207,146.957507 455.541951,145.308231 455.10685,143.118012 L455.10685,143.118012 L441.151337,143.118012 L439.181199,141.109398 C437.101258,142.616746 434.191618,142.42611 432.328119,140.5262 C430.249443,138.407591 430.24976,134.960013 432.328119,132.841081 Z M491.03946,135.867698 C488.80172,135.867698 486.981628,137.695327 486.981628,139.942724 C486.981628,142.190121 488.80172,144.01775 491.03946,144.01775 C493.277201,144.01775 495.096978,142.190121 495.096978,139.942724 C495.096978,137.695327 493.277201,135.867698 491.03946,135.867698 Z M542.742285,85.2577904 C545.334205,85.2577904 547.435897,87.3558093 547.435897,89.9431978 C547.435897,92.5305864 545.334205,94.6286053 542.742285,94.6286053 C540.47108,94.6286053 538.576779,93.0174352 538.142425,90.8778214 L538.142425,90.8778214 L427.95475,90.8778214 L417.390097,101.424006 L417.390097,126.876901 L402.893214,141.348442 L363.011555,141.348442 L354.986422,133.337337 C352.91377,134.778662 350.036806,134.582347 348.189854,132.738309 C346.116255,130.66865 346.116255,127.300728 348.189538,125.230754 C350.262821,123.161095 353.636957,123.161095 355.71024,125.231069 C357.557508,127.074792 357.754167,129.947042 356.310318,132.015441 L356.310318,132.015441 L363.786827,139.479195 L402.117627,139.479195 L415.517577,126.102985 L415.517577,100.65009 L427.179163,89.0085742 L538.142425,89.0085742 C538.576463,86.8689605 540.47108,85.2577904 542.742285,85.2577904 Z M438.981844,133.742974 C437.390798,132.121438 434.803607,132.121438 433.212877,133.743297 C431.621831,135.365155 431.621831,138.002449 433.212877,139.624307 C434.803924,141.245843 437.391114,141.245843 438.98216,139.624307 C440.57289,138.002771 440.573206,135.365477 438.982477,133.743619 L438.982477,133.743619 Z M820.026769,113.747663 C822.078116,111.659183 825.416865,111.659183 827.4679,113.747663 C829.519247,115.836144 829.519247,119.235012 827.4679,121.323492 C825.416865,123.411973 822.078116,123.411973 820.026769,121.323492 C819.289371,120.572746 818.821509,119.651881 818.614438,118.684274 L818.614438,118.684274 L797.90545,118.684274 L786.009323,130.796379 C786.439706,131.51342 786.692064,132.3532 786.692064,133.254668 C786.692064,135.865586 784.612608,137.983003 782.047799,137.983003 C779.483303,137.983003 777.403846,135.865586 777.403846,133.254668 C777.403846,130.64375 779.483303,128.526651 782.047799,128.526651 C783.055982,128.526651 783.986397,128.857348 784.748156,129.413174 L784.748156,129.413174 L797.138381,116.79771 L818.544165,116.79771 C818.69533,115.681606 819.185367,114.603979 820.026769,113.747663 Z M752.990721,129.128811 C750.735959,129.128811 748.90234,130.944732 748.90234,133.17773 C748.90234,135.410729 750.735959,137.22665 752.990721,137.22665 C755.245483,137.22665 757.079102,135.410729 757.079102,133.17773 C757.079102,130.944732 755.245483,129.128811 752.990721,129.128811 Z M354.827643,126.112123 C353.240483,124.527738 350.659611,124.527738 349.072451,126.112123 C347.485291,127.696194 347.485291,130.272869 349.072451,131.857254 C350.659611,133.44164 353.240483,133.44164 354.827643,131.857254 C356.414803,130.272869 356.414803,127.696194 354.827643,126.112123 Z M826.594641,114.637048 C825.024273,113.038254 822.470396,113.038254 820.900341,114.63673 C819.329973,116.235524 819.329973,118.835632 820.900341,120.434108 C822.470396,122.032902 825.024273,122.032902 826.594641,120.434108 C828.164696,118.835632 828.164696,116.235524 826.594641,114.637048 Z M227.424369,85.3826589 C225.183799,85.3826589 223.361721,87.2052412 223.361721,89.4464311 C223.361721,91.687621 225.183799,93.5102032 227.424369,93.5102032 C229.664938,93.5102032 231.487016,91.687621 231.487016,89.4464311 C231.487016,87.2052412 229.664938,85.3826589 227.424369,85.3826589 Z M714.271221,81.8923513 C717.106716,81.8923513 719.422521,84.2668899 719.55488,87.2353962 L719.55488,87.2353962 L744.581046,87.2353962 C744.990383,84.94376 746.888677,83.2091348 749.171471,83.2091348 C751.752937,83.2091348 753.846154,85.4261922 753.846154,88.1596417 C753.846154,90.8934243 751.752937,93.1104816 749.171471,93.1104816 C746.930806,93.1104816 745.060178,91.4394483 744.604311,89.2104051 L744.604311,89.2104051 L719.314056,89.2104051 C718.629312,91.469413 716.628527,93.1104816 714.271221,93.1104816 C711.350842,93.1104816 708.974359,90.5937769 708.974359,87.5014164 C708.974359,84.408723 711.350842,81.8923513 714.271221,81.8923513 Z M714.271221,83.2091348 C712.035586,83.2091348 710.217776,85.1342025 710.217776,87.5014164 C710.217776,89.8686304 712.035586,91.793698 714.271221,91.793698 C716.506228,91.793698 718.324353,89.8686304 718.324353,87.5014164 C718.324353,85.1342025 716.506228,83.2091348 714.271221,83.2091348 Z M589.511304,57.3441253 C587.259472,57.3441253 585.427919,59.1771009 585.427919,61.4310711 C585.427919,63.6853584 587.259472,65.518017 589.511304,65.518017 C591.762819,65.518017 593.594372,63.6853584 593.594372,61.4310711 C593.594372,59.1771009 591.762819,57.3441253 589.511304,57.3441253 Z M176.35367,14.5835694 C178.637032,14.5835694 180.541473,16.2032432 180.978152,18.3545705 L180.978152,18.3545705 L240.113582,18.3545705 L253.345658,31.5651143 C255.391956,30.3757059 258.06376,30.6494536 259.814919,32.3977635 C261.8993,34.478436 261.8993,37.8651131 259.814919,39.9461025 C257.730221,42.0274087 254.338024,42.0274087 252.25396,39.9461025 C250.293664,37.9896303 250.17783,34.8786019 251.904236,32.7839885 L251.904236,32.7839885 L239.333843,20.2340512 L180.978152,20.2340512 C180.541791,22.3856953 178.637032,24.005686 176.35367,24.005686 C174.06999,24.005686 172.165231,22.3856953 171.729187,20.2340512 L171.729187,20.2340512 L171.634615,20.2340512 L171.634615,18.3545705 L171.729187,18.3545705 C172.165549,16.2032432 174.070307,14.5835694 176.35367,14.5835694 Z M258.92728,33.2836414 C257.331941,31.690582 254.736938,31.690582 253.141282,33.2836414 C251.545943,34.8767009 251.545943,37.467482 253.141282,39.0602246 C254.736938,40.653284 257.331941,40.653284 258.92728,39.0602246 C260.522936,37.467482 260.522936,34.8767009 258.92728,33.2836414 Z M508.355645,0 C510.615149,0 512.499692,1.62031789 512.931494,3.77207977 L512.931494,3.77207977 L528.397872,3.77207977 L556.234841,31.8631885 L562.743281,31.8631885 C563.185133,29.3669546 565.347913,27.4639605 567.946579,27.4639605 C570.863365,27.4639605 573.237179,29.8594197 573.237179,32.8028018 C573.237179,35.7465007 570.863365,38.1416431 567.946579,38.1416431 C565.347913,38.1416431 563.185447,36.2392827 562.743281,33.7430488 L562.743281,33.7430488 L555.463563,33.7430488 L527.626595,5.65194008 L512.931808,5.65194008 C512.499692,7.80370196 510.615149,9.42433675 508.355645,9.42433675 C505.777077,9.42433675 503.685897,7.31408898 503.685897,4.71200993 C503.685897,2.11024777 505.777077,0 508.355645,0 Z M567.946579,28.7173063 C565.713768,28.7173063 563.897685,30.5496314 563.897685,32.8028018 C563.897685,35.0559722 565.713768,36.8882972 567.946579,36.8882972 C570.17939,36.8882972 571.995159,35.0559722 571.995159,32.8028018 C571.995159,30.5496314 570.17939,28.7173063 567.946579,28.7173063 Z M233.132873,319.716714 C235.72132,319.716714 237.820513,321.803752 237.820513,324.377598 C237.820513,326.951444 235.72132,329.038795 233.132873,329.038795 C230.864711,329.038795 228.972947,327.436058 228.539175,325.307329 L228.539175,325.307329 L199.431359,325.307329 L169.943677,354.628988 L163.09821,354.628988 C162.65435,357.098137 160.483597,358.98017 157.874975,358.98017 C154.946697,358.98017 152.564103,356.610702 152.564103,353.699256 C152.564103,350.787497 154.946697,348.418342 157.874975,348.418342 C160.483282,348.418342 162.65435,350.300375 163.09821,352.769524 L163.09821,352.769524 L169.169444,352.769524 L198.657126,323.448179 L228.539175,323.448179 C228.972947,321.319765 230.864711,319.716714 233.132873,319.716714 Z M157.874975,349.658089 C155.633293,349.658089 153.810882,351.470533 153.810882,353.699256 C153.810882,355.927979 155.633293,357.740423 157.874975,357.740423 C160.116341,357.740423 161.939067,355.927979 161.939067,353.699256 C161.939067,351.470533 160.116341,349.658089 157.874975,349.658089 Z M793.043411,308.958782 C795.108502,306.849433 798.469306,306.849433 800.534397,308.958782 C802.599803,311.067811 802.599488,314.500963 800.534397,316.610312 C798.469306,318.719661 795.108502,318.719661 793.043411,316.610312 C792.237245,315.786869 791.750213,314.761099 791.573196,313.69133 L791.573196,313.69133 L774.574552,313.69133 L759.889704,328.691218 L745.724901,328.691218 L742.062256,324.949757 C741.316774,325.463927 740.417855,325.763886 739.451023,325.763886 C736.86903,325.763886 734.775641,323.625311 734.775641,320.988304 C734.775641,318.351296 736.86903,316.213043 739.451023,316.213043 C742.032701,316.213043 744.12609,318.351296 744.12609,320.988304 C744.12609,321.948559 743.845944,322.84105 743.368345,323.589984 L743.368345,323.589984 L746.497423,326.785803 L759.117495,326.785803 L773.802344,311.786235 L791.586087,311.786235 C791.775367,310.749545 792.260198,309.758781 793.043411,308.958782 Z M799.493343,309.70038 C797.903491,308.244078 795.45042,308.2961 793.922835,309.856733 C792.341946,311.471503 792.341946,314.09727 793.922835,315.71204 C795.50341,317.32681 798.074398,317.32681 799.654972,315.71204 C801.235861,314.097591 801.235861,311.471824 799.655287,309.857054 L799.655287,309.857054 L799.654972,309.856733 Z M277.424952,262.504249 C280.329236,262.504249 282.692308,264.884343 282.692308,267.808845 C282.692308,270.733661 280.329236,273.113125 277.424952,273.113125 C276.396619,273.113125 275.439259,272.810221 274.627286,272.295096 L274.627286,272.295096 L256.571266,290.478457 L239.09554,290.478457 C238.888873,291.234772 238.493986,291.949839 237.903999,292.543682 C236.088705,294.372125 233.144714,294.372125 231.329419,292.543682 C229.514125,290.715868 229.514125,287.750748 231.329419,285.92262 C233.144714,284.094491 236.088705,284.094491 237.903999,285.92262 C238.654067,286.677675 239.088974,287.627634 239.219353,288.610655 L239.219353,288.610655 L255.803377,288.610655 L273.254403,271.03625 C272.569681,270.140763 272.157597,269.023609 272.157597,267.808845 C272.157597,264.884343 274.520669,262.504249 277.424952,262.504249 Z M492.325373,272.872804 C494.154426,271.01407 497.120221,271.01407 498.948959,272.872804 C500.777697,274.731857 500.777697,277.746296 498.948959,279.60471 C497.450313,281.127936 495.189431,281.401016 493.415183,280.42779 L493.415183,280.42779 L481.249631,292.793201 L465.656534,292.793201 L462.38238,289.465025 C460.341035,290.724456 457.640133,290.464502 455.878484,288.673638 C453.809736,286.570958 453.809736,283.148981 455.878484,281.0463 C457.946918,278.94362 461.313989,278.94362 463.382422,281.0463 C465.305338,283.000436 465.438572,286.092349 463.787479,288.207514 L463.787479,288.207514 L466.43074,290.89413 L480.475425,290.89413 L491.976067,279.204534 C490.507344,277.335877 490.622624,274.603801 492.325373,272.872804 Z M462.501755,281.941732 C460.918067,280.332068 458.34284,280.332068 456.759151,281.941732 C455.175778,283.551077 455.175778,286.168862 456.759151,287.778206 C458.34284,289.388191 460.918067,289.387871 462.501755,287.778206 C464.085444,286.168862 464.085444,283.551077 462.501755,281.941732 Z M277.424952,263.749556 C275.201952,263.749556 273.394161,265.569812 273.394161,267.808845 C273.394161,270.047562 275.201952,271.868134 277.424952,271.868134 C279.647953,271.868134 281.455744,270.047562 281.455744,267.808845 C281.455744,265.569812 279.647953,263.749556 277.424952,263.749556 Z M706.526128,243.672827 C708.369389,241.857877 711.358221,241.857877 713.201165,243.672827 C715.044109,245.488089 715.044109,248.432341 713.200848,250.247604 C711.586129,251.838381 709.091521,252.034727 707.258735,250.837267 L707.258735,250.837267 L702.098111,255.920377 L685.927438,255.920377 C685.480828,258.383143 683.294752,260.260623 680.668414,260.260623 C677.719895,260.260623 675.320513,257.89728 675.320513,254.993361 C675.320513,252.089129 677.719895,249.726099 680.668414,249.726099 C683.294752,249.726099 685.48051,251.603266 685.927438,254.06572 L685.927438,254.06572 L701.318209,254.06572 L705.927156,249.526001 C704.711752,247.721056 704.91141,245.263605 706.526128,243.672827 Z M680.668414,250.962641 C678.411554,250.962641 676.575911,252.770399 676.575911,254.993361 C676.575911,257.216323 678.411554,259.024081 680.668414,259.024081 C682.924957,259.024081 684.7606,257.216323 684.7606,254.993361 C684.7606,252.770399 682.924957,250.962641 680.668414,250.962641 Z M177.093541,170.515581 C179.654324,170.515581 181.730769,172.624602 181.730769,175.225168 C181.730769,177.50395 180.136167,179.404888 178.018554,179.840374 L178.018554,179.840374 L178.018554,211.448771 L167.421761,222.209878 L155.13306,222.209878 C154.693944,224.704661 152.546392,226.606232 149.96565,226.606232 C147.068669,226.606232 144.711538,224.212482 144.711538,221.270494 C144.711538,218.328823 147.068669,215.935073 149.96565,215.935073 C152.546392,215.935073 154.693944,217.836644 155.13306,220.33111 L155.13306,220.33111 L166.655491,220.33111 L176.168528,210.670913 L176.168528,179.840374 C174.050916,179.404888 172.456002,177.50395 172.456002,175.225168 C172.456002,172.624602 174.532447,170.515581 177.093541,170.515581 Z M149.96565,217.18769 C147.748238,217.18769 145.944993,219.018634 145.944993,221.270494 C145.944993,223.522672 147.748238,225.353932 149.96565,225.353932 C152.183061,225.353932 153.986306,223.522672 153.986306,221.270494 C153.986306,219.018634 152.183061,217.18769 149.96565,217.18769 Z M602.718361,79.9024094 C604.551457,78.0684131 607.523806,78.0684131 609.356585,79.9024094 C610.962399,81.5096042 611.160955,83.9921011 609.952255,85.8159892 L609.952255,85.8159892 L615.865385,91.7327279 L615.865385,183.755687 L598.46534,201.16728 L510.570823,201.16728 L499.160301,189.749185 L441.601353,189.29874 L427.757962,203.151004 L416.638171,203.151004 C416.193708,205.63887 414.020005,207.535411 411.407836,207.535411 C408.475577,207.535411 406.089744,205.147678 406.089744,202.213789 C406.089744,199.279585 408.475577,196.892167 411.407836,196.892167 C414.020005,196.892167 416.194024,198.789024 416.638171,201.277206 L416.638171,201.277206 L426.982677,201.277206 L440.83175,187.418626 L499.9419,187.881389 L511.346109,199.293167 L597.689739,199.293167 L613.99283,182.979571 L613.99283,92.5088438 L608.628335,87.1407878 C606.805656,88.3506062 604.32449,88.1522339 602.718677,86.5450391 C600.885582,84.7110428 600.885582,81.7364057 602.718361,79.9024094 Z M411.407836,198.141471 C409.163422,198.141471 407.338218,199.967886 407.338218,202.213789 C407.338218,204.460008 409.163422,206.286107 411.407836,206.286107 C413.652249,206.286107 415.477453,204.460008 415.477453,202.213789 C415.477453,199.967886 413.652249,198.141471 411.407836,198.141471 Z M343.599627,109.937677 C346.510098,109.937677 348.878205,112.255061 348.878205,115.102509 C348.878205,117.950264 346.510098,120.267341 343.599627,120.267341 C341.006866,120.267341 338.849,118.426372 338.408152,116.011498 L338.408152,116.011498 L327.577776,116.011498 L321.524973,121.933871 C322.724692,123.704023 322.528238,126.113685 320.934043,127.673527 C319.114567,129.453489 316.164303,129.453489 314.345141,127.673527 C312.525979,125.893566 312.525979,123.006569 314.345141,121.226608 C315.939336,119.667072 318.401754,119.474237 320.210576,120.648105 L320.210576,120.648105 L326.808251,114.192908 L338.408466,114.192908 C338.849627,111.77834 341.007179,109.937677 343.599627,109.937677 Z M343.599627,111.150173 C341.371889,111.150173 339.560247,112.922777 339.560247,115.102509 C339.560247,117.282242 341.371889,119.054846 343.599627,119.054846 C345.827677,119.054846 347.639007,117.282242 347.639007,115.102509 C347.639007,112.922777 345.827677,111.150173 343.599627,111.150173 Z M584.389564,89.0834045 C586.454341,86.9740871 589.81546,86.9740871 591.880551,89.0834045 C593.945957,91.192722 593.945642,94.6255013 591.880551,96.7348188 C589.81546,98.8441363 586.454341,98.8441363 584.389564,96.7348188 C583.583399,95.9113885 583.096367,94.8856334 582.91935,93.8162017 L582.91935,93.8162017 L565.920706,93.8162017 L551.235858,108.815864 L537.071055,108.815864 L533.40841,105.074459 C532.662927,105.5883 531.764009,105.888255 530.797177,105.888255 C528.215184,105.888255 526.121795,103.750034 526.121795,101.113066 C526.121795,98.4760976 528.215184,96.3378766 530.797177,96.3378766 C533.378855,96.3378766 535.472244,98.4760976 535.472244,101.113066 C535.472244,102.073306 535.192098,102.965463 534.714499,103.714386 L534.714499,103.714386 L537.843577,106.910477 L550.463649,106.910477 L565.148498,91.9108149 L582.932241,91.9108149 C583.12152,90.8744617 583.606351,89.883712 584.389564,89.0834045 Z M591.000812,89.9813418 C589.419923,88.3669174 586.849249,88.3669174 585.268674,89.9816629 C583.6881,91.5964084 583.6881,94.2221361 585.268674,95.8368816 C586.849563,97.4513059 589.420552,97.4513059 591.001126,95.8368816 C592.582015,94.2221361 592.582015,91.5967295 591.001441,89.9819841 L591.001441,89.9819841 L590.947384,89.9266153 L590.947384,89.9266153 L590.927,89.906 Z M441.0494,50.4815864 C443.629254,50.4815864 445.720909,52.6168873 445.720909,55.2502539 C445.720909,56.3124522 445.376279,57.2903033 444.801058,58.0831035 L444.801058,58.0831035 L449.864321,63.2523404 L566.100387,63.2523404 C566.276314,62.1821242 566.763257,61.1552042 567.570011,60.3316157 C569.633392,58.2251789 572.991412,58.2251789 575.054793,60.3316157 C577.118488,62.4377317 577.118488,65.8661436 575.054793,67.9725804 C572.991726,70.0790171 569.633392,70.0790171 567.570011,67.9725804 C566.789018,67.1749695 566.304903,66.1878178 566.115152,65.1548043 L566.115152,65.1548043 L449.092752,65.1548043 L443.414371,59.3576132 C442.720085,59.7751803 441.913331,60.0189214 441.0494,60.0189214 C438.470174,60.0189214 436.378205,57.8836206 436.378205,55.2502539 C436.378205,52.6168873 438.470174,50.4815864 441.0494,50.4815864 Z M574.176411,61.2283266 C572.596832,59.6161071 570.027973,59.6161071 568.448707,61.2283266 C566.869442,62.8408668 566.869442,65.4633293 568.448707,67.0755487 C570.027973,68.6880889 572.596832,68.6880889 574.176097,67.0755487 C575.755991,65.4633293 575.755991,62.8408668 574.176411,61.2283266 Z M634.753017,28.0453258 C637.331757,28.0453258 639.423077,30.2036729 639.423077,32.8650617 C639.423077,35.5264505 637.331757,37.6844735 634.753017,37.6844735 C632.493676,37.6844735 630.608693,36.0272234 630.176861,33.8264159 L630.176861,33.8264159 L588.981094,33.8264159 L573.930123,49.3597734 L550.408977,49.3597734 L546.770602,45.6051116 C544.709117,47.0876584 541.846468,46.8854046 540.008594,44.9889503 C537.945853,42.8600985 537.945853,39.3955284 540.008594,37.2666767 C542.071334,35.1378249 545.428313,35.1378249 547.491053,37.2666767 C549.328613,39.1631309 549.524586,42.1175286 548.08808,44.245408 L548.08808,44.245408 L551.180306,47.437065 L573.158794,47.437065 L588.209765,31.9037075 L630.176861,31.9037075 C630.608693,29.7029001 632.493362,28.0453258 634.753017,28.0453258 Z M546.61263,38.1732538 C545.033854,36.5435542 542.465793,36.5435542 540.886703,38.1732538 C539.307928,39.8026292 539.307928,42.4529978 540.887017,44.0826973 C542.465793,45.7120727 545.033854,45.7120727 546.61263,44.0826973 C548.191719,42.4529978 548.191719,39.8026292 546.61263,38.1732538 Z" id="Combined-Shape"></path>
            </g>
        </g>
    </g>
</svg>