<?xml version="1.0" encoding="UTF-8"?>
<svg width="112px" height="66px" viewBox="0 0 112 66" version="1.1" xmlns="http://www.w3.org/2000/svg" xmlns:xlink="http://www.w3.org/1999/xlink">
    <title>Group 34</title>
    <defs>
        <polygon id="path-1" points="0.172354824 0.00523826087 22.8560917 0.00523826087 22.8560917 23.8386991 0.172354824 23.8386991"></polygon>
    </defs>
    <g id="Layout" stroke="none" stroke-width="1" fill="none" fill-rule="evenodd">
        <g id="1440px-Home" transform="translate(-58.000000, -3380.000000)">
            <g id="Footer" transform="translate(0.000000, 3315.000000)">
                <g id="Group-34" transform="translate(58.000000, 65.000000)">
                    <path d="M4.35329724,16.7465955 C6.46201461,18.5519444 9.2445525,19.5446441 12.1936696,19.5446441 L12.2421213,19.5446441 C12.9215159,19.519795 13.6032687,19.7295381 14.1040784,20.0588937 C14.4936208,20.3143338 14.7260171,20.6272638 14.7273034,20.8957602 C14.7294473,21.4432823 13.6911677,22.2586691 12.2526262,22.2641443 L12.238691,22.2641443 C11.4186581,22.2641443 10.6867385,21.9903833 10.2356668,21.6370209 C10.2866911,21.4902429 10.3205643,21.3356732 10.3205643,21.1722589 C10.3205643,20.3705602 9.65660565,19.7183771 8.84107486,19.7183771 C8.02532968,19.7183771 7.36137099,20.3705602 7.36137099,21.1722589 C7.36137099,21.9347887 7.96465796,22.5551734 8.72594867,22.6141373 C9.5007458,23.4474238 10.8125841,24 12.238691,24 L12.2594867,24 C14.5613673,23.9915766 16.5007184,22.566545 16.4945012,20.8894427 C16.4914998,20.0306753 15.97847,19.201811 15.0866172,18.6157518 C14.2940259,18.0953952 13.2898339,17.8087884 12.2554133,17.8087884 C12.2346177,17.8083673 12.2146796,17.8087884 12.1943128,17.8087884 C9.67204156,17.8087884 7.30134243,16.9681314 5.51463538,15.4380177 C3.75086781,13.9281202 2.7754038,11.9279798 2.76747146,9.80675277 C2.75053483,5.37561421 6.97118538,1.75501895 12.1754467,1.73585568 L12.2151084,1.73585568 C16.8958349,1.73585568 20.8504304,4.72595816 21.5304681,8.58514671 C21.2320405,8.8511161 21.041021,9.23143338 21.041021,9.65786888 C21.041021,10.4591464 21.7049797,11.1111189 22.5205105,11.1111189 C23.3362557,11.1111189 24,10.4591464 24,9.65786888 C24,9.13666994 23.7170082,8.68243718 23.296594,8.42573354 C22.5374471,3.68545557 17.8101985,0 12.2151084,0 L12.1685863,0 C5.99057606,0.0225326407 0.980121243,4.424821 1,9.81349151 C1.00992113,12.4409659 2.20063039,14.9035519 4.35329724,16.7465955" id="Fill-1" fill="#153557"></path>
                    <path d="M19.6465421,14.2527727 C17.5377269,12.4474238 14.7552743,11.4553559 11.805806,11.4553559 L11.7442739,11.4553559 C10.3123121,11.4553559 9.27441309,10.6502878 9.27205471,10.1048715 C9.27055393,9.55734943 10.3086673,8.74154149 11.7468467,8.73585568 L11.7609969,8.73585568 C12.5435483,8.73585568 13.2420558,8.9826618 13.6959356,9.31012214 C13.6363331,9.46764004 13.5988135,9.63610838 13.5988135,9.81384248 C13.5988135,10.61512 14.262803,11.2673031 15.0783716,11.2673031 C15.8941546,11.2673031 16.5581441,10.61512 16.5581441,9.81384248 C16.5581441,9.07616173 15.9940639,8.47199214 15.2687567,8.37891338 C14.49521,7.54920679 13.1897428,7 11.7609969,7 L11.7399859,7 C9.43907047,7.00842342 7.49920063,8.43303383 7.50498937,10.1111891 C7.5112069,11.7836586 9.45043355,13.191001 11.7442739,13.191001 L11.7635697,13.191001 C14.2833851,13.1684683 16.689141,14.0234452 18.4851501,15.5615611 C20.2489995,17.0718798 21.2245087,19.071599 21.2326558,21.1932472 C21.2408029,23.3144742 20.2800871,25.3215639 18.5276008,26.8447283 C16.7431693,28.3959006 14.3622835,29.2552997 11.8242442,29.2643549 L11.7843663,29.2643549 C7.16109555,29.2643549 3.2427643,26.3397445 2.49644611,22.5456268 C2.78009419,22.2807104 2.95911622,21.9090271 2.95911622,21.4952267 C2.95911622,20.693528 2.29534113,20.0413449 1.47955811,20.0413449 C0.663989489,20.0413449 0,20.693528 0,21.4952267 C0,22.0296925 0.298655912,22.4925593 0.73752788,22.7450512 C1.58246898,27.4004633 6.26169746,31 11.7843663,31 L11.8311049,31 C14.7983683,30.9894707 17.5930415,29.9750807 19.6990695,28.144251 C21.8379004,26.2860452 23.0100123,23.814404 23,21.1865085 C22.9902877,18.5584024 21.7993088,16.096027 19.6465421,14.2527727" id="Fill-3" fill="#153557"></path>
                    <path d="M37.4396923,2.47893067 C37.6934793,2.69686099 38.0215507,2.83330804 38.3842591,2.83330804 C39.1796036,2.83330804 39.8270327,2.19790962 39.8270327,1.41686789 C39.8270327,0.635398413 39.1796036,0 38.3842591,0 C37.8058862,0 37.3087687,0.338123491 37.0791623,0.822318041 C30.4780865,2.85875819 25.97462,8.75784753 26,15.5429872 C26.0260309,22.3161504 30.6207736,28.2270024 37.2630217,30.1977854 C37.4974207,30.6706451 37.9869137,31 38.5572264,31 C39.3525709,31 40,30.3643877 40,29.5835598 C40,28.8020904 39.3525709,28.1664781 38.5572264,28.1664781 C38.1877648,28.1664781 37.8540295,28.3074164 37.5984998,28.5324043 C31.7659737,26.7282235 27.7459007,21.507306 27.7234629,15.5363574 C27.7008072,9.55343222 31.6415854,4.33786133 37.4396923,2.47893067" id="Fill-5" fill="#153557"></path>
                    <path d="M41.3452731,24.549165 L41.382209,24.549165 C44.7768942,24.5365699 47.9038475,22.7092105 49.5422635,19.7809524 C49.6889395,19.5188032 49.6855235,19.1988018 49.5332964,18.9402817 C49.3810693,18.6826154 49.104584,18.5242158 48.8052539,18.5242158 L48.8020513,18.5242158 L41.8427333,18.5500465 L41.8305637,15.1747684 L55.3093852,15.1248149 C55.3098122,15.1852288 55.3108797,15.2456427 55.3108797,15.306697 C55.3332974,21.383094 51.2238069,26.7390077 45.3836674,28.4660331 C45.1456125,28.2841511 44.8520469,28.1718624 44.5300856,28.1718624 C43.750589,28.1718624 43.1160605,28.8061013 43.1160605,29.5861447 C43.1160605,30.3657611 43.750589,31 44.5300856,31 C45.1319483,31 45.6439266,30.6202252 45.8476077,30.0890955 C52.4072496,28.1558517 57.0253024,22.1345316 57,15.3007196 C56.9988282,14.9531798 56.9840965,14.5874944 56.9565547,14.2149778 C56.9236754,13.7739352 56.5562381,13.4332266 56.1142885,13.4332266 L56.111513,13.4332266 L40.9795438,13.4891575 C40.7557935,13.4904383 40.5414373,13.579885 40.3836592,13.738925 C40.225881,13.8977516 40.1379181,14.1127225 40.1385586,14.3370864 L40.1573468,19.4009641 C40.1582008,19.6246875 40.2478718,19.8392315 40.4067174,19.9969907 C40.5651361,20.1541094 40.7790653,20.2420618 41.0017481,20.2420618 L41.0049506,20.2420618 L47.180075,20.2190063 C45.7461942,21.8674724 43.6340168,22.8522398 41.3755904,22.8603519 L41.3452731,22.8603519 C39.3082485,22.8603519 37.3916392,22.0858589 35.9464427,20.6779809 C34.4982572,19.2669008 33.6961294,17.38788 33.6888704,15.3869642 C33.6816113,13.3864752 34.4690074,11.5014771 35.9071583,10.0792962 C37.3493658,8.65348621 39.2715262,7.86447681 41.3205069,7.85679165 L41.3497567,7.85679165 C43.6604911,7.85679165 45.823482,8.86376063 47.2861856,10.6219537 C47.4467393,10.8149365 47.6847943,10.9265847 47.9356594,10.9265847 L47.9388619,10.9265847 L55.142213,10.8994732 C55.4214738,10.8984058 55.682587,10.7594326 55.8388707,10.5273835 C55.9955813,10.2959749 56.0269661,10.0018042 55.9229905,9.74178976 C54.3178809,5.72159901 51.0011241,2.52478738 46.9230184,0.991171711 C46.741755,0.418841029 46.2122695,0 45.5809435,0 C44.8012334,0 44.1667048,0.63466584 44.1667048,1.41449575 C44.1667048,2.19411218 44.8012334,2.82835107 45.5809435,2.82835107 C45.873228,2.82835107 46.1450163,2.73911786 46.3709017,2.58669559 C49.590515,3.80820852 52.2738108,6.19124746 53.8293879,9.21578349 L48.3186823,9.23606377 C46.5348713,7.27122542 44.0012406,6.15324863 41.3141018,6.16797851 C38.8201825,6.17694453 36.4778497,7.13993733 34.7198725,8.87870399 C32.9565578,10.6219537 31.9906738,12.9356127 32,15.3935819 C32.0092485,17.8513377 32.9917857,20.1573116 34.7674835,21.8873257 C36.5301578,23.6047447 38.8652315,24.549165 41.3452731,24.549165" id="Fill-7" fill="#153557"></path>
                    <path d="M59,29.5829635 C59,30.3641201 59.6731089,31 60.5,31 C61.3271176,31 62,30.3641201 62,29.5829635 C62,29.1419984 61.7816699,28.7525968 61.4469274,28.4924252 L61.3450098,2.58695277 C61.739997,2.33148824 62,1.90293259 62,1.41767836 C62,0.63587988 61.3271176,0 60.5,0 C59.6731089,0 59,0.63587988 59,1.41767836 C59,1.85800164 59.2183301,2.24740318 59.5528461,2.50736081 L59.6549902,28.4132612 C59.260003,28.6689397 59,29.0972814 59,29.5829635" id="Fill-9" fill="#153557"></path>
                    <path d="M67.4222166,0 C66.6382044,0 66,0.635318618 66,1.41642704 C66,2.19689416 66.6382044,2.83221278 67.4222166,2.83221278 C67.8877708,2.83221278 68.2979224,2.60519112 68.5575418,2.25974196 L80.279716,2.21677459 L80.2979688,7.19137067 L67.44412,7.2386134 C66.9751299,7.24032355 66.5961155,7.62018936 66.5978335,8.08748629 L66.6126505,12.1715247 C66.6132947,12.3955536 66.7039145,12.6101767 66.8638951,12.7681513 C67.0232315,12.9256984 67.2384,13.013557 67.4623728,13.013557 L67.4655939,13.013557 L76.4165609,12.9806368 L76.4348137,17.9552328 L67.483632,17.9883669 C67.2585855,17.9894357 67.0429875,18.0792183 66.8842953,18.2382617 C66.7256032,18.3973051 66.6367012,18.6125696 66.6377749,18.8372398 L66.6738511,28.4501748 C66.3246854,28.7084066 66.0951294,29.1184137 66.0951294,29.5842143 C66.0951294,30.3644676 66.7333338,31 67.517346,31 C68.3015729,31 68.9395626,30.3644676 68.9395626,29.5842143 C68.9395626,29.1239717 68.7149456,28.7186675 68.3726515,28.4597944 L68.3395817,19.6760656 L77.2907635,19.6431453 C77.7597535,19.6414351 78.1383384,19.2615693 78.1368352,18.7942724 L78.1119255,12.1285573 C78.1108518,11.9045284 78.0206614,11.6899053 77.8608956,11.531717 C77.7015592,11.3743837 77.4863907,11.2863113 77.2624179,11.2863113 L77.2594116,11.2863113 L68.3082298,11.3194453 L68.3000698,8.92652586 L81.1537039,8.87906935 C81.3789651,8.87800051 81.5945631,8.78821793 81.7532552,8.62917451 C81.9121621,8.47013109 82.0010641,8.25486667 82,8.03019646 L81.9750807,1.36448141 C81.9733627,0.898894612 81.5934894,0.522235324 81.1255731,0.522235324 L81.122352,0.522235324 L68.5545355,0.568836757 C68.2947013,0.225525283 67.8860529,0 67.4222166,0" id="Fill-11" fill="#153557"></path>
                    <path d="M27.5056553,46.3325108 C26.7868509,43.7495097 25.3163215,41.4470184 23.3269099,39.6353658 C23.093631,39.4226833 22.8516313,39.2181315 22.6043993,39.0195708 C20.9566214,37.6959753 19.0092873,36.688408 16.8698795,36.098289 C16.7456095,36.0640544 16.6206853,36.0308896 16.4951071,35.9994366 C15.2066225,35.6767754 13.8538226,35.501751 12.4578552,35.501751 L12.3959382,35.501751 L9.48801806,35.5124493 C9.23053915,35.2021981 8.84312168,35 8.40468808,35 C7.67127652,35 7.06845756,35.5546006 7.00632251,36.2591916 C7.00261621,36.2987754 7,36.3385731 7,36.3787988 C7,37.139021 7.63028919,37.7573836 8.40468808,37.7573836 C8.88410901,37.7573836 9.30728138,37.5196671 9.56083597,37.1587059 L12.4026968,37.1482216 L12.4578552,37.1482216 C20.0808443,37.1482216 26.295439,42.8615495 26.3220372,49.9072456 C26.3353363,53.3195801 24.9112446,56.5354934 22.3111654,58.9627271 C19.6977872,61.4019428 16.2138643,62.752926 12.5003687,62.7664059 C12.4445562,62.7664059 12.3893977,62.772183 12.3355473,62.7835232 L9.52093873,62.7940075 C9.26433189,62.461076 8.86143517,62.2424024 8.40468808,62.2424024 C7.63028919,62.2424024 7,62.860979 7,63.6214152 C7,63.7350313 7.01569727,63.844796 7.04229543,63.9504953 C7.19316369,64.5519546 7.74583857,65 8.40468808,65 C8.86557751,65 9.27152647,64.778117 9.5279153,64.4402642 L12.5058191,64.4295659 C12.5620677,64.4295659 12.6172262,64.4229329 12.6712946,64.4111648 C16.7534581,64.3570313 20.582067,62.8494248 23.4673133,60.1551612 C26.4051019,57.4127552 28.0145086,53.7710489 28,49.9008266 C27.9966312,49.0246347 27.9044097,48.1683415 27.7398063,47.3353708 C27.6730929,46.9970901 27.5974408,46.6620188 27.5056553,46.3325108" id="Fill-13" fill="#619ECE"></path>
                    <path d="M2.41289212,62.5188469 L2.31519054,37.4745202 C2.66444561,37.2224679 2.89398817,36.8274861 2.89398817,36.3790128 C2.89398817,36.3385731 2.89106835,36.2989894 2.88747473,36.2591916 C2.82346335,35.5548146 2.20244067,35 1.44688178,35 C0.649097851,35 0,35.6185766 0,36.3790128 C0,36.8313375 0.232911582,37.2297427 0.587107884,37.4813671 L0.684809463,62.5256938 C0.335554391,62.7775321 0.106011829,63.1729418 0.106011829,63.6216291 C0.106011829,64.3816374 0.755334282,65 1.55311822,65 C2.23163884,65 2.80122782,64.5519546 2.95665194,63.9504953 C2.98405331,63.8450099 3,63.7352452 3,63.6216291 C3,63.1690904 2.76708842,62.7704712 2.41289212,62.5188469" id="Fill-15" fill="#619ECE"></path>
                    <path d="M13.682399,43.6809339 L13.7031237,43.6809339 C15.1989025,43.6809339 16.6100904,44.3240358 17.6780506,45.4927162 C18.7644094,46.6817121 19.3662737,48.2700253 19.3724606,49.9647211 C19.3789624,51.6591986 18.7883063,53.2516622 17.7104067,54.4493959 C16.6456186,55.6318384 15.2312585,56.2862994 13.7274436,56.2915421 C13.6885318,56.2915421 13.6506774,56.2950372 13.6128229,56.3009352 L9.67553898,56.3157895 L9.63049432,43.696225 L13.682399,43.6809339 Z M8.86515806,58 L8.86811874,58 L13.7335765,57.9814322 C13.7758719,57.9814322 13.8179559,57.9775002 13.858771,57.9709468 C15.7698912,57.9287869 17.5566627,57.0877739 18.9016582,55.5940474 C20.2625144,54.0828452 21.0079718,52.0812342 21,49.9581678 C20.9918996,47.8351014 20.2329076,45.8396068 18.861266,44.3386716 C17.4824341,42.8300908 15.6518868,42 13.7035467,42 L13.6764776,42 L8.81038544,42.0187863 C8.36120771,42.0203154 7.99852417,42.3984436 8,42.8624206 L8.05139349,57.1627005 C8.05287383,57.6255854 8.41703771,58 8.86515806,58 L8.86515806,58 Z" id="Fill-17" fill="#619ECE"></path>
                    <g id="Group-21" transform="translate(89.000000, 35.000000)">
                        <mask id="mask-2" fill="white">
                            <use xlink:href="#path-1"></use>
                        </mask>
                        <g id="Clip-20"></g>
                        <path d="M7.79174587,22.46256 C8.5560211,23.2900383 9.84971835,23.8386991 11.2563055,23.8386991 L11.2769844,23.8386991 C13.5472321,23.8303513 15.4598193,22.4151861 15.4537,20.7497948 C15.4507459,19.8970643 14.9445349,19.07376 14.0652596,18.4919165 C13.2834706,17.9751861 12.2929936,17.6905252 11.2727642,17.6905252 C11.2522963,17.6901078 11.2326725,17.6905252 11.2128376,17.6905252 C8.72503945,17.6905252 6.38684679,16.8557426 4.62470917,15.3362296 C2.88514954,13.8367513 1.92315872,11.8503861 1.91514037,9.74402087 C1.89868165,5.34367304 6.06125963,1.74805565 11.1940578,1.72906435 L11.2330945,1.72906435 C15.8495532,1.72906435 19.7498468,4.69838609 20.420645,8.53087304 C20.1262872,8.79508174 19.937856,9.17282087 19.937856,9.59626435 C19.937856,9.74464696 19.960645,9.88802087 20.0028468,10.023047 C20.1872688,10.6109426 20.742645,11.0393948 21.3969844,11.0393948 C22.2013514,11.0393948 22.8561128,10.3918122 22.8561128,9.59626435 C22.8561128,9.07849043 22.5769477,8.62749913 22.1623147,8.37247304 C21.4138651,3.66513391 16.7514064,0.00523826087 11.2330945,0.00523826087 L11.1873055,0.00523826087 C5.09399358,0.0277773913 0.152369725,4.39932522 0.172354824,9.75069913 C0.182122018,12.3600209 1.35638807,14.8053078 3.47935138,16.6357774 C5.55926881,18.428473 8.30344312,19.4143513 11.2122046,19.4143513 L11.2598927,19.4143513 C11.9298468,19.3897252 12.602122,19.5977948 13.0963055,19.9250296 C13.4803422,20.1785948 13.7094982,20.4893426 13.7107642,20.7560557 C13.7130853,21.2997078 12.6888468,22.109447 11.2698101,22.1150817 L11.2563055,22.1150817 C10.4477183,22.1150817 9.72564495,21.8431513 9.28104862,21.4923339 C9.33126881,21.3464557 9.36439725,21.1930643 9.36439725,21.0306991 C9.36439725,20.2345252 8.70984679,19.5869426 7.90526881,19.5869426 C7.30220459,19.5869426 6.78312202,19.9509078 6.56114037,20.4688904 C6.48707615,20.6416904 6.44614037,20.8316035 6.44614037,21.0306991 C6.44614037,21.787847 7.04097523,22.4041252 7.79174587,22.46256" id="Fill-19" fill="#619ECE" mask="url(#mask-2)"></path>
                    </g>
                    <path d="M103.078535,46.2671757 C103.67762,46.2671757 104.193689,45.9147476 104.426048,45.4105883 C104.510134,45.2281746 104.55806,45.026637 104.55806,44.8137511 C104.55806,44.0761108 103.994065,43.4719182 103.268958,43.3790301 C102.495069,42.5491322 101.189706,42 99.7608893,42 L99.7401353,42 C97.439222,42.0084062 95.4992572,43.4328295 95.5052481,45.1111189 C95.5114529,46.7837341 97.4505618,48.191135 99.7442006,48.191135 L99.7638848,48.191135 C102.283464,48.1684384 104.689217,49.0233446 106.485188,50.5614613 C108.249064,52.0718376 109.224717,54.0714523 109.232847,56.1931665 C109.240764,58.3144603 108.280088,60.3212203 106.527765,61.8448363 C104.743349,63.3957724 102.362201,64.255302 99.8242212,64.2643386 L99.7844248,64.2643386 C95.1609883,64.2643386 91.2427601,61.3398364 90.4962577,57.5457172 C90.7801811,57.2807131 90.9592647,56.9089508 90.9592647,56.4951577 C90.9592647,56.2946708 90.9177567,56.1034308 90.8426571,55.9294233 C90.6177864,55.4080314 90.0914476,55.0413128 89.4795254,55.0413128 C88.6639143,55.0413128 88,55.6934204 88,56.4951577 C88,57.0295792 88.2986865,57.4925483 88.7375161,57.7449432 C89.5826535,62.4002732 94.2619333,66 99.7844248,66 L99.8310678,66 C102.798249,65.9892821 105.592979,64.9750792 107.69919,63.1442181 C109.837923,61.2858269 111.010203,58.8144166 111,56.1864416 C110.990305,53.5584666 109.79941,51.0960929 107.64677,49.2528327 C105.537778,47.4474002 102.755029,46.4552635 99.8058207,46.4552635 L99.7442006,46.4552635 C98.312388,46.4552635 97.2744737,45.6499536 97.2721202,45.1048143 C97.2704085,44.5573633 98.3089647,43.7413355 99.747196,43.7356614 L99.7608893,43.7356614 C100.543551,43.7356614 101.241912,43.9825922 101.695933,44.3100121 C101.636239,44.4676275 101.59901,44.6359608 101.59901,44.8137511 C101.59901,45.615068 102.26271,46.2671757 103.078535,46.2671757" id="Fill-22" fill="#619ECE"></path>
                    <path d="M32.4130679,62.5376383 L32.314722,37.4559913 C32.6636479,37.205848 32.8931218,36.8136453 32.8931218,36.3687809 C32.8931218,36.3040155 32.8866103,36.2409488 32.8774044,36.1787314 C32.779283,35.5138768 32.1757353,35 31.4464486,35 C30.6491281,35 30,35.6138917 30,36.3687809 C30,36.8174676 30.2328419,37.2128554 30.5869321,37.4625741 L30.685278,62.544221 C30.3361275,62.7943643 30.1068782,63.1867794 30.1068782,63.6320685 C30.1068782,64.3863207 30.7560063,65 31.5533268,65 C32.3510965,65 33,64.3863207 33,63.6320685 C33,63.6125326 32.9973056,63.5936339 32.9964075,63.5743104 C32.9770975,63.1494065 32.7518898,62.7765273 32.4130679,62.5376383" id="Fill-24" fill="#619ECE"></path>
                    <path d="M52.7273784,56.5457112 C52.5694787,56.3930929 52.369487,56.2937531 52.1328555,56.3083993 L39.4343599,56.3542485 L39.4256362,54.0212477 L48.2686744,53.989408 C48.731905,53.9877099 49.1059354,53.6209166 49.1044088,53.1694296 L49.0797642,46.7238012 C49.0786737,46.5072913 48.9894735,46.2999087 48.8317919,46.1472904 C48.6738922,45.9946722 48.4784804,45.9063701 48.2372689,45.9101908 L39.3944488,45.9420305 L39.3863794,43.6260109 L52.0848749,43.580374 C52.5483237,43.5786759 52.922354,43.2118826 52.9208274,42.7603957 L52.8959647,36.3147673 C52.8950924,36.0982573 52.8058921,35.891087 52.6482105,35.7384687 C52.4896565,35.5852136 52.2582593,35.5191993 52.0536875,35.5011568 L39.5213793,35.5465815 C39.2646832,35.2167222 38.8618644,35 38.4049585,35 C37.6883032,35 37.0959612,35.5255673 37.0111228,36.2016302 C37.0043619,36.2561822 37,36.311371 37,36.3678334 C37,37.1217975 37.6302903,37.7354546 38.4049585,37.7354546 C38.8660082,37.7354546 39.2727526,37.5151239 39.5287944,37.179958 L51.2212245,37.1377173 L51.2393263,41.9501815 L38.5406127,41.9960307 C38.077382,41.9975165 37.7031335,42.3643098 37.7048783,42.8157967 L37.7197086,46.7651928 C37.7201448,46.9814905 37.8097813,47.1888731 37.9674629,47.3414914 C38.1249264,47.4934729 38.3375676,47.578591 38.5587144,47.578591 L38.5619858,47.578591 L47.4048059,47.5467513 L47.4229077,52.3590032 L38.5800876,52.3910552 C38.3576322,52.3921165 38.1447729,52.4787205 37.9877456,52.6324001 C37.8309363,52.7860797 37.7430446,52.9938868 37.7441351,53.2108213 L37.7594017,57.1774108 C37.7611464,57.6271996 38.1364854,57.9908089 38.5986255,57.9908089 L38.6016789,57.9908089 L51.3003925,57.9449598 L51.3184943,62.757424 L39.6121062,62.7996646 C39.355192,62.4763856 38.9569532,62.2643332 38.5054996,62.2643332 C37.7467522,62.2643332 37.1278028,62.8535798 37.1027221,63.5865297 C37.1020678,63.602025 37.1005411,63.6168835 37.1005411,63.6323788 C37.1005411,64.3863429 37.7308314,65 38.5054996,65 C38.9722198,65 39.3835441,64.7749995 39.6391498,64.4330411 L52.1640429,64.3876165 C52.6274916,64.3861306 53.001522,64.019125 53,63.5676381 L52.9753508,57.1220097 C52.9742603,56.9054998 52.8852781,56.6983295 52.7273784,56.5457112" id="Fill-26" fill="#619ECE"></path>
                    <path d="M68.9451908,62.3152715 L58.5403018,37.1068896 C58.6822169,36.8928987 58.7663784,36.6380569 58.7663784,36.3635305 C58.7663784,36.3207747 58.763802,36.2788655 58.7599374,36.237168 C58.6948841,35.5443962 58.1025334,35 57.3830818,35 C56.6206907,35 56,35.6117049 56,36.3635305 C56,36.9788337 56.4178015,37.4938089 56.986106,37.6635623 L67.4255613,62.9551275 C67.3068335,63.156207 67.2336216,63.3867076 67.2336216,63.6358345 C67.2336216,64.3880834 67.8543124,65 68.6171329,65 C69.3793093,65 70,64.3880834 70,63.6358345 C70,63.6047201 69.9942032,63.575299 69.9920562,63.5446079 C69.951049,62.9462377 69.5197215,62.4543338 68.9451908,62.3152715" id="Fill-28" fill="#619ECE"></path>
                    <path d="M86.589821,35 C85.8540849,35 85.2485967,35.5480708 85.1857712,36.2440573 C85.1822688,36.2834168 85.1796419,36.3229879 85.1796419,36.3634055 C85.1796419,36.6245327 85.2597608,36.8666149 85.3919787,37.0742047 L75.0194355,62.3328631 C74.4623251,62.4896664 74.0485967,62.9666361 74.0080994,63.5447556 C74.0059104,63.5754391 74,63.6048529 74,63.6359597 C74,64.3882345 74.6328512,65 75.4103979,65 C76.1877257,65 76.8207959,64.3882345 76.8207959,63.6359597 C76.8207959,63.3667913 76.7369557,63.1170911 76.5970761,62.9054807 L86.9586741,37.6739084 C87.5567196,37.5158355 88,36.9912534 88,36.3634055 C88,35.6117655 87.3673677,35 86.589821,35" id="Fill-30" fill="#619ECE"></path>
                    <path d="M65.0078894,37.6580575 L71.3053033,54.4672528 C71.4252541,54.7869432 71.7374724,55 72.0877979,55 L72.0910456,55 C72.4424537,54.9987381 72.7548886,54.7833677 72.8724576,54.4619947 L79.0306508,37.6393387 C79.5907818,37.4632987 80,36.9574728 80,36.3551087 C80,36.3151474 79.9971853,36.2758171 79.9939375,36.2366971 C79.931797,35.5449459 79.3329093,35 78.6051937,35 C77.8361233,35 77.2099544,35.6080427 77.2099544,36.3551087 C77.2099544,36.6379927 77.3000257,36.900265 77.4531036,37.1177386 L72.0784876,51.7999411 L66.567682,37.0903967 C66.7069029,36.8796534 66.7896126,36.6306314 66.7896126,36.3622597 C66.7896126,35.6151937 66.1638767,35.007151 65.3948063,35.007151 C64.6696889,35.007151 64.0721004,35.5483111 64.0064955,36.2366971 C64.0025982,36.2779203 64,36.3197745 64,36.3622597 C64,36.978505 64.4278387,37.4937955 65.0078894,37.6580575" id="Fill-32" fill="#619ECE"></path>
                </g>
            </g>
        </g>
    </g>
</svg>