<?xml version="1.0" encoding="UTF-8"?>
<svg width="327px" height="58px" viewBox="0 0 327 58" version="1.1" xmlns="http://www.w3.org/2000/svg" xmlns:xlink="http://www.w3.org/1999/xlink">
    <title>Group 33</title>
    <g id="Layout" stroke="none" stroke-width="1" fill="none" fill-rule="evenodd">
        <g id="1440px-Groups" transform="translate(-134.000000, -208.000000)" fill="#FFFFFF">
            <g id="Group-33" transform="translate(134.000000, 208.000000)">
                <path d="M79.5909207,33.5459459 C80.1112167,33.5459459 80.5982138,33.8091871 80.8874984,34.2472205 L80.8874984,34.2472205 L93.1539972,52.7699239 C94.3319474,53.0268473 95.2185318,54.0871829 95.2185318,55.3538995 C95.2185318,56.8133087 94.0457846,58 92.6045646,58 C91.1633447,58 89.9905974,56.8133087 89.9905974,55.3538995 C89.9905974,54.9116543 90.1102655,54.4999451 90.2996533,54.1345663 L90.2996533,54.1345663 L80.9301627,39.9858785 L80.9790705,53.3016712 C81.5753297,53.7870879 81.9655517,54.5210044 81.9655517,55.3538995 C81.9655517,56.8133087 80.7928045,58 79.3526251,58 C77.9114052,58 76.738658,56.8133087 76.738658,55.3538995 C76.738658,54.4578265 77.1829908,53.6681029 77.8572944,53.1900569 L77.8572944,53.1900569 L77.7906965,35.1338168 C77.7875747,34.261962 78.4837308,33.5512108 79.3443004,33.5469989 L79.3443004,33.5469989 L79.5836366,33.5459459 Z M37.0843443,0.313513514 C38.2555879,0.313513514 39.2378876,1.09286245 39.572976,2.15713465 C47.1338652,5.01160489 53.28446,10.9604256 56.2616319,18.4407089 C56.4537075,18.9246594 56.3952497,19.4725082 56.1050485,19.9030356 C55.8158912,20.3346106 55.3315267,20.5933461 54.8137577,20.5954411 L54.8137577,20.5954411 L41.457196,20.6457217 C40.9864019,20.6457217 40.5448368,20.4383143 40.2473284,20.0790177 C37.5342605,16.8076377 33.5236384,14.9336387 29.2395173,14.9336387 L29.2395173,14.9336387 L29.1852351,14.9336387 C25.3854786,14.9472563 21.821641,16.4158682 19.1482409,19.0692161 C16.4811041,21.7152314 15.0217471,25.2233492 15.0342737,28.9462068 C15.0478443,32.6690645 16.5353863,36.1656596 19.2202692,38.7917722 C21.9009766,41.4115998 25.4543752,42.8529763 29.2311662,42.8529763 L29.2311662,42.8529763 L29.2875362,42.8529763 C33.4745756,42.8372636 37.3912477,41.0051651 40.0500334,37.93805 L40.0500334,37.93805 L28.6006572,37.9809979 C28.1810137,37.9809979 27.7843358,37.8165386 27.491003,37.5242827 C27.1966262,37.2309793 27.0306479,36.8318773 27.0285601,36.4149675 L27.0285601,36.4149675 L26.9930679,26.9915494 C26.992024,26.5746396 27.1559146,26.1744901 27.4482035,25.8790917 C27.7404925,25.5836933 28.1382143,25.4160914 28.5536821,25.4150439 L28.5536821,25.4150439 L56.6113348,25.3102926 C57.4360072,25.3102926 58.1166229,25.9440374 58.1771685,26.7652868 C58.2283191,27.4587398 58.2565041,28.1385751 58.2587842,28.78489 C58.3055669,41.5027333 49.7415003,52.7069218 37.5791478,56.3051256 C37.2012599,57.2929294 36.2523646,58 35.1364471,58 C33.6906607,58 32.5152415,56.819454 32.5152415,55.3686498 C32.5152415,53.9167982 33.6906607,52.7372997 35.1364471,52.7372997 C35.7335517,52.7372997 36.277418,52.9468021 36.7189831,53.2841009 C47.5472453,50.0713816 55.1676361,40.1043048 55.1269244,28.7964126 C55.1269244,28.6832813 55.1248366,28.57015 55.1237927,28.4580662 L55.1237927,28.4580662 L30.1309986,28.5512948 L30.1539642,34.8321768 L43.057478,34.7839913 C43.6180465,34.7839913 44.1305961,35.0783422 44.41349,35.5581027 C44.6953401,36.0389107 44.7016034,36.6338975 44.4301923,37.1220381 C41.3914309,42.5711956 35.5947145,45.9724671 29.299019,45.9955123 L29.299019,45.9955123 L29.2311662,45.9955123 C24.6328345,45.9955123 20.3027823,44.2377872 17.0343653,41.041828 C13.741939,37.8228236 11.9203524,33.5322144 11.9024905,28.9577295 C11.885904,24.384292 13.6772178,20.0790177 16.9456348,16.834873 C20.2057006,13.5991084 24.5493233,11.8068153 29.1727084,11.7911026 C34.1562352,11.7628198 38.8537364,13.8442262 42.1618211,17.5000431 L42.1618211,17.5000431 L52.3794082,17.4623327 C49.4940985,11.8350981 44.5199667,7.39888476 38.5499647,5.1257837 C38.1303212,5.41070696 37.6261228,5.57621386 37.0843443,5.57621386 C35.6396017,5.57621386 34.4631386,4.39566782 34.4631386,2.94486369 C34.4631386,1.49405955 35.6396017,0.313513514 37.0843443,0.313513514 Z M237.575674,0 C239.043865,0 240.238559,1.17876943 240.238559,2.62739024 C240.238559,3.48191963 239.816652,4.2360392 239.174253,4.71612365 L239.174253,4.71612365 L239.355524,53.1178398 C239.894037,53.5989701 240.238559,54.2871958 240.238559,55.0580503 C240.238559,56.5077171 239.043865,57.6864865 237.575674,57.6864865 C236.108543,57.6864865 234.913849,56.5077171 234.913849,55.0580503 C234.913849,54.1177542 235.42056,53.2966947 236.175327,52.8333453 L236.175327,52.8333453 L235.994056,4.72972081 C235.342116,4.2506823 234.913849,3.49028712 234.913849,2.62739024 C234.913849,1.17876943 236.108543,0 237.575674,0 Z M79.0620081,0 C79.9146141,0 80.6664193,0.411591164 81.1494227,1.03837974 L81.1494227,1.03837974 L89.4434304,1.00704031 L89.5095809,1.00704031 C99.3943497,1.00704031 107.452106,8.9296479 107.489906,18.6991925 C107.517206,26.366906 102.519171,33.1414459 95.3276714,35.5712963 L95.3276714,35.5712963 L106.330698,52.4663823 C107.651607,52.6084544 108.686914,53.7105576 108.686914,55.061287 C108.686914,56.5091686 107.503556,57.6864865 106.049296,57.6864865 C104.596086,57.6864865 103.412728,56.5091686 103.412728,55.061287 C103.412728,54.7061068 103.485178,54.367641 103.614329,54.0573806 L103.614329,54.0573806 L91.5129948,35.474144 C91.2294929,35.0395706 91.1801425,34.4932199 91.3827939,34.0168606 C91.5833453,33.5394566 92.0085983,33.191589 92.5199518,33.0871242 C99.3943497,31.6893857 104.365084,25.6440099 104.339884,18.7106836 C104.308384,10.6658522 97.6618376,4.14098318 89.5095809,4.14098318 L89.5095809,4.14098318 L89.4560305,4.14098318 L81.1819729,4.17232261 C80.7010695,4.82209344 79.9324642,5.24935431 79.0620081,5.24935431 C77.608798,5.24935431 76.4254398,4.07203644 76.4254398,2.62415483 C76.4254398,1.17731787 77.608798,0 79.0620081,0 Z M133.949885,0 C135.390352,0 136.563334,1.17962705 136.563334,2.63058927 C136.563334,4.08259912 135.390352,5.26327379 133.949885,5.26327379 C133.29314,5.26327379 132.698843,5.00974826 132.23985,4.60536457 C121.72985,8.06253087 114.587879,17.763549 114.62847,28.8924817 C114.669062,39.9334137 121.862032,49.5946221 132.327278,53.0067405 C132.774822,52.6463571 133.333731,52.4232127 133.949885,52.4232127 C135.390352,52.4232127 136.563334,53.6038874 136.563334,55.053802 C136.563334,56.5058118 135.390352,57.6864865 133.949885,57.6864865 C132.856004,57.6864865 131.919284,57.0055295 131.530025,56.0438087 C119.698208,52.2629259 111.552906,41.3707568 111.505878,28.9040056 C111.460275,16.2863962 119.621189,5.31775035 131.583105,1.52848656 C131.999425,0.628575692 132.900758,0 133.949885,0 Z M305.244879,12.5405405 C307.890924,12.5405405 310.308609,13.5750872 311.741621,15.1352673 C313.084547,15.3108267 314.128928,16.4467381 314.128928,17.8344936 C314.128928,19.3413788 312.899135,20.5682049 311.388606,20.5682049 C309.878077,20.5682049 308.649331,19.3413788 308.649331,17.8344936 C308.649331,17.4990497 308.71742,17.1834607 308.828458,16.8866817 C307.988344,16.2711786 306.693604,15.8061551 305.244879,15.8061551 L305.244879,15.8061551 L305.218691,15.8061551 C302.554838,15.8166051 300.631584,17.3517052 300.634727,18.3820719 C300.639965,19.4082586 302.561123,20.9224588 305.213453,20.9224588 L305.213453,20.9224588 L305.327633,20.9224588 C310.79047,20.9224588 315.943239,22.7888228 319.849455,26.184017 C323.836331,29.6513159 326.041368,34.2837862 326.060345,39.2266204 C326.079079,44.1704996 323.907562,48.8186448 319.946875,52.3152036 C316.045897,55.7595126 310.870082,57.6666315 305.374772,57.6864865 L305.374772,57.6864865 L305.288875,57.6864865 C295.059806,57.6864865 286.393642,50.9159531 284.827594,42.158881 C284.015763,41.6834075 283.46267,40.8129253 283.46267,39.8076385 C283.46267,38.2997083 284.691416,37.0728823 286.202992,37.0728823 C287.713522,37.0728823 288.943314,38.2997083 288.943314,39.8076385 C288.943314,40.5861611 288.611249,41.2852638 288.08644,41.7837272 C289.468124,48.9210545 296.725368,54.4208719 305.288875,54.4208719 L305.288875,54.4208719 L305.362202,54.4208719 C310.062441,54.405197 314.472516,52.7885871 317.776406,49.8709564 C321.022682,47.0055756 322.801377,43.2300026 322.787759,39.2391603 C322.772047,35.2483181 320.965068,31.4863301 317.697842,28.6460292 C314.371954,25.7534784 309.916835,24.1452285 305.249069,24.1870284 L305.249069,24.1870284 L305.213453,24.1870284 C300.965745,24.1870284 297.373786,21.5400518 297.362263,18.3935669 C297.35074,15.2366319 300.943747,12.5572605 305.206121,12.5405405 L305.206121,12.5405405 Z M250.082134,0 C250.935366,0 251.686673,0.411591164 252.16898,1.03733509 L252.16898,1.03733509 L260.392375,1.00704031 L260.458574,1.00704031 C270.349556,1.00704031 278.414283,8.94113902 278.451179,18.7232194 C278.486787,28.5293266 270.445176,36.5365507 260.524774,36.5731133 L260.524774,36.5731133 L251.705587,36.6044528 L251.767583,53.0586975 C252.34446,53.5402801 252.72169,54.254819 252.72169,55.061287 C252.72169,56.5091686 251.537462,57.6864865 250.082134,57.6864865 C248.626805,57.6864865 247.442577,56.5091686 247.442577,55.061287 C247.442577,54.1545329 247.909123,53.3543328 248.614196,52.8831967 L248.614196,52.8831967 L248.546946,35.0500171 C248.544844,34.6332027 248.709816,34.235192 249.005085,33.9395567 C249.299303,33.6449661 249.69965,33.4778224 250.116809,33.4767778 L250.116809,33.4767778 L260.513215,33.4391705 C268.69563,33.4088757 275.328146,26.8119259 275.298724,18.7357551 C275.268251,10.6773434 268.616821,4.14098318 260.458574,4.14098318 L260.458574,4.14098318 L260.403934,4.14098318 L252.203656,4.17127797 C251.722399,4.82104879 250.953229,5.24935431 250.082134,5.24935431 C248.626805,5.24935431 247.442577,4.07203644 247.442577,2.62415483 C247.442577,1.17731787 248.626805,0 250.082134,0 Z M148.264012,0.313513514 C149.431276,0.313513514 150.410776,1.08686093 150.747708,2.14655591 C161.821588,6.30277576 169.407238,16.940483 169.451245,28.7580677 C169.499033,41.6113108 160.727343,52.9032282 148.339118,56.3550748 C147.887442,57.1461884 147.046678,57.6864865 146.07448,57.6864865 C144.629743,57.6864865 143.454135,56.5086993 143.454135,55.0602405 C143.454135,53.6128267 144.629743,52.4350395 146.07448,52.4350395 C146.805715,52.4350395 147.46706,52.7391531 147.942728,53.2251079 C158.755826,50.0094457 166.362338,40.0573005 166.321656,28.7716535 C166.28306,18.2833904 159.56008,8.83392096 149.734827,5.10931258 C149.313402,5.39566014 148.808527,5.56496052 148.264012,5.56496052 C146.819276,5.56496052 145.643667,4.3871733 145.643667,2.93871448 C145.643667,1.49130073 146.819276,0.313513514 148.264012,0.313513514 Z M66.5595965,0 C68.0267273,0 69.2214212,1.17731787 69.2214212,2.62415483 C69.2214212,3.47763194 68.7995151,4.23082288 68.1581754,4.71031614 L68.1581754,4.71031614 L68.3394466,53.1245103 C68.8768999,53.6040036 69.2214212,54.2913817 69.2214212,55.061287 C69.2214212,56.5091686 68.0267273,57.6864865 66.5595965,57.6864865 C65.0914057,57.6864865 63.8967118,56.5091686 63.8967118,55.061287 C63.8967118,54.1221488 64.4044832,53.3021004 65.1592499,52.8393215 L65.1592499,52.8393215 L64.9779787,4.72180726 C64.3249783,4.24335865 63.8967118,3.48494448 63.8967118,2.62415483 C63.8967118,1.17731787 65.0914057,0 66.5595965,0 Z M22.4435508,0 C23.8843097,0 25.0575289,1.18269366 25.0575289,2.63718648 C25.0575289,4.09062988 23.8843097,5.27332353 22.4435508,5.27332353 C21.785632,5.27332353 21.1912149,5.01831505 20.7310881,4.61323985 C10.2231253,8.07316974 3.08179141,17.7781839 3.12343184,28.910406 C3.16403126,40.0216397 10.4490247,49.737148 21.0184071,53.094235 C21.4826979,52.6765668 22.0875251,52.4142124 22.7558541,52.4142124 C24.197654,52.4142124 25.3708731,53.596906 25.3708731,55.0513988 C25.3708731,56.5037928 24.197654,57.6864865 22.7558541,57.6864865 C21.7231714,57.6864865 20.8362302,57.0736266 20.4104568,56.1931652 C8.37324919,52.5265001 0.0472450033,41.527554 0.000198904107,28.922999 C-0.0464459665,16.2974556 8.11507851,5.32054733 20.0783743,1.53005089 C20.4937376,0.629650571 21.395253,0 22.4435508,0 Z M223.51435,0.627027027 C224.96512,0.627027027 226.14374,1.80676989 226.14374,3.25658699 C226.14374,4.10763486 225.730281,4.8592368 225.101195,5.3397177 L225.101195,5.3397177 L225.204821,33.1929548 C225.254018,46.4757917 214.385806,57.3227266 200.978225,57.372973 L200.978225,57.372973 L200.886112,57.372973 C187.519353,57.3740198 176.620786,46.625484 176.57159,33.3740511 L176.57159,33.3740511 L176.46901,5.35960689 C175.825271,4.87912599 175.402391,4.11914966 175.402391,3.25658699 C175.402391,1.80676989 176.582057,0.627027027 178.03178,0.627027027 C179.481503,0.627027027 180.661169,1.80676989 180.661169,3.25658699 C180.661169,4.11286886 180.243524,4.86656439 179.609204,5.34809209 L179.609204,5.34809209 L179.711784,33.3614895 C179.7547,44.8857035 189.24646,54.2315281 200.886112,54.2325749 L200.886112,54.2325749 L200.965664,54.2325749 C212.641952,54.1886094 222.107543,44.7559004 222.064627,33.2055164 L222.064627,33.2055164 L221.961001,5.36588768 C221.312028,4.88750038 220.886008,4.12333685 220.886008,3.25658699 C220.886008,1.80676989 222.064627,0.627027027 223.51435,0.627027027 Z M140.481173,11.6 C150.035766,11.6 157.825618,19.2921141 157.862172,28.7766062 C157.896416,38.2852346 150.126346,46.0508068 140.541559,46.0864865 L140.541559,46.0864865 L140.475967,46.0864865 C130.920332,46.0875359 123.129439,38.393323 123.094952,28.9077814 C123.077382,24.2946118 124.873358,19.955336 128.150885,16.6854004 C131.421123,13.4217613 135.777277,11.6146916 140.414539,11.6 L140.414539,11.6 Z M305.173281,0 C315.53618,0 324.292217,6.93250788 325.69796,15.8494644 C326.476251,16.3322529 327,17.1870602 327,18.167267 C327,19.6751972 325.770237,20.9009783 324.260792,20.9009783 C322.7503,20.9009783 321.520537,19.6751972 321.520537,18.167267 C321.520537,17.3657546 321.874591,16.6499319 322.426623,16.1504235 C321.16753,8.88978663 313.843423,3.26456958 305.173281,3.26456958 L305.173281,3.26456958 L305.099956,3.26456958 C295.461925,3.30218946 287.644446,10.1124327 287.674824,18.4473261 C287.690536,22.4371234 289.49747,26.2001564 292.76357,29.0404573 C296.072616,31.9183782 300.462681,33.4994581 305.135571,33.4994581 L305.135571,33.4994581 L305.2487,33.4994581 C307.164575,33.4994581 309.023884,34.0386764 310.492476,35.0178383 C312.144381,36.1203097 313.094462,37.6794448 313.099699,39.2950096 C313.111222,42.4498545 309.51935,45.130271 305.256033,45.1459459 L305.256033,45.1459459 L305.217275,45.1459459 C302.575485,45.1459459 300.146337,44.1072193 298.710217,42.5397243 C297.301332,42.4279096 296.183651,41.2616933 296.183651,39.8269129 C296.183651,38.3179377 297.413414,37.0921566 298.924954,37.0921566 C300.435446,37.0921566 301.665209,38.3179377 301.665209,39.8269129 C301.665209,40.1341419 301.601312,40.424651 301.507037,40.7015751 C302.34294,41.365148 303.698403,41.8813764 305.217275,41.8813764 L305.217275,41.8813764 L305.243463,41.8813764 C307.908298,41.8698814 309.830457,40.3358263 309.826267,39.3065046 C309.824172,38.8007262 309.393651,38.2123931 308.671924,37.7327396 C307.743841,37.1120116 306.481606,36.7180478 305.22356,36.7650727 L305.22356,36.7650727 L305.133476,36.7650727 C299.67182,36.7650727 294.519177,34.8976636 290.613056,31.5014245 C286.62523,28.0351705 284.420247,23.4027003 284.402325,18.4609111 C284.364729,8.32339844 293.645563,0.0428448633 305.087386,0 L305.087386,0 Z M211.002835,0.627027027 C212.442601,0.627027027 213.615011,1.80565656 213.615011,3.25410546 C213.615011,4.1231748 213.189532,4.88766299 212.541429,5.36769046 L212.541429,5.36769046 L212.644418,33.2103295 C212.667304,39.5939627 207.4752,44.807333 201.069074,44.8324324 L201.069074,44.8324324 L201.025381,44.8324324 C194.63798,44.8324324 189.430272,39.6661237 189.407385,33.2971318 L189.407385,33.2971318 L189.303356,5.35514072 C188.664616,4.87511325 188.244337,4.11585412 188.244337,3.25410546 C188.244337,1.80565656 189.416748,0.627027027 190.856514,0.627027027 C192.29732,0.627027027 193.469731,1.80565656 193.469731,3.25410546 C193.469731,4.10957925 193.055694,4.86360933 192.424236,5.3436368 L192.424236,5.3436368 L192.528265,33.2845821 C192.54491,37.927985 196.353424,41.694998 201.025381,41.694998 L201.025381,41.694998 L201.05659,41.694998 C205.742071,41.6761734 209.540182,37.8756945 209.523538,33.2218334 L209.523538,33.2218334 L209.420549,5.33108706 C208.798453,4.85001378 208.389618,4.10330438 208.389618,3.25410546 C208.389618,1.80565656 209.562029,0.627027027 211.002835,0.627027027 Z M140.481173,14.748205 L140.425992,14.748205 C136.611234,14.7618472 133.032817,16.2436023 130.348743,18.9216753 C127.671958,21.5934519 126.203942,25.1351825 126.218411,28.8951886 C126.246629,36.648168 132.638222,42.9382815 140.475967,42.9382815 L140.475967,42.9382815 L140.529065,42.9382815 C148.392839,42.9088983 154.766732,36.5610677 154.738714,28.7891991 C154.708428,21.0362197 148.318917,14.748205 140.481173,14.748205 L140.481173,14.748205 Z M88.4259483,10.972973 C90.4767005,10.972973 92.4092206,11.7605889 93.8688122,13.1918592 C95.3378204,14.6346047 96.1507972,16.5582654 96.1581864,18.6071101 C96.1664917,20.6569979 95.3671169,22.5869178 93.9096179,24.0400953 C92.4542116,25.4901432 90.51646,26.2923639 88.4521058,26.3007095 L88.4521058,26.3007095 L79.3001007,26.3351351 C78.4295773,26.3351351 77.7275085,25.6382776 77.7243696,24.774508 L77.7243696,24.774508 L77.6783126,12.5774145 C77.6762397,12.1611777 77.8405092,11.7637185 78.1345201,11.4695361 C78.4274847,11.1743106 78.8261258,11.0084418 79.2415078,11.0053122 L79.2415078,11.0053122 L88.3935129,10.972973 Z M259.41065,10.9744845 C261.481282,10.9328116 263.42008,11.7548106 264.884903,13.1946111 C266.354958,14.6375371 267.167935,16.5597021 267.175324,18.6089696 C267.183629,20.6571952 266.384254,22.586653 264.926755,24.0389554 C263.471349,25.490216 261.532551,26.2934622 259.469243,26.3007549 L259.469243,26.3007549 L250.317238,26.3351351 C249.446715,26.3351351 248.744646,25.6391968 248.741507,24.7776085 L248.741507,24.7776085 L248.69545,12.5778514 C248.693377,12.1621637 248.857647,11.764187 249.150611,11.4703927 C249.444622,11.1765983 249.842217,11.0109483 250.258645,11.0088647 L250.258645,11.0088647 Z M259.423206,14.099956 L251.840654,14.1280853 L251.874136,23.2034127 L259.456688,23.1752834 C260.687139,23.1700743 261.840164,22.692919 262.705456,21.8302889 C263.568655,20.9707842 264.041584,19.8299871 264.036395,18.6204296 C264.032167,17.4098303 263.550868,16.2732005 262.681391,15.4209886 C261.809821,14.5646094 260.641102,14.0843287 259.423206,14.099956 L259.423206,14.099956 Z M88.4060685,14.1025658 L80.8235167,14.129696 L80.8569983,23.1982329 L88.4395502,23.1711097 C89.6700015,23.1658937 90.8251191,22.6881082 91.690411,21.826425 C92.552564,20.9678715 93.0244463,19.8286972 93.0192578,18.6196285 C93.0150296,17.4105597 92.5337306,16.2755582 91.6652998,15.4222207 C90.7937301,14.5667967 89.6124549,14.1004864 88.4060685,14.1025658 L88.4060685,14.1025658 Z" id="Combined-Shape"></path>
            </g>
        </g>
    </g>
</svg>