<?xml version="1.0" encoding="UTF-8"?>
<svg width="109px" height="32px" viewBox="0 0 109 32" version="1.1" xmlns="http://www.w3.org/2000/svg" xmlns:xlink="http://www.w3.org/1999/xlink">
    <title>JOBS</title>
    <g id="Layout" stroke="none" stroke-width="1" fill="none" fill-rule="evenodd">
        <g id="1440px-Job-Listings-Grid" transform="translate(-50.000000, -145.000000)" fill="#619ECE">
            <g id="Group-4" transform="translate(0.000000, 116.000000)">
                <g id="Group-24" transform="translate(50.000000, 29.561347)">
                    <path d="M59.2093193,5.61403513e-05 C59.9874246,5.61403513e-05 60.6195649,0.632757895 60.6195649,1.41086316 C60.6195649,1.86896842 60.3961263,2.27374035 60.0559158,2.53142456 L60.0559158,2.53142456 L60.1524772,28.6900211 C60.4371088,28.9482667 60.6195649,29.3171088 60.6195649,29.7308632 C60.6195649,30.508407 59.9874246,31.1411088 59.2093193,31.1411088 C58.4323368,31.1411088 57.7996351,30.508407 57.7996351,29.7308632 C57.7996351,29.2261614 58.0685474,28.7860211 58.4677053,28.5361965 L58.4677053,28.5361965 L58.3717053,2.5381614 C58.0264421,2.2810386 57.7996351,1.87289825 57.7996351,1.41086316 C57.7996351,0.632757895 58.4323368,5.61403513e-05 59.2093193,5.61403513e-05 Z M72.3960702,0.000168421052 C72.8974035,0.000168421052 73.3352982,0.265150877 73.5856842,0.660940351 C75.2524912,0.902905263 76.7946667,1.65294035 78.0123509,2.85153684 C79.5197193,4.33420351 80.3534035,6.30978246 80.3612632,8.41504561 C80.3685614,10.5045895 79.5270175,12.5104842 78.0656842,13.9813614 C80.4701754,15.6509754 81.9275789,18.3720982 81.9383177,21.3340632 C81.9477895,23.7452912 81.0091228,26.015607 79.2957193,27.7262035 C77.8821053,29.1375719 76.077193,30.0189754 74.1235088,30.2906947 C73.8736842,30.6892912 73.4341053,30.9576421 72.9305263,30.9576421 C72.1529825,30.9576421 71.5202807,30.3249404 71.5202807,29.5473965 C71.5202807,28.7692912 72.1529825,28.1365895 72.9305263,28.1365895 C73.3476491,28.1365895 73.7192982,28.322414 73.9775439,28.6115368 C75.5365614,28.375186 76.9748772,27.6633263 78.1061053,26.5343439 C79.498386,25.143186 80.2613333,23.2989754 80.2540351,21.3408 C80.2444912,18.6028351 78.7101754,16.1163789 76.2512281,14.8526596 C75.9912982,14.719607 75.8200702,14.4613614 75.7970526,14.169993 C75.7740351,13.879186 75.9031579,13.5973614 76.138386,13.4244491 C77.7355789,12.2539228 78.6837895,10.3838877 78.6770526,8.42178246 C78.6708772,6.76901053 78.0151579,5.21729123 76.8311579,4.05237895 C75.8969825,3.1328 74.7208421,2.54781754 73.4470175,2.34065965 C73.1887719,2.63315088 72.8154386,2.82122105 72.3960702,2.82122105 C71.6185263,2.82122105 70.9858246,2.1885193 70.9858246,1.41097544 C70.9858246,0.632870175 71.6185263,0.000168421052 72.3960702,0.000168421052 Z M97.2765193,6.73824561 C98.6929404,6.73824561 99.9869754,7.29235088 100.753853,8.12940351 C101.472449,8.22315789 102.031607,8.83340351 102.031607,9.57782456 C102.031607,10.3862456 101.373642,11.0442105 100.565221,11.0442105 C99.7568,11.0442105 99.0982737,10.3862456 99.0982737,9.57782456 C99.0982737,9.39817544 99.1353263,9.22807018 99.1948351,9.06919298 C98.7445895,8.73852632 98.0523789,8.48982456 97.2765193,8.48982456 L97.2765193,8.48982456 L97.2630456,8.48982456 C95.8376421,8.4954386 94.8080281,9.31901754 94.8097123,9.8714386 C94.8125193,10.421614 95.8410105,11.2345263 97.2596772,11.2345263 L97.2596772,11.2345263 L97.3208702,11.2345263 C100.24466,11.2345263 103.002274,12.2355088 105.09294,14.0572632 C107.226835,15.917193 108.406905,18.4019649 108.416515,21.0540351 C108.426554,23.7061053 107.265011,26.2004211 105.144589,28.0760702 C103.057291,29.9230877 100.287326,30.9465263 97.3461333,30.9577544 L97.3461333,30.9577544 L97.3000982,30.9577544 C91.8258526,30.9577544 87.1880982,27.3249123 86.3504842,22.6270877 C85.9153965,22.3727719 85.6189754,21.9051228 85.6189754,21.3661754 C85.6189754,20.5566316 86.2775018,19.8986667 87.0859228,19.8986667 C87.8943439,19.8986667 88.5523088,20.5566316 88.5523088,21.3661754 C88.5523088,21.7832982 88.3749053,22.1588772 88.0936421,22.4255439 C88.8335719,26.2548772 92.7173614,29.205614 97.3000982,29.205614 L97.3000982,29.205614 L97.3393965,29.205614 C99.8550456,29.1966316 102.215186,28.3292632 103.983607,26.7640702 C105.720589,25.2269474 106.67273,23.2014035 106.66487,21.0613333 C106.657011,18.9201404 105.689712,16.9018947 103.941502,15.3782456 C102.161291,13.8259649 99.7770105,12.9630877 97.2793263,12.9861053 L97.2793263,12.9861053 L97.2596772,12.9861053 C94.9865544,12.9861053 93.0643088,11.5657544 93.0581333,9.87761404 C93.0525193,8.18385965 94.9753263,6.74666667 97.2563088,6.73824561 L97.2563088,6.73824561 Z M43.3228912,0.0928 C43.9511018,0.0928 44.4788211,0.5088 44.6601544,1.07806316 C50.6194526,3.31076491 54.7025404,9.02529123 54.7262247,15.3736421 C54.7519439,22.2783439 50.0311018,28.3443088 43.3638737,30.1986246 C43.120786,30.623607 42.6682947,30.9138526 42.1445053,30.9138526 C41.3675228,30.9138526 40.7348211,30.2811509 40.7348211,29.5030456 C40.7348211,28.7255018 41.3675228,28.0928 42.1445053,28.0928 C42.5386105,28.0928 42.8939789,28.2561684 43.1505404,28.5172211 C48.9700491,26.7897825 53.0638035,21.4435368 53.0419088,15.3803789 C53.0211368,9.74669474 49.4023298,4.67048421 44.1144702,2.66964211 C43.8882246,2.82346667 43.6165053,2.91385263 43.3228912,2.91385263 C42.5453474,2.91385263 41.9126456,2.28115088 41.9126456,1.50304561 C41.9126456,0.725501754 42.5453474,0.0928 43.3228912,0.0928 Z M35.6110035,0.000505263158 C36.387986,0.000505263158 37.0206877,0.632645614 37.0206877,1.41018947 C37.0206877,2.18829474 36.387986,2.82099649 35.6110035,2.82099649 C35.2567579,2.82099649 34.9361965,2.68513684 34.6886175,2.46843509 C29.0195649,4.32106667 25.167214,9.51966316 25.1896702,15.4828912 C25.2110035,21.4000842 29.0908632,26.576786 34.7357754,28.4058386 C34.9771789,28.2127158 35.2786526,28.0931368 35.6110035,28.0931368 C36.387986,28.0931368 37.0206877,28.7258386 37.0206877,29.5028211 C37.0206877,30.2809263 36.387986,30.9136281 35.6110035,30.9136281 C35.0209684,30.9136281 34.5162667,30.5487158 34.3063018,30.0333474 C27.9242667,28.0072421 23.5301614,22.1697684 23.5053515,15.4890667 C23.4801965,8.72752281 27.8821614,2.84962807 34.3349333,0.819592982 C34.5589333,0.337347368 35.0451088,0.000505263158 35.6110035,0.000505263158 Z M18.7564912,5.61403508e-05 C19.5340351,5.61403508e-05 20.1667368,0.632757895 20.1667368,1.41086316 C20.1667368,1.85212632 19.9584561,2.24230175 19.6395789,2.50054737 L19.6395789,2.50054737 L19.7080702,20.8556351 C19.7170526,23.3892491 18.7284211,25.7774596 16.9246316,27.5795649 C15.1219649,29.379986 12.7242105,30.3770386 10.173193,30.3860211 L10.173193,30.3860211 L10.1361404,30.3860211 C7.59859649,30.3860211 5.20814035,29.4080561 3.40154386,27.6300912 C2.00364912,26.2546526 1.09136842,24.5283368 0.737684211,22.6521263 C0.300350877,22.412407 0,21.9531789 0,21.4209684 C0,20.6428632 0.632701754,20.0101614 1.41024561,20.0101614 C2.18778947,20.0101614 2.81992982,20.6428632 2.81992982,21.4209684 C2.81992982,21.8105825 2.66105263,22.1637053 2.40449123,22.4191439 C2.70596491,23.9287579 3.45319298,25.3176702 4.58273684,26.4298105 C6.07214035,27.8956351 8.04378947,28.7018105 10.1361404,28.7018105 L10.1361404,28.7018105 L10.1664561,28.7018105 C12.2705965,28.6945123 14.2478596,27.8726175 15.7338947,26.3882667 C17.2182456,24.9061614 18.0311579,22.9434947 18.0238596,20.8623719 L18.0238596,20.8623719 L17.9553684,2.5690386 C17.5887719,2.3136 17.3462456,1.89086316 17.3462456,1.41086316 C17.3462456,0.632757895 17.9789474,5.61403508e-05 18.7564912,5.61403508e-05 Z M39.1174737,6.20715789 C44.2694737,6.20715789 48.4698947,10.3222456 48.4896051,15.3967719 C48.5080702,20.4830877 44.3183158,24.6374737 39.1500351,24.6565614 L39.1500351,24.6565614 L39.1146667,24.6565614 C33.9621053,24.6571228 29.7611228,20.5414737 29.7425266,15.466386 C29.7330526,12.9990175 30.7014737,10.6770526 32.4687719,8.9277193 C34.2321404,7.18231579 36.5810526,6.21557895 39.0815439,6.20715789 L39.0815439,6.20715789 Z M71.1537965,17.2765754 C73.1119719,17.2765754 74.7086035,18.8552421 74.7159247,20.8016281 C74.7192702,21.7481544 74.3509895,22.6391018 73.6789895,23.3099789 C73.0092351,23.9786105 72.1166035,24.3496982 71.1672702,24.3525053 L71.1672702,24.3525053 L66.0090947,24.3721544 C65.542007,24.3721544 65.1653053,23.9971368 65.1636211,23.5334175 L65.1636211,23.5334175 L65.1433999,18.1411368 C65.1422877,17.9176982 65.2304281,17.7032421 65.3881825,17.5449263 C65.5453754,17.3860491 65.7592702,17.296786 65.9821474,17.2956632 L65.9821474,17.2956632 L71.1403228,17.2765754 Z M97.2769684,-4.54747351e-13 C102.823074,-4.54747351e-13 107.509109,3.71873684 108.261389,8.50301754 C108.678512,8.76182456 108.958653,9.21992982 108.958653,9.74652632 C108.958653,10.554386 108.300688,11.2129123 107.492267,11.2129123 C106.683846,11.2129123 106.025319,10.554386 106.025319,9.74652632 C106.025319,9.31592982 106.215074,8.93249123 106.510933,8.66357895 C105.836688,4.76968421 101.916968,1.75214035 97.2769684,1.75214035 L97.2769684,1.75214035 L97.2382316,1.75214035 C92.0794947,1.77122807 87.8953544,5.42540351 87.9121965,9.89642105 C87.9200561,12.0370526 88.8873544,14.0558596 90.6355649,15.5789474 C92.406793,17.122807 94.7562667,17.9716491 97.2567579,17.9716491 L97.2567579,17.9716491 L97.3173895,17.9716491 C98.3425123,17.9716491 99.3378807,18.2607719 100.123846,18.7856842 C101.007495,19.3774035 101.516126,20.2133333 101.518933,21.0801404 C101.525109,22.7727719 99.6028632,24.2105263 97.3207579,24.2195088 L97.3207579,24.2195088 L97.3005474,24.2195088 C95.8869333,24.2195088 94.5867228,23.6620351 93.8187228,22.8210526 C93.0636351,22.7609825 92.4663018,22.1350175 92.4663018,21.3658947 C92.4663018,20.5569123 93.1237053,19.8989474 93.9326877,19.8989474 C94.7411088,19.8989474 95.3990737,20.5569123 95.3990737,21.3658947 C95.3990737,21.5309474 95.3659509,21.6864561 95.3154246,21.8346667 C95.7623018,22.1917193 96.4876351,22.4679298 97.3005474,22.4679298 L97.3005474,22.4679298 L97.3140211,22.4679298 C98.7405474,22.4617544 99.7696,21.6387368 99.7673544,21.0868772 C99.7662316,20.8162807 99.5354947,20.4996491 99.1498105,20.2419649 C98.6529684,19.909614 97.9770386,19.6979649 97.3039158,19.7232281 L97.2561965,19.7232281 C94.332407,19.7232281 91.574793,18.7216842 89.4841263,16.8999298 C87.350793,15.04 86.1701614,12.5546667 86.1605561,9.90315789 C86.140407,4.46540351 91.1071439,0.0230175439 97.2309333,-4.54747351e-13 L97.2309333,-4.54747351e-13 Z M12.0239158,0.000168421052 C12.8014596,0.000168421052 13.4341614,0.632870175 13.4341614,1.41097544 C13.4341614,1.87020351 13.2096,2.27553684 12.8682667,2.53322105 L12.8682667,2.53322105 L12.9361965,20.8810105 C12.9418105,22.4142035 11.6915649,23.6666947 10.1488281,23.6728702 L10.1488281,23.6728702 L10.1387228,23.6728702 C8.85030175,23.6728702 7.77184561,22.7987649 7.44791579,21.6175719 C7.04314386,21.3694316 6.77030175,20.9270456 6.77030175,20.418414 C6.77030175,19.6408702 7.40300351,19.0081684 8.18054737,19.0081684 C8.95752982,19.0081684 9.59023158,19.6408702 9.59023158,20.418414 C9.59023158,20.8108351 9.42854737,21.1656421 9.16861754,21.4216421 C9.35893333,21.7584842 9.71991579,21.9886596 10.1381614,21.9886596 L10.1381614,21.9886596 C10.7562667,21.9858526 11.2542316,21.4918175 11.251986,20.887186 L11.251986,20.887186 L11.1840561,2.53658947 C10.8399158,2.27946667 10.6142316,1.87244912 10.6142316,1.41097544 C10.6142316,0.632870175 11.2469333,0.000168421052 12.0239158,0.000168421052 Z M39.1174737,7.89136842 L39.0877193,7.89136842 C37.0307368,7.89866667 35.101193,8.69136842 33.6538947,10.1246316 C32.2105263,11.5539649 31.4189474,13.4487018 31.426749,15.4596491 C31.4419649,19.6078596 34.8884211,22.9723509 39.1146667,22.9723509 L39.1146667,22.9723509 L39.1432982,22.9723509 C43.3835789,22.9566316 46.8204912,19.5612632 46.8053833,15.4029474 C46.7890526,11.2552982 43.3437193,7.89136842 39.1174737,7.89136842 L39.1174737,7.89136842 Z M71.1532351,18.960786 L71.1464982,18.960786 L66.8309895,18.9765053 L66.8444632,22.6845754 L71.1605333,22.6682947 C71.6635509,22.6671719 72.1351298,22.4712421 72.488814,22.1181193 C72.840814,21.7666807 73.0333754,21.3018386 73.0317022,20.8083649 C73.0277614,19.7882947 72.1862175,18.960786 71.1532351,18.960786 L71.1532351,18.960786 Z M70.4287439,6.11155088 C72.4834807,6.11155088 73.9779368,7.45667368 73.9846737,9.31660351 L73.9846737,9.31660351 L73.9858194,9.63604211 C73.9891649,10.5831298 73.6214456,11.4740772 72.950007,12.144393 C72.2796912,12.813586 71.3881825,13.1846737 70.4377263,13.1874807 L70.4377263,13.1874807 L65.9672702,13.2043228 C65.7421474,13.2043228 65.528814,13.1167439 65.3710596,12.9595509 C65.2127439,12.8023579 65.1229193,12.5884632 65.1217965,12.365586 L65.1217965,12.365586 L65.1021417,6.97330526 C65.1004632,6.50790175 65.4760421,6.12951579 65.9408842,6.12783158 L65.9408842,6.12783158 L70.4107789,6.11155088 Z M70.4175158,7.7957614 L66.7897263,7.80867368 L66.8032,11.5167439 L70.4309895,11.5032702 C70.9345684,11.5021474 71.4061474,11.3062175 71.7598316,10.9530947 C72.1112702,10.6016561 72.3032702,10.136814 72.301597,9.64277895 L72.301597,9.64277895 L72.3004632,9.32277895 C72.2965333,8.19098947 71.2787088,7.79127018 70.4175158,7.7957614 L70.4175158,7.7957614 Z" id="JOBS"></path>
                </g>
            </g>
        </g>
    </g>
</svg>