<?xml version="1.0" encoding="UTF-8"?>
<svg width="305px" height="736px" viewBox="0 0 305 736" version="1.1" xmlns="http://www.w3.org/2000/svg" xmlns:xlink="http://www.w3.org/1999/xlink">
    <!-- Generator: Sketch 48.1 (47250) - http://www.bohemiancoding.com/sketch -->
    <title>Page 1</title>
    <desc>Created with Sketch.</desc>
    <defs>
        <polygon id="path-1" points="0 735 305 735 305 0 0 0"></polygon>
    </defs>
    <g id="Desktop-1366" stroke="none" stroke-width="1" fill="none" fill-rule="evenodd" transform="translate(-901.000000, -24.000000)">
        <g id="Page-1" transform="translate(901.000000, 24.000000)">
            <path d="M17,736 C17,736 37.5432596,219 161.988138,219 C263.822337,219 296,736 296,736 C296,736 177.86592,735.534443 17,736" id="Fill-1" fill="#79717E"></path>
            <mask id="mask-2" fill="white">
                <use xlink:href="#path-1"></use>
            </mask>
            <g id="Clip-4"></g>
            <polygon id="Fill-3" fill="#252525" mask="url(#mask-2)" points="18 690 293 690 293 672 18 672"></polygon>
            <path d="M200.987001,529.018151 C189.478277,543.550106 179.03913,537.353011 177.862767,529.018151 C176.688126,520.659077 191.193735,497.143668 192.759348,489.17375 C194.321517,481.205562 188.055618,475.504857 188.055618,475.504857 C188.055618,475.504857 191.193735,469.058702 197.073828,470.959513 C202.950477,472.848218 212.497448,514.461981 200.987001,529.018151 M213.920107,498.655324 C213.920107,498.655324 202.163364,473.602316 202.950477,466.780841 C202.950477,466.780841 202.881583,466.685714 202.740351,466.49719 C201.300468,464.653454 193.038369,454.435079 186.210984,453.158647 C185.952632,453.1033 185.697724,453.058331 185.446262,453.025469 C182.16519,452.743547 179.297482,454.76197 177.804207,461.090514 C173.679185,478.585244 158.594868,481.54802 153.610395,482.04441 C153.481219,482.056517 153.364099,482.066894 153.245257,482.079002 L153.222867,482.079002 C153.023074,482.103216 152.847395,482.115323 152.706162,482.12743 L152.635546,482.12743 C152.223905,482.149914 152,482.149914 152,482.149914 L152,576.830739 C152,576.830739 152.234239,576.865331 152.669993,576.924137 C152.859451,576.948351 153.081634,576.982943 153.339986,577.007157 C158.594868,577.704179 177.862767,579.769301 185.117293,574.552879 C187.421794,572.88729 190.711477,568.295248 194.275014,562.001296 C194.285348,561.978811 194.285348,561.966704 194.285348,561.966704 C203.773759,545.179373 215.060301,516.29188 213.920107,498.655324" id="Fill-5" fill="#4F5261" mask="url(#mask-2)"></path>
            <path d="M242.439912,201.177219 C242.439912,201.177219 218.96542,172.528506 237.022059,134.879003 C237.022059,134.879003 237.984736,133.718497 239.536384,131.610358 C239.536384,131.610358 224.37294,125.059334 214.183037,114.137528 C205.541337,104.868928 200.571241,98.0621116 197.349117,90.9136673 C195.292881,90.0587381 188.156333,88.0536029 179.683403,86.4141302 C170.831603,84.7162889 160.522872,83.4150111 152.964398,84.2699403 C152.787018,84.2819574 152.623415,84.3042748 152.446034,84.3300257 L152.411591,121.989829 C152.411591,121.989829 152.58725,122.317724 152.940289,122.915144 C152.964398,122.961496 152.988508,123.019865 153.022951,123.07995 C153.188277,123.371793 153.386323,123.711705 153.610201,124.122002 C157.94655,131.727095 173.077273,157.869389 184.173022,171.66156 C186.864727,175.012608 189.320499,177.637481 191.330237,179.089831 C199.029925,184.655454 215.557304,196.782402 226.031361,204.481915 C226.043416,204.493932 226.053749,204.504233 226.065804,204.504233 C227.805165,205.771176 229.368869,206.919665 230.698361,207.903349 C230.708694,207.915366 230.720749,207.927383 230.732804,207.927383 C231.485379,208.476735 232.153569,208.969435 232.742541,209.403767 C233.061137,209.637241 233.341846,209.848399 233.600167,210.035522 C233.848155,210.212344 234.059978,210.365133 234.247692,210.516205 C234.366519,210.598608 234.469848,210.68101 234.564565,210.739379 C234.728169,210.856116 234.859051,210.962553 234.976157,211.043239 C235.21209,211.220062 235.341251,211.312765 235.341251,211.312765 C235.365361,211.324782 235.375693,211.336799 235.375693,211.336799 C235.375693,211.336799 208.716964,223.089501 203.226781,236.41129 C203.095898,236.728884 202.956405,237.080813 202.81519,237.467076 C202.768692,237.59583 202.722194,237.724585 202.673974,237.865356 C202.532759,238.28767 202.379488,238.744319 202.215885,239.235303 C202.074669,239.669634 201.933454,240.150317 201.76985,240.643018 C201.192933,242.539999 200.559186,244.848995 199.865163,247.485885 L199.853108,247.485885 C199.794556,247.731376 199.723948,247.990602 199.665395,248.236094 L199.665395,248.246394 C199.465627,249.020637 199.253804,249.829215 199.04198,250.64981 L199.04198,250.661827 C191.683276,279.475345 179.9865,337.255169 179.9865,337.255169 C179.9865,337.255169 164.564735,419.992747 153.610201,437.934243 C153.386323,438.296472 153.164167,438.636384 152.940289,438.952261 C152.893791,439.012347 152.857626,439.068999 152.823183,439.129084 C152.63547,439.374576 152.458089,439.59775 152.270376,439.807191 C152.199768,439.90161 152.118828,439.984013 152.046498,440.066416 L152,482.869529 L152,483 C152.012055,483 152.129161,483 152.363372,482.987983 L152.387482,482.987983 C152.528697,482.987983 152.71641,482.975966 152.928234,482.951932 L152.952344,482.951932 C153.210665,482.939915 153.527538,482.90558 153.880577,482.869529 C159.122772,482.296143 173.745464,479.178569 177.823492,462.117753 C179.364807,455.685183 182.326888,453.75215 185.712616,454.150431 C185.964048,454.172748 186.220647,454.23455 186.477246,454.282619 C193.937557,455.899774 202.956405,467.801831 202.956405,467.801831 C202.96846,467.719428 202.980515,467.626725 203.004625,467.520288 C204.34445,459.856826 227.335021,415.716384 229.663354,406.049504 C229.663354,406.049504 245.365828,391.01614 248.50529,380.468579 C249.728009,376.367323 249.657402,366.503019 249.24581,354.971775 C248.612063,336.796804 247.131022,314.522292 248.587953,304.374729 C250.928341,288.098456 249.681512,259.425709 249.635014,258.46606 L249.635014,258.442026 C249.635014,258.442026 249.622959,258.47636 249.598849,258.558763 C249.586794,258.581081 249.576461,258.605115 249.564406,258.641166 C249.540296,258.699535 249.505853,258.781937 249.481743,258.874641 C249.457633,258.945026 249.423191,259.015412 249.387026,259.097815 C249.340528,259.250603 249.26992,259.425709 249.187257,259.614549 C249.14076,259.741587 249.080485,259.860041 249.021932,260.000812 C248.939269,260.22227 248.834219,260.457461 248.717113,260.702953 C248.705058,260.726987 248.705058,260.739004 248.694725,260.751021 C248.446737,261.290073 248.164306,261.875477 247.835377,262.496931 C247.3549,263.398212 246.788316,264.347561 246.154569,265.20249 C245.837695,265.648839 245.494989,266.069437 245.131617,266.445399 C245.121285,266.445399 245.121285,266.4557 245.10923,266.479734 C244.027726,267.616206 242.805006,268.402466 241.475514,268.402466 C236.774071,268.402466 226.501505,258.793955 226.501505,258.793955 C226.501505,258.793955 226.511838,258.781937 226.53767,258.747603 C226.616889,258.594814 226.911375,258.054046 227.383241,257.247185 C227.395296,257.235168 227.407351,257.223151 227.407351,257.211134 C227.465904,257.106414 227.536511,256.989676 227.607119,256.871222 C228.299419,255.688398 229.286206,254.000857 230.474483,252.055808 C230.815466,251.504739 231.154728,250.929636 231.531877,250.344232 C231.943468,249.688443 232.365392,248.996603 232.813149,248.294462 C233.09558,247.860131 233.364234,247.427516 233.65872,246.982884 C233.65872,246.970867 233.670775,246.970867 233.670775,246.95885 C233.953206,246.514218 234.247692,246.06787 234.540455,245.623238 C234.988212,244.931397 235.456634,244.229257 235.9285,243.537417 C240.759103,236.437041 246.319894,229.417351 249.752119,228.866282 C255.616007,227.92895 258.214716,230.201894 259.354773,232.850801 C259.461546,233.084276 259.544208,233.319467 259.614816,233.552942 C259.731922,233.892854 259.814584,234.232765 259.88347,234.56066 C259.942023,234.818169 259.98852,235.077394 260.024685,235.333186 C260.200344,236.588112 260.153846,237.736602 260.095293,238.440459 C260.083238,238.521145 260.083238,238.591531 260.071183,238.661917 C260.059128,238.897108 260.03674,239.049896 260.024685,239.120282 C260.460387,238.018145 260.847868,236.952058 261.164742,235.932323 C261.683106,234.208731 261.99998,232.639644 261.99998,231.326349 C262.012035,223.043149 256.535629,206.473317 242.439912,201.177219" id="Fill-6" fill="#A9A8AE" mask="url(#mask-2)"></path>
            <path d="M246.292085,70.1820711 C240.807762,91.6678521 231.136097,113.903177 231.136097,113.903177 C231.136097,113.903177 231.101831,113.879109 231.019591,113.832692 C229.604393,112.986877 215.197123,103.835908 217.630031,84.4629467 C220.167451,64.1977533 236.820877,42.0793297 235.064729,26.6242831 C235.052736,26.5537985 235.052736,26.485033 235.042456,26.4145484 C237.756348,28.6769334 251.788401,48.6722221 246.292085,70.1820711 M261.506326,63.4000735 C256.864955,28.6906865 247.542805,4.55227622 228.833401,0 C228.833401,0 217.887029,27.8912875 212.424979,34.6750043 C206.952649,41.4570019 194.46258,58.7996614 197.549974,90.4816472 C197.549974,90.4816472 197.363223,90.4128817 197,90.2461254 C200.205613,97.4046141 205.150242,104.222714 213.747658,113.504337 C223.885346,124.44149 238.972802,131 238.972802,131 C246.023095,121.33157 265.318453,91.8672721 261.506326,63.4000735" id="Fill-7" fill="#79717E" mask="url(#mask-2)"></path>
            <path d="M236,210.244037 C236,210.244037 209.052989,222.026646 203.515217,235.345371 C197.963513,248.652081 180.134671,336.200384 180.134671,336.200384 C180.134671,336.200384 163.101667,427.13844 152,439 L152,247.409458 C152,247.409458 170.030848,220.409863 170.624679,205.160266 C171.22025,189.908954 152,173.530011 152,173.530011 L152,121 C152,121 179.539099,169.575586 191.426155,178.04911 C203.311469,186.520917 236,210.244037 236,210.244037" id="Fill-8" fill="#B6B4C1" mask="url(#mask-2)"></path>
            <path d="M169.986904,205.253734 C169.413408,220.321803 152,247 152,247 L152,174 C152,174 170.562081,190.18397 169.986904,205.253734" id="Fill-9" fill="#B6B4C1" mask="url(#mask-2)"></path>
            <path d="M242.857893,239.455314 C244.848975,241.10051 248.900261,244.09891 250.726122,243.923088 L250.731179,243.921518 C250.810418,243.915238 250.835707,243.89797 250.835707,243.89797 C250.989126,243.675052 250.515381,242.370513 248.930608,240.978062 C248.133164,240.277912 245.477826,238.240256 242.857893,239.455314 M250.596305,245 C247.622327,245 242.141374,240.312448 241.510836,239.763003 L241,239.320308 L241.564786,238.937266 C243.559239,237.59191 246.000464,237.69709 248.438317,239.238676 C250.646883,240.634266 252.290663,242.926237 251.956849,244.142866 C251.823661,244.626377 251.419038,244.934067 250.845823,244.987441 C250.763212,244.99686 250.682287,245 250.596305,245" id="Fill-10" fill="#353535" mask="url(#mask-2)"></path>
            <path d="M242.857893,239.455314 C244.848975,241.10051 248.900261,244.09891 250.726122,243.923088 L250.731179,243.921518 C250.810418,243.915238 250.835707,243.89797 250.835707,243.89797 C250.989126,243.675052 250.515381,242.370513 248.930608,240.978062 C248.133164,240.277912 245.477826,238.240256 242.857893,239.455314 M250.596305,245 C247.622327,245 242.141374,240.312448 241.510836,239.763003 L241,239.320308 L241.564786,238.937266 C243.559239,237.59191 246.000464,237.69709 248.438317,239.238676 C250.646883,240.634266 252.290663,242.926237 251.956849,244.142866 C251.823661,244.626377 251.419038,244.934067 250.845823,244.987441 C250.763212,244.99686 250.682287,245 250.596305,245" id="Fill-11" fill="#353535" mask="url(#mask-2)"></path>
            <path d="M258.879729,238.516147 C258.867897,238.538597 258.867897,238.550685 258.867897,238.550685 L258.834093,238.607674 L256.133132,243.778099 C256.133132,243.778099 250.792056,232.378642 244.504461,236.925646 C243.397371,237.732121 242.20915,238.947879 241.031071,240.38123 C235.990854,246.484196 230.90162,256.633356 230.90162,256.633356 C230.90162,256.633356 243.973733,265.159202 249.695107,256.066923 L248.726615,257.930279 L248.702952,257.964818 C248.702952,257.964818 245.322524,268 240.70824,268 C236.095647,268 226,258.339561 226,258.339561 C226,258.339561 241.803499,229.366879 248.784082,228.218471 C260.517546,226.286038 258.984522,237.78911 258.879729,238.516147" id="Fill-12" fill="#635054" mask="url(#mask-2)"></path>
            <path d="M202.515413,527.415616 C190.844454,541.705945 180.259735,535.619166 179.068714,527.415616 C177.875946,519.201864 192.585581,496.082304 194.17128,488.249401 C195.75698,480.414798 189.401957,474.819381 189.401957,474.819381 C189.401957,474.819381 192.585581,468.475869 198.545925,470.344408 C204.50627,472.201046 214.184626,513.113384 202.515413,527.415616" id="Fill-13" fill="#171314" mask="url(#mask-2)"></path>
            <path d="M257,242.793005 C257,242.793005 257,242.804892 256.988277,242.826969 L250.656217,254.821583 C250.644494,254.841961 250.632771,254.853849 250.621048,254.875926 C244.95217,263.817118 232,255.434644 232,255.434644 C232,255.434644 237.042538,245.454134 242.036509,239.450884 C242.036509,239.450884 248.152532,245.240157 250.862205,244.951458 C253.570204,244.681439 247.065648,235.752135 242.036509,239.450884 C243.203778,238.04305 244.381096,236.847494 245.478028,236.052722 C251.707931,231.582975 257,242.793005 257,242.793005" id="Fill-14" fill="#100D14" mask="url(#mask-2)"></path>
            <path d="M194,561 C194,561 191.897605,575.206237 184.892473,582.469759 C177.873656,589.745486 152,588.976592 152,588.976592 L152,575.975131 C152,575.975131 176.518817,579.796936 184.892473,573.678909 C187.181329,572.005126 190.462366,567.369095 194,561" id="Fill-15" fill="#130F10" mask="url(#mask-2)"></path>
            <path d="M247.716003,69.5059827 C242.104262,90.8812111 232.192182,113 232.192182,113 C232.192182,113 215.672048,104.000354 218.279008,83.7498674 C220.873646,63.4976718 238.103168,41.3788828 236.09646,26 C238.89529,28.2511936 253.327743,48.1307543 247.716003,69.5059827" id="Fill-16" fill="#353034" mask="url(#mask-2)"></path>
            <path d="M128.137233,529.018151 C126.959148,537.353011 116.521723,543.550106 105.011277,529.018151 C93.5042744,514.461981 103.049523,472.848218 108.927894,470.959513 C114.804543,469.058702 117.944382,475.504857 117.944382,475.504857 C117.944382,475.504857 111.67676,481.205562 113.242374,489.17375 C114.804543,497.143668 129.311874,520.659077 128.137233,529.018151 M153.364454,482.12743 L153.293838,482.12743 C153.152605,482.115323 152.976926,482.103216 152.777133,482.079002 L152.753021,482.079002 C152.635901,482.066894 152.517059,482.056517 152.389605,482.04441 C147.405132,481.54802 132.322537,478.585244 128.194071,461.090514 C126.702518,454.76197 123.833088,452.743547 120.553738,453.025469 C120.300553,453.058331 120.045646,453.1033 119.789016,453.158647 C112.959909,454.435079 104.699532,464.653454 103.261372,466.49719 L103.049523,466.780841 C103.836636,473.602316 92.0798932,498.655324 92.0798932,498.655324 C90.9396993,516.29188 102.226241,545.179373 111.71293,561.966704 C111.724986,561.978811 111.724986,561.990918 111.724986,562.001296 C115.2868,568.295248 118.578206,572.88729 120.882707,574.552879 C128.137233,579.769301 147.405132,577.704179 152.658291,577.007157 C152.918366,576.982943 153.142271,576.948351 153.330007,576.924137 C153.764038,576.865331 154,576.830739 154,576.830739 L154,482.149914 C154,482.149914 153.776095,482.149914 153.364454,482.12743" id="Fill-17" fill="#4F5261" mask="url(#mask-2)"></path>
            <path d="M154.953502,440.066426 C154.882894,439.984023 154.800232,439.901621 154.729624,439.808918 C154.541911,439.59776 154.366252,439.374586 154.178539,439.129094 C154.142374,439.069009 154.107931,439.012357 154.059711,438.953989 C153.837555,438.636394 153.613677,438.296483 153.389799,437.934254 C142.433543,419.994478 127.011778,337.255204 127.011778,337.255204 C127.011778,337.255204 117.292019,289.224674 110.003922,258.910745 C109.297845,255.982012 108.617599,253.204351 107.95802,250.661882 L107.95802,250.649865 C107.746196,249.82927 107.54815,249.020693 107.336327,248.248167 C106.571697,245.293683 105.853564,242.728896 105.231872,240.643075 C105.066546,240.150375 104.925331,239.671409 104.784115,239.237077 C104.61879,238.744377 104.467241,238.287728 104.326026,237.865414 C104.279528,237.724643 104.23303,237.597605 104.186533,237.467134 C104.043595,237.080871 103.90238,236.728942 103.773219,236.413065 C98.2847583,223.089563 71.6243066,211.336864 71.6243066,211.336864 C71.6243066,211.336864 71.6363616,211.324847 71.6604716,211.314546 L71.6725265,211.314546 C71.6949144,211.290512 71.813742,211.196092 72.0255653,211.043304 C72.1426708,210.962618 72.2701092,210.856181 72.4354346,210.739444 C72.5301523,210.681075 72.6352029,210.598672 72.7540306,210.516269 C72.9417438,210.365198 73.1535671,210.212409 73.3998331,210.035586 C73.6581541,209.848463 73.9405851,209.637306 74.2591811,209.403832 C74.8447087,208.9695 75.5146212,208.478517 76.2689186,207.927448 C76.2792515,207.927448 76.2913064,207.915431 76.3033614,207.903414 C77.6328536,206.919731 79.1948347,205.771242 80.9359184,204.506015 C80.9462513,204.506015 80.9583062,204.493998 80.9703612,204.481981 C91.4426955,196.784187 107.970075,184.655525 115.668041,179.089903 C118.490629,177.050434 122.205285,172.691669 126.214427,167.244501 C136.803867,152.889247 149.475374,130.97697 153.389799,124.122087 C153.613677,123.71179 153.813445,123.371879 153.978771,123.080035 C154.013214,123.01995 154.037324,122.961581 154.059711,122.91523 C154.414472,122.317809 154.588409,121.989915 154.588409,121.989915 L154.553966,84.3301203 C154.400695,84.3060861 154.237092,84.282052 154.083821,84.2700349 C146.549458,83.3327031 134.864737,84.9859092 125.284472,86.9189415 C117.738054,88.4416765 111.497018,90.1532512 109.650883,90.9137604 C106.430481,98.062203 101.458663,104.870734 92.8186855,114.139332 C82.6270601,125.059419 67.463616,131.610442 67.463616,131.610442 C69.0152643,133.71858 69.9796628,134.879086 69.9796628,134.879086 C88.0345801,172.52858 64.5600877,201.177286 64.5600877,201.177286 C50.4660927,206.475099 44.9879649,223.043211 45.0000198,231.328126 C45.0000198,232.639703 45.3186158,234.20879 45.8352578,235.932382 C46.1521316,236.940099 46.5275582,237.983868 46.9512046,239.072272 C46.9632596,239.084289 46.9632596,239.106606 46.9753146,239.12034 C46.9753146,239.106606 46.9753146,239.084289 46.9632596,239.061971 C46.9512046,238.979569 46.9391497,238.838797 46.9270947,238.663691 C46.9167618,238.593306 46.9167618,238.52292 46.9047069,238.440517 C46.8461541,237.73666 46.7979342,236.588171 46.9753146,235.334962 C47.0097574,235.077453 47.0579773,234.818227 47.1165301,234.560719 C47.1871378,234.234541 47.2698006,233.892913 47.3869061,233.554718 C47.4575138,233.319527 47.5401766,233.086052 47.6452271,232.850861 C48.7852839,230.201954 51.3822713,227.92901 57.2496028,228.866342 C60.6818281,229.417411 66.2408965,236.437099 71.0732218,243.537473 C71.5416439,244.229313 72.0135103,244.931454 72.4595446,245.623294 C72.7540306,246.079943 73.0364615,246.524575 73.3292254,246.958906 C73.3292254,246.970923 73.3395582,246.970923 73.3395582,246.98294 C73.6219892,247.427572 73.9044202,247.861903 74.1885733,248.294518 C74.6328855,248.998375 75.0565319,249.690215 75.4698456,250.344288 C75.8332172,250.931408 76.1862559,251.504794 76.5255175,252.055862 C77.7137942,254.000912 78.7023026,255.688452 79.394603,256.872993 C79.4652107,256.98973 79.5358185,257.106467 79.5943712,257.211187 C79.5943712,257.223204 79.6064262,257.235222 79.6184812,257.247239 C80.0869033,258.055816 80.3813893,258.594868 80.464052,258.747656 C80.488162,258.781991 80.500217,258.794008 80.500217,258.794008 C80.500217,258.794008 70.2259288,268.402517 65.5244862,268.402517 C64.1967161,268.402517 62.9739966,267.616257 61.8924926,266.479785 C61.8804376,266.457468 61.8804376,266.445451 61.8683826,266.445451 C61.5032889,266.069488 61.1623052,265.64889 60.8454314,265.202542 C60.2099617,264.347613 59.6468219,263.398264 59.1646226,262.496983 C58.8356938,261.875529 58.5532629,261.290126 58.3069968,260.751074 C58.2949418,260.739057 58.2949418,260.72704 58.2828869,260.704723 C58.1778363,260.457514 58.0710636,260.222323 57.9763459,260.000865 C57.9177931,259.860094 57.8609625,259.74164 57.8127426,259.614602 C57.743857,259.425763 57.6715271,259.250657 57.6146965,259.097868 C57.5785315,259.017182 57.5440887,258.946796 57.5199788,258.876411 C57.4838138,258.781991 57.461426,258.711605 57.437316,258.641219 C57.4252611,258.605168 57.4132061,258.582851 57.4011511,258.558816 C57.3787633,258.47813 57.3667083,258.442079 57.3667083,258.442079 L57.3667083,258.466113 C57.3202105,259.403445 56.073381,288.088202 58.4120474,304.374771 C60.7868786,320.956617 55.3449157,369.912462 58.4947101,380.47032 C60.6112203,387.570695 68.4039045,396.698521 73.2827276,401.901914 C75.6558367,404.444384 77.3383676,406.049522 77.3383676,406.049522 C79.664979,415.7164 102.657272,459.856831 103.997097,467.520291 C104.021207,467.626728 104.033262,467.719431 104.043595,467.801834 C104.043595,467.801834 113.062443,455.89978 120.524476,454.282625 C120.779353,454.234557 121.037674,454.172755 121.287384,454.150438 C124.673112,453.752157 127.636915,455.686906 129.174786,462.119475 C133.254536,479.180287 147.877228,482.29786 153.121145,482.871246 C153.472462,482.90558 153.789335,482.941631 154.049379,482.951932 L154.071766,482.951932 C154.28359,482.975966 154.471303,482.987983 154.612518,482.987983 L154.634906,482.987983 C154.870839,483 154.989667,483 155,483 L155,482.871246 L154.953502,440.066426 Z" id="Fill-18" fill="#A9A8AE" mask="url(#mask-2)"></path>
            <path d="M74.864584,113.903177 C74.864584,113.903177 65.191398,91.666133 59.7071847,70.1820711 C54.2109784,48.6722221 68.2461785,28.6769334 70.9583028,26.4128292 C70.9463098,26.4833139 70.9463098,26.5537985 70.9343168,26.6242831 C69.1816301,42.0793297 85.8330107,64.1960342 88.3703803,84.4629467 C90.8032397,103.835908 76.3962575,112.986877 74.9810872,113.832692 C74.9005629,113.879109 74.864584,113.903177 74.864584,113.903177 M108.450037,90.4816472 C111.53737,58.7996614 99.0475491,41.4570019 93.5753288,34.6750043 C88.1133881,27.8912875 77.1689473,0 77.1689473,0 C58.4564893,4.55227622 49.1362393,28.6906865 44.493247,63.4000735 C40.6829095,91.8672721 59.9778831,121.33157 67.0297488,131 C67.0297488,131 82.1134771,124.439771 92.2526756,113.504337 C100.848208,104.222714 105.796164,97.4046141 109,90.2461254 C108.636784,90.4111626 108.450037,90.4816472 108.450037,90.4816472" id="Fill-19" fill="#79717E" mask="url(#mask-2)"></path>
            <path d="M71,210.244037 C71,210.244037 97.9464519,222.026646 103.48411,235.345371 C109.035699,248.652081 126.865912,336.200384 126.865912,336.200384 C126.865912,336.200384 143.896822,427.13844 155,439 L155,247.409458 C155,247.409458 136.969525,220.409863 136.373966,205.160266 C135.780148,189.908954 155,173.530011 155,173.530011 L155,121 C155,121 127.45973,169.575586 115.574663,178.04911 C103.687854,186.520917 71,210.244037 71,210.244037" id="Fill-20" fill="#B6B4C1" mask="url(#mask-2)"></path>
            <path d="M135.013019,205.253734 C135.588145,220.321803 153,247 153,247 L153,174 C153,174 134.439575,190.18397 135.013019,205.253734" id="Fill-21" fill="#B6B4C1" mask="url(#mask-2)"></path>
            <path d="M61.4185389,239.076184 C59.4372693,239.076184 57.6903796,240.434281 57.0698628,240.97909 C55.484847,242.371729 55.0110285,243.676444 55.1661577,243.902532 L55.2723875,243.922943 C56.9282231,244.081518 60.7524951,241.440686 63.1435082,239.456137 C62.5634599,239.186088 61.9817254,239.076184 61.4185389,239.076184 M55.4039101,245 C55.3196007,245 55.2369776,244.99686 55.1560406,244.98901 C54.5793647,244.935628 54.1746798,244.629467 54.0431572,244.14432 C53.7092922,242.927528 55.3533245,240.635248 57.5622294,239.23947 C60.0004557,237.697676 62.4403682,237.590912 64.4351274,238.938019 L65,239.319543 L64.4907715,239.762298 C63.8584514,240.313387 58.3783438,245 55.4039101,245" id="Fill-22" fill="#353535" mask="url(#mask-2)"></path>
            <path d="M61.4185389,239.076184 C59.4372693,239.076184 57.6903796,240.434281 57.0698628,240.97909 C55.484847,242.371729 55.0110285,243.676444 55.1661577,243.902532 L55.2723875,243.922943 C56.9282231,244.081518 60.7524951,241.440686 63.1435082,239.456137 C62.5634599,239.186088 61.9817254,239.076184 61.4185389,239.076184 M55.4039101,245 C55.3196007,245 55.2369776,244.99686 55.1560406,244.98901 C54.5793647,244.935628 54.1746798,244.629467 54.0431572,244.14432 C53.7092922,242.927528 55.3533245,240.635248 57.5622294,239.23947 C60.0004557,237.697676 62.4403682,237.590912 64.4351274,238.938019 L65,239.319543 L64.4907715,239.762298 C63.8584514,240.313387 58.3783438,245 55.4039101,245" id="Fill-23" fill="#353535" mask="url(#mask-2)"></path>
            <path d="M46.1204964,238.516147 C46.1323285,238.538597 46.1323285,238.550685 46.1323285,238.550685 L46.1661342,238.607674 L48.8655259,243.778099 C48.8655259,243.778099 54.2068395,232.378642 60.4947149,236.925646 C61.6018543,237.732121 62.7901275,238.947879 63.968259,240.38123 C69.0103914,246.484196 74.0981616,256.633356 74.0981616,256.633356 C74.0981616,256.633356 61.0254657,265.159202 55.3038371,256.066923 L56.2723728,257.930279 L56.2960368,257.964818 C56.2960368,257.964818 59.676615,268 64.2911043,268 C68.9055935,268 79,258.339561 79,258.339561 C79,258.339561 63.1957969,229.366879 56.2149029,228.218471 C44.480916,226.286038 46.0156985,237.78911 46.1204964,238.516147" id="Fill-24" fill="#635054" mask="url(#mask-2)"></path>
            <path d="M104.485635,527.415616 C116.154421,541.705945 126.738753,535.619166 127.931477,527.415616 C129.122455,519.201864 114.415104,496.082304 112.827716,488.249401 C111.243821,480.414798 117.596866,474.819381 117.596866,474.819381 C117.596866,474.819381 114.415104,468.475869 108.453231,470.344408 C102.493105,472.201046 92.8151026,513.113384 104.485635,527.415616" id="Fill-25" fill="#171314" mask="url(#mask-2)"></path>
            <path d="M48,242.793005 C48,242.793005 48,242.804892 48.0117229,242.826969 L54.3437835,254.821583 C54.3555064,254.841961 54.3672294,254.853849 54.3789523,254.875926 C60.0478296,263.817118 73,255.434644 73,255.434644 C73,255.434644 67.9591372,245.454134 62.9634914,239.450884 C62.9634914,239.450884 56.8474678,245.240157 54.1377947,244.951458 C51.4297964,244.681439 57.9343516,235.752135 62.9634914,239.450884 C61.7962219,238.04305 60.6189041,236.847494 59.5219721,236.052722 C53.2920686,231.582975 48,242.793005 48,242.793005" id="Fill-26" fill="#100D14" mask="url(#mask-2)"></path>
            <path d="M111,561 C111,561 113.102395,575.206237 120.105816,582.469759 C127.124633,589.745486 153,588.976592 153,588.976592 L153,575.975131 C153,575.975131 128.479472,579.796936 120.105816,573.678909 C117.81696,572.005126 114.535924,567.369095 111,561" id="Fill-27" fill="#130F10" mask="url(#mask-2)"></path>
            <path d="M59.2841284,69.5059827 C64.8959121,90.8812111 74.806308,113 74.806308,113 C74.806308,113 91.3265683,104.000354 88.7213488,83.7498674 C86.1249307,63.4976718 68.8952762,41.3788828 70.9019993,26 C68.1031486,28.2511936 53.6723448,48.1307543 59.2841284,69.5059827" id="Fill-28" fill="#353034" mask="url(#mask-2)"></path>
            <path d="M112.386009,170.069333 C110.661362,162.326426 113.116849,154.120356 119.098471,147.630914 C113.560818,159.929689 120.169118,173.218495 126.693748,185.248669 C123.92236,178.421756 126.651059,170.537661 133.520618,165.525519 C130.259157,173.619673 135.692648,182.046133 140.164778,189.818311 C145.929538,199.844317 150.28043,210.312825 153.128658,221 C163.505569,203.317176 174.114709,184.456644 170.224861,165.404993 C176.66582,173.006714 178.834436,182.512739 176.12452,191.249121 C191.745382,173.671326 200.641828,151.065893 190.290531,131.48393 C194.554336,138.749901 197.274497,146.506583 198.319531,154.387234 C208.313945,137.704772 206.199972,118.158966 197.872147,100.984071 C194.316984,93.6492284 189.337706,82.8260314 182.11468,77.1423894 C168.575348,66.4913717 133.214963,63.24579 118.531558,77.8379941 C112.877789,83.4527644 109.575346,90.9856131 106.872261,97.5370393 C102.306216,108.618505 100.526927,120.376637 101.105793,131.93504 C101.759793,145.003456 105.559139,157.996114 112.386009,170.069333" id="Fill-29" fill="#EBEBE3" mask="url(#mask-2)"></path>
            <path d="M62,237.55855 C51.8493194,236.496707 49.623863,239.771583 49.623863,239.771583 C49.623863,239.771583 49.62035,239.771583 49.62035,239.776738 C38.8057211,248.646052 34,249 34,249 C35.3963992,248.194167 38.2313531,245.16671 39.1412082,243.713119 C41.3051879,240.852327 43.4797064,238.860941 45.5822094,237.515595 C45.6349037,237.561986 45.6858415,237.613532 45.7367794,237.665078 L45.724484,237.424531 C45.9124271,237.305976 46.0986136,237.190857 46.2883132,237.087765 C49.3076971,235.335208 52.1567028,234.878168 54.5788846,235.025933 C58.8506367,235.283662 61.7892228,237.402194 61.9912176,237.549959 C61.9947306,237.555114 62,237.55855 62,237.55855" id="Fill-30" fill="#ECECEC" mask="url(#mask-2)"></path>
            <path d="M243,237.55855 C253.150044,236.496707 255.375361,239.771583 255.375361,239.771583 C255.375361,239.771583 255.38063,239.771583 255.38063,239.776738 C266.192824,248.646052 271,249 271,249 C269.601932,248.194167 266.768912,245.16671 265.857358,243.713119 C263.69527,240.852327 261.519132,238.860941 259.416761,237.515595 C259.365826,237.561986 259.313135,237.613532 259.2622,237.665078 L259.276251,237.424531 C259.086564,237.305976 258.900389,237.190857 258.710701,237.087765 C255.693263,235.335208 252.84268,234.878168 250.422406,235.025933 C246.150922,235.283662 243.210764,237.402194 243.010538,237.549959 L243,237.55855 Z" id="Fill-31" fill="#ECECEC" mask="url(#mask-2)"></path>
            <path d="M147.958565,666.959003 L90.9933768,644.282873 C88.6620039,643.35537 86,644.822038 86,647.03244 L86,710.969419 C86,713.009924 88.2991575,714.467923 90.5627086,713.861145 L147.527897,698.589431 C148.997934,698.195892 150,697.023945 150,695.697704 L150,669.70857 C150,668.527955 149.203094,667.454826 147.958565,666.959003" id="Fill-32" fill="#252525" mask="url(#mask-2)"></path>
            <path d="M150.502513,665 L173.499162,665 C174.328308,665 175,665.619582 175,666.383176 L175,697.616824 C175,698.380418 174.328308,699 173.499162,699 L150.502513,699 C149.673367,699 149,698.380418 149,697.616824 L149,666.383176 C149,665.619582 149.673367,665 150.502513,665" id="Fill-33" fill="#252525" mask="url(#mask-2)"></path>
            <path d="M149.341969,671.790603 L103.056995,659.157328 C101.162349,658.641369 99,659.457304 99,660.689777 L99,696.311499 C99,697.447979 100.868739,698.260485 102.708117,697.922798 L148.993092,689.413765 C150.186528,689.194354 151,688.541263 151,687.802465 L151,673.323052 C151,672.664819 150.354059,672.066581 149.341969,671.790603" id="Fill-34" fill="#B5B5B5" mask="url(#mask-2)"></path>
            <path d="M176.041489,666.959003 L233.008187,644.282873 C235.337926,643.35537 238,644.822038 238,647.03244 L238,710.969419 C238,713.009924 235.702477,714.467923 233.438866,713.861145 L176.472168,698.589431 C175.002093,698.195892 174,697.023945 174,695.697704 L174,669.70857 C174,668.527955 174.796927,667.454826 176.041489,666.959003" id="Fill-35" fill="#252525" mask="url(#mask-2)"></path>
            <path d="M176.659758,671.790603 L222.944732,659.157328 C224.839378,658.641369 227,659.457304 227,660.689777 L227,696.311499 C227,697.447979 225.132988,698.260485 223.29361,697.922798 L177.008636,689.413765 C175.815199,689.194354 175,688.541263 175,687.802465 L175,673.323052 C175,672.664819 175.647668,672.066581 176.659758,671.790603" id="Fill-36" fill="#B5B5B5" mask="url(#mask-2)"></path>
            <path d="M151,2 L151,120 L111.741214,120 L87,16.8138082 C87,16.8138082 109.397509,2 151,2" id="Fill-37" fill="#000000" mask="url(#mask-2)"></path>
            <path d="M151,2 L151,120 L190.258786,120 L215,16.8138082 C215,16.8138082 192.602491,2 151,2" id="Fill-38" fill="#000000" mask="url(#mask-2)"></path>
            <path d="M189.171863,120 L201,71 C201,71 176.983591,77.7637985 150.884884,77.7637985 C124.787883,77.7637985 100,71 100,71 L111.889582,120 L189.171863,120 Z" id="Fill-39" fill="#E5DCD7" mask="url(#mask-2)"></path>
            <path d="M66.5109738,84.263929 C64.7681817,83.3843642 62.7678341,84.8267816 63.0219555,86.7649223 C66.7788316,115.441143 106.093818,138 154.040347,138 C201.631449,138 240.721504,115.771626 244.967735,87.3949042 C245.30084,85.1693127 242.991426,83.4704273 240.960172,84.4257276 C228.88082,90.1007276 193.336446,104.975872 152.531072,104.975872 C111.330779,104.975872 77.508593,89.8132769 66.5109738,84.263929" id="Fill-40" fill="#000000" mask="url(#mask-2)"></path>
            <path d="M275.066703,340.821417 C268.798115,347.758351 260.418273,351.138148 249.472684,351.138148 C216.270606,351.138148 210.88528,336.214011 205.172376,320.415225 C202.568896,313.175262 200.104338,306.339911 194.808196,301.491461 C192.77412,299.630248 190.587404,298.047959 188.299498,296.692941 C185.783487,295.200183 186.416349,291.389948 189.273659,290.78217 C210.101492,286.364157 258.396203,280.768467 282.055621,280.768467 C284.912931,280.768467 288.427113,282.591801 288.427113,282.591801 C288.427113,282.591801 288.439119,285.730553 288.439119,287.187154 L288.439119,287.643418 C288.641497,290.186444 290.929403,323.264723 275.066703,340.821417 Z M303.703259,285.477456 C304.420159,285.477456 304.999853,284.897226 304.999853,284.179256 L304.999853,274.544337 C304.999853,274.544337 305.210807,270.326048 289.627664,269.160422 C265.023241,267.323314 186.821106,281.818735 177.669482,284.351431 C168.519573,286.882404 152,284.351431 152,284.351431 L152.833525,297.972202 C152.833525,297.972202 175.875517,296.174694 188.83117,308.035836 C201.797114,319.896978 194.405154,360 249.472684,360 C304.541929,360 296.870412,285.477456 296.870412,285.477456 L303.703259,285.477456 Z" id="Fill-41" fill="#000000" mask="url(#mask-2)"></path>
            <path d="M16.5608173,287.642265 L16.5608173,287.185994 C16.5608173,285.731091 16.5728228,282.590567 16.5728228,282.590567 C16.5728228,282.590567 20.0870068,280.767204 22.9443181,280.767204 C46.6037467,280.767204 94.8984803,286.362984 115.726324,290.781067 C118.583635,291.388855 119.214782,295.19915 116.700485,296.691932 C114.412578,298.046972 112.22586,299.629286 110.191784,301.490528 C104.895639,306.339056 102.43108,313.174516 99.8275994,320.416316 C94.1146921,336.213632 88.7293636,351.138007 55.5272702,351.138007 C44.5816759,351.138007 36.2018304,347.758156 29.9332395,340.821111 C14.0705316,323.264137 16.3584387,290.187054 16.5608173,287.642265 Z M8.13123469,285.47799 C8.13123469,285.47799 0.457999189,360 55.5272702,360 C110.594826,360 103.202863,319.896339 116.168813,308.035008 C129.124472,296.173677 152.16476,297.971213 152.16476,297.971213 L153,284.350225 C153,284.350225 136.480419,286.882961 127.330506,284.350225 C118.178878,281.819211 39.9784206,267.321837 15.3722719,269.160696 C-0.210879185,270.324619 7.47640599e-05,274.544697 7.47640599e-05,274.544697 L7.47640599e-05,284.178047 C7.47640599e-05,284.896029 0.581484427,285.47799 1.29666977,285.47799 L8.13123469,285.47799 Z" id="Fill-42" fill="#000000" mask="url(#mask-2)"></path>
        </g>
    </g>
</svg>