<?xml version="1.0" encoding="UTF-8" standalone="yes"?><svg xmlns="http://www.w3.org/2000/svg" version="1.2" viewBox="0 0 720 720" baseProfile="tiny-ps"><title>bimi</title><g id="Layer_2"><g id="Layer_1-2"><rect fill="#0f5584" width="720" height="720"></rect><g><path fill="#6bd3fe" d="M103.19,280.29c10.82,9.25,24.63,14.27,38.87,14.13h.24c3.27-.1,6.49.81,9.24,2.59,1.92,1.3,3.08,2.87,3.08,4.25,0,2.76-5.13,6.88-12.27,6.91h-.07c-3.57.05-7.06-1.07-9.93-3.19.27-.75.42-1.55.43-2.35.02-4.06-3.25-7.36-7.31-7.38-4.06-.02-7.36,3.25-7.38,7.31-.02,3.84,2.92,7.04,6.74,7.36,3.84,4.25,10.34,6.99,17.41,6.99h.11c11.42,0,21.02-7.24,20.99-15.7,0-4.34-2.55-8.5-6.97-11.48-4.18-2.7-9.06-4.11-14.04-4.07h-.3c-12.11.13-23.86-4.14-33.08-12-8.75-7.62-13.58-17.72-13.62-28.42-.09-22.32,20.83-40.65,46.64-40.74h.19c23.21,0,42.81,15.09,46.19,34.58-1.54,1.37-2.43,3.34-2.43,5.41-.03,4.05,3.23,7.36,7.28,7.39s7.36-3.23,7.39-7.28c.02-2.57-1.3-4.96-3.49-6.3-3.76-23.93-27.2-42.52-54.94-42.52h-.22c-30.63.12-55.47,22.32-55.38,49.53.05,13.25,5.95,25.68,16.62,34.98Z"></path><path fill="#6bd3fe" d="M181.27,266.07c-10.83-9.25-24.63-14.27-38.87-14.13h-.31c-7.09,0-12.24-4.06-12.26-6.81s5.14-6.88,12.28-6.91h.06c3.41-.04,6.75.97,9.57,2.9-.31.81-.48,1.67-.49,2.54-.04,4.06,3.22,7.37,7.28,7.41,4.06.04,7.37-3.22,7.41-7.28.03-3.71-2.7-6.86-6.38-7.34-3.84-4.19-10.3-6.96-17.39-6.96h-.11c-11.41,0-21.02,7.23-20.99,15.7.03,8.47,9.65,15.55,21.01,15.55h.1c12.2-.21,24.05,4.04,33.33,11.96,8.74,7.63,13.57,17.72,13.62,28.43.04,10.71-4.72,20.83-13.41,28.52-9.22,7.97-21.04,12.31-33.23,12.21h-.2c-22.92,0-42.35-14.75-46.05-33.91,2.95-2.78,3.08-7.42.3-10.37-2.78-2.95-7.42-3.08-10.37-.3-2.95,2.78-3.08,7.42-.3,10.37.48.51,1.04.95,1.65,1.31,4.19,23.49,27.38,41.67,54.76,41.67h.23c14.32.09,28.19-5.03,39.01-14.41,10.63-9.39,16.41-21.86,16.36-35.13-.05-13.27-5.95-25.71-16.62-35.01Z"></path><path fill="#6bd3fe" d="M267.44,208.08c2.92,2.56,7.36,2.26,9.91-.66,2.56-2.92,2.26-7.36-.66-9.91-2.92-2.56-7.36-2.26-9.91.66-.44.51-.81,1.08-1.09,1.69-32.21,10.12-54.21,39.43-54.06,73.16.15,33.73,22.54,63.04,54.95,72.83,1.68,3.52,5.89,5.01,9.41,3.33,3.52-1.68,5.01-5.89,3.33-9.41-1.68-3.52-5.89-5.01-9.41-3.33-.61.29-1.18.67-1.69,1.13-28.45-8.96-48.08-34.91-48.18-64.58s19.12-55.67,47.41-64.9Z"></path><path fill="#6bd3fe" d="M289.59,318.49h.18c16.83-.03,32.34-9.1,40.63-23.75,1.11-2.07.33-4.65-1.74-5.76-.59-.32-1.26-.49-1.93-.5h0l-34.64.14-.06-16.82,67.1-.24v.9c.11,30.26-20.34,56.93-49.43,65.53-1.21-.95-2.71-1.47-4.25-1.47-3.89-.01-7.06,3.13-7.07,7.02-.01,3.89,3.13,7.06,7.02,7.07,2.93,0,5.56-1.79,6.6-4.53,32.65-9.63,55.64-39.6,55.52-73.64,0-1.72-.07-3.55-.21-5.4-.19-2.19-2.01-3.87-4.2-3.89h0l-75.33.28c-2.31,0-4.19,1.87-4.19,4.19,0,.02,0,.04,0,.06l.09,25.21c.01,1.11.46,2.18,1.24,2.97.79.78,1.86,1.22,2.97,1.22h0l30.75-.12c-7.29,8.34-17.82,13.14-28.9,13.16h-.15c-10.07.03-19.75-3.91-26.93-10.97-14.62-14.12-15.03-37.43-.9-52.05.23-.24.47-.48.71-.72,7.18-7.08,16.86-11.03,26.95-11.01h.18c11.42-.03,22.25,5.03,29.55,13.82.81.96,1.99,1.51,3.24,1.51h0l35.86-.13c2.35-.05,4.21-1.99,4.17-4.34,0-.49-.1-.97-.28-1.43-8.2-20.15-24.45-35.95-44.81-43.58-1.19-3.68-5.13-5.7-8.82-4.52-3.68,1.19-5.7,5.13-4.52,8.82,1.19,3.68,5.13,5.7,8.82,4.52.63-.2,1.23-.49,1.78-.87,16.01,6.06,29.23,17.81,37.13,33l-27.43.11c-17.55-19.17-47.31-20.49-66.48-2.94-.41.38-.82.76-1.22,1.15-17.82,17.5-18.09,46.13-.59,63.96.27.28.54.55.82.82,8.77,8.53,20.55,13.26,32.78,13.19Z"></path><path fill="#6bd3fe" d="M379.94,342.83c-.02,3.89,3.11,7.05,7,7.07,3.89.02,7.05-3.11,7.07-7,.01-2.13-.94-4.15-2.59-5.49l-.48-128.69c3.24-2.17,4.11-6.56,1.94-9.81-2.17-3.24-6.56-4.11-9.81-1.94-3.24,2.17-4.11,6.56-1.94,9.81.39.58.86,1.1,1.4,1.54l.48,128.7c-1.92,1.31-3.07,3.49-3.07,5.81Z"></path><path fill="#6bd3fe" d="M420.2,195.73c-3.89-.02-7.07,3.11-7.09,7-.02,3.89,3.11,7.07,7,7.09,2.25.01,4.37-1.05,5.71-2.86l58.03-.21.09,24.73-63.61.23c-2.32.03-4.19,1.93-4.19,4.25l.07,20.31c.03,2.32,1.93,4.19,4.25,4.19h0l44.31-.17.09,24.73-44.3.17c-2.32.03-4.19,1.93-4.19,4.25l.18,47.83c-3.12,2.32-3.76,6.73-1.44,9.85,2.32,3.12,6.73,3.76,9.85,1.44,3.12-2.32,3.76-6.73,1.44-9.85-.41-.55-.89-1.03-1.44-1.44l-.16-43.68,44.3-.16c2.32-.03,4.19-1.93,4.19-4.25l-.13-33.15c0-2.31-1.89-4.18-4.2-4.18-.02,0-.04,0-.05,0h0l-44.3.16v-11.89l63.63-.24c1.11,0,2.18-.44,2.97-1.23.78-.8,1.22-1.87,1.22-2.99l-.13-33.14c0-2.31-1.87-4.19-4.19-4.19,0,0,0,0-.01,0h0l-62.2.23c-1.33-1.81-3.45-2.87-5.7-2.85Z"></path><path fill="#ffffff" d="M218.37,428.84c-3.55-12.77-10.61-24.3-20.38-33.27-1.14-1.06-2.32-2.07-3.52-3.06-8.22-6.71-17.75-11.65-27.97-14.51l-1.83-.49c-6.42-1.66-13.02-2.5-19.65-2.52h-14.48c-2.38-2.92-6.68-3.37-9.6-.99-1.45,1.18-2.35,2.89-2.5,4.75v.6c0,3.78,3.06,6.85,6.84,6.85,2.26,0,4.37-1.11,5.65-2.97l13.82-.05h.27c37.2,0,67.46,28.38,67.59,63.38.01,17.07-7.09,33.38-19.6,44.99-12.93,12.2-30.05,18.96-47.83,18.9-.27,0-.54.03-.8.09h-13.72c-2.25-3.02-6.53-3.65-9.55-1.4-1.74,1.29-2.76,3.34-2.75,5.5,0,.55.07,1.1.21,1.64.88,3.66,4.56,5.91,8.22,5.03,1.56-.38,2.95-1.3,3.9-2.59h14.52c.27,0,.54-.03.81-.09,19.59-.14,38.39-7.7,52.63-21.15,14.13-13.17,22.14-31.62,22.1-50.94-.01-4.28-.44-8.55-1.26-12.76-.32-1.68-.69-3.35-1.12-4.94Z"></path><path fill="#ffffff" d="M95.44,509.21l-.46-124.36c1.72-1.28,2.73-3.3,2.73-5.44.01-.2.01-.4,0-.6-.31-3.77-3.61-6.57-7.38-6.26-3.77.31-6.57,3.61-6.26,7.38.16,1.97,1.17,3.78,2.76,4.95l.47,124.36c-3.03,2.26-3.66,6.55-1.4,9.58s6.55,3.66,9.58,1.4c3.03-2.26,3.66-6.55,1.4-9.58-.4-.53-.87-1.01-1.4-1.4l-.03-.03Z"></path><path fill="#ffffff" d="M125.51,485.8h0l24.45-.09c.21,0,.42-.02.63-.05,9.68-.23,18.84-4.41,25.35-11.56,14.14-15.55,14.05-39.33-.2-54.77-6.69-7.23-16.08-11.35-25.92-11.37h-.14l-24.45.09c-2.26.01-4.08,1.85-4.07,4.1l.26,69.59c.01,2.26,1.85,4.08,4.1,4.07ZM149.72,416.09h.11c7.6.03,14.83,3.23,19.97,8.82,11.3,12.3,11.38,31.19.17,43.58-5.13,5.65-12.39,8.9-20.03,8.96-.19-.01-.38-.01-.57,0l-19.79.07-.22-61.41,20.37-.03Z"></path><path fill="#ffffff" d="M564.23,483.46c3.85,4.25,10.37,7,17.45,7h.11c11.44,0,21.07-7.25,21.04-15.73,0-4.34-2.56-8.5-6.99-11.5-4.19-2.71-9.08-4.12-14.06-4.08h-.31c-12.15.14-23.93-4.12-33.18-11.99-8.76-7.63-13.61-17.75-13.65-28.48-.09-22.42,20.89-40.73,46.77-40.83h.19c23.26,0,42.9,15.13,46.28,34.64-3,2.72-3.23,7.36-.51,10.36s7.36,3.23,10.36.51c3-2.72,3.23-7.36.51-10.36-.46-.51-.99-.95-1.58-1.31-3.77-23.97-27.26-42.61-55.06-42.61h-.23c-30.69.12-55.58,22.39-55.48,49.64.05,13.29,5.96,25.74,16.67,35.08,10.85,9.27,24.68,14.29,38.95,14.15h.24c3.28-.1,6.5.81,9.25,2.6,1.93,1.3,3.09,2.87,3.09,4.25,0,2.77-5.14,6.9-12.29,6.92h-.07c-3.58.05-7.07-1.07-9.95-3.19.27-.75.42-1.55.43-2.35,0-4.06-3.31-7.35-7.37-7.34-2.95,0-5.61,1.77-6.76,4.48-1.57,3.73.19,8.03,3.92,9.6.72.3,1.49.49,2.27.55h-.02Z"></path><path fill="#ffffff" d="M598.04,424.44c2.89,0,5.51-1.7,6.7-4.34.44-.95.66-1.98.66-3.02-.01-3.67-2.74-6.77-6.38-7.25-3.84-4.2-10.32-6.98-17.42-6.98h-.11c-11.43,0-21.07,7.25-21.04,15.74.03,8.49,9.63,15.56,21.02,15.56h.1c12.22-.2,24.1,4.06,33.4,11.99,8.76,7.64,13.61,17.76,13.65,28.49s-4.73,20.88-13.44,28.58c-9.24,7.99-21.08,12.34-33.29,12.26h-.19c-22.97,0-42.43-14.8-46.14-34.01,2.94-2.81,3.04-7.46.24-10.4-2.81-2.94-7.46-3.04-10.4-.24-2.94,2.81-3.04,7.46-.24,10.4.49.51,1.05.95,1.66,1.3,4.2,23.54,27.44,41.75,54.88,41.75h.19c14.35.08,28.24-5.05,39.08-14.45,10.63-9.41,16.45-21.91,16.4-35.19s-5.96-25.74-16.66-35.08c-10.85-9.27-24.69-14.3-38.96-14.16h-.31c-7.11,0-12.27-4.07-12.28-6.82s5.14-6.9,12.29-6.93h.07c3.41-.04,6.75.98,9.57,2.91-.31.81-.47,1.67-.48,2.54,0,4.06,3.3,7.35,7.37,7.35.01,0,.03,0,.04,0Z"></path><path fill="#ffffff" d="M247.07,509.39l-.47-125.55c1.72-1.28,2.73-3.3,2.74-5.44,0-.32-.03-.64-.07-.96-.51-3.75-3.96-6.37-7.7-5.87-3.75.51-6.37,3.96-5.87,7.7.25,1.84,1.23,3.49,2.72,4.59l.47,125.55c-3.02,2.26-3.63,6.53-1.37,9.55,1.29,1.73,3.32,2.74,5.48,2.74,3.78,0,6.85-3.06,6.86-6.85v-.29c-.1-2.06-1.12-3.97-2.78-5.19Z"></path><path fill="#ffffff" d="M344.33,479.32c-.74-.81-1.81-1.24-2.9-1.19l-61.88.22v-11.69l43.1-.16c2.25,0,4.08-1.84,4.07-4.09,0,0,0,0,0-.01l-.12-32.28c-.01-1.08-.45-2.12-1.21-2.88-.76-.79-1.81-1.22-2.9-1.19l-43.09.16v-11.6l61.88-.22c2.26-.01,4.09-1.85,4.08-4.11l-.13-32.27c0-1.08-.43-2.12-1.2-2.89-.81-.71-1.83-1.13-2.9-1.19l-61.08.23c-2.25-3.02-6.51-3.65-9.53-1.4-1.51,1.12-2.48,2.81-2.7,4.67-.03.28-.05.56-.05.84.03,3.77,3.11,6.8,6.88,6.76,2.11-.02,4.09-1.01,5.37-2.69l56.98-.21.1,24.11-61.89.22c-2.26.01-4.08,1.85-4.07,4.1l.07,19.78c0,2.24,1.81,4.07,4.05,4.07.01,0,.02,0,.03,0h0l43.1-.16.09,24.1-43.1.16c-1.08.01-2.12.45-2.88,1.21-.77.77-1.2,1.81-1.19,2.9l.07,19.86c.01,2.25,1.84,4.07,4.09,4.07h0l61.89-.22.09,24.1-57.05.21c-2.29-2.99-6.58-3.55-9.57-1.26-1.62,1.25-2.6,3.16-2.67,5.2v.22c-.02,3.77,3.02,6.84,6.79,6.86,2.21.01,4.29-1.05,5.58-2.85l61.04-.22c2.26-.01,4.08-1.85,4.07-4.1l-.12-32.28c-.01-1.08-.45-2.12-1.21-2.88Z"></path><path fill="#ffffff" d="M425.22,508.4l-51.51-126.6c.73-1.11,1.12-2.4,1.12-3.73v-.64c-.33-3.77-3.66-6.55-7.42-6.21-3.77.33-6.55,3.66-6.21,7.42.25,2.79,2.17,5.15,4.86,5.95l51.68,127.01c-1.89,3.27-.76,7.45,2.51,9.34,3.27,1.89,7.45.76,9.34-2.51.6-1.04.91-2.21.91-3.41v-.46c-.21-2.99-2.34-5.49-5.26-6.18Z"></path><path fill="#ffffff" d="M511.6,371.19c-3.55,0-6.51,2.72-6.82,6.25v.61c.02,1.27.38,2.5,1.06,3.57l-50.44,126.87c-2.75.8-4.71,3.23-4.91,6.09v.46c.15,3.78,3.34,6.73,7.12,6.58,3.57-.14,6.44-3.01,6.58-6.58,0-1.3-.36-2.57-1.06-3.67l50.26-126.74c3.65-.98,5.81-4.73,4.83-8.37-.8-2.99-3.52-5.07-6.61-5.06Z"></path><path fill="#ffffff" d="M405.45,384.62l30.91,84.95c.59,1.62,2.13,2.7,3.85,2.7h0c1.72,0,3.26-1.1,3.84-2.72l30.23-85.03c2.83-.9,4.75-3.52,4.76-6.48.01-.2.01-.4,0-.61-.3-3.77-3.59-6.59-7.36-6.29-3.59.28-6.35,3.3-6.31,6.9,0,1.37.42,2.72,1.2,3.85l-26.39,74.2-27.06-74.33c2.05-3.18,1.13-7.41-2.05-9.46s-7.41-1.13-9.46,2.05c-.6.93-.96,1.99-1.06,3.09v.64c0,3.03,2,5.69,4.91,6.55Z"></path></g></g></g></svg>
